G04 EAGLE Gerber RS-274X export*
G75*
%MOMM*%
%FSLAX34Y34*%
%LPD*%
%INSoldermask Top*%
%IPPOS*%
%AMOC8*
5,1,8,0,0,1.08239X$1,22.5*%
G01*
%ADD10C,4.267200*%
%ADD11C,0.457909*%
%ADD12R,0.753200X1.403200*%
%ADD13R,1.203200X4.803200*%
%ADD14R,3.603200X1.803200*%
%ADD15C,0.505344*%
%ADD16R,1.303200X1.203200*%
%ADD17R,1.203200X1.353200*%
%ADD18C,1.053200*%
%ADD19R,0.965200X1.727200*%
%ADD20R,1.803200X2.003200*%
%ADD21C,0.653200*%
%ADD22R,3.495038X1.534156*%
%ADD23C,1.203200*%
%ADD24R,1.473200X1.673200*%
%ADD25R,0.603200X1.603200*%
%ADD26R,1.700000X2.000000*%
%ADD27R,1.700000X2.700000*%
%ADD28C,1.270000*%
%ADD29C,1.703200*%
%ADD30C,1.219200*%
%ADD31C,1.092200*%

G36*
X355676Y709526D02*
X355676Y709526D01*
X391668Y712596D01*
X391781Y712620D01*
X391894Y712636D01*
X391935Y712653D01*
X391979Y712662D01*
X392082Y712714D01*
X392188Y712757D01*
X392224Y712784D01*
X392264Y712804D01*
X392351Y712879D01*
X392443Y712948D01*
X392471Y712983D01*
X392504Y713012D01*
X392524Y713041D01*
X452321Y729063D01*
X452380Y729088D01*
X452443Y729103D01*
X452527Y729147D01*
X452615Y729183D01*
X452667Y729222D01*
X452724Y729252D01*
X452794Y729316D01*
X452870Y729373D01*
X452911Y729423D01*
X452959Y729467D01*
X453011Y729546D01*
X453071Y729620D01*
X453097Y729679D01*
X453133Y729733D01*
X453164Y729823D01*
X453173Y729844D01*
X483893Y743010D01*
X483935Y743034D01*
X483981Y743051D01*
X484119Y743135D01*
X513754Y763790D01*
X513839Y763867D01*
X513930Y763938D01*
X513957Y763973D01*
X513990Y764003D01*
X514053Y764099D01*
X514123Y764190D01*
X514141Y764231D01*
X514165Y764268D01*
X514203Y764376D01*
X514248Y764482D01*
X514255Y764526D01*
X514270Y764568D01*
X514279Y764683D01*
X514297Y764796D01*
X514292Y764841D01*
X514296Y764885D01*
X514277Y764999D01*
X514270Y765065D01*
X557383Y808177D01*
X557423Y808228D01*
X557469Y808273D01*
X557520Y808353D01*
X557578Y808428D01*
X557604Y808488D01*
X557638Y808543D01*
X557666Y808633D01*
X557704Y808720D01*
X557714Y808784D01*
X557734Y808846D01*
X557739Y808940D01*
X557754Y809034D01*
X557748Y809099D01*
X557751Y809158D01*
X578092Y836347D01*
X578116Y836389D01*
X578147Y836427D01*
X578225Y836568D01*
X593015Y868107D01*
X593046Y868126D01*
X593122Y868161D01*
X593180Y868209D01*
X593245Y868249D01*
X593303Y868309D01*
X593368Y868362D01*
X593413Y868423D01*
X593465Y868478D01*
X593507Y868551D01*
X593556Y868618D01*
X593584Y868689D01*
X593622Y868755D01*
X593673Y868908D01*
X609780Y929017D01*
X609788Y929081D01*
X609807Y929143D01*
X609810Y929238D01*
X609823Y929332D01*
X609815Y929397D01*
X609818Y929461D01*
X609797Y929554D01*
X609786Y929648D01*
X609763Y929709D01*
X609749Y929772D01*
X609706Y929856D01*
X609672Y929945D01*
X609635Y929998D01*
X609606Y930056D01*
X609543Y930127D01*
X609488Y930204D01*
X609439Y930246D01*
X609396Y930295D01*
X609318Y930348D01*
X609245Y930410D01*
X609187Y930438D01*
X609134Y930475D01*
X609045Y930507D01*
X608959Y930548D01*
X608896Y930561D01*
X608835Y930583D01*
X608721Y930602D01*
X612637Y963432D01*
X612637Y963481D01*
X612645Y963529D01*
X612641Y963690D01*
X609659Y998653D01*
X609699Y998709D01*
X609726Y998780D01*
X609762Y998847D01*
X609782Y998929D01*
X609811Y999007D01*
X609820Y999082D01*
X609838Y999156D01*
X609837Y999240D01*
X609846Y999323D01*
X609836Y999398D01*
X609835Y999474D01*
X609803Y999632D01*
X593697Y1059742D01*
X593672Y1059801D01*
X593657Y1059864D01*
X593613Y1059948D01*
X593577Y1060036D01*
X593538Y1060088D01*
X593508Y1060145D01*
X593444Y1060215D01*
X593387Y1060291D01*
X593337Y1060332D01*
X593293Y1060380D01*
X593214Y1060432D01*
X593140Y1060492D01*
X593081Y1060518D01*
X593027Y1060554D01*
X592937Y1060585D01*
X592851Y1060624D01*
X592787Y1060636D01*
X592726Y1060656D01*
X592631Y1060664D01*
X592538Y1060681D01*
X592474Y1060676D01*
X592444Y1060678D01*
X579445Y1091009D01*
X579420Y1091051D01*
X579403Y1091097D01*
X579320Y1091235D01*
X559162Y1120157D01*
X559169Y1120178D01*
X559176Y1120254D01*
X559193Y1120328D01*
X559190Y1120412D01*
X559198Y1120495D01*
X559185Y1120570D01*
X559183Y1120646D01*
X559160Y1120726D01*
X559146Y1120809D01*
X559116Y1120879D01*
X559095Y1120952D01*
X559052Y1121024D01*
X559019Y1121100D01*
X558972Y1121160D01*
X558933Y1121226D01*
X558827Y1121346D01*
X514823Y1165350D01*
X514772Y1165389D01*
X514728Y1165436D01*
X514647Y1165486D01*
X514572Y1165545D01*
X514513Y1165570D01*
X514458Y1165604D01*
X514367Y1165633D01*
X514280Y1165671D01*
X514216Y1165681D01*
X514155Y1165701D01*
X514060Y1165706D01*
X513966Y1165721D01*
X513902Y1165715D01*
X513837Y1165718D01*
X513744Y1165700D01*
X513650Y1165691D01*
X513589Y1165669D01*
X513525Y1165656D01*
X513440Y1165615D01*
X513350Y1165583D01*
X513297Y1165547D01*
X513238Y1165519D01*
X513191Y1165479D01*
X486414Y1185513D01*
X486371Y1185537D01*
X486333Y1185568D01*
X486192Y1185646D01*
X454654Y1200436D01*
X454634Y1200467D01*
X454599Y1200543D01*
X454551Y1200601D01*
X454511Y1200666D01*
X454451Y1200724D01*
X454398Y1200789D01*
X454337Y1200834D01*
X454282Y1200886D01*
X454209Y1200928D01*
X454142Y1200977D01*
X454071Y1201006D01*
X454005Y1201043D01*
X453852Y1201094D01*
X393743Y1217201D01*
X393679Y1217209D01*
X393617Y1217228D01*
X393522Y1217231D01*
X393428Y1217244D01*
X393364Y1217236D01*
X393299Y1217239D01*
X393206Y1217218D01*
X393112Y1217207D01*
X393051Y1217184D01*
X392988Y1217170D01*
X392904Y1217127D01*
X392815Y1217093D01*
X392762Y1217056D01*
X392704Y1217027D01*
X392633Y1216964D01*
X392615Y1216952D01*
X359040Y1220956D01*
X358991Y1220956D01*
X358943Y1220964D01*
X358782Y1220960D01*
X322790Y1217890D01*
X322678Y1217866D01*
X322564Y1217850D01*
X322523Y1217833D01*
X322479Y1217824D01*
X322376Y1217772D01*
X322270Y1217729D01*
X322234Y1217702D01*
X322195Y1217682D01*
X322108Y1217607D01*
X322016Y1217538D01*
X321988Y1217503D01*
X321954Y1217474D01*
X321889Y1217380D01*
X321817Y1217290D01*
X321798Y1217249D01*
X321773Y1217213D01*
X321733Y1217105D01*
X321685Y1217000D01*
X321678Y1216956D01*
X321662Y1216915D01*
X321653Y1216829D01*
X263018Y1201118D01*
X262959Y1201093D01*
X262896Y1201078D01*
X262812Y1201034D01*
X262724Y1200998D01*
X262672Y1200959D01*
X262615Y1200929D01*
X262545Y1200865D01*
X262469Y1200808D01*
X262428Y1200758D01*
X262380Y1200714D01*
X262328Y1200635D01*
X262268Y1200561D01*
X262242Y1200502D01*
X262206Y1200448D01*
X262175Y1200358D01*
X262136Y1200272D01*
X262124Y1200208D01*
X262104Y1200147D01*
X262096Y1200052D01*
X262079Y1199959D01*
X262084Y1199895D01*
X262079Y1199830D01*
X262096Y1199736D01*
X262103Y1199642D01*
X262123Y1199581D01*
X262134Y1199517D01*
X262192Y1199366D01*
X290982Y1136081D01*
X290995Y1136060D01*
X291004Y1136036D01*
X291079Y1135924D01*
X291149Y1135811D01*
X291167Y1135793D01*
X291181Y1135772D01*
X291282Y1135683D01*
X291378Y1135590D01*
X291400Y1135577D01*
X291419Y1135561D01*
X291538Y1135499D01*
X291655Y1135433D01*
X291679Y1135427D01*
X291702Y1135415D01*
X291833Y1135385D01*
X291961Y1135350D01*
X291987Y1135350D01*
X292012Y1135344D01*
X292146Y1135348D01*
X292279Y1135346D01*
X292304Y1135352D01*
X292330Y1135352D01*
X292459Y1135389D01*
X292589Y1135421D01*
X292611Y1135433D01*
X292636Y1135440D01*
X292751Y1135507D01*
X292869Y1135570D01*
X292888Y1135587D01*
X292910Y1135600D01*
X293005Y1135694D01*
X293104Y1135785D01*
X293118Y1135806D01*
X293136Y1135824D01*
X293227Y1135957D01*
X295182Y1139232D01*
X297554Y1142093D01*
X300338Y1144556D01*
X303466Y1146562D01*
X306866Y1148064D01*
X310455Y1149026D01*
X314150Y1149425D01*
X317863Y1149252D01*
X321505Y1148511D01*
X324990Y1147219D01*
X328320Y1145360D01*
X328333Y1145355D01*
X328345Y1145346D01*
X328481Y1145295D01*
X328615Y1145241D01*
X328629Y1145239D01*
X328642Y1145234D01*
X328787Y1145218D01*
X328931Y1145199D01*
X328944Y1145200D01*
X328958Y1145199D01*
X329102Y1145219D01*
X329246Y1145237D01*
X329259Y1145242D01*
X329273Y1145244D01*
X329407Y1145299D01*
X329543Y1145352D01*
X329554Y1145360D01*
X329567Y1145365D01*
X329683Y1145452D01*
X329801Y1145537D01*
X329810Y1145547D01*
X329822Y1145556D01*
X329913Y1145669D01*
X330006Y1145780D01*
X330012Y1145793D01*
X330021Y1145804D01*
X330080Y1145936D01*
X330143Y1146067D01*
X330146Y1146081D01*
X330152Y1146094D01*
X330177Y1146236D01*
X330205Y1146379D01*
X330204Y1146393D01*
X330207Y1146407D01*
X330204Y1146568D01*
X330168Y1147029D01*
X330331Y1147181D01*
X330331Y1147182D01*
X333047Y1149720D01*
X333141Y1149807D01*
X337425Y1152828D01*
X342082Y1155234D01*
X347025Y1156978D01*
X352161Y1158028D01*
X357392Y1158365D01*
X362619Y1157982D01*
X367745Y1156886D01*
X372673Y1155097D01*
X377309Y1152651D01*
X381565Y1149592D01*
X385426Y1145918D01*
X385477Y1145881D01*
X385522Y1145836D01*
X385605Y1145787D01*
X385682Y1145730D01*
X385741Y1145706D01*
X385796Y1145673D01*
X385888Y1145646D01*
X385977Y1145611D01*
X386040Y1145602D01*
X386101Y1145584D01*
X386197Y1145581D01*
X386292Y1145568D01*
X386319Y1145572D01*
X386374Y1145558D01*
X386503Y1145520D01*
X386528Y1145519D01*
X386553Y1145513D01*
X386687Y1145514D01*
X386821Y1145509D01*
X386845Y1145515D01*
X386871Y1145515D01*
X387001Y1145549D01*
X387131Y1145578D01*
X387154Y1145589D01*
X387179Y1145596D01*
X387324Y1145665D01*
X390654Y1147524D01*
X394139Y1148816D01*
X397781Y1149557D01*
X401494Y1149730D01*
X405189Y1149331D01*
X408779Y1148369D01*
X412178Y1146867D01*
X415307Y1144861D01*
X418090Y1142398D01*
X420152Y1139912D01*
X420462Y1139537D01*
X421763Y1137357D01*
X421734Y1137298D01*
X421731Y1137284D01*
X421729Y1137280D01*
X421721Y1137238D01*
X421715Y1137209D01*
X421686Y1137122D01*
X421681Y1137054D01*
X421667Y1136987D01*
X421670Y1136896D01*
X421664Y1136805D01*
X421677Y1136738D01*
X421679Y1136670D01*
X421705Y1136582D01*
X421722Y1136492D01*
X421751Y1136430D01*
X421770Y1136365D01*
X421817Y1136286D01*
X421856Y1136203D01*
X421899Y1136151D01*
X421934Y1136092D01*
X421999Y1136028D01*
X422057Y1135957D01*
X422112Y1135917D01*
X422161Y1135869D01*
X422240Y1135823D01*
X422313Y1135769D01*
X422377Y1135743D01*
X422436Y1135709D01*
X422524Y1135684D01*
X422608Y1135650D01*
X422676Y1135641D01*
X422742Y1135623D01*
X422833Y1135620D01*
X422924Y1135608D01*
X422991Y1135617D01*
X423059Y1135615D01*
X423218Y1135641D01*
X423325Y1135666D01*
X423328Y1135666D01*
X423471Y1135643D01*
X423485Y1135645D01*
X423499Y1135643D01*
X423643Y1135660D01*
X423788Y1135674D01*
X423801Y1135679D01*
X423815Y1135681D01*
X423950Y1135734D01*
X424087Y1135783D01*
X424098Y1135791D01*
X424111Y1135796D01*
X424219Y1135874D01*
X428410Y1136846D01*
X433630Y1137320D01*
X438866Y1137075D01*
X444019Y1136114D01*
X448992Y1134456D01*
X453690Y1132132D01*
X458026Y1129186D01*
X461917Y1125674D01*
X465290Y1121661D01*
X468082Y1117225D01*
X470239Y1112447D01*
X471745Y1107335D01*
X471771Y1107277D01*
X471787Y1107216D01*
X471834Y1107132D01*
X471873Y1107044D01*
X471912Y1106994D01*
X471943Y1106938D01*
X472009Y1106869D01*
X472069Y1106793D01*
X472119Y1106755D01*
X472163Y1106709D01*
X472245Y1106658D01*
X472321Y1106599D01*
X472379Y1106574D01*
X472433Y1106541D01*
X472525Y1106512D01*
X472613Y1106474D01*
X472676Y1106464D01*
X472736Y1106445D01*
X472832Y1106440D01*
X472927Y1106425D01*
X472990Y1106432D01*
X473054Y1106428D01*
X473148Y1106447D01*
X473244Y1106456D01*
X473303Y1106478D01*
X473366Y1106490D01*
X473452Y1106532D01*
X473543Y1106565D01*
X473595Y1106601D01*
X473605Y1106606D01*
X477311Y1106552D01*
X480975Y1105929D01*
X484499Y1104750D01*
X487801Y1103043D01*
X490801Y1100850D01*
X493429Y1098222D01*
X495622Y1095222D01*
X497329Y1091920D01*
X498508Y1088396D01*
X499131Y1084732D01*
X499179Y1081443D01*
X499156Y1081408D01*
X499110Y1081358D01*
X499068Y1081277D01*
X499017Y1081201D01*
X498994Y1081137D01*
X498962Y1081077D01*
X498941Y1080987D01*
X498910Y1080901D01*
X498904Y1080833D01*
X498889Y1080767D01*
X498890Y1080676D01*
X498882Y1080584D01*
X498893Y1080517D01*
X498894Y1080449D01*
X498919Y1080361D01*
X498933Y1080271D01*
X498961Y1080208D01*
X498979Y1080143D01*
X499024Y1080063D01*
X499061Y1079979D01*
X499103Y1079926D01*
X499137Y1079867D01*
X499201Y1079801D01*
X499257Y1079729D01*
X499311Y1079687D01*
X499359Y1079639D01*
X499437Y1079591D01*
X499509Y1079535D01*
X499572Y1079508D01*
X499630Y1079473D01*
X499781Y1079416D01*
X504879Y1077864D01*
X509637Y1075665D01*
X514049Y1072834D01*
X518031Y1069425D01*
X521508Y1065503D01*
X524416Y1061141D01*
X526698Y1056422D01*
X528311Y1051435D01*
X529226Y1046274D01*
X529425Y1041035D01*
X528905Y1035819D01*
X527653Y1030639D01*
X527646Y1030576D01*
X527630Y1030515D01*
X527629Y1030419D01*
X527618Y1030323D01*
X527627Y1030260D01*
X527626Y1030197D01*
X527649Y1030103D01*
X527662Y1030008D01*
X527687Y1029950D01*
X527702Y1029888D01*
X527747Y1029803D01*
X527784Y1029714D01*
X527822Y1029663D01*
X527852Y1029607D01*
X527917Y1029536D01*
X527974Y1029460D01*
X528024Y1029420D01*
X528067Y1029373D01*
X528147Y1029320D01*
X528222Y1029260D01*
X528280Y1029234D01*
X528333Y1029199D01*
X528424Y1029169D01*
X528512Y1029129D01*
X528574Y1029118D01*
X528634Y1029097D01*
X528730Y1029090D01*
X528825Y1029073D01*
X528888Y1029078D01*
X528951Y1029074D01*
X529046Y1029090D01*
X529142Y1029098D01*
X529202Y1029118D01*
X529224Y1029122D01*
X531811Y1027578D01*
X534672Y1025206D01*
X537135Y1022422D01*
X539141Y1019294D01*
X540643Y1015894D01*
X541605Y1012305D01*
X542004Y1008610D01*
X541831Y1004897D01*
X541090Y1001255D01*
X539798Y997770D01*
X538421Y995304D01*
X538365Y995292D01*
X538304Y995262D01*
X538239Y995241D01*
X538162Y995193D01*
X538080Y995152D01*
X538028Y995108D01*
X537970Y995072D01*
X537907Y995005D01*
X537838Y994946D01*
X537799Y994890D01*
X537752Y994841D01*
X537707Y994761D01*
X537655Y994686D01*
X537631Y994622D01*
X537598Y994562D01*
X537575Y994474D01*
X537542Y994388D01*
X537535Y994321D01*
X537518Y994255D01*
X537517Y994163D01*
X537507Y994072D01*
X537517Y994005D01*
X537517Y993937D01*
X537539Y993848D01*
X537552Y993757D01*
X537578Y993694D01*
X537595Y993628D01*
X537639Y993548D01*
X537673Y993463D01*
X537714Y993409D01*
X537747Y993349D01*
X537849Y993225D01*
X541488Y989331D01*
X544509Y985048D01*
X546914Y980390D01*
X548659Y975447D01*
X549709Y970312D01*
X550046Y965081D01*
X549663Y959853D01*
X548566Y954727D01*
X546778Y949799D01*
X544332Y945164D01*
X541273Y940907D01*
X537599Y937046D01*
X537561Y936995D01*
X537516Y936950D01*
X537467Y936867D01*
X537410Y936790D01*
X537387Y936731D01*
X537354Y936677D01*
X537327Y936584D01*
X537291Y936495D01*
X537283Y936432D01*
X537265Y936371D01*
X537262Y936275D01*
X537249Y936180D01*
X537257Y936117D01*
X537255Y936053D01*
X537276Y935960D01*
X537287Y935864D01*
X537310Y935805D01*
X537324Y935743D01*
X537367Y935657D01*
X537402Y935568D01*
X537439Y935516D01*
X537468Y935459D01*
X537531Y935387D01*
X537587Y935309D01*
X537636Y935268D01*
X537678Y935220D01*
X537757Y935166D01*
X537831Y935104D01*
X537888Y935077D01*
X537940Y935041D01*
X538031Y935009D01*
X538117Y934967D01*
X538180Y934955D01*
X538239Y934933D01*
X538398Y934908D01*
X538547Y934893D01*
X540103Y932106D01*
X541395Y928621D01*
X542136Y924979D01*
X542309Y921266D01*
X541910Y917571D01*
X540948Y913981D01*
X539446Y910582D01*
X537440Y907453D01*
X534977Y904670D01*
X532116Y902298D01*
X529936Y900997D01*
X529877Y901026D01*
X529788Y901046D01*
X529701Y901074D01*
X529633Y901079D01*
X529566Y901093D01*
X529475Y901090D01*
X529384Y901096D01*
X529317Y901084D01*
X529249Y901081D01*
X529161Y901055D01*
X529071Y901038D01*
X529009Y901009D01*
X528944Y900990D01*
X528865Y900943D01*
X528782Y900904D01*
X528730Y900861D01*
X528671Y900826D01*
X528607Y900761D01*
X528536Y900703D01*
X528496Y900648D01*
X528448Y900599D01*
X528402Y900520D01*
X528348Y900447D01*
X528322Y900383D01*
X528288Y900325D01*
X528263Y900237D01*
X528229Y900152D01*
X528220Y900084D01*
X528202Y900019D01*
X528199Y899927D01*
X528187Y899836D01*
X528195Y899769D01*
X528194Y899701D01*
X528220Y899542D01*
X528245Y899435D01*
X528245Y899432D01*
X528222Y899289D01*
X528224Y899275D01*
X528222Y899261D01*
X528239Y899117D01*
X528253Y898972D01*
X528258Y898959D01*
X528260Y898945D01*
X528313Y898810D01*
X528362Y898673D01*
X528370Y898662D01*
X528375Y898649D01*
X528453Y898541D01*
X529425Y894351D01*
X529899Y889130D01*
X529654Y883894D01*
X528693Y878741D01*
X527035Y873768D01*
X524711Y869070D01*
X521765Y864734D01*
X518253Y860843D01*
X514240Y857470D01*
X509804Y854679D01*
X505026Y852521D01*
X499914Y851015D01*
X499856Y850989D01*
X499795Y850973D01*
X499711Y850926D01*
X499623Y850887D01*
X499573Y850848D01*
X499517Y850817D01*
X499448Y850751D01*
X499372Y850691D01*
X499334Y850641D01*
X499288Y850597D01*
X499272Y850572D01*
X499156Y850507D01*
X499138Y850489D01*
X499116Y850476D01*
X499023Y850380D01*
X498926Y850288D01*
X498912Y850266D01*
X498895Y850248D01*
X498828Y850131D01*
X498757Y850018D01*
X498750Y849994D01*
X498737Y849971D01*
X498702Y849842D01*
X498661Y849715D01*
X498660Y849689D01*
X498653Y849665D01*
X498641Y849504D01*
X498586Y845690D01*
X497962Y842026D01*
X496783Y838502D01*
X495076Y835200D01*
X492883Y832200D01*
X490255Y829572D01*
X487255Y827378D01*
X483953Y825672D01*
X480429Y824493D01*
X476765Y823869D01*
X472951Y823814D01*
X472937Y823812D01*
X472923Y823814D01*
X472779Y823790D01*
X472636Y823770D01*
X472623Y823765D01*
X472609Y823762D01*
X472476Y823704D01*
X472342Y823649D01*
X472331Y823640D01*
X472318Y823635D01*
X472203Y823545D01*
X472087Y823458D01*
X472078Y823447D01*
X472067Y823438D01*
X471979Y823324D01*
X471888Y823210D01*
X471882Y823197D01*
X471874Y823186D01*
X471817Y823053D01*
X471757Y822921D01*
X471754Y822907D01*
X471749Y822894D01*
X471727Y822750D01*
X471701Y822607D01*
X471702Y822593D01*
X471700Y822580D01*
X471715Y822435D01*
X471726Y822290D01*
X471730Y822277D01*
X471732Y822263D01*
X471781Y822127D01*
X471828Y821989D01*
X471836Y821977D01*
X471841Y821964D01*
X471923Y821826D01*
X472006Y821706D01*
X470748Y817576D01*
X468549Y812818D01*
X467607Y811349D01*
X467606Y811349D01*
X466792Y810080D01*
X465718Y808406D01*
X462309Y804424D01*
X458387Y800946D01*
X454025Y798039D01*
X449306Y795757D01*
X444319Y794144D01*
X439158Y793229D01*
X433919Y793030D01*
X428704Y793550D01*
X423523Y794801D01*
X423461Y794808D01*
X423378Y794831D01*
X423352Y794831D01*
X423327Y794837D01*
X423228Y794834D01*
X423207Y794837D01*
X423185Y794834D01*
X423060Y794835D01*
X423035Y794829D01*
X423009Y794829D01*
X422880Y794792D01*
X422750Y794760D01*
X422728Y794748D01*
X422703Y794741D01*
X422588Y794674D01*
X422470Y794611D01*
X422451Y794594D01*
X422429Y794581D01*
X422334Y794487D01*
X422235Y794396D01*
X422221Y794375D01*
X422203Y794357D01*
X422112Y794224D01*
X420157Y790949D01*
X417785Y788088D01*
X415002Y785625D01*
X411873Y783619D01*
X408473Y782117D01*
X404884Y781155D01*
X401189Y780756D01*
X397476Y780929D01*
X393834Y781670D01*
X390349Y782962D01*
X387019Y784821D01*
X387006Y784826D01*
X386994Y784835D01*
X386858Y784886D01*
X386724Y784940D01*
X386710Y784942D01*
X386697Y784947D01*
X386552Y784963D01*
X386408Y784982D01*
X386395Y784981D01*
X386381Y784982D01*
X386237Y784962D01*
X386093Y784944D01*
X386080Y784939D01*
X386066Y784937D01*
X385932Y784882D01*
X385796Y784829D01*
X385785Y784821D01*
X385772Y784816D01*
X385656Y784729D01*
X385538Y784644D01*
X385529Y784634D01*
X385517Y784625D01*
X385426Y784512D01*
X385361Y784434D01*
X385335Y784420D01*
X385211Y784318D01*
X384939Y784063D01*
X384938Y784063D01*
X383581Y782794D01*
X383580Y782794D01*
X382223Y781525D01*
X382222Y781525D01*
X381318Y780679D01*
X377034Y777658D01*
X372376Y775253D01*
X367433Y773508D01*
X362298Y772458D01*
X357067Y772121D01*
X351839Y772504D01*
X346713Y773601D01*
X341786Y775389D01*
X337150Y777835D01*
X332893Y780894D01*
X329828Y783810D01*
X329800Y783909D01*
X329787Y783931D01*
X329779Y783955D01*
X329707Y784067D01*
X329639Y784183D01*
X329621Y784201D01*
X329607Y784223D01*
X329509Y784314D01*
X329415Y784409D01*
X329393Y784421D01*
X329374Y784439D01*
X329256Y784503D01*
X329141Y784571D01*
X329117Y784578D01*
X329095Y784591D01*
X328965Y784623D01*
X328963Y784624D01*
X328936Y784651D01*
X328853Y784700D01*
X328776Y784757D01*
X328717Y784780D01*
X328663Y784813D01*
X328570Y784840D01*
X328481Y784876D01*
X328418Y784884D01*
X328357Y784902D01*
X328261Y784905D01*
X328166Y784918D01*
X328103Y784910D01*
X328039Y784912D01*
X327946Y784891D01*
X327850Y784880D01*
X327791Y784857D01*
X327729Y784843D01*
X327643Y784800D01*
X327554Y784765D01*
X327502Y784728D01*
X327445Y784699D01*
X327373Y784636D01*
X327295Y784580D01*
X327254Y784531D01*
X327207Y784489D01*
X327152Y784410D01*
X327091Y784336D01*
X327063Y784279D01*
X327027Y784227D01*
X326995Y784136D01*
X326953Y784050D01*
X326941Y783987D01*
X326919Y783928D01*
X326915Y783902D01*
X324685Y782657D01*
X321200Y781365D01*
X317558Y780624D01*
X313845Y780451D01*
X310150Y780850D01*
X306560Y781812D01*
X303161Y783314D01*
X300032Y785320D01*
X297249Y787783D01*
X294877Y790644D01*
X293576Y792824D01*
X293605Y792883D01*
X293625Y792972D01*
X293653Y793059D01*
X293658Y793127D01*
X293672Y793194D01*
X293669Y793285D01*
X293675Y793376D01*
X293663Y793443D01*
X293660Y793511D01*
X293634Y793599D01*
X293617Y793689D01*
X293588Y793751D01*
X293569Y793816D01*
X293522Y793895D01*
X293483Y793978D01*
X293440Y794030D01*
X293405Y794089D01*
X293340Y794153D01*
X293282Y794224D01*
X293227Y794264D01*
X293179Y794312D01*
X293099Y794358D01*
X293026Y794412D01*
X292962Y794438D01*
X292904Y794472D01*
X292816Y794497D01*
X292731Y794531D01*
X292663Y794540D01*
X292598Y794558D01*
X292506Y794561D01*
X292415Y794573D01*
X292348Y794565D01*
X292280Y794566D01*
X292121Y794540D01*
X292014Y794515D01*
X292011Y794515D01*
X291868Y794538D01*
X291854Y794536D01*
X291840Y794538D01*
X291696Y794521D01*
X291551Y794507D01*
X291538Y794502D01*
X291524Y794500D01*
X291389Y794447D01*
X291252Y794398D01*
X291241Y794390D01*
X291228Y794385D01*
X291120Y794307D01*
X286930Y793335D01*
X281709Y792861D01*
X276473Y793106D01*
X271320Y794067D01*
X266347Y795725D01*
X261649Y798049D01*
X257313Y800995D01*
X253422Y804507D01*
X250049Y808520D01*
X247257Y812956D01*
X245100Y817734D01*
X243594Y822846D01*
X243568Y822904D01*
X243552Y822965D01*
X243505Y823049D01*
X243466Y823137D01*
X243427Y823187D01*
X243396Y823243D01*
X243330Y823312D01*
X243270Y823388D01*
X243220Y823426D01*
X243176Y823472D01*
X243094Y823523D01*
X243018Y823582D01*
X242960Y823607D01*
X242906Y823640D01*
X242814Y823669D01*
X242726Y823707D01*
X242663Y823717D01*
X242603Y823736D01*
X242507Y823741D01*
X242412Y823756D01*
X242349Y823750D01*
X242285Y823753D01*
X242191Y823734D01*
X242095Y823725D01*
X242036Y823703D01*
X241973Y823691D01*
X241887Y823649D01*
X241796Y823616D01*
X241744Y823580D01*
X241734Y823575D01*
X238028Y823629D01*
X234365Y824252D01*
X230840Y825431D01*
X227538Y827138D01*
X224538Y829331D01*
X221910Y831959D01*
X219717Y834959D01*
X218010Y838261D01*
X216831Y841786D01*
X216208Y845449D01*
X216153Y849264D01*
X216151Y849277D01*
X216152Y849291D01*
X216141Y849359D01*
X216140Y849427D01*
X216119Y849502D01*
X216108Y849578D01*
X216103Y849591D01*
X216101Y849605D01*
X216073Y849668D01*
X216055Y849733D01*
X216016Y849801D01*
X215987Y849872D01*
X215978Y849884D01*
X215973Y849897D01*
X215931Y849950D01*
X215897Y850009D01*
X215843Y850065D01*
X215796Y850127D01*
X215785Y850136D01*
X215777Y850147D01*
X215723Y850188D01*
X215675Y850237D01*
X215609Y850278D01*
X215548Y850326D01*
X215536Y850332D01*
X215525Y850341D01*
X215462Y850367D01*
X215404Y850403D01*
X215264Y850455D01*
X215259Y850458D01*
X215257Y850458D01*
X215253Y850459D01*
X210155Y852012D01*
X205397Y854211D01*
X200985Y857042D01*
X197003Y860451D01*
X193525Y864373D01*
X190618Y868735D01*
X188336Y873454D01*
X186723Y878441D01*
X185808Y883602D01*
X185609Y888841D01*
X186129Y894056D01*
X187380Y899237D01*
X187387Y899299D01*
X187410Y899382D01*
X187410Y899408D01*
X187416Y899433D01*
X187413Y899532D01*
X187416Y899553D01*
X187413Y899575D01*
X187414Y899700D01*
X187408Y899725D01*
X187408Y899751D01*
X187371Y899880D01*
X187339Y900010D01*
X187327Y900032D01*
X187320Y900057D01*
X187253Y900172D01*
X187190Y900290D01*
X187173Y900309D01*
X187160Y900331D01*
X187066Y900426D01*
X186975Y900525D01*
X186954Y900539D01*
X186936Y900557D01*
X186803Y900648D01*
X183528Y902603D01*
X180667Y904975D01*
X178204Y907758D01*
X176198Y910887D01*
X174696Y914287D01*
X173734Y917876D01*
X173335Y921571D01*
X173508Y925284D01*
X174249Y928926D01*
X175541Y932411D01*
X176676Y934444D01*
X176718Y934480D01*
X176776Y934516D01*
X176839Y934583D01*
X176908Y934642D01*
X176947Y934698D01*
X176994Y934747D01*
X177039Y934828D01*
X177091Y934902D01*
X177115Y934966D01*
X177148Y935026D01*
X177171Y935114D01*
X177204Y935200D01*
X177211Y935267D01*
X177228Y935333D01*
X177229Y935425D01*
X177230Y935436D01*
X177400Y935741D01*
X177405Y935754D01*
X177414Y935766D01*
X177465Y935902D01*
X177519Y936036D01*
X177521Y936050D01*
X177526Y936063D01*
X177542Y936208D01*
X177561Y936352D01*
X177560Y936365D01*
X177561Y936379D01*
X177541Y936523D01*
X177523Y936667D01*
X177518Y936680D01*
X177516Y936694D01*
X177461Y936828D01*
X177408Y936964D01*
X177400Y936975D01*
X177395Y936988D01*
X177308Y937104D01*
X177223Y937222D01*
X177213Y937231D01*
X177204Y937243D01*
X177091Y937334D01*
X176980Y937427D01*
X176967Y937433D01*
X176956Y937442D01*
X176824Y937501D01*
X176693Y937564D01*
X176679Y937567D01*
X176666Y937573D01*
X176524Y937598D01*
X176381Y937626D01*
X176367Y937625D01*
X176353Y937628D01*
X176192Y937625D01*
X175750Y937591D01*
X173258Y940257D01*
X170237Y944540D01*
X167832Y949198D01*
X166087Y954141D01*
X165037Y959276D01*
X164700Y964508D01*
X165083Y969735D01*
X166180Y974861D01*
X167968Y979789D01*
X170414Y984424D01*
X173473Y988681D01*
X177147Y992542D01*
X177185Y992593D01*
X177230Y992638D01*
X177279Y992721D01*
X177336Y992798D01*
X177359Y992857D01*
X177392Y992911D01*
X177419Y993004D01*
X177455Y993093D01*
X177463Y993156D01*
X177481Y993217D01*
X177484Y993313D01*
X177497Y993408D01*
X177489Y993471D01*
X177491Y993535D01*
X177470Y993628D01*
X177459Y993724D01*
X177436Y993783D01*
X177422Y993845D01*
X177379Y993931D01*
X177344Y994020D01*
X177307Y994072D01*
X177278Y994129D01*
X177248Y994163D01*
X177251Y994242D01*
X177245Y994266D01*
X177245Y994292D01*
X177211Y994422D01*
X177182Y994552D01*
X177171Y994575D01*
X177164Y994600D01*
X177095Y994745D01*
X175236Y998075D01*
X173944Y1001560D01*
X173203Y1005202D01*
X173030Y1008915D01*
X173429Y1012610D01*
X174391Y1016200D01*
X175893Y1019599D01*
X177899Y1022728D01*
X180362Y1025511D01*
X183223Y1027883D01*
X186498Y1029838D01*
X186509Y1029847D01*
X186522Y1029852D01*
X186635Y1029945D01*
X186749Y1030034D01*
X186757Y1030045D01*
X186768Y1030054D01*
X186854Y1030171D01*
X186943Y1030286D01*
X186948Y1030299D01*
X186957Y1030310D01*
X187011Y1030445D01*
X187068Y1030578D01*
X187070Y1030592D01*
X187075Y1030605D01*
X187094Y1030749D01*
X187117Y1030892D01*
X187115Y1030906D01*
X187117Y1030920D01*
X187100Y1031064D01*
X187086Y1031209D01*
X187081Y1031222D01*
X187079Y1031236D01*
X187026Y1031371D01*
X186977Y1031508D01*
X186969Y1031519D01*
X186964Y1031532D01*
X186879Y1031651D01*
X186797Y1031770D01*
X186787Y1031780D01*
X186778Y1031791D01*
X186667Y1031884D01*
X186596Y1031946D01*
X186581Y1031960D01*
X186578Y1031962D01*
X186558Y1031980D01*
X186545Y1031986D01*
X186535Y1031995D01*
X186394Y1032074D01*
X123438Y1062091D01*
X123366Y1062114D01*
X123297Y1062148D01*
X123215Y1062164D01*
X123136Y1062190D01*
X123060Y1062196D01*
X122986Y1062211D01*
X122902Y1062206D01*
X122819Y1062212D01*
X122744Y1062198D01*
X122668Y1062194D01*
X122588Y1062169D01*
X122506Y1062154D01*
X122437Y1062122D01*
X122364Y1062099D01*
X122293Y1062055D01*
X122217Y1062020D01*
X122159Y1061972D01*
X122094Y1061932D01*
X122036Y1061872D01*
X121971Y1061819D01*
X121926Y1061758D01*
X121874Y1061703D01*
X121832Y1061630D01*
X121783Y1061563D01*
X121754Y1061492D01*
X121717Y1061426D01*
X121666Y1061273D01*
X105559Y1001164D01*
X105551Y1001100D01*
X105532Y1001038D01*
X105529Y1000943D01*
X105516Y1000849D01*
X105524Y1000785D01*
X105521Y1000720D01*
X105542Y1000627D01*
X105553Y1000533D01*
X105576Y1000472D01*
X105590Y1000409D01*
X105633Y1000325D01*
X105667Y1000236D01*
X105704Y1000183D01*
X105733Y1000125D01*
X105796Y1000054D01*
X105851Y999977D01*
X105900Y999935D01*
X105943Y999886D01*
X106021Y999833D01*
X106094Y999771D01*
X106117Y999760D01*
X102109Y966156D01*
X102109Y966107D01*
X102101Y966059D01*
X102105Y965898D01*
X105175Y929906D01*
X105199Y929794D01*
X105215Y929680D01*
X105232Y929639D01*
X105241Y929595D01*
X105293Y929492D01*
X105336Y929386D01*
X105363Y929350D01*
X105383Y929310D01*
X105458Y929223D01*
X105527Y929131D01*
X105562Y929104D01*
X105591Y929070D01*
X105686Y929004D01*
X105775Y928932D01*
X105816Y928914D01*
X105852Y928889D01*
X105960Y928849D01*
X105996Y928833D01*
X121642Y870439D01*
X121667Y870380D01*
X121682Y870317D01*
X121726Y870233D01*
X121762Y870145D01*
X121801Y870093D01*
X121831Y870036D01*
X121895Y869966D01*
X121952Y869890D01*
X122002Y869849D01*
X122046Y869801D01*
X122125Y869749D01*
X122199Y869689D01*
X122258Y869663D01*
X122312Y869627D01*
X122402Y869596D01*
X122423Y869587D01*
X135589Y838867D01*
X135613Y838825D01*
X135630Y838779D01*
X135714Y838641D01*
X156369Y809006D01*
X156390Y808983D01*
X156406Y808955D01*
X156512Y808835D01*
X200516Y764831D01*
X200567Y764792D01*
X200611Y764745D01*
X200692Y764695D01*
X200767Y764636D01*
X200826Y764611D01*
X200881Y764577D01*
X200972Y764548D01*
X201059Y764510D01*
X201123Y764500D01*
X201184Y764480D01*
X201279Y764475D01*
X201373Y764460D01*
X201437Y764466D01*
X201502Y764463D01*
X201595Y764481D01*
X201689Y764490D01*
X201750Y764512D01*
X201814Y764525D01*
X201899Y764566D01*
X201989Y764598D01*
X202042Y764634D01*
X202101Y764662D01*
X202148Y764702D01*
X228926Y744668D01*
X228968Y744644D01*
X229006Y744613D01*
X229147Y744535D01*
X260685Y729745D01*
X260705Y729714D01*
X260740Y729638D01*
X260788Y729580D01*
X260828Y729515D01*
X260888Y729457D01*
X260941Y729392D01*
X261002Y729347D01*
X261057Y729295D01*
X261130Y729253D01*
X261197Y729204D01*
X261268Y729175D01*
X261334Y729138D01*
X261487Y729087D01*
X321596Y712980D01*
X321660Y712972D01*
X321722Y712953D01*
X321817Y712950D01*
X321911Y712937D01*
X321976Y712945D01*
X322040Y712942D01*
X322133Y712963D01*
X322227Y712974D01*
X322288Y712997D01*
X322351Y713011D01*
X322435Y713054D01*
X322524Y713088D01*
X322577Y713125D01*
X322635Y713154D01*
X322706Y713217D01*
X322783Y713272D01*
X322825Y713321D01*
X322874Y713364D01*
X322904Y713408D01*
X355418Y709530D01*
X355467Y709530D01*
X355515Y709522D01*
X355676Y709526D01*
G37*
G36*
X965276Y709526D02*
X965276Y709526D01*
X1001268Y712596D01*
X1001381Y712620D01*
X1001494Y712636D01*
X1001535Y712653D01*
X1001579Y712662D01*
X1001682Y712714D01*
X1001788Y712757D01*
X1001824Y712784D01*
X1001864Y712804D01*
X1001951Y712879D01*
X1002043Y712948D01*
X1002071Y712983D01*
X1002104Y713012D01*
X1002124Y713041D01*
X1061921Y729063D01*
X1061980Y729088D01*
X1062043Y729103D01*
X1062127Y729147D01*
X1062215Y729183D01*
X1062267Y729222D01*
X1062324Y729252D01*
X1062394Y729316D01*
X1062470Y729373D01*
X1062511Y729423D01*
X1062559Y729467D01*
X1062611Y729546D01*
X1062671Y729620D01*
X1062697Y729679D01*
X1062733Y729733D01*
X1062764Y729823D01*
X1062773Y729844D01*
X1093493Y743010D01*
X1093535Y743034D01*
X1093581Y743051D01*
X1093719Y743135D01*
X1123354Y763790D01*
X1123439Y763867D01*
X1123530Y763938D01*
X1123557Y763973D01*
X1123590Y764003D01*
X1123653Y764099D01*
X1123723Y764190D01*
X1123741Y764231D01*
X1123765Y764268D01*
X1123803Y764376D01*
X1123848Y764482D01*
X1123855Y764526D01*
X1123870Y764568D01*
X1123879Y764683D01*
X1123897Y764796D01*
X1123892Y764841D01*
X1123896Y764885D01*
X1123877Y764999D01*
X1123870Y765065D01*
X1166983Y808177D01*
X1167023Y808228D01*
X1167069Y808273D01*
X1167120Y808353D01*
X1167178Y808428D01*
X1167204Y808488D01*
X1167238Y808543D01*
X1167266Y808633D01*
X1167304Y808720D01*
X1167314Y808784D01*
X1167334Y808846D01*
X1167339Y808940D01*
X1167354Y809034D01*
X1167348Y809099D01*
X1167351Y809158D01*
X1187692Y836347D01*
X1187716Y836389D01*
X1187747Y836427D01*
X1187825Y836568D01*
X1202615Y868107D01*
X1202646Y868126D01*
X1202722Y868161D01*
X1202780Y868209D01*
X1202845Y868249D01*
X1202903Y868309D01*
X1202968Y868362D01*
X1203013Y868423D01*
X1203065Y868478D01*
X1203107Y868551D01*
X1203156Y868618D01*
X1203184Y868689D01*
X1203222Y868755D01*
X1203273Y868908D01*
X1219380Y929017D01*
X1219388Y929081D01*
X1219407Y929143D01*
X1219410Y929238D01*
X1219423Y929332D01*
X1219415Y929397D01*
X1219418Y929461D01*
X1219397Y929554D01*
X1219386Y929648D01*
X1219363Y929709D01*
X1219349Y929772D01*
X1219306Y929856D01*
X1219272Y929945D01*
X1219235Y929998D01*
X1219206Y930056D01*
X1219143Y930127D01*
X1219088Y930204D01*
X1219039Y930246D01*
X1218996Y930295D01*
X1218918Y930348D01*
X1218845Y930410D01*
X1218787Y930438D01*
X1218734Y930475D01*
X1218645Y930507D01*
X1218559Y930548D01*
X1218496Y930561D01*
X1218435Y930583D01*
X1218321Y930602D01*
X1222237Y963432D01*
X1222237Y963481D01*
X1222245Y963529D01*
X1222241Y963690D01*
X1219259Y998653D01*
X1219299Y998709D01*
X1219326Y998780D01*
X1219362Y998847D01*
X1219382Y998929D01*
X1219411Y999007D01*
X1219420Y999082D01*
X1219438Y999156D01*
X1219437Y999240D01*
X1219446Y999323D01*
X1219436Y999398D01*
X1219435Y999474D01*
X1219403Y999632D01*
X1203297Y1059742D01*
X1203272Y1059801D01*
X1203257Y1059864D01*
X1203213Y1059948D01*
X1203177Y1060036D01*
X1203138Y1060088D01*
X1203108Y1060145D01*
X1203044Y1060215D01*
X1202987Y1060291D01*
X1202937Y1060332D01*
X1202893Y1060380D01*
X1202814Y1060432D01*
X1202740Y1060492D01*
X1202681Y1060518D01*
X1202627Y1060554D01*
X1202537Y1060585D01*
X1202451Y1060624D01*
X1202387Y1060636D01*
X1202326Y1060656D01*
X1202231Y1060664D01*
X1202138Y1060681D01*
X1202074Y1060676D01*
X1202044Y1060678D01*
X1189045Y1091009D01*
X1189020Y1091051D01*
X1189003Y1091097D01*
X1188920Y1091235D01*
X1168762Y1120157D01*
X1168769Y1120178D01*
X1168776Y1120254D01*
X1168793Y1120328D01*
X1168790Y1120412D01*
X1168798Y1120495D01*
X1168785Y1120570D01*
X1168783Y1120646D01*
X1168760Y1120726D01*
X1168746Y1120809D01*
X1168716Y1120879D01*
X1168695Y1120952D01*
X1168652Y1121024D01*
X1168619Y1121100D01*
X1168572Y1121160D01*
X1168533Y1121226D01*
X1168427Y1121346D01*
X1124423Y1165350D01*
X1124372Y1165389D01*
X1124328Y1165436D01*
X1124247Y1165486D01*
X1124172Y1165545D01*
X1124113Y1165570D01*
X1124058Y1165604D01*
X1123967Y1165633D01*
X1123880Y1165671D01*
X1123816Y1165681D01*
X1123755Y1165701D01*
X1123660Y1165706D01*
X1123566Y1165721D01*
X1123502Y1165715D01*
X1123437Y1165718D01*
X1123344Y1165700D01*
X1123250Y1165691D01*
X1123189Y1165669D01*
X1123125Y1165656D01*
X1123040Y1165615D01*
X1122950Y1165583D01*
X1122897Y1165547D01*
X1122838Y1165519D01*
X1122791Y1165479D01*
X1096014Y1185513D01*
X1095971Y1185537D01*
X1095933Y1185568D01*
X1095792Y1185646D01*
X1064254Y1200436D01*
X1064234Y1200467D01*
X1064199Y1200543D01*
X1064151Y1200601D01*
X1064111Y1200666D01*
X1064051Y1200724D01*
X1063998Y1200789D01*
X1063937Y1200834D01*
X1063882Y1200886D01*
X1063809Y1200928D01*
X1063742Y1200977D01*
X1063671Y1201006D01*
X1063605Y1201043D01*
X1063452Y1201094D01*
X1003343Y1217201D01*
X1003279Y1217209D01*
X1003217Y1217228D01*
X1003122Y1217231D01*
X1003028Y1217244D01*
X1002964Y1217236D01*
X1002899Y1217239D01*
X1002806Y1217218D01*
X1002712Y1217207D01*
X1002651Y1217184D01*
X1002588Y1217170D01*
X1002504Y1217127D01*
X1002415Y1217093D01*
X1002362Y1217056D01*
X1002304Y1217027D01*
X1002233Y1216964D01*
X1002215Y1216952D01*
X968640Y1220956D01*
X968591Y1220956D01*
X968543Y1220964D01*
X968382Y1220960D01*
X932390Y1217890D01*
X932278Y1217866D01*
X932164Y1217850D01*
X932123Y1217833D01*
X932079Y1217824D01*
X931976Y1217772D01*
X931870Y1217729D01*
X931834Y1217702D01*
X931795Y1217682D01*
X931708Y1217607D01*
X931616Y1217538D01*
X931588Y1217503D01*
X931554Y1217474D01*
X931489Y1217380D01*
X931417Y1217290D01*
X931398Y1217249D01*
X931373Y1217213D01*
X931333Y1217105D01*
X931285Y1217000D01*
X931278Y1216956D01*
X931262Y1216915D01*
X931253Y1216829D01*
X872618Y1201118D01*
X872559Y1201093D01*
X872496Y1201078D01*
X872412Y1201034D01*
X872324Y1200998D01*
X872272Y1200959D01*
X872215Y1200929D01*
X872145Y1200865D01*
X872069Y1200808D01*
X872028Y1200758D01*
X871980Y1200714D01*
X871928Y1200635D01*
X871868Y1200561D01*
X871842Y1200502D01*
X871806Y1200448D01*
X871775Y1200358D01*
X871736Y1200272D01*
X871724Y1200208D01*
X871704Y1200147D01*
X871696Y1200052D01*
X871679Y1199959D01*
X871684Y1199895D01*
X871679Y1199830D01*
X871696Y1199736D01*
X871703Y1199642D01*
X871723Y1199581D01*
X871734Y1199517D01*
X871792Y1199366D01*
X900582Y1136081D01*
X900595Y1136060D01*
X900604Y1136036D01*
X900679Y1135924D01*
X900749Y1135811D01*
X900767Y1135793D01*
X900781Y1135772D01*
X900882Y1135683D01*
X900978Y1135590D01*
X901000Y1135577D01*
X901019Y1135561D01*
X901138Y1135499D01*
X901255Y1135433D01*
X901279Y1135427D01*
X901302Y1135415D01*
X901433Y1135385D01*
X901561Y1135350D01*
X901587Y1135350D01*
X901612Y1135344D01*
X901746Y1135348D01*
X901879Y1135346D01*
X901904Y1135352D01*
X901930Y1135352D01*
X902059Y1135389D01*
X902189Y1135421D01*
X902211Y1135433D01*
X902236Y1135440D01*
X902351Y1135507D01*
X902469Y1135570D01*
X902488Y1135587D01*
X902510Y1135600D01*
X902605Y1135694D01*
X902704Y1135785D01*
X902718Y1135806D01*
X902736Y1135824D01*
X902827Y1135957D01*
X904782Y1139232D01*
X907154Y1142093D01*
X909938Y1144556D01*
X913066Y1146562D01*
X916466Y1148064D01*
X920055Y1149026D01*
X923750Y1149425D01*
X927463Y1149252D01*
X931105Y1148511D01*
X934590Y1147219D01*
X937920Y1145360D01*
X937933Y1145355D01*
X937945Y1145346D01*
X938081Y1145295D01*
X938215Y1145241D01*
X938229Y1145239D01*
X938242Y1145234D01*
X938387Y1145218D01*
X938531Y1145199D01*
X938544Y1145200D01*
X938558Y1145199D01*
X938702Y1145219D01*
X938846Y1145237D01*
X938859Y1145242D01*
X938873Y1145244D01*
X939007Y1145299D01*
X939143Y1145352D01*
X939154Y1145360D01*
X939167Y1145365D01*
X939283Y1145452D01*
X939401Y1145537D01*
X939410Y1145547D01*
X939422Y1145556D01*
X939513Y1145669D01*
X939606Y1145780D01*
X939612Y1145793D01*
X939621Y1145804D01*
X939680Y1145936D01*
X939743Y1146067D01*
X939746Y1146081D01*
X939752Y1146094D01*
X939777Y1146236D01*
X939805Y1146379D01*
X939804Y1146393D01*
X939807Y1146407D01*
X939804Y1146568D01*
X939768Y1147029D01*
X939931Y1147181D01*
X939931Y1147182D01*
X942647Y1149720D01*
X942741Y1149807D01*
X947025Y1152828D01*
X951682Y1155234D01*
X956625Y1156978D01*
X961761Y1158028D01*
X966992Y1158365D01*
X972219Y1157982D01*
X977345Y1156886D01*
X982273Y1155097D01*
X986909Y1152651D01*
X991165Y1149592D01*
X995026Y1145918D01*
X995077Y1145881D01*
X995122Y1145836D01*
X995205Y1145787D01*
X995282Y1145730D01*
X995341Y1145706D01*
X995396Y1145673D01*
X995488Y1145646D01*
X995577Y1145611D01*
X995640Y1145602D01*
X995701Y1145584D01*
X995797Y1145581D01*
X995892Y1145568D01*
X995919Y1145572D01*
X995974Y1145558D01*
X996103Y1145520D01*
X996128Y1145519D01*
X996153Y1145513D01*
X996287Y1145514D01*
X996421Y1145509D01*
X996445Y1145515D01*
X996471Y1145515D01*
X996601Y1145549D01*
X996731Y1145578D01*
X996754Y1145589D01*
X996779Y1145596D01*
X996924Y1145665D01*
X1000254Y1147524D01*
X1003739Y1148816D01*
X1007381Y1149557D01*
X1011094Y1149730D01*
X1014789Y1149331D01*
X1018379Y1148369D01*
X1021778Y1146867D01*
X1024907Y1144861D01*
X1027690Y1142398D01*
X1029752Y1139912D01*
X1030062Y1139537D01*
X1031363Y1137357D01*
X1031334Y1137298D01*
X1031331Y1137284D01*
X1031329Y1137280D01*
X1031321Y1137238D01*
X1031315Y1137209D01*
X1031286Y1137122D01*
X1031281Y1137054D01*
X1031267Y1136987D01*
X1031270Y1136896D01*
X1031264Y1136805D01*
X1031277Y1136738D01*
X1031279Y1136670D01*
X1031305Y1136582D01*
X1031322Y1136492D01*
X1031351Y1136430D01*
X1031370Y1136365D01*
X1031417Y1136286D01*
X1031456Y1136203D01*
X1031499Y1136151D01*
X1031534Y1136092D01*
X1031599Y1136028D01*
X1031657Y1135957D01*
X1031712Y1135917D01*
X1031761Y1135869D01*
X1031840Y1135823D01*
X1031913Y1135769D01*
X1031977Y1135743D01*
X1032036Y1135709D01*
X1032124Y1135684D01*
X1032208Y1135650D01*
X1032276Y1135641D01*
X1032342Y1135623D01*
X1032433Y1135620D01*
X1032524Y1135608D01*
X1032591Y1135617D01*
X1032659Y1135615D01*
X1032818Y1135641D01*
X1032925Y1135666D01*
X1032928Y1135666D01*
X1033071Y1135643D01*
X1033085Y1135645D01*
X1033099Y1135643D01*
X1033243Y1135660D01*
X1033388Y1135674D01*
X1033401Y1135679D01*
X1033415Y1135681D01*
X1033550Y1135734D01*
X1033687Y1135783D01*
X1033698Y1135791D01*
X1033711Y1135796D01*
X1033819Y1135874D01*
X1038010Y1136846D01*
X1043230Y1137320D01*
X1048466Y1137075D01*
X1053619Y1136114D01*
X1058592Y1134456D01*
X1063290Y1132132D01*
X1067626Y1129186D01*
X1071517Y1125674D01*
X1074890Y1121661D01*
X1077682Y1117225D01*
X1079839Y1112447D01*
X1081345Y1107335D01*
X1081371Y1107277D01*
X1081387Y1107216D01*
X1081434Y1107132D01*
X1081473Y1107044D01*
X1081512Y1106994D01*
X1081543Y1106938D01*
X1081609Y1106869D01*
X1081669Y1106793D01*
X1081719Y1106755D01*
X1081763Y1106709D01*
X1081845Y1106658D01*
X1081921Y1106599D01*
X1081979Y1106574D01*
X1082033Y1106541D01*
X1082125Y1106512D01*
X1082213Y1106474D01*
X1082276Y1106464D01*
X1082336Y1106445D01*
X1082432Y1106440D01*
X1082527Y1106425D01*
X1082590Y1106432D01*
X1082654Y1106428D01*
X1082748Y1106447D01*
X1082844Y1106456D01*
X1082903Y1106478D01*
X1082966Y1106490D01*
X1083052Y1106532D01*
X1083143Y1106565D01*
X1083195Y1106601D01*
X1083205Y1106606D01*
X1086911Y1106552D01*
X1090575Y1105929D01*
X1094099Y1104750D01*
X1097401Y1103043D01*
X1100401Y1100850D01*
X1103029Y1098222D01*
X1105222Y1095222D01*
X1106929Y1091920D01*
X1108108Y1088396D01*
X1108731Y1084732D01*
X1108779Y1081443D01*
X1108756Y1081408D01*
X1108710Y1081358D01*
X1108668Y1081277D01*
X1108617Y1081201D01*
X1108594Y1081137D01*
X1108562Y1081077D01*
X1108541Y1080987D01*
X1108510Y1080901D01*
X1108504Y1080833D01*
X1108489Y1080767D01*
X1108490Y1080676D01*
X1108482Y1080584D01*
X1108493Y1080517D01*
X1108494Y1080449D01*
X1108519Y1080361D01*
X1108533Y1080271D01*
X1108561Y1080208D01*
X1108579Y1080143D01*
X1108624Y1080063D01*
X1108661Y1079979D01*
X1108703Y1079926D01*
X1108737Y1079867D01*
X1108801Y1079801D01*
X1108857Y1079729D01*
X1108911Y1079687D01*
X1108959Y1079639D01*
X1109037Y1079591D01*
X1109109Y1079535D01*
X1109172Y1079508D01*
X1109230Y1079473D01*
X1109381Y1079416D01*
X1114479Y1077864D01*
X1119237Y1075665D01*
X1123649Y1072834D01*
X1127631Y1069425D01*
X1131108Y1065503D01*
X1134016Y1061141D01*
X1136298Y1056422D01*
X1137911Y1051435D01*
X1138826Y1046274D01*
X1139025Y1041035D01*
X1138505Y1035819D01*
X1137253Y1030639D01*
X1137246Y1030576D01*
X1137230Y1030515D01*
X1137229Y1030419D01*
X1137218Y1030323D01*
X1137227Y1030260D01*
X1137226Y1030197D01*
X1137249Y1030103D01*
X1137262Y1030008D01*
X1137287Y1029950D01*
X1137302Y1029888D01*
X1137347Y1029803D01*
X1137384Y1029714D01*
X1137422Y1029663D01*
X1137452Y1029607D01*
X1137517Y1029536D01*
X1137574Y1029460D01*
X1137624Y1029420D01*
X1137667Y1029373D01*
X1137747Y1029320D01*
X1137822Y1029260D01*
X1137880Y1029234D01*
X1137933Y1029199D01*
X1138024Y1029169D01*
X1138112Y1029129D01*
X1138174Y1029118D01*
X1138234Y1029097D01*
X1138330Y1029090D01*
X1138425Y1029073D01*
X1138488Y1029078D01*
X1138551Y1029074D01*
X1138646Y1029090D01*
X1138742Y1029098D01*
X1138802Y1029118D01*
X1138824Y1029122D01*
X1141411Y1027578D01*
X1144272Y1025206D01*
X1146735Y1022422D01*
X1148741Y1019294D01*
X1150243Y1015894D01*
X1151205Y1012305D01*
X1151604Y1008610D01*
X1151431Y1004897D01*
X1150690Y1001255D01*
X1149398Y997770D01*
X1148021Y995304D01*
X1147965Y995292D01*
X1147904Y995262D01*
X1147839Y995241D01*
X1147762Y995193D01*
X1147680Y995152D01*
X1147628Y995108D01*
X1147570Y995072D01*
X1147507Y995005D01*
X1147438Y994946D01*
X1147399Y994890D01*
X1147352Y994841D01*
X1147307Y994761D01*
X1147255Y994686D01*
X1147231Y994622D01*
X1147198Y994562D01*
X1147175Y994474D01*
X1147142Y994388D01*
X1147135Y994321D01*
X1147118Y994255D01*
X1147117Y994163D01*
X1147107Y994072D01*
X1147117Y994005D01*
X1147117Y993937D01*
X1147139Y993848D01*
X1147152Y993757D01*
X1147178Y993694D01*
X1147195Y993628D01*
X1147239Y993548D01*
X1147273Y993463D01*
X1147314Y993409D01*
X1147347Y993349D01*
X1147449Y993225D01*
X1151088Y989331D01*
X1154109Y985048D01*
X1156514Y980390D01*
X1158259Y975447D01*
X1159309Y970312D01*
X1159646Y965081D01*
X1159263Y959853D01*
X1158166Y954727D01*
X1156378Y949799D01*
X1153932Y945164D01*
X1150873Y940907D01*
X1147199Y937046D01*
X1147161Y936995D01*
X1147116Y936950D01*
X1147067Y936867D01*
X1147010Y936790D01*
X1146987Y936731D01*
X1146954Y936677D01*
X1146927Y936584D01*
X1146891Y936495D01*
X1146883Y936432D01*
X1146865Y936371D01*
X1146862Y936275D01*
X1146849Y936180D01*
X1146857Y936117D01*
X1146855Y936053D01*
X1146876Y935960D01*
X1146887Y935864D01*
X1146910Y935805D01*
X1146924Y935743D01*
X1146967Y935657D01*
X1147002Y935568D01*
X1147039Y935516D01*
X1147068Y935459D01*
X1147131Y935387D01*
X1147187Y935309D01*
X1147236Y935268D01*
X1147278Y935220D01*
X1147357Y935166D01*
X1147431Y935104D01*
X1147488Y935077D01*
X1147540Y935041D01*
X1147631Y935009D01*
X1147717Y934967D01*
X1147780Y934955D01*
X1147839Y934933D01*
X1147998Y934908D01*
X1148147Y934893D01*
X1149703Y932106D01*
X1150995Y928621D01*
X1151736Y924979D01*
X1151909Y921266D01*
X1151510Y917571D01*
X1150548Y913981D01*
X1149046Y910582D01*
X1147040Y907453D01*
X1144577Y904670D01*
X1141716Y902298D01*
X1139536Y900997D01*
X1139477Y901026D01*
X1139388Y901046D01*
X1139301Y901074D01*
X1139233Y901079D01*
X1139166Y901093D01*
X1139075Y901090D01*
X1138984Y901096D01*
X1138917Y901084D01*
X1138849Y901081D01*
X1138761Y901055D01*
X1138671Y901038D01*
X1138609Y901009D01*
X1138544Y900990D01*
X1138465Y900943D01*
X1138382Y900904D01*
X1138330Y900861D01*
X1138271Y900826D01*
X1138207Y900761D01*
X1138136Y900703D01*
X1138096Y900648D01*
X1138048Y900599D01*
X1138002Y900520D01*
X1137948Y900447D01*
X1137922Y900383D01*
X1137888Y900325D01*
X1137863Y900237D01*
X1137829Y900152D01*
X1137820Y900084D01*
X1137802Y900019D01*
X1137799Y899927D01*
X1137787Y899836D01*
X1137795Y899769D01*
X1137794Y899701D01*
X1137820Y899542D01*
X1137845Y899435D01*
X1137845Y899432D01*
X1137822Y899289D01*
X1137824Y899275D01*
X1137822Y899261D01*
X1137839Y899117D01*
X1137853Y898972D01*
X1137858Y898959D01*
X1137860Y898945D01*
X1137913Y898810D01*
X1137962Y898673D01*
X1137970Y898662D01*
X1137975Y898649D01*
X1138053Y898541D01*
X1139025Y894351D01*
X1139499Y889130D01*
X1139254Y883894D01*
X1138293Y878741D01*
X1136635Y873768D01*
X1134311Y869070D01*
X1131365Y864734D01*
X1127853Y860843D01*
X1123840Y857470D01*
X1119404Y854679D01*
X1114626Y852521D01*
X1109514Y851015D01*
X1109456Y850989D01*
X1109395Y850973D01*
X1109311Y850926D01*
X1109223Y850887D01*
X1109173Y850848D01*
X1109117Y850817D01*
X1109048Y850751D01*
X1108972Y850691D01*
X1108934Y850641D01*
X1108888Y850597D01*
X1108872Y850572D01*
X1108756Y850507D01*
X1108738Y850489D01*
X1108716Y850476D01*
X1108623Y850380D01*
X1108526Y850288D01*
X1108512Y850266D01*
X1108495Y850248D01*
X1108428Y850131D01*
X1108357Y850018D01*
X1108350Y849994D01*
X1108337Y849971D01*
X1108302Y849842D01*
X1108261Y849715D01*
X1108260Y849689D01*
X1108253Y849665D01*
X1108241Y849504D01*
X1108186Y845690D01*
X1107562Y842026D01*
X1106383Y838502D01*
X1104676Y835200D01*
X1102483Y832200D01*
X1099855Y829572D01*
X1096855Y827378D01*
X1093553Y825672D01*
X1090029Y824493D01*
X1086365Y823869D01*
X1082551Y823814D01*
X1082537Y823812D01*
X1082523Y823814D01*
X1082379Y823790D01*
X1082236Y823770D01*
X1082223Y823765D01*
X1082209Y823762D01*
X1082076Y823704D01*
X1081942Y823649D01*
X1081931Y823640D01*
X1081918Y823635D01*
X1081803Y823545D01*
X1081687Y823458D01*
X1081678Y823447D01*
X1081667Y823438D01*
X1081579Y823324D01*
X1081488Y823210D01*
X1081482Y823197D01*
X1081474Y823186D01*
X1081417Y823053D01*
X1081357Y822921D01*
X1081354Y822907D01*
X1081349Y822894D01*
X1081327Y822750D01*
X1081301Y822607D01*
X1081302Y822593D01*
X1081300Y822580D01*
X1081315Y822435D01*
X1081326Y822290D01*
X1081330Y822277D01*
X1081332Y822263D01*
X1081381Y822127D01*
X1081428Y821989D01*
X1081436Y821977D01*
X1081441Y821964D01*
X1081523Y821826D01*
X1081606Y821706D01*
X1080348Y817576D01*
X1078149Y812818D01*
X1077207Y811349D01*
X1077206Y811349D01*
X1076392Y810080D01*
X1075318Y808406D01*
X1071909Y804424D01*
X1067987Y800946D01*
X1063625Y798039D01*
X1058906Y795757D01*
X1053919Y794144D01*
X1048758Y793229D01*
X1043519Y793030D01*
X1038304Y793550D01*
X1033123Y794801D01*
X1033061Y794808D01*
X1032978Y794831D01*
X1032952Y794831D01*
X1032927Y794837D01*
X1032828Y794834D01*
X1032807Y794837D01*
X1032785Y794834D01*
X1032660Y794835D01*
X1032635Y794829D01*
X1032609Y794829D01*
X1032480Y794792D01*
X1032350Y794760D01*
X1032328Y794748D01*
X1032303Y794741D01*
X1032188Y794674D01*
X1032070Y794611D01*
X1032051Y794594D01*
X1032029Y794581D01*
X1031934Y794487D01*
X1031835Y794396D01*
X1031821Y794375D01*
X1031803Y794357D01*
X1031712Y794224D01*
X1029757Y790949D01*
X1027385Y788088D01*
X1024602Y785625D01*
X1021473Y783619D01*
X1018073Y782117D01*
X1014484Y781155D01*
X1010789Y780756D01*
X1007076Y780929D01*
X1003434Y781670D01*
X999949Y782962D01*
X996619Y784821D01*
X996606Y784826D01*
X996594Y784835D01*
X996458Y784886D01*
X996324Y784940D01*
X996310Y784942D01*
X996297Y784947D01*
X996152Y784963D01*
X996008Y784982D01*
X995995Y784981D01*
X995981Y784982D01*
X995837Y784962D01*
X995693Y784944D01*
X995680Y784939D01*
X995666Y784937D01*
X995532Y784882D01*
X995396Y784829D01*
X995385Y784821D01*
X995372Y784816D01*
X995256Y784729D01*
X995138Y784644D01*
X995129Y784634D01*
X995117Y784625D01*
X995026Y784512D01*
X994961Y784434D01*
X994935Y784420D01*
X994811Y784318D01*
X994539Y784063D01*
X994538Y784063D01*
X993181Y782794D01*
X993180Y782794D01*
X991823Y781525D01*
X991822Y781525D01*
X990918Y780679D01*
X986634Y777658D01*
X981976Y775253D01*
X977033Y773508D01*
X971898Y772458D01*
X966667Y772121D01*
X961439Y772504D01*
X956313Y773601D01*
X951386Y775389D01*
X946750Y777835D01*
X942493Y780894D01*
X939428Y783810D01*
X939400Y783909D01*
X939387Y783931D01*
X939379Y783955D01*
X939307Y784067D01*
X939239Y784183D01*
X939221Y784201D01*
X939207Y784223D01*
X939109Y784314D01*
X939015Y784409D01*
X938993Y784421D01*
X938974Y784439D01*
X938856Y784503D01*
X938741Y784571D01*
X938717Y784578D01*
X938695Y784591D01*
X938565Y784623D01*
X938563Y784624D01*
X938536Y784651D01*
X938453Y784700D01*
X938376Y784757D01*
X938317Y784780D01*
X938263Y784813D01*
X938170Y784840D01*
X938081Y784876D01*
X938018Y784884D01*
X937957Y784902D01*
X937861Y784905D01*
X937766Y784918D01*
X937703Y784910D01*
X937639Y784912D01*
X937546Y784891D01*
X937450Y784880D01*
X937391Y784857D01*
X937329Y784843D01*
X937243Y784800D01*
X937154Y784765D01*
X937102Y784728D01*
X937045Y784699D01*
X936973Y784636D01*
X936895Y784580D01*
X936854Y784531D01*
X936807Y784489D01*
X936752Y784410D01*
X936691Y784336D01*
X936663Y784279D01*
X936627Y784227D01*
X936595Y784136D01*
X936553Y784050D01*
X936541Y783987D01*
X936519Y783928D01*
X936515Y783902D01*
X934285Y782657D01*
X930800Y781365D01*
X927158Y780624D01*
X923445Y780451D01*
X919750Y780850D01*
X916160Y781812D01*
X912761Y783314D01*
X909632Y785320D01*
X906849Y787783D01*
X904477Y790644D01*
X903176Y792824D01*
X903205Y792883D01*
X903225Y792972D01*
X903253Y793059D01*
X903258Y793127D01*
X903272Y793194D01*
X903269Y793285D01*
X903275Y793376D01*
X903263Y793443D01*
X903260Y793511D01*
X903234Y793599D01*
X903217Y793689D01*
X903188Y793751D01*
X903169Y793816D01*
X903122Y793895D01*
X903083Y793978D01*
X903040Y794030D01*
X903005Y794089D01*
X902940Y794153D01*
X902882Y794224D01*
X902827Y794264D01*
X902779Y794312D01*
X902699Y794358D01*
X902626Y794412D01*
X902562Y794438D01*
X902504Y794472D01*
X902416Y794497D01*
X902331Y794531D01*
X902263Y794540D01*
X902198Y794558D01*
X902106Y794561D01*
X902015Y794573D01*
X901948Y794565D01*
X901880Y794566D01*
X901721Y794540D01*
X901614Y794515D01*
X901611Y794515D01*
X901468Y794538D01*
X901454Y794536D01*
X901440Y794538D01*
X901296Y794521D01*
X901151Y794507D01*
X901138Y794502D01*
X901124Y794500D01*
X900989Y794447D01*
X900852Y794398D01*
X900841Y794390D01*
X900828Y794385D01*
X900720Y794307D01*
X896530Y793335D01*
X891309Y792861D01*
X886073Y793106D01*
X880920Y794067D01*
X875947Y795725D01*
X871249Y798049D01*
X866913Y800995D01*
X863022Y804507D01*
X859649Y808520D01*
X856857Y812956D01*
X854700Y817734D01*
X853194Y822846D01*
X853168Y822904D01*
X853152Y822965D01*
X853105Y823049D01*
X853066Y823137D01*
X853027Y823187D01*
X852996Y823243D01*
X852930Y823312D01*
X852870Y823388D01*
X852820Y823426D01*
X852776Y823472D01*
X852694Y823523D01*
X852618Y823582D01*
X852560Y823607D01*
X852506Y823640D01*
X852414Y823669D01*
X852326Y823707D01*
X852263Y823717D01*
X852203Y823736D01*
X852107Y823741D01*
X852012Y823756D01*
X851949Y823750D01*
X851885Y823753D01*
X851791Y823734D01*
X851695Y823725D01*
X851636Y823703D01*
X851573Y823691D01*
X851487Y823649D01*
X851396Y823616D01*
X851344Y823580D01*
X851334Y823575D01*
X847628Y823629D01*
X843965Y824252D01*
X840440Y825431D01*
X837138Y827138D01*
X834138Y829331D01*
X831510Y831959D01*
X829317Y834959D01*
X827610Y838261D01*
X826431Y841786D01*
X825808Y845449D01*
X825753Y849264D01*
X825751Y849277D01*
X825752Y849291D01*
X825741Y849359D01*
X825740Y849427D01*
X825719Y849502D01*
X825708Y849578D01*
X825703Y849591D01*
X825701Y849605D01*
X825673Y849668D01*
X825655Y849733D01*
X825616Y849801D01*
X825587Y849872D01*
X825578Y849884D01*
X825573Y849897D01*
X825531Y849950D01*
X825497Y850009D01*
X825443Y850065D01*
X825396Y850127D01*
X825385Y850136D01*
X825377Y850147D01*
X825323Y850188D01*
X825275Y850237D01*
X825209Y850278D01*
X825148Y850326D01*
X825136Y850332D01*
X825125Y850341D01*
X825062Y850367D01*
X825004Y850403D01*
X824864Y850455D01*
X824859Y850458D01*
X824857Y850458D01*
X824853Y850459D01*
X819755Y852012D01*
X814997Y854211D01*
X810585Y857042D01*
X806603Y860451D01*
X803125Y864373D01*
X800218Y868735D01*
X797936Y873454D01*
X796323Y878441D01*
X795408Y883602D01*
X795209Y888841D01*
X795729Y894056D01*
X796980Y899237D01*
X796987Y899299D01*
X797010Y899382D01*
X797010Y899408D01*
X797016Y899433D01*
X797013Y899532D01*
X797016Y899553D01*
X797013Y899575D01*
X797014Y899700D01*
X797008Y899725D01*
X797008Y899751D01*
X796971Y899880D01*
X796939Y900010D01*
X796927Y900032D01*
X796920Y900057D01*
X796853Y900172D01*
X796790Y900290D01*
X796773Y900309D01*
X796760Y900331D01*
X796666Y900426D01*
X796575Y900525D01*
X796554Y900539D01*
X796536Y900557D01*
X796403Y900648D01*
X793128Y902603D01*
X790267Y904975D01*
X787804Y907758D01*
X785798Y910887D01*
X784296Y914287D01*
X783334Y917876D01*
X782935Y921571D01*
X783108Y925284D01*
X783849Y928926D01*
X785141Y932411D01*
X786276Y934444D01*
X786318Y934480D01*
X786376Y934516D01*
X786439Y934583D01*
X786508Y934642D01*
X786547Y934698D01*
X786594Y934747D01*
X786639Y934828D01*
X786691Y934902D01*
X786715Y934966D01*
X786748Y935026D01*
X786771Y935114D01*
X786804Y935200D01*
X786811Y935267D01*
X786828Y935333D01*
X786829Y935425D01*
X786830Y935436D01*
X787000Y935741D01*
X787005Y935754D01*
X787014Y935766D01*
X787065Y935902D01*
X787119Y936036D01*
X787121Y936050D01*
X787126Y936063D01*
X787142Y936208D01*
X787161Y936352D01*
X787160Y936365D01*
X787161Y936379D01*
X787141Y936523D01*
X787123Y936667D01*
X787118Y936680D01*
X787116Y936694D01*
X787061Y936828D01*
X787008Y936964D01*
X787000Y936975D01*
X786995Y936988D01*
X786908Y937104D01*
X786823Y937222D01*
X786813Y937231D01*
X786804Y937243D01*
X786691Y937334D01*
X786580Y937427D01*
X786567Y937433D01*
X786556Y937442D01*
X786424Y937501D01*
X786293Y937564D01*
X786279Y937567D01*
X786266Y937573D01*
X786124Y937598D01*
X785981Y937626D01*
X785967Y937625D01*
X785953Y937628D01*
X785792Y937625D01*
X785350Y937591D01*
X782858Y940257D01*
X779837Y944540D01*
X777432Y949198D01*
X775687Y954141D01*
X774637Y959276D01*
X774300Y964508D01*
X774683Y969735D01*
X775780Y974861D01*
X777568Y979789D01*
X780014Y984424D01*
X783073Y988681D01*
X786747Y992542D01*
X786785Y992593D01*
X786830Y992638D01*
X786879Y992721D01*
X786936Y992798D01*
X786959Y992857D01*
X786992Y992911D01*
X787019Y993004D01*
X787055Y993093D01*
X787063Y993156D01*
X787081Y993217D01*
X787084Y993313D01*
X787097Y993408D01*
X787089Y993471D01*
X787091Y993535D01*
X787070Y993628D01*
X787059Y993724D01*
X787036Y993783D01*
X787022Y993845D01*
X786979Y993931D01*
X786944Y994020D01*
X786907Y994072D01*
X786878Y994129D01*
X786848Y994163D01*
X786851Y994242D01*
X786845Y994266D01*
X786845Y994292D01*
X786811Y994422D01*
X786782Y994552D01*
X786771Y994575D01*
X786764Y994600D01*
X786695Y994745D01*
X784836Y998075D01*
X783544Y1001560D01*
X782803Y1005202D01*
X782630Y1008915D01*
X783029Y1012610D01*
X783991Y1016200D01*
X785493Y1019599D01*
X787499Y1022728D01*
X789962Y1025511D01*
X792823Y1027883D01*
X796098Y1029838D01*
X796109Y1029847D01*
X796122Y1029852D01*
X796235Y1029945D01*
X796349Y1030034D01*
X796357Y1030045D01*
X796368Y1030054D01*
X796454Y1030171D01*
X796543Y1030286D01*
X796548Y1030299D01*
X796557Y1030310D01*
X796611Y1030445D01*
X796668Y1030578D01*
X796670Y1030592D01*
X796675Y1030605D01*
X796694Y1030749D01*
X796717Y1030892D01*
X796715Y1030906D01*
X796717Y1030920D01*
X796700Y1031064D01*
X796686Y1031209D01*
X796681Y1031222D01*
X796679Y1031236D01*
X796626Y1031371D01*
X796577Y1031508D01*
X796569Y1031519D01*
X796564Y1031532D01*
X796479Y1031651D01*
X796397Y1031770D01*
X796387Y1031780D01*
X796378Y1031791D01*
X796267Y1031884D01*
X796196Y1031946D01*
X796181Y1031960D01*
X796178Y1031962D01*
X796158Y1031980D01*
X796145Y1031986D01*
X796135Y1031995D01*
X795994Y1032074D01*
X733038Y1062091D01*
X732966Y1062114D01*
X732897Y1062148D01*
X732815Y1062164D01*
X732736Y1062190D01*
X732660Y1062196D01*
X732586Y1062211D01*
X732502Y1062206D01*
X732419Y1062212D01*
X732344Y1062198D01*
X732268Y1062194D01*
X732188Y1062169D01*
X732106Y1062154D01*
X732037Y1062122D01*
X731964Y1062099D01*
X731893Y1062055D01*
X731817Y1062020D01*
X731759Y1061972D01*
X731694Y1061932D01*
X731636Y1061872D01*
X731571Y1061819D01*
X731526Y1061758D01*
X731474Y1061703D01*
X731432Y1061630D01*
X731383Y1061563D01*
X731354Y1061492D01*
X731317Y1061426D01*
X731266Y1061273D01*
X715159Y1001164D01*
X715151Y1001100D01*
X715132Y1001038D01*
X715129Y1000943D01*
X715116Y1000849D01*
X715124Y1000785D01*
X715121Y1000720D01*
X715142Y1000627D01*
X715153Y1000533D01*
X715176Y1000472D01*
X715190Y1000409D01*
X715233Y1000325D01*
X715267Y1000236D01*
X715304Y1000183D01*
X715333Y1000125D01*
X715396Y1000054D01*
X715451Y999977D01*
X715500Y999935D01*
X715543Y999886D01*
X715621Y999833D01*
X715694Y999771D01*
X715717Y999760D01*
X711709Y966156D01*
X711709Y966107D01*
X711701Y966059D01*
X711705Y965898D01*
X714775Y929906D01*
X714799Y929794D01*
X714815Y929680D01*
X714832Y929639D01*
X714841Y929595D01*
X714893Y929492D01*
X714936Y929386D01*
X714963Y929350D01*
X714983Y929310D01*
X715058Y929223D01*
X715127Y929131D01*
X715162Y929104D01*
X715191Y929070D01*
X715286Y929004D01*
X715375Y928932D01*
X715416Y928914D01*
X715452Y928889D01*
X715560Y928849D01*
X715596Y928833D01*
X731242Y870439D01*
X731267Y870380D01*
X731282Y870317D01*
X731326Y870233D01*
X731362Y870145D01*
X731401Y870093D01*
X731431Y870036D01*
X731495Y869966D01*
X731552Y869890D01*
X731602Y869849D01*
X731646Y869801D01*
X731725Y869749D01*
X731799Y869689D01*
X731858Y869663D01*
X731912Y869627D01*
X732002Y869596D01*
X732023Y869587D01*
X745189Y838867D01*
X745213Y838825D01*
X745230Y838779D01*
X745314Y838641D01*
X765969Y809006D01*
X765990Y808983D01*
X766006Y808955D01*
X766112Y808835D01*
X810116Y764831D01*
X810167Y764792D01*
X810211Y764745D01*
X810292Y764695D01*
X810367Y764636D01*
X810426Y764611D01*
X810481Y764577D01*
X810572Y764548D01*
X810659Y764510D01*
X810723Y764500D01*
X810784Y764480D01*
X810879Y764475D01*
X810973Y764460D01*
X811037Y764466D01*
X811102Y764463D01*
X811195Y764481D01*
X811289Y764490D01*
X811350Y764512D01*
X811414Y764525D01*
X811499Y764566D01*
X811589Y764598D01*
X811642Y764634D01*
X811701Y764662D01*
X811748Y764702D01*
X838526Y744668D01*
X838568Y744644D01*
X838606Y744613D01*
X838747Y744535D01*
X870285Y729745D01*
X870305Y729714D01*
X870340Y729638D01*
X870388Y729580D01*
X870428Y729515D01*
X870488Y729457D01*
X870541Y729392D01*
X870602Y729347D01*
X870657Y729295D01*
X870730Y729253D01*
X870797Y729204D01*
X870868Y729175D01*
X870934Y729138D01*
X871087Y729087D01*
X931196Y712980D01*
X931260Y712972D01*
X931322Y712953D01*
X931417Y712950D01*
X931511Y712937D01*
X931576Y712945D01*
X931640Y712942D01*
X931733Y712963D01*
X931827Y712974D01*
X931888Y712997D01*
X931951Y713011D01*
X932035Y713054D01*
X932124Y713088D01*
X932177Y713125D01*
X932235Y713154D01*
X932306Y713217D01*
X932383Y713272D01*
X932425Y713321D01*
X932474Y713364D01*
X932504Y713408D01*
X965018Y709530D01*
X965067Y709530D01*
X965115Y709522D01*
X965276Y709526D01*
G37*
G36*
X965276Y99926D02*
X965276Y99926D01*
X1001268Y102996D01*
X1001381Y103020D01*
X1001494Y103036D01*
X1001535Y103053D01*
X1001579Y103062D01*
X1001682Y103114D01*
X1001788Y103157D01*
X1001824Y103184D01*
X1001864Y103204D01*
X1001951Y103279D01*
X1002043Y103348D01*
X1002071Y103383D01*
X1002104Y103412D01*
X1002124Y103441D01*
X1061921Y119463D01*
X1061980Y119488D01*
X1062043Y119503D01*
X1062127Y119547D01*
X1062215Y119583D01*
X1062267Y119622D01*
X1062324Y119652D01*
X1062394Y119716D01*
X1062470Y119773D01*
X1062511Y119823D01*
X1062559Y119867D01*
X1062611Y119946D01*
X1062671Y120020D01*
X1062697Y120079D01*
X1062733Y120133D01*
X1062764Y120223D01*
X1062773Y120244D01*
X1093493Y133410D01*
X1093535Y133434D01*
X1093581Y133451D01*
X1093719Y133535D01*
X1123354Y154190D01*
X1123439Y154267D01*
X1123530Y154338D01*
X1123557Y154373D01*
X1123590Y154403D01*
X1123653Y154499D01*
X1123723Y154590D01*
X1123741Y154631D01*
X1123765Y154668D01*
X1123803Y154776D01*
X1123848Y154882D01*
X1123855Y154926D01*
X1123870Y154968D01*
X1123879Y155083D01*
X1123897Y155196D01*
X1123892Y155241D01*
X1123896Y155285D01*
X1123877Y155399D01*
X1123870Y155465D01*
X1166983Y198577D01*
X1167023Y198628D01*
X1167069Y198673D01*
X1167120Y198753D01*
X1167178Y198828D01*
X1167204Y198888D01*
X1167238Y198943D01*
X1167266Y199033D01*
X1167304Y199120D01*
X1167314Y199184D01*
X1167334Y199246D01*
X1167339Y199340D01*
X1167354Y199434D01*
X1167348Y199499D01*
X1167351Y199558D01*
X1187692Y226747D01*
X1187716Y226789D01*
X1187747Y226827D01*
X1187825Y226968D01*
X1202615Y258507D01*
X1202646Y258526D01*
X1202722Y258561D01*
X1202780Y258609D01*
X1202845Y258649D01*
X1202903Y258709D01*
X1202968Y258762D01*
X1203013Y258823D01*
X1203065Y258878D01*
X1203107Y258951D01*
X1203156Y259018D01*
X1203184Y259089D01*
X1203222Y259155D01*
X1203273Y259308D01*
X1219380Y319417D01*
X1219388Y319481D01*
X1219407Y319543D01*
X1219410Y319638D01*
X1219423Y319732D01*
X1219415Y319797D01*
X1219418Y319861D01*
X1219397Y319954D01*
X1219386Y320048D01*
X1219363Y320109D01*
X1219349Y320172D01*
X1219306Y320256D01*
X1219272Y320345D01*
X1219235Y320398D01*
X1219206Y320456D01*
X1219143Y320527D01*
X1219088Y320604D01*
X1219039Y320646D01*
X1218996Y320695D01*
X1218918Y320748D01*
X1218845Y320810D01*
X1218787Y320838D01*
X1218734Y320875D01*
X1218645Y320907D01*
X1218559Y320948D01*
X1218496Y320961D01*
X1218435Y320983D01*
X1218321Y321002D01*
X1222237Y353832D01*
X1222237Y353881D01*
X1222245Y353929D01*
X1222241Y354090D01*
X1219259Y389053D01*
X1219299Y389109D01*
X1219326Y389180D01*
X1219362Y389247D01*
X1219382Y389329D01*
X1219411Y389407D01*
X1219420Y389482D01*
X1219438Y389556D01*
X1219437Y389640D01*
X1219446Y389723D01*
X1219436Y389798D01*
X1219435Y389874D01*
X1219403Y390032D01*
X1203297Y450142D01*
X1203272Y450201D01*
X1203257Y450264D01*
X1203213Y450348D01*
X1203177Y450436D01*
X1203138Y450488D01*
X1203108Y450545D01*
X1203044Y450615D01*
X1202987Y450691D01*
X1202937Y450732D01*
X1202893Y450780D01*
X1202814Y450832D01*
X1202740Y450892D01*
X1202681Y450918D01*
X1202627Y450954D01*
X1202537Y450985D01*
X1202451Y451024D01*
X1202387Y451036D01*
X1202326Y451056D01*
X1202231Y451064D01*
X1202138Y451081D01*
X1202074Y451076D01*
X1202044Y451078D01*
X1189045Y481409D01*
X1189020Y481451D01*
X1189003Y481497D01*
X1188920Y481635D01*
X1168762Y510557D01*
X1168769Y510578D01*
X1168776Y510654D01*
X1168793Y510728D01*
X1168790Y510812D01*
X1168798Y510895D01*
X1168785Y510970D01*
X1168783Y511046D01*
X1168760Y511126D01*
X1168746Y511209D01*
X1168716Y511279D01*
X1168695Y511352D01*
X1168652Y511424D01*
X1168619Y511500D01*
X1168572Y511560D01*
X1168533Y511626D01*
X1168427Y511746D01*
X1124423Y555750D01*
X1124372Y555789D01*
X1124328Y555836D01*
X1124247Y555886D01*
X1124172Y555945D01*
X1124113Y555970D01*
X1124058Y556004D01*
X1123967Y556033D01*
X1123880Y556071D01*
X1123816Y556081D01*
X1123755Y556101D01*
X1123660Y556106D01*
X1123566Y556121D01*
X1123502Y556115D01*
X1123437Y556118D01*
X1123344Y556100D01*
X1123250Y556091D01*
X1123189Y556069D01*
X1123125Y556056D01*
X1123040Y556015D01*
X1122950Y555983D01*
X1122897Y555947D01*
X1122838Y555919D01*
X1122791Y555879D01*
X1096014Y575913D01*
X1095971Y575937D01*
X1095933Y575968D01*
X1095792Y576046D01*
X1064254Y590836D01*
X1064234Y590867D01*
X1064199Y590943D01*
X1064151Y591001D01*
X1064111Y591066D01*
X1064051Y591124D01*
X1063998Y591189D01*
X1063937Y591234D01*
X1063882Y591286D01*
X1063809Y591328D01*
X1063742Y591377D01*
X1063671Y591406D01*
X1063605Y591443D01*
X1063452Y591494D01*
X1003343Y607601D01*
X1003279Y607609D01*
X1003217Y607628D01*
X1003122Y607631D01*
X1003028Y607644D01*
X1002964Y607636D01*
X1002899Y607639D01*
X1002806Y607618D01*
X1002712Y607607D01*
X1002651Y607584D01*
X1002588Y607570D01*
X1002504Y607527D01*
X1002415Y607493D01*
X1002362Y607456D01*
X1002304Y607427D01*
X1002233Y607364D01*
X1002215Y607352D01*
X968640Y611356D01*
X968591Y611356D01*
X968543Y611364D01*
X968382Y611360D01*
X932390Y608290D01*
X932278Y608266D01*
X932164Y608250D01*
X932123Y608233D01*
X932079Y608224D01*
X931976Y608172D01*
X931870Y608129D01*
X931834Y608102D01*
X931795Y608082D01*
X931708Y608007D01*
X931616Y607938D01*
X931588Y607903D01*
X931554Y607874D01*
X931489Y607780D01*
X931417Y607690D01*
X931398Y607649D01*
X931373Y607613D01*
X931333Y607505D01*
X931285Y607400D01*
X931278Y607356D01*
X931262Y607315D01*
X931253Y607229D01*
X872618Y591518D01*
X872559Y591493D01*
X872496Y591478D01*
X872412Y591434D01*
X872324Y591398D01*
X872272Y591359D01*
X872215Y591329D01*
X872145Y591265D01*
X872069Y591208D01*
X872028Y591158D01*
X871980Y591114D01*
X871928Y591035D01*
X871868Y590961D01*
X871842Y590902D01*
X871806Y590848D01*
X871775Y590758D01*
X871736Y590672D01*
X871724Y590608D01*
X871704Y590547D01*
X871696Y590452D01*
X871679Y590359D01*
X871684Y590295D01*
X871679Y590230D01*
X871696Y590136D01*
X871703Y590042D01*
X871723Y589981D01*
X871734Y589917D01*
X871792Y589766D01*
X900582Y526481D01*
X900595Y526460D01*
X900604Y526436D01*
X900679Y526324D01*
X900749Y526211D01*
X900767Y526193D01*
X900781Y526172D01*
X900882Y526083D01*
X900978Y525990D01*
X901000Y525977D01*
X901019Y525961D01*
X901138Y525899D01*
X901255Y525833D01*
X901279Y525827D01*
X901302Y525815D01*
X901433Y525785D01*
X901561Y525750D01*
X901587Y525750D01*
X901612Y525744D01*
X901746Y525748D01*
X901879Y525746D01*
X901904Y525752D01*
X901930Y525752D01*
X902059Y525789D01*
X902189Y525821D01*
X902211Y525833D01*
X902236Y525840D01*
X902351Y525907D01*
X902469Y525970D01*
X902488Y525987D01*
X902510Y526000D01*
X902605Y526094D01*
X902704Y526185D01*
X902718Y526206D01*
X902736Y526224D01*
X902827Y526357D01*
X904782Y529632D01*
X907154Y532493D01*
X909938Y534956D01*
X913066Y536962D01*
X916466Y538464D01*
X920055Y539426D01*
X923750Y539825D01*
X927463Y539652D01*
X931105Y538911D01*
X934590Y537619D01*
X937920Y535760D01*
X937933Y535755D01*
X937945Y535746D01*
X938081Y535695D01*
X938215Y535641D01*
X938229Y535639D01*
X938242Y535634D01*
X938387Y535618D01*
X938531Y535599D01*
X938544Y535600D01*
X938558Y535599D01*
X938702Y535619D01*
X938846Y535637D01*
X938859Y535642D01*
X938873Y535644D01*
X939007Y535699D01*
X939143Y535752D01*
X939154Y535760D01*
X939167Y535765D01*
X939283Y535852D01*
X939401Y535937D01*
X939410Y535947D01*
X939422Y535956D01*
X939513Y536069D01*
X939606Y536180D01*
X939612Y536193D01*
X939621Y536204D01*
X939680Y536336D01*
X939743Y536467D01*
X939746Y536481D01*
X939752Y536494D01*
X939777Y536636D01*
X939805Y536779D01*
X939804Y536793D01*
X939807Y536807D01*
X939804Y536968D01*
X939768Y537429D01*
X939931Y537581D01*
X939931Y537582D01*
X942647Y540120D01*
X942741Y540207D01*
X947025Y543228D01*
X951682Y545634D01*
X956625Y547378D01*
X961761Y548428D01*
X966992Y548765D01*
X972219Y548382D01*
X977345Y547286D01*
X982273Y545497D01*
X986909Y543051D01*
X991165Y539992D01*
X995026Y536318D01*
X995077Y536281D01*
X995122Y536236D01*
X995205Y536187D01*
X995282Y536130D01*
X995341Y536106D01*
X995396Y536073D01*
X995488Y536046D01*
X995577Y536011D01*
X995640Y536002D01*
X995701Y535984D01*
X995797Y535981D01*
X995892Y535968D01*
X995919Y535972D01*
X995974Y535958D01*
X996103Y535920D01*
X996128Y535919D01*
X996153Y535913D01*
X996287Y535914D01*
X996421Y535909D01*
X996445Y535915D01*
X996471Y535915D01*
X996601Y535949D01*
X996731Y535978D01*
X996754Y535989D01*
X996779Y535996D01*
X996924Y536065D01*
X1000254Y537924D01*
X1003739Y539216D01*
X1007381Y539957D01*
X1011094Y540130D01*
X1014789Y539731D01*
X1018379Y538769D01*
X1021778Y537267D01*
X1024907Y535261D01*
X1027690Y532798D01*
X1029752Y530312D01*
X1030062Y529937D01*
X1031363Y527757D01*
X1031334Y527698D01*
X1031331Y527684D01*
X1031329Y527680D01*
X1031321Y527638D01*
X1031315Y527609D01*
X1031286Y527522D01*
X1031281Y527454D01*
X1031267Y527387D01*
X1031270Y527296D01*
X1031264Y527205D01*
X1031277Y527138D01*
X1031279Y527070D01*
X1031305Y526982D01*
X1031322Y526892D01*
X1031351Y526830D01*
X1031370Y526765D01*
X1031417Y526686D01*
X1031456Y526603D01*
X1031499Y526551D01*
X1031534Y526492D01*
X1031599Y526428D01*
X1031657Y526357D01*
X1031712Y526317D01*
X1031761Y526269D01*
X1031840Y526223D01*
X1031913Y526169D01*
X1031977Y526143D01*
X1032036Y526109D01*
X1032124Y526084D01*
X1032208Y526050D01*
X1032276Y526041D01*
X1032342Y526023D01*
X1032433Y526020D01*
X1032524Y526008D01*
X1032591Y526017D01*
X1032659Y526015D01*
X1032818Y526041D01*
X1032925Y526066D01*
X1032928Y526066D01*
X1033071Y526043D01*
X1033085Y526045D01*
X1033099Y526043D01*
X1033243Y526060D01*
X1033388Y526074D01*
X1033401Y526079D01*
X1033415Y526081D01*
X1033550Y526134D01*
X1033687Y526183D01*
X1033698Y526191D01*
X1033711Y526196D01*
X1033819Y526274D01*
X1038010Y527246D01*
X1043230Y527720D01*
X1048466Y527475D01*
X1053619Y526514D01*
X1058592Y524856D01*
X1063290Y522532D01*
X1067626Y519586D01*
X1071517Y516074D01*
X1074890Y512061D01*
X1077682Y507625D01*
X1079839Y502847D01*
X1081345Y497735D01*
X1081371Y497677D01*
X1081387Y497616D01*
X1081434Y497532D01*
X1081473Y497444D01*
X1081512Y497394D01*
X1081543Y497338D01*
X1081609Y497269D01*
X1081669Y497193D01*
X1081719Y497155D01*
X1081763Y497109D01*
X1081845Y497058D01*
X1081921Y496999D01*
X1081979Y496974D01*
X1082033Y496941D01*
X1082125Y496912D01*
X1082213Y496874D01*
X1082276Y496864D01*
X1082336Y496845D01*
X1082432Y496840D01*
X1082527Y496825D01*
X1082590Y496832D01*
X1082654Y496828D01*
X1082748Y496847D01*
X1082844Y496856D01*
X1082903Y496878D01*
X1082966Y496890D01*
X1083052Y496932D01*
X1083143Y496965D01*
X1083195Y497001D01*
X1083205Y497006D01*
X1086911Y496952D01*
X1090575Y496329D01*
X1094099Y495150D01*
X1097401Y493443D01*
X1100401Y491250D01*
X1103029Y488622D01*
X1105222Y485622D01*
X1106929Y482320D01*
X1108108Y478796D01*
X1108731Y475132D01*
X1108779Y471843D01*
X1108756Y471808D01*
X1108710Y471758D01*
X1108668Y471677D01*
X1108617Y471601D01*
X1108594Y471537D01*
X1108562Y471477D01*
X1108541Y471387D01*
X1108510Y471301D01*
X1108504Y471233D01*
X1108489Y471167D01*
X1108490Y471076D01*
X1108482Y470984D01*
X1108493Y470917D01*
X1108494Y470849D01*
X1108519Y470761D01*
X1108533Y470671D01*
X1108561Y470608D01*
X1108579Y470543D01*
X1108624Y470463D01*
X1108661Y470379D01*
X1108703Y470326D01*
X1108737Y470267D01*
X1108801Y470201D01*
X1108857Y470129D01*
X1108911Y470087D01*
X1108959Y470039D01*
X1109037Y469991D01*
X1109109Y469935D01*
X1109172Y469908D01*
X1109230Y469873D01*
X1109381Y469816D01*
X1114479Y468264D01*
X1119237Y466065D01*
X1123649Y463234D01*
X1127631Y459825D01*
X1131108Y455903D01*
X1134016Y451541D01*
X1136298Y446822D01*
X1137911Y441835D01*
X1138826Y436674D01*
X1139025Y431435D01*
X1138505Y426219D01*
X1137253Y421039D01*
X1137246Y420976D01*
X1137230Y420915D01*
X1137229Y420819D01*
X1137218Y420723D01*
X1137227Y420660D01*
X1137226Y420597D01*
X1137249Y420503D01*
X1137262Y420408D01*
X1137287Y420350D01*
X1137302Y420288D01*
X1137347Y420203D01*
X1137384Y420114D01*
X1137422Y420063D01*
X1137452Y420007D01*
X1137517Y419936D01*
X1137574Y419860D01*
X1137624Y419820D01*
X1137667Y419773D01*
X1137747Y419720D01*
X1137822Y419660D01*
X1137880Y419634D01*
X1137933Y419599D01*
X1138024Y419569D01*
X1138112Y419529D01*
X1138174Y419518D01*
X1138234Y419497D01*
X1138330Y419490D01*
X1138425Y419473D01*
X1138488Y419478D01*
X1138551Y419474D01*
X1138646Y419490D01*
X1138742Y419498D01*
X1138802Y419518D01*
X1138824Y419522D01*
X1141411Y417978D01*
X1144272Y415606D01*
X1146735Y412822D01*
X1148741Y409694D01*
X1150243Y406294D01*
X1151205Y402705D01*
X1151604Y399010D01*
X1151431Y395297D01*
X1150690Y391655D01*
X1149398Y388170D01*
X1148021Y385704D01*
X1147965Y385692D01*
X1147904Y385662D01*
X1147839Y385641D01*
X1147762Y385593D01*
X1147680Y385552D01*
X1147628Y385508D01*
X1147570Y385472D01*
X1147507Y385405D01*
X1147438Y385346D01*
X1147399Y385290D01*
X1147352Y385241D01*
X1147307Y385161D01*
X1147255Y385086D01*
X1147231Y385022D01*
X1147198Y384962D01*
X1147175Y384874D01*
X1147142Y384788D01*
X1147135Y384721D01*
X1147118Y384655D01*
X1147117Y384563D01*
X1147107Y384472D01*
X1147117Y384405D01*
X1147117Y384337D01*
X1147139Y384248D01*
X1147152Y384157D01*
X1147178Y384094D01*
X1147195Y384028D01*
X1147239Y383948D01*
X1147273Y383863D01*
X1147314Y383809D01*
X1147347Y383749D01*
X1147449Y383625D01*
X1151088Y379731D01*
X1154109Y375448D01*
X1156514Y370790D01*
X1158259Y365847D01*
X1159309Y360712D01*
X1159646Y355481D01*
X1159263Y350253D01*
X1158166Y345127D01*
X1156378Y340199D01*
X1153932Y335564D01*
X1150873Y331307D01*
X1147199Y327446D01*
X1147161Y327395D01*
X1147116Y327350D01*
X1147067Y327267D01*
X1147010Y327190D01*
X1146987Y327131D01*
X1146954Y327077D01*
X1146927Y326984D01*
X1146891Y326895D01*
X1146883Y326832D01*
X1146865Y326771D01*
X1146862Y326675D01*
X1146849Y326580D01*
X1146857Y326517D01*
X1146855Y326453D01*
X1146876Y326360D01*
X1146887Y326264D01*
X1146910Y326205D01*
X1146924Y326143D01*
X1146967Y326057D01*
X1147002Y325968D01*
X1147039Y325916D01*
X1147068Y325859D01*
X1147131Y325787D01*
X1147187Y325709D01*
X1147236Y325668D01*
X1147278Y325620D01*
X1147357Y325566D01*
X1147431Y325504D01*
X1147488Y325477D01*
X1147540Y325441D01*
X1147631Y325409D01*
X1147717Y325367D01*
X1147780Y325355D01*
X1147839Y325333D01*
X1147998Y325308D01*
X1148147Y325293D01*
X1149703Y322506D01*
X1150995Y319021D01*
X1151736Y315379D01*
X1151909Y311666D01*
X1151510Y307971D01*
X1150548Y304381D01*
X1149046Y300982D01*
X1147040Y297853D01*
X1144577Y295070D01*
X1141716Y292698D01*
X1139536Y291397D01*
X1139477Y291426D01*
X1139388Y291446D01*
X1139301Y291474D01*
X1139233Y291479D01*
X1139166Y291493D01*
X1139075Y291490D01*
X1138984Y291496D01*
X1138917Y291484D01*
X1138849Y291481D01*
X1138761Y291455D01*
X1138671Y291438D01*
X1138609Y291409D01*
X1138544Y291390D01*
X1138465Y291343D01*
X1138382Y291304D01*
X1138330Y291261D01*
X1138271Y291226D01*
X1138207Y291161D01*
X1138136Y291103D01*
X1138096Y291048D01*
X1138048Y290999D01*
X1138002Y290920D01*
X1137948Y290847D01*
X1137922Y290783D01*
X1137888Y290725D01*
X1137863Y290637D01*
X1137829Y290552D01*
X1137820Y290484D01*
X1137802Y290419D01*
X1137799Y290327D01*
X1137787Y290236D01*
X1137795Y290169D01*
X1137794Y290101D01*
X1137820Y289942D01*
X1137845Y289835D01*
X1137845Y289832D01*
X1137822Y289689D01*
X1137824Y289675D01*
X1137822Y289661D01*
X1137839Y289517D01*
X1137853Y289372D01*
X1137858Y289359D01*
X1137860Y289345D01*
X1137913Y289210D01*
X1137962Y289073D01*
X1137970Y289062D01*
X1137975Y289049D01*
X1138053Y288941D01*
X1139025Y284751D01*
X1139499Y279530D01*
X1139254Y274294D01*
X1138293Y269141D01*
X1136635Y264168D01*
X1134311Y259470D01*
X1131365Y255134D01*
X1127853Y251243D01*
X1123840Y247870D01*
X1119404Y245079D01*
X1114626Y242921D01*
X1109514Y241415D01*
X1109456Y241389D01*
X1109395Y241373D01*
X1109311Y241326D01*
X1109223Y241287D01*
X1109173Y241248D01*
X1109117Y241217D01*
X1109048Y241151D01*
X1108972Y241091D01*
X1108934Y241041D01*
X1108888Y240997D01*
X1108872Y240972D01*
X1108756Y240907D01*
X1108738Y240889D01*
X1108716Y240876D01*
X1108623Y240780D01*
X1108526Y240688D01*
X1108512Y240666D01*
X1108495Y240648D01*
X1108428Y240531D01*
X1108357Y240418D01*
X1108350Y240394D01*
X1108337Y240371D01*
X1108302Y240242D01*
X1108261Y240115D01*
X1108260Y240089D01*
X1108253Y240065D01*
X1108241Y239904D01*
X1108186Y236090D01*
X1107562Y232426D01*
X1106383Y228902D01*
X1104676Y225600D01*
X1102483Y222600D01*
X1099855Y219972D01*
X1096855Y217778D01*
X1093553Y216072D01*
X1090029Y214893D01*
X1086365Y214269D01*
X1082551Y214214D01*
X1082537Y214212D01*
X1082523Y214214D01*
X1082379Y214190D01*
X1082236Y214170D01*
X1082223Y214165D01*
X1082209Y214162D01*
X1082076Y214104D01*
X1081942Y214049D01*
X1081931Y214040D01*
X1081918Y214035D01*
X1081803Y213945D01*
X1081687Y213858D01*
X1081678Y213847D01*
X1081667Y213838D01*
X1081579Y213724D01*
X1081488Y213610D01*
X1081482Y213597D01*
X1081474Y213586D01*
X1081417Y213453D01*
X1081357Y213321D01*
X1081354Y213307D01*
X1081349Y213294D01*
X1081327Y213150D01*
X1081301Y213007D01*
X1081302Y212993D01*
X1081300Y212980D01*
X1081315Y212835D01*
X1081326Y212690D01*
X1081330Y212677D01*
X1081332Y212663D01*
X1081381Y212527D01*
X1081428Y212389D01*
X1081436Y212377D01*
X1081441Y212364D01*
X1081523Y212226D01*
X1081606Y212106D01*
X1080348Y207976D01*
X1078149Y203218D01*
X1077207Y201749D01*
X1077206Y201749D01*
X1076392Y200480D01*
X1075318Y198806D01*
X1071909Y194824D01*
X1067987Y191346D01*
X1063625Y188439D01*
X1058906Y186157D01*
X1053919Y184544D01*
X1048758Y183629D01*
X1043519Y183430D01*
X1038304Y183950D01*
X1033123Y185201D01*
X1033061Y185208D01*
X1032978Y185231D01*
X1032952Y185231D01*
X1032927Y185237D01*
X1032828Y185234D01*
X1032807Y185237D01*
X1032785Y185234D01*
X1032660Y185235D01*
X1032635Y185229D01*
X1032609Y185229D01*
X1032480Y185192D01*
X1032350Y185160D01*
X1032328Y185148D01*
X1032303Y185141D01*
X1032188Y185074D01*
X1032070Y185011D01*
X1032051Y184994D01*
X1032029Y184981D01*
X1031934Y184887D01*
X1031835Y184796D01*
X1031821Y184775D01*
X1031803Y184757D01*
X1031712Y184624D01*
X1029757Y181349D01*
X1027385Y178488D01*
X1024602Y176025D01*
X1021473Y174019D01*
X1018073Y172517D01*
X1014484Y171555D01*
X1010789Y171156D01*
X1007076Y171329D01*
X1003434Y172070D01*
X999949Y173362D01*
X996619Y175221D01*
X996606Y175226D01*
X996594Y175235D01*
X996458Y175286D01*
X996324Y175340D01*
X996310Y175342D01*
X996297Y175347D01*
X996152Y175363D01*
X996008Y175382D01*
X995995Y175381D01*
X995981Y175382D01*
X995837Y175362D01*
X995693Y175344D01*
X995680Y175339D01*
X995666Y175337D01*
X995532Y175282D01*
X995396Y175229D01*
X995385Y175221D01*
X995372Y175216D01*
X995256Y175129D01*
X995138Y175044D01*
X995129Y175034D01*
X995117Y175025D01*
X995026Y174912D01*
X994961Y174834D01*
X994935Y174820D01*
X994811Y174718D01*
X994538Y174463D01*
X993181Y173194D01*
X993180Y173194D01*
X991823Y171925D01*
X991822Y171925D01*
X990918Y171079D01*
X986634Y168058D01*
X981976Y165653D01*
X977033Y163908D01*
X971898Y162858D01*
X966667Y162521D01*
X961439Y162904D01*
X956313Y164001D01*
X951386Y165789D01*
X946750Y168235D01*
X942493Y171294D01*
X939428Y174210D01*
X939400Y174309D01*
X939387Y174331D01*
X939379Y174355D01*
X939307Y174467D01*
X939239Y174583D01*
X939221Y174601D01*
X939207Y174623D01*
X939109Y174714D01*
X939015Y174809D01*
X938993Y174821D01*
X938974Y174839D01*
X938856Y174903D01*
X938741Y174971D01*
X938717Y174978D01*
X938695Y174991D01*
X938565Y175023D01*
X938563Y175024D01*
X938536Y175051D01*
X938453Y175100D01*
X938376Y175157D01*
X938317Y175180D01*
X938263Y175213D01*
X938170Y175240D01*
X938081Y175276D01*
X938018Y175284D01*
X937957Y175302D01*
X937861Y175305D01*
X937766Y175318D01*
X937703Y175310D01*
X937639Y175312D01*
X937546Y175291D01*
X937450Y175280D01*
X937391Y175257D01*
X937329Y175243D01*
X937243Y175200D01*
X937154Y175165D01*
X937102Y175128D01*
X937045Y175099D01*
X936973Y175036D01*
X936895Y174980D01*
X936854Y174931D01*
X936807Y174889D01*
X936752Y174810D01*
X936691Y174736D01*
X936663Y174679D01*
X936627Y174627D01*
X936595Y174536D01*
X936553Y174450D01*
X936541Y174387D01*
X936519Y174328D01*
X936515Y174302D01*
X934285Y173057D01*
X930800Y171765D01*
X927158Y171024D01*
X923445Y170851D01*
X919750Y171250D01*
X916160Y172212D01*
X912761Y173714D01*
X909632Y175720D01*
X906849Y178183D01*
X904477Y181044D01*
X903176Y183224D01*
X903205Y183283D01*
X903225Y183372D01*
X903253Y183459D01*
X903258Y183527D01*
X903272Y183594D01*
X903269Y183685D01*
X903275Y183776D01*
X903263Y183843D01*
X903260Y183911D01*
X903234Y183999D01*
X903217Y184089D01*
X903188Y184151D01*
X903169Y184216D01*
X903122Y184295D01*
X903083Y184378D01*
X903040Y184430D01*
X903005Y184489D01*
X902940Y184553D01*
X902882Y184624D01*
X902827Y184664D01*
X902779Y184712D01*
X902699Y184758D01*
X902626Y184812D01*
X902562Y184838D01*
X902504Y184872D01*
X902416Y184897D01*
X902331Y184931D01*
X902263Y184940D01*
X902198Y184958D01*
X902106Y184961D01*
X902015Y184973D01*
X901948Y184965D01*
X901880Y184966D01*
X901721Y184940D01*
X901614Y184915D01*
X901611Y184915D01*
X901468Y184938D01*
X901454Y184936D01*
X901440Y184938D01*
X901296Y184921D01*
X901151Y184907D01*
X901138Y184902D01*
X901124Y184900D01*
X900989Y184847D01*
X900852Y184798D01*
X900841Y184790D01*
X900828Y184785D01*
X900720Y184707D01*
X896530Y183735D01*
X891309Y183261D01*
X886073Y183506D01*
X880920Y184467D01*
X875947Y186125D01*
X871249Y188449D01*
X866913Y191395D01*
X863022Y194907D01*
X859649Y198920D01*
X856857Y203356D01*
X854700Y208134D01*
X853194Y213246D01*
X853168Y213304D01*
X853152Y213365D01*
X853105Y213449D01*
X853066Y213537D01*
X853027Y213587D01*
X852996Y213643D01*
X852930Y213712D01*
X852870Y213788D01*
X852820Y213826D01*
X852776Y213872D01*
X852694Y213923D01*
X852618Y213982D01*
X852560Y214007D01*
X852506Y214040D01*
X852414Y214069D01*
X852326Y214107D01*
X852263Y214117D01*
X852203Y214136D01*
X852107Y214141D01*
X852012Y214156D01*
X851949Y214150D01*
X851885Y214153D01*
X851791Y214134D01*
X851695Y214125D01*
X851636Y214103D01*
X851573Y214091D01*
X851487Y214049D01*
X851396Y214016D01*
X851344Y213980D01*
X851334Y213975D01*
X847628Y214029D01*
X843965Y214652D01*
X840440Y215831D01*
X837138Y217538D01*
X834138Y219731D01*
X831510Y222359D01*
X829317Y225359D01*
X827610Y228661D01*
X826431Y232186D01*
X825808Y235849D01*
X825753Y239664D01*
X825751Y239677D01*
X825752Y239691D01*
X825741Y239759D01*
X825740Y239827D01*
X825719Y239902D01*
X825708Y239978D01*
X825703Y239991D01*
X825701Y240005D01*
X825673Y240068D01*
X825655Y240133D01*
X825616Y240201D01*
X825587Y240272D01*
X825578Y240284D01*
X825573Y240297D01*
X825531Y240350D01*
X825497Y240409D01*
X825443Y240465D01*
X825396Y240527D01*
X825385Y240536D01*
X825377Y240547D01*
X825323Y240588D01*
X825275Y240637D01*
X825209Y240678D01*
X825148Y240726D01*
X825136Y240732D01*
X825125Y240741D01*
X825062Y240767D01*
X825004Y240803D01*
X824864Y240855D01*
X824859Y240858D01*
X824857Y240858D01*
X824853Y240859D01*
X819755Y242412D01*
X814997Y244611D01*
X810585Y247442D01*
X806603Y250851D01*
X803125Y254773D01*
X800218Y259135D01*
X797936Y263854D01*
X796323Y268841D01*
X795408Y274002D01*
X795209Y279241D01*
X795729Y284456D01*
X796980Y289637D01*
X796987Y289699D01*
X797010Y289782D01*
X797010Y289808D01*
X797016Y289833D01*
X797013Y289932D01*
X797016Y289953D01*
X797013Y289975D01*
X797014Y290100D01*
X797008Y290125D01*
X797008Y290151D01*
X796971Y290280D01*
X796939Y290410D01*
X796927Y290432D01*
X796920Y290457D01*
X796853Y290572D01*
X796790Y290690D01*
X796773Y290709D01*
X796760Y290731D01*
X796666Y290826D01*
X796575Y290925D01*
X796554Y290939D01*
X796536Y290957D01*
X796403Y291048D01*
X793128Y293003D01*
X790267Y295375D01*
X787804Y298158D01*
X785798Y301287D01*
X784296Y304687D01*
X783334Y308276D01*
X782935Y311971D01*
X783108Y315684D01*
X783849Y319326D01*
X785141Y322811D01*
X786276Y324844D01*
X786318Y324880D01*
X786376Y324916D01*
X786439Y324983D01*
X786508Y325042D01*
X786547Y325098D01*
X786594Y325147D01*
X786639Y325228D01*
X786691Y325302D01*
X786715Y325366D01*
X786748Y325426D01*
X786771Y325514D01*
X786804Y325600D01*
X786811Y325667D01*
X786828Y325733D01*
X786829Y325825D01*
X786830Y325836D01*
X787000Y326141D01*
X787005Y326154D01*
X787014Y326166D01*
X787065Y326302D01*
X787119Y326436D01*
X787121Y326450D01*
X787126Y326463D01*
X787142Y326608D01*
X787161Y326752D01*
X787160Y326765D01*
X787161Y326779D01*
X787141Y326923D01*
X787123Y327067D01*
X787118Y327080D01*
X787116Y327094D01*
X787061Y327228D01*
X787008Y327364D01*
X787000Y327375D01*
X786995Y327388D01*
X786908Y327504D01*
X786823Y327622D01*
X786813Y327631D01*
X786804Y327643D01*
X786691Y327734D01*
X786580Y327827D01*
X786567Y327833D01*
X786556Y327842D01*
X786424Y327901D01*
X786293Y327964D01*
X786279Y327967D01*
X786266Y327973D01*
X786124Y327998D01*
X785981Y328026D01*
X785967Y328025D01*
X785953Y328028D01*
X785792Y328025D01*
X785350Y327991D01*
X782858Y330657D01*
X779837Y334940D01*
X777432Y339598D01*
X775687Y344541D01*
X774637Y349676D01*
X774300Y354908D01*
X774683Y360135D01*
X775780Y365261D01*
X777568Y370189D01*
X780014Y374824D01*
X783073Y379081D01*
X786747Y382942D01*
X786785Y382993D01*
X786830Y383038D01*
X786879Y383121D01*
X786936Y383198D01*
X786959Y383257D01*
X786992Y383311D01*
X787019Y383404D01*
X787055Y383493D01*
X787063Y383556D01*
X787081Y383617D01*
X787084Y383713D01*
X787097Y383808D01*
X787089Y383871D01*
X787091Y383935D01*
X787070Y384028D01*
X787059Y384124D01*
X787036Y384183D01*
X787022Y384245D01*
X786979Y384331D01*
X786944Y384420D01*
X786907Y384472D01*
X786878Y384529D01*
X786848Y384563D01*
X786851Y384642D01*
X786845Y384666D01*
X786845Y384692D01*
X786811Y384822D01*
X786782Y384952D01*
X786771Y384975D01*
X786764Y385000D01*
X786695Y385145D01*
X784836Y388475D01*
X783544Y391960D01*
X782803Y395602D01*
X782630Y399315D01*
X783029Y403010D01*
X783991Y406600D01*
X785493Y409999D01*
X787499Y413128D01*
X789962Y415911D01*
X792823Y418283D01*
X796098Y420238D01*
X796109Y420247D01*
X796122Y420252D01*
X796235Y420345D01*
X796349Y420434D01*
X796357Y420445D01*
X796368Y420454D01*
X796454Y420571D01*
X796543Y420686D01*
X796548Y420699D01*
X796557Y420710D01*
X796611Y420845D01*
X796668Y420978D01*
X796670Y420992D01*
X796675Y421005D01*
X796694Y421149D01*
X796717Y421292D01*
X796715Y421306D01*
X796717Y421320D01*
X796700Y421464D01*
X796686Y421609D01*
X796681Y421622D01*
X796679Y421636D01*
X796626Y421771D01*
X796577Y421908D01*
X796569Y421919D01*
X796564Y421932D01*
X796479Y422051D01*
X796397Y422170D01*
X796387Y422180D01*
X796378Y422191D01*
X796267Y422284D01*
X796196Y422346D01*
X796181Y422360D01*
X796178Y422362D01*
X796158Y422380D01*
X796145Y422386D01*
X796135Y422395D01*
X795994Y422474D01*
X733038Y452491D01*
X732966Y452514D01*
X732897Y452548D01*
X732815Y452564D01*
X732736Y452590D01*
X732660Y452596D01*
X732586Y452611D01*
X732502Y452606D01*
X732419Y452612D01*
X732344Y452598D01*
X732268Y452594D01*
X732188Y452569D01*
X732106Y452554D01*
X732037Y452522D01*
X731964Y452499D01*
X731893Y452455D01*
X731817Y452420D01*
X731759Y452372D01*
X731694Y452332D01*
X731636Y452272D01*
X731571Y452219D01*
X731526Y452158D01*
X731474Y452103D01*
X731432Y452030D01*
X731383Y451963D01*
X731354Y451892D01*
X731317Y451826D01*
X731266Y451673D01*
X715159Y391564D01*
X715151Y391500D01*
X715132Y391438D01*
X715129Y391343D01*
X715116Y391249D01*
X715124Y391185D01*
X715121Y391120D01*
X715142Y391027D01*
X715153Y390933D01*
X715176Y390872D01*
X715190Y390809D01*
X715233Y390725D01*
X715267Y390636D01*
X715304Y390583D01*
X715333Y390525D01*
X715396Y390454D01*
X715451Y390377D01*
X715500Y390335D01*
X715543Y390286D01*
X715621Y390233D01*
X715694Y390171D01*
X715717Y390160D01*
X711709Y356556D01*
X711709Y356507D01*
X711701Y356459D01*
X711705Y356298D01*
X714775Y320306D01*
X714799Y320194D01*
X714815Y320080D01*
X714832Y320039D01*
X714841Y319995D01*
X714893Y319892D01*
X714936Y319786D01*
X714963Y319750D01*
X714983Y319710D01*
X715058Y319623D01*
X715127Y319531D01*
X715162Y319504D01*
X715191Y319470D01*
X715286Y319404D01*
X715375Y319332D01*
X715416Y319314D01*
X715452Y319289D01*
X715560Y319249D01*
X715596Y319233D01*
X731242Y260839D01*
X731267Y260780D01*
X731282Y260717D01*
X731326Y260633D01*
X731362Y260545D01*
X731401Y260493D01*
X731431Y260436D01*
X731495Y260366D01*
X731552Y260290D01*
X731602Y260249D01*
X731646Y260201D01*
X731725Y260149D01*
X731799Y260089D01*
X731858Y260063D01*
X731912Y260027D01*
X732002Y259996D01*
X732023Y259987D01*
X745189Y229267D01*
X745213Y229225D01*
X745230Y229179D01*
X745314Y229041D01*
X765969Y199406D01*
X765990Y199383D01*
X766006Y199355D01*
X766112Y199235D01*
X810116Y155231D01*
X810167Y155192D01*
X810211Y155145D01*
X810292Y155095D01*
X810367Y155036D01*
X810426Y155011D01*
X810481Y154977D01*
X810572Y154948D01*
X810659Y154910D01*
X810723Y154900D01*
X810784Y154880D01*
X810879Y154875D01*
X810973Y154860D01*
X811037Y154866D01*
X811102Y154863D01*
X811195Y154881D01*
X811289Y154890D01*
X811350Y154912D01*
X811414Y154925D01*
X811499Y154966D01*
X811589Y154998D01*
X811642Y155034D01*
X811701Y155062D01*
X811748Y155102D01*
X838526Y135068D01*
X838568Y135044D01*
X838606Y135013D01*
X838747Y134935D01*
X870285Y120145D01*
X870305Y120114D01*
X870340Y120038D01*
X870388Y119980D01*
X870428Y119915D01*
X870488Y119857D01*
X870541Y119792D01*
X870602Y119747D01*
X870657Y119695D01*
X870730Y119653D01*
X870797Y119604D01*
X870868Y119575D01*
X870934Y119538D01*
X871087Y119487D01*
X931196Y103380D01*
X931260Y103372D01*
X931322Y103353D01*
X931417Y103350D01*
X931511Y103337D01*
X931576Y103345D01*
X931640Y103342D01*
X931733Y103363D01*
X931827Y103374D01*
X931888Y103397D01*
X931951Y103411D01*
X932035Y103454D01*
X932124Y103488D01*
X932177Y103525D01*
X932235Y103554D01*
X932306Y103617D01*
X932383Y103672D01*
X932425Y103721D01*
X932474Y103764D01*
X932504Y103808D01*
X965018Y99930D01*
X965067Y99930D01*
X965115Y99922D01*
X965276Y99926D01*
G37*
G36*
X355676Y99926D02*
X355676Y99926D01*
X391668Y102996D01*
X391781Y103020D01*
X391894Y103036D01*
X391935Y103053D01*
X391979Y103062D01*
X392082Y103114D01*
X392188Y103157D01*
X392224Y103184D01*
X392264Y103204D01*
X392351Y103279D01*
X392443Y103348D01*
X392471Y103383D01*
X392504Y103412D01*
X392524Y103441D01*
X452321Y119463D01*
X452380Y119488D01*
X452443Y119503D01*
X452527Y119547D01*
X452615Y119583D01*
X452667Y119622D01*
X452724Y119652D01*
X452794Y119716D01*
X452870Y119773D01*
X452911Y119823D01*
X452959Y119867D01*
X453011Y119946D01*
X453071Y120020D01*
X453097Y120079D01*
X453133Y120133D01*
X453164Y120223D01*
X453173Y120244D01*
X483893Y133410D01*
X483935Y133434D01*
X483981Y133451D01*
X484119Y133535D01*
X513754Y154190D01*
X513839Y154267D01*
X513930Y154338D01*
X513957Y154373D01*
X513990Y154403D01*
X514053Y154499D01*
X514123Y154590D01*
X514141Y154631D01*
X514165Y154668D01*
X514203Y154776D01*
X514248Y154882D01*
X514255Y154926D01*
X514270Y154968D01*
X514279Y155083D01*
X514297Y155196D01*
X514292Y155241D01*
X514296Y155285D01*
X514277Y155399D01*
X514270Y155465D01*
X557383Y198577D01*
X557423Y198628D01*
X557469Y198673D01*
X557520Y198753D01*
X557578Y198828D01*
X557604Y198888D01*
X557638Y198943D01*
X557666Y199033D01*
X557704Y199120D01*
X557714Y199184D01*
X557734Y199246D01*
X557739Y199340D01*
X557754Y199434D01*
X557748Y199499D01*
X557751Y199558D01*
X578092Y226747D01*
X578116Y226789D01*
X578147Y226827D01*
X578225Y226968D01*
X593015Y258507D01*
X593046Y258526D01*
X593122Y258561D01*
X593180Y258609D01*
X593245Y258649D01*
X593303Y258709D01*
X593368Y258762D01*
X593413Y258823D01*
X593465Y258878D01*
X593507Y258951D01*
X593556Y259018D01*
X593584Y259089D01*
X593622Y259155D01*
X593673Y259308D01*
X609780Y319417D01*
X609788Y319481D01*
X609807Y319543D01*
X609810Y319638D01*
X609823Y319732D01*
X609815Y319797D01*
X609818Y319861D01*
X609797Y319954D01*
X609786Y320048D01*
X609763Y320109D01*
X609749Y320172D01*
X609706Y320256D01*
X609672Y320345D01*
X609635Y320398D01*
X609606Y320456D01*
X609543Y320527D01*
X609488Y320604D01*
X609439Y320646D01*
X609396Y320695D01*
X609318Y320748D01*
X609245Y320810D01*
X609187Y320838D01*
X609134Y320875D01*
X609045Y320907D01*
X608959Y320948D01*
X608896Y320961D01*
X608835Y320983D01*
X608721Y321002D01*
X612637Y353832D01*
X612637Y353881D01*
X612645Y353929D01*
X612641Y354090D01*
X609659Y389053D01*
X609699Y389109D01*
X609726Y389180D01*
X609762Y389247D01*
X609782Y389329D01*
X609811Y389407D01*
X609820Y389482D01*
X609838Y389556D01*
X609837Y389640D01*
X609846Y389723D01*
X609836Y389798D01*
X609835Y389874D01*
X609803Y390032D01*
X593697Y450142D01*
X593672Y450201D01*
X593657Y450264D01*
X593613Y450348D01*
X593577Y450436D01*
X593538Y450488D01*
X593508Y450545D01*
X593444Y450615D01*
X593387Y450691D01*
X593337Y450732D01*
X593293Y450780D01*
X593214Y450832D01*
X593140Y450892D01*
X593081Y450918D01*
X593027Y450954D01*
X592937Y450985D01*
X592851Y451024D01*
X592787Y451036D01*
X592726Y451056D01*
X592631Y451064D01*
X592538Y451081D01*
X592474Y451076D01*
X592444Y451078D01*
X579445Y481409D01*
X579420Y481451D01*
X579403Y481497D01*
X579320Y481635D01*
X559162Y510557D01*
X559169Y510578D01*
X559176Y510654D01*
X559193Y510728D01*
X559190Y510812D01*
X559198Y510895D01*
X559185Y510970D01*
X559183Y511046D01*
X559160Y511126D01*
X559146Y511209D01*
X559116Y511279D01*
X559095Y511352D01*
X559052Y511424D01*
X559019Y511500D01*
X558972Y511560D01*
X558933Y511626D01*
X558827Y511746D01*
X514823Y555750D01*
X514772Y555789D01*
X514728Y555836D01*
X514647Y555886D01*
X514572Y555945D01*
X514513Y555970D01*
X514458Y556004D01*
X514367Y556033D01*
X514280Y556071D01*
X514216Y556081D01*
X514155Y556101D01*
X514060Y556106D01*
X513966Y556121D01*
X513902Y556115D01*
X513837Y556118D01*
X513744Y556100D01*
X513650Y556091D01*
X513589Y556069D01*
X513525Y556056D01*
X513440Y556015D01*
X513350Y555983D01*
X513297Y555947D01*
X513238Y555919D01*
X513191Y555879D01*
X486414Y575913D01*
X486371Y575937D01*
X486333Y575968D01*
X486192Y576046D01*
X454654Y590836D01*
X454634Y590867D01*
X454599Y590943D01*
X454551Y591001D01*
X454511Y591066D01*
X454451Y591124D01*
X454398Y591189D01*
X454337Y591234D01*
X454282Y591286D01*
X454209Y591328D01*
X454142Y591377D01*
X454071Y591406D01*
X454005Y591443D01*
X453852Y591494D01*
X393743Y607601D01*
X393679Y607609D01*
X393617Y607628D01*
X393522Y607631D01*
X393428Y607644D01*
X393364Y607636D01*
X393299Y607639D01*
X393206Y607618D01*
X393112Y607607D01*
X393051Y607584D01*
X392988Y607570D01*
X392904Y607527D01*
X392815Y607493D01*
X392762Y607456D01*
X392704Y607427D01*
X392633Y607364D01*
X392615Y607352D01*
X359040Y611356D01*
X358991Y611356D01*
X358943Y611364D01*
X358782Y611360D01*
X322790Y608290D01*
X322678Y608266D01*
X322564Y608250D01*
X322523Y608233D01*
X322479Y608224D01*
X322376Y608172D01*
X322270Y608129D01*
X322234Y608102D01*
X322195Y608082D01*
X322108Y608007D01*
X322016Y607938D01*
X321988Y607903D01*
X321954Y607874D01*
X321889Y607780D01*
X321817Y607690D01*
X321798Y607649D01*
X321773Y607613D01*
X321733Y607505D01*
X321685Y607400D01*
X321678Y607356D01*
X321662Y607315D01*
X321653Y607229D01*
X263018Y591518D01*
X262959Y591493D01*
X262896Y591478D01*
X262812Y591434D01*
X262724Y591398D01*
X262672Y591359D01*
X262615Y591329D01*
X262545Y591265D01*
X262469Y591208D01*
X262428Y591158D01*
X262380Y591114D01*
X262328Y591035D01*
X262268Y590961D01*
X262242Y590902D01*
X262206Y590848D01*
X262175Y590758D01*
X262136Y590672D01*
X262124Y590608D01*
X262104Y590547D01*
X262096Y590452D01*
X262079Y590359D01*
X262084Y590295D01*
X262079Y590230D01*
X262096Y590136D01*
X262103Y590042D01*
X262123Y589981D01*
X262134Y589917D01*
X262192Y589766D01*
X290982Y526481D01*
X290995Y526460D01*
X291004Y526436D01*
X291079Y526324D01*
X291149Y526211D01*
X291167Y526193D01*
X291181Y526172D01*
X291282Y526083D01*
X291378Y525990D01*
X291400Y525977D01*
X291419Y525961D01*
X291538Y525899D01*
X291655Y525833D01*
X291679Y525827D01*
X291702Y525815D01*
X291833Y525785D01*
X291961Y525750D01*
X291987Y525750D01*
X292012Y525744D01*
X292146Y525748D01*
X292279Y525746D01*
X292304Y525752D01*
X292330Y525752D01*
X292459Y525789D01*
X292589Y525821D01*
X292611Y525833D01*
X292636Y525840D01*
X292751Y525907D01*
X292869Y525970D01*
X292888Y525987D01*
X292910Y526000D01*
X293005Y526094D01*
X293104Y526185D01*
X293118Y526206D01*
X293136Y526224D01*
X293227Y526357D01*
X295182Y529632D01*
X297554Y532493D01*
X300338Y534956D01*
X303466Y536962D01*
X306866Y538464D01*
X310455Y539426D01*
X314150Y539825D01*
X317863Y539652D01*
X321505Y538911D01*
X324990Y537619D01*
X328320Y535760D01*
X328333Y535755D01*
X328345Y535746D01*
X328481Y535695D01*
X328615Y535641D01*
X328629Y535639D01*
X328642Y535634D01*
X328787Y535618D01*
X328931Y535599D01*
X328944Y535600D01*
X328958Y535599D01*
X329102Y535619D01*
X329246Y535637D01*
X329259Y535642D01*
X329273Y535644D01*
X329407Y535699D01*
X329543Y535752D01*
X329554Y535760D01*
X329567Y535765D01*
X329683Y535852D01*
X329801Y535937D01*
X329810Y535947D01*
X329822Y535956D01*
X329913Y536069D01*
X330006Y536180D01*
X330012Y536193D01*
X330021Y536204D01*
X330080Y536336D01*
X330143Y536467D01*
X330146Y536481D01*
X330152Y536494D01*
X330177Y536636D01*
X330205Y536779D01*
X330204Y536793D01*
X330207Y536807D01*
X330204Y536968D01*
X330168Y537429D01*
X330331Y537581D01*
X330331Y537582D01*
X333047Y540120D01*
X333141Y540207D01*
X337425Y543228D01*
X342082Y545634D01*
X347025Y547378D01*
X352161Y548428D01*
X357392Y548765D01*
X362619Y548382D01*
X367745Y547286D01*
X372673Y545497D01*
X377309Y543051D01*
X381565Y539992D01*
X385426Y536318D01*
X385477Y536281D01*
X385522Y536236D01*
X385605Y536187D01*
X385682Y536130D01*
X385741Y536106D01*
X385796Y536073D01*
X385888Y536046D01*
X385977Y536011D01*
X386040Y536002D01*
X386101Y535984D01*
X386197Y535981D01*
X386292Y535968D01*
X386319Y535972D01*
X386374Y535958D01*
X386503Y535920D01*
X386528Y535919D01*
X386553Y535913D01*
X386687Y535914D01*
X386821Y535909D01*
X386845Y535915D01*
X386871Y535915D01*
X387001Y535949D01*
X387131Y535978D01*
X387154Y535989D01*
X387179Y535996D01*
X387324Y536065D01*
X390654Y537924D01*
X394139Y539216D01*
X397781Y539957D01*
X401494Y540130D01*
X405189Y539731D01*
X408779Y538769D01*
X412178Y537267D01*
X415307Y535261D01*
X418090Y532798D01*
X420152Y530312D01*
X420462Y529937D01*
X421763Y527757D01*
X421734Y527698D01*
X421731Y527684D01*
X421729Y527680D01*
X421721Y527638D01*
X421715Y527609D01*
X421686Y527522D01*
X421681Y527454D01*
X421667Y527387D01*
X421670Y527296D01*
X421664Y527205D01*
X421677Y527138D01*
X421679Y527070D01*
X421705Y526982D01*
X421722Y526892D01*
X421751Y526830D01*
X421770Y526765D01*
X421817Y526686D01*
X421856Y526603D01*
X421899Y526551D01*
X421934Y526492D01*
X421999Y526428D01*
X422057Y526357D01*
X422112Y526317D01*
X422161Y526269D01*
X422240Y526223D01*
X422313Y526169D01*
X422377Y526143D01*
X422436Y526109D01*
X422524Y526084D01*
X422608Y526050D01*
X422676Y526041D01*
X422742Y526023D01*
X422833Y526020D01*
X422924Y526008D01*
X422991Y526017D01*
X423059Y526015D01*
X423218Y526041D01*
X423325Y526066D01*
X423328Y526066D01*
X423471Y526043D01*
X423485Y526045D01*
X423499Y526043D01*
X423643Y526060D01*
X423788Y526074D01*
X423801Y526079D01*
X423815Y526081D01*
X423950Y526134D01*
X424087Y526183D01*
X424098Y526191D01*
X424111Y526196D01*
X424219Y526274D01*
X428410Y527246D01*
X433630Y527720D01*
X438866Y527475D01*
X444019Y526514D01*
X448992Y524856D01*
X453690Y522532D01*
X458026Y519586D01*
X461917Y516074D01*
X465290Y512061D01*
X468082Y507625D01*
X470239Y502847D01*
X471745Y497735D01*
X471771Y497677D01*
X471787Y497616D01*
X471834Y497532D01*
X471873Y497444D01*
X471912Y497394D01*
X471943Y497338D01*
X472009Y497269D01*
X472069Y497193D01*
X472119Y497155D01*
X472163Y497109D01*
X472245Y497058D01*
X472321Y496999D01*
X472379Y496974D01*
X472433Y496941D01*
X472525Y496912D01*
X472613Y496874D01*
X472676Y496864D01*
X472736Y496845D01*
X472832Y496840D01*
X472927Y496825D01*
X472990Y496832D01*
X473054Y496828D01*
X473148Y496847D01*
X473244Y496856D01*
X473303Y496878D01*
X473366Y496890D01*
X473452Y496932D01*
X473543Y496965D01*
X473595Y497001D01*
X473605Y497006D01*
X477311Y496952D01*
X480975Y496329D01*
X484499Y495150D01*
X487801Y493443D01*
X490801Y491250D01*
X493429Y488622D01*
X495622Y485622D01*
X497329Y482320D01*
X498508Y478796D01*
X499131Y475132D01*
X499179Y471843D01*
X499156Y471808D01*
X499110Y471758D01*
X499068Y471677D01*
X499017Y471601D01*
X498994Y471537D01*
X498962Y471477D01*
X498941Y471387D01*
X498910Y471301D01*
X498904Y471233D01*
X498889Y471167D01*
X498890Y471076D01*
X498882Y470984D01*
X498893Y470917D01*
X498894Y470849D01*
X498919Y470761D01*
X498933Y470671D01*
X498961Y470608D01*
X498979Y470543D01*
X499024Y470463D01*
X499061Y470379D01*
X499103Y470326D01*
X499137Y470267D01*
X499201Y470201D01*
X499257Y470129D01*
X499311Y470087D01*
X499359Y470039D01*
X499437Y469991D01*
X499509Y469935D01*
X499572Y469908D01*
X499630Y469873D01*
X499781Y469816D01*
X504879Y468264D01*
X509637Y466065D01*
X514049Y463234D01*
X518031Y459825D01*
X521508Y455903D01*
X524416Y451541D01*
X526698Y446822D01*
X528311Y441835D01*
X529226Y436674D01*
X529425Y431435D01*
X528905Y426219D01*
X527653Y421039D01*
X527646Y420976D01*
X527630Y420915D01*
X527629Y420819D01*
X527618Y420723D01*
X527627Y420660D01*
X527626Y420597D01*
X527649Y420503D01*
X527662Y420408D01*
X527687Y420350D01*
X527702Y420288D01*
X527747Y420203D01*
X527784Y420114D01*
X527822Y420063D01*
X527852Y420007D01*
X527917Y419936D01*
X527974Y419860D01*
X528024Y419820D01*
X528067Y419773D01*
X528147Y419720D01*
X528222Y419660D01*
X528280Y419634D01*
X528333Y419599D01*
X528424Y419569D01*
X528512Y419529D01*
X528574Y419518D01*
X528634Y419497D01*
X528730Y419490D01*
X528825Y419473D01*
X528888Y419478D01*
X528951Y419474D01*
X529046Y419490D01*
X529142Y419498D01*
X529202Y419518D01*
X529224Y419522D01*
X531811Y417978D01*
X534672Y415606D01*
X537135Y412822D01*
X539141Y409694D01*
X540643Y406294D01*
X541605Y402705D01*
X542004Y399010D01*
X541831Y395297D01*
X541090Y391655D01*
X539798Y388170D01*
X538421Y385704D01*
X538365Y385692D01*
X538304Y385662D01*
X538239Y385641D01*
X538162Y385593D01*
X538080Y385552D01*
X538028Y385508D01*
X537970Y385472D01*
X537907Y385405D01*
X537838Y385346D01*
X537799Y385290D01*
X537752Y385241D01*
X537707Y385161D01*
X537655Y385086D01*
X537631Y385022D01*
X537598Y384962D01*
X537575Y384874D01*
X537542Y384788D01*
X537535Y384721D01*
X537518Y384655D01*
X537517Y384563D01*
X537507Y384472D01*
X537517Y384405D01*
X537517Y384337D01*
X537539Y384248D01*
X537552Y384157D01*
X537578Y384094D01*
X537595Y384028D01*
X537639Y383948D01*
X537673Y383863D01*
X537714Y383809D01*
X537747Y383749D01*
X537849Y383625D01*
X541488Y379731D01*
X544509Y375448D01*
X546914Y370790D01*
X548659Y365847D01*
X549709Y360712D01*
X550046Y355481D01*
X549663Y350253D01*
X548566Y345127D01*
X546778Y340199D01*
X544332Y335564D01*
X541273Y331307D01*
X537599Y327446D01*
X537561Y327395D01*
X537516Y327350D01*
X537467Y327267D01*
X537410Y327190D01*
X537387Y327131D01*
X537354Y327077D01*
X537327Y326984D01*
X537291Y326895D01*
X537283Y326832D01*
X537265Y326771D01*
X537262Y326675D01*
X537249Y326580D01*
X537257Y326517D01*
X537255Y326453D01*
X537276Y326360D01*
X537287Y326264D01*
X537310Y326205D01*
X537324Y326143D01*
X537367Y326057D01*
X537402Y325968D01*
X537439Y325916D01*
X537468Y325859D01*
X537531Y325787D01*
X537587Y325709D01*
X537636Y325668D01*
X537678Y325620D01*
X537757Y325566D01*
X537831Y325504D01*
X537888Y325477D01*
X537940Y325441D01*
X538031Y325409D01*
X538117Y325367D01*
X538180Y325355D01*
X538239Y325333D01*
X538398Y325308D01*
X538547Y325293D01*
X540103Y322506D01*
X541395Y319021D01*
X542136Y315379D01*
X542309Y311666D01*
X541910Y307971D01*
X540948Y304381D01*
X539446Y300982D01*
X537440Y297853D01*
X534977Y295070D01*
X532116Y292698D01*
X529936Y291397D01*
X529877Y291426D01*
X529788Y291446D01*
X529701Y291474D01*
X529633Y291479D01*
X529566Y291493D01*
X529475Y291490D01*
X529384Y291496D01*
X529317Y291484D01*
X529249Y291481D01*
X529161Y291455D01*
X529071Y291438D01*
X529009Y291409D01*
X528944Y291390D01*
X528865Y291343D01*
X528782Y291304D01*
X528730Y291261D01*
X528671Y291226D01*
X528607Y291161D01*
X528536Y291103D01*
X528496Y291048D01*
X528448Y290999D01*
X528402Y290920D01*
X528348Y290847D01*
X528322Y290783D01*
X528288Y290725D01*
X528263Y290637D01*
X528229Y290552D01*
X528220Y290484D01*
X528202Y290419D01*
X528199Y290327D01*
X528187Y290236D01*
X528195Y290169D01*
X528194Y290101D01*
X528220Y289942D01*
X528245Y289835D01*
X528245Y289832D01*
X528222Y289689D01*
X528224Y289675D01*
X528222Y289661D01*
X528239Y289517D01*
X528253Y289372D01*
X528258Y289359D01*
X528260Y289345D01*
X528313Y289210D01*
X528362Y289073D01*
X528370Y289062D01*
X528375Y289049D01*
X528453Y288941D01*
X529425Y284751D01*
X529899Y279530D01*
X529654Y274294D01*
X528693Y269141D01*
X527035Y264168D01*
X524711Y259470D01*
X521765Y255134D01*
X518253Y251243D01*
X514240Y247870D01*
X509804Y245079D01*
X505026Y242921D01*
X499914Y241415D01*
X499856Y241389D01*
X499795Y241373D01*
X499711Y241326D01*
X499623Y241287D01*
X499573Y241248D01*
X499517Y241217D01*
X499448Y241151D01*
X499372Y241091D01*
X499334Y241041D01*
X499288Y240997D01*
X499272Y240972D01*
X499156Y240907D01*
X499138Y240889D01*
X499116Y240876D01*
X499023Y240780D01*
X498926Y240688D01*
X498912Y240666D01*
X498895Y240648D01*
X498828Y240531D01*
X498757Y240418D01*
X498750Y240394D01*
X498737Y240371D01*
X498702Y240242D01*
X498661Y240115D01*
X498660Y240089D01*
X498653Y240065D01*
X498641Y239904D01*
X498586Y236090D01*
X497962Y232426D01*
X496783Y228902D01*
X495076Y225600D01*
X492883Y222600D01*
X490255Y219972D01*
X487255Y217778D01*
X483953Y216072D01*
X480429Y214893D01*
X476765Y214269D01*
X472951Y214214D01*
X472937Y214212D01*
X472923Y214214D01*
X472779Y214190D01*
X472636Y214170D01*
X472623Y214165D01*
X472609Y214162D01*
X472476Y214104D01*
X472342Y214049D01*
X472331Y214040D01*
X472318Y214035D01*
X472203Y213945D01*
X472087Y213858D01*
X472078Y213847D01*
X472067Y213838D01*
X471979Y213724D01*
X471888Y213610D01*
X471882Y213597D01*
X471874Y213586D01*
X471817Y213453D01*
X471757Y213321D01*
X471754Y213307D01*
X471749Y213294D01*
X471727Y213150D01*
X471701Y213007D01*
X471702Y212993D01*
X471700Y212980D01*
X471715Y212835D01*
X471726Y212690D01*
X471730Y212677D01*
X471732Y212663D01*
X471781Y212527D01*
X471828Y212389D01*
X471836Y212377D01*
X471841Y212364D01*
X471923Y212226D01*
X472006Y212106D01*
X470748Y207976D01*
X468549Y203218D01*
X467607Y201749D01*
X467606Y201749D01*
X466792Y200480D01*
X465718Y198806D01*
X462309Y194824D01*
X458387Y191346D01*
X454025Y188439D01*
X449306Y186157D01*
X444319Y184544D01*
X439158Y183629D01*
X433919Y183430D01*
X428704Y183950D01*
X423523Y185201D01*
X423461Y185208D01*
X423378Y185231D01*
X423352Y185231D01*
X423327Y185237D01*
X423228Y185234D01*
X423207Y185237D01*
X423185Y185234D01*
X423060Y185235D01*
X423035Y185229D01*
X423009Y185229D01*
X422880Y185192D01*
X422750Y185160D01*
X422728Y185148D01*
X422703Y185141D01*
X422588Y185074D01*
X422470Y185011D01*
X422451Y184994D01*
X422429Y184981D01*
X422334Y184887D01*
X422235Y184796D01*
X422221Y184775D01*
X422203Y184757D01*
X422112Y184624D01*
X420157Y181349D01*
X417785Y178488D01*
X415002Y176025D01*
X411873Y174019D01*
X408473Y172517D01*
X404884Y171555D01*
X401189Y171156D01*
X397476Y171329D01*
X393834Y172070D01*
X390349Y173362D01*
X387019Y175221D01*
X387006Y175226D01*
X386994Y175235D01*
X386858Y175286D01*
X386724Y175340D01*
X386710Y175342D01*
X386697Y175347D01*
X386552Y175363D01*
X386408Y175382D01*
X386395Y175381D01*
X386381Y175382D01*
X386237Y175362D01*
X386093Y175344D01*
X386080Y175339D01*
X386066Y175337D01*
X385932Y175282D01*
X385796Y175229D01*
X385785Y175221D01*
X385772Y175216D01*
X385656Y175129D01*
X385538Y175044D01*
X385529Y175034D01*
X385517Y175025D01*
X385426Y174912D01*
X385361Y174834D01*
X385335Y174820D01*
X385211Y174718D01*
X384938Y174463D01*
X383581Y173194D01*
X383580Y173194D01*
X382223Y171925D01*
X382222Y171925D01*
X381318Y171079D01*
X377034Y168058D01*
X372376Y165653D01*
X367433Y163908D01*
X362298Y162858D01*
X357067Y162521D01*
X351839Y162904D01*
X346713Y164001D01*
X341786Y165789D01*
X337150Y168235D01*
X332893Y171294D01*
X329828Y174210D01*
X329800Y174309D01*
X329787Y174331D01*
X329779Y174355D01*
X329707Y174467D01*
X329639Y174583D01*
X329621Y174601D01*
X329607Y174623D01*
X329509Y174714D01*
X329415Y174809D01*
X329393Y174821D01*
X329374Y174839D01*
X329256Y174903D01*
X329141Y174971D01*
X329117Y174978D01*
X329095Y174991D01*
X328965Y175023D01*
X328963Y175024D01*
X328936Y175051D01*
X328853Y175100D01*
X328776Y175157D01*
X328717Y175180D01*
X328663Y175213D01*
X328570Y175240D01*
X328481Y175276D01*
X328418Y175284D01*
X328357Y175302D01*
X328261Y175305D01*
X328166Y175318D01*
X328103Y175310D01*
X328039Y175312D01*
X327946Y175291D01*
X327850Y175280D01*
X327791Y175257D01*
X327729Y175243D01*
X327643Y175200D01*
X327554Y175165D01*
X327502Y175128D01*
X327445Y175099D01*
X327373Y175036D01*
X327295Y174980D01*
X327254Y174931D01*
X327207Y174889D01*
X327152Y174810D01*
X327091Y174736D01*
X327063Y174679D01*
X327027Y174627D01*
X326995Y174536D01*
X326953Y174450D01*
X326941Y174387D01*
X326919Y174328D01*
X326915Y174302D01*
X324685Y173057D01*
X321200Y171765D01*
X317558Y171024D01*
X313845Y170851D01*
X310150Y171250D01*
X306560Y172212D01*
X303161Y173714D01*
X300032Y175720D01*
X297249Y178183D01*
X294877Y181044D01*
X293576Y183224D01*
X293605Y183283D01*
X293625Y183372D01*
X293653Y183459D01*
X293658Y183527D01*
X293672Y183594D01*
X293669Y183685D01*
X293675Y183776D01*
X293663Y183843D01*
X293660Y183911D01*
X293634Y183999D01*
X293617Y184089D01*
X293588Y184151D01*
X293569Y184216D01*
X293522Y184295D01*
X293483Y184378D01*
X293440Y184430D01*
X293405Y184489D01*
X293340Y184553D01*
X293282Y184624D01*
X293227Y184664D01*
X293179Y184712D01*
X293099Y184758D01*
X293026Y184812D01*
X292962Y184838D01*
X292904Y184872D01*
X292816Y184897D01*
X292731Y184931D01*
X292663Y184940D01*
X292598Y184958D01*
X292506Y184961D01*
X292415Y184973D01*
X292348Y184965D01*
X292280Y184966D01*
X292121Y184940D01*
X292014Y184915D01*
X292011Y184915D01*
X291868Y184938D01*
X291854Y184936D01*
X291840Y184938D01*
X291696Y184921D01*
X291551Y184907D01*
X291538Y184902D01*
X291524Y184900D01*
X291389Y184847D01*
X291252Y184798D01*
X291241Y184790D01*
X291228Y184785D01*
X291120Y184707D01*
X286930Y183735D01*
X281709Y183261D01*
X276473Y183506D01*
X271320Y184467D01*
X266347Y186125D01*
X261649Y188449D01*
X257313Y191395D01*
X253422Y194907D01*
X250049Y198920D01*
X247257Y203356D01*
X245100Y208134D01*
X243594Y213246D01*
X243568Y213304D01*
X243552Y213365D01*
X243505Y213449D01*
X243466Y213537D01*
X243427Y213587D01*
X243396Y213643D01*
X243330Y213712D01*
X243270Y213788D01*
X243220Y213826D01*
X243176Y213872D01*
X243094Y213923D01*
X243018Y213982D01*
X242960Y214007D01*
X242906Y214040D01*
X242814Y214069D01*
X242726Y214107D01*
X242663Y214117D01*
X242603Y214136D01*
X242507Y214141D01*
X242412Y214156D01*
X242349Y214150D01*
X242285Y214153D01*
X242191Y214134D01*
X242095Y214125D01*
X242036Y214103D01*
X241973Y214091D01*
X241887Y214049D01*
X241796Y214016D01*
X241744Y213980D01*
X241734Y213975D01*
X238028Y214029D01*
X234365Y214652D01*
X230840Y215831D01*
X227538Y217538D01*
X224538Y219731D01*
X221910Y222359D01*
X219717Y225359D01*
X218010Y228661D01*
X216831Y232186D01*
X216208Y235849D01*
X216153Y239664D01*
X216151Y239677D01*
X216152Y239691D01*
X216141Y239759D01*
X216140Y239827D01*
X216119Y239902D01*
X216108Y239978D01*
X216103Y239991D01*
X216101Y240005D01*
X216073Y240068D01*
X216055Y240133D01*
X216016Y240201D01*
X215987Y240272D01*
X215978Y240284D01*
X215973Y240297D01*
X215931Y240350D01*
X215897Y240409D01*
X215843Y240465D01*
X215796Y240527D01*
X215785Y240536D01*
X215777Y240547D01*
X215723Y240588D01*
X215675Y240637D01*
X215609Y240678D01*
X215548Y240726D01*
X215536Y240732D01*
X215525Y240741D01*
X215462Y240767D01*
X215404Y240803D01*
X215264Y240855D01*
X215259Y240858D01*
X215257Y240858D01*
X215253Y240859D01*
X210155Y242412D01*
X205397Y244611D01*
X200985Y247442D01*
X197003Y250851D01*
X193525Y254773D01*
X190618Y259135D01*
X188336Y263854D01*
X186723Y268841D01*
X185808Y274002D01*
X185609Y279241D01*
X186129Y284456D01*
X187380Y289637D01*
X187387Y289699D01*
X187410Y289782D01*
X187410Y289808D01*
X187416Y289833D01*
X187413Y289932D01*
X187416Y289953D01*
X187413Y289975D01*
X187414Y290100D01*
X187408Y290125D01*
X187408Y290151D01*
X187371Y290280D01*
X187339Y290410D01*
X187327Y290432D01*
X187320Y290457D01*
X187253Y290572D01*
X187190Y290690D01*
X187173Y290709D01*
X187160Y290731D01*
X187066Y290826D01*
X186975Y290925D01*
X186954Y290939D01*
X186936Y290957D01*
X186803Y291048D01*
X183528Y293003D01*
X180667Y295375D01*
X178204Y298158D01*
X176198Y301287D01*
X174696Y304687D01*
X173734Y308276D01*
X173335Y311971D01*
X173508Y315684D01*
X174249Y319326D01*
X175541Y322811D01*
X176676Y324844D01*
X176718Y324880D01*
X176776Y324916D01*
X176839Y324983D01*
X176908Y325042D01*
X176947Y325098D01*
X176994Y325147D01*
X177039Y325228D01*
X177091Y325302D01*
X177115Y325366D01*
X177148Y325426D01*
X177171Y325514D01*
X177204Y325600D01*
X177211Y325667D01*
X177228Y325733D01*
X177229Y325825D01*
X177230Y325836D01*
X177400Y326141D01*
X177405Y326154D01*
X177414Y326166D01*
X177465Y326302D01*
X177519Y326436D01*
X177521Y326450D01*
X177526Y326463D01*
X177542Y326608D01*
X177561Y326752D01*
X177560Y326765D01*
X177561Y326779D01*
X177541Y326923D01*
X177523Y327067D01*
X177518Y327080D01*
X177516Y327094D01*
X177461Y327228D01*
X177408Y327364D01*
X177400Y327375D01*
X177395Y327388D01*
X177308Y327504D01*
X177223Y327622D01*
X177213Y327631D01*
X177204Y327643D01*
X177091Y327734D01*
X176980Y327827D01*
X176967Y327833D01*
X176956Y327842D01*
X176824Y327901D01*
X176693Y327964D01*
X176679Y327967D01*
X176666Y327973D01*
X176524Y327998D01*
X176381Y328026D01*
X176367Y328025D01*
X176353Y328028D01*
X176192Y328025D01*
X175750Y327991D01*
X173258Y330657D01*
X170237Y334940D01*
X167832Y339598D01*
X166087Y344541D01*
X165037Y349676D01*
X164700Y354908D01*
X165083Y360135D01*
X166180Y365261D01*
X167968Y370189D01*
X170414Y374824D01*
X173473Y379081D01*
X177147Y382942D01*
X177185Y382993D01*
X177230Y383038D01*
X177279Y383121D01*
X177336Y383198D01*
X177359Y383257D01*
X177392Y383311D01*
X177419Y383404D01*
X177455Y383493D01*
X177463Y383556D01*
X177481Y383617D01*
X177484Y383713D01*
X177497Y383808D01*
X177489Y383871D01*
X177491Y383935D01*
X177470Y384028D01*
X177459Y384124D01*
X177436Y384183D01*
X177422Y384245D01*
X177379Y384331D01*
X177344Y384420D01*
X177307Y384472D01*
X177278Y384529D01*
X177248Y384563D01*
X177251Y384642D01*
X177245Y384666D01*
X177245Y384692D01*
X177211Y384822D01*
X177182Y384952D01*
X177171Y384975D01*
X177164Y385000D01*
X177095Y385145D01*
X175236Y388475D01*
X173944Y391960D01*
X173203Y395602D01*
X173030Y399315D01*
X173429Y403010D01*
X174391Y406600D01*
X175893Y409999D01*
X177899Y413128D01*
X180362Y415911D01*
X183223Y418283D01*
X186498Y420238D01*
X186509Y420247D01*
X186522Y420252D01*
X186635Y420345D01*
X186749Y420434D01*
X186757Y420445D01*
X186768Y420454D01*
X186854Y420571D01*
X186943Y420686D01*
X186948Y420699D01*
X186957Y420710D01*
X187011Y420845D01*
X187068Y420978D01*
X187070Y420992D01*
X187075Y421005D01*
X187094Y421149D01*
X187117Y421292D01*
X187115Y421306D01*
X187117Y421320D01*
X187100Y421464D01*
X187086Y421609D01*
X187081Y421622D01*
X187079Y421636D01*
X187026Y421771D01*
X186977Y421908D01*
X186969Y421919D01*
X186964Y421932D01*
X186879Y422051D01*
X186797Y422170D01*
X186787Y422180D01*
X186778Y422191D01*
X186667Y422284D01*
X186596Y422346D01*
X186581Y422360D01*
X186578Y422362D01*
X186558Y422380D01*
X186545Y422386D01*
X186535Y422395D01*
X186394Y422474D01*
X123438Y452491D01*
X123366Y452514D01*
X123297Y452548D01*
X123215Y452564D01*
X123136Y452590D01*
X123060Y452596D01*
X122986Y452611D01*
X122902Y452606D01*
X122819Y452612D01*
X122744Y452598D01*
X122668Y452594D01*
X122588Y452569D01*
X122506Y452554D01*
X122437Y452522D01*
X122364Y452499D01*
X122293Y452455D01*
X122217Y452420D01*
X122159Y452372D01*
X122094Y452332D01*
X122036Y452272D01*
X121971Y452219D01*
X121926Y452158D01*
X121874Y452103D01*
X121832Y452030D01*
X121783Y451963D01*
X121754Y451892D01*
X121717Y451826D01*
X121666Y451673D01*
X105559Y391564D01*
X105551Y391500D01*
X105532Y391438D01*
X105529Y391343D01*
X105516Y391249D01*
X105524Y391185D01*
X105521Y391120D01*
X105542Y391027D01*
X105553Y390933D01*
X105576Y390872D01*
X105590Y390809D01*
X105633Y390725D01*
X105667Y390636D01*
X105704Y390583D01*
X105733Y390525D01*
X105796Y390454D01*
X105851Y390377D01*
X105900Y390335D01*
X105943Y390286D01*
X106021Y390233D01*
X106094Y390171D01*
X106117Y390160D01*
X102109Y356556D01*
X102109Y356507D01*
X102101Y356459D01*
X102105Y356298D01*
X105175Y320306D01*
X105199Y320194D01*
X105215Y320080D01*
X105232Y320039D01*
X105241Y319995D01*
X105293Y319892D01*
X105336Y319786D01*
X105363Y319750D01*
X105383Y319710D01*
X105458Y319623D01*
X105527Y319531D01*
X105562Y319504D01*
X105591Y319470D01*
X105686Y319404D01*
X105775Y319332D01*
X105816Y319314D01*
X105852Y319289D01*
X105960Y319249D01*
X105996Y319233D01*
X121642Y260839D01*
X121667Y260780D01*
X121682Y260717D01*
X121726Y260633D01*
X121762Y260545D01*
X121801Y260493D01*
X121831Y260436D01*
X121895Y260366D01*
X121952Y260290D01*
X122002Y260249D01*
X122046Y260201D01*
X122125Y260149D01*
X122199Y260089D01*
X122258Y260063D01*
X122312Y260027D01*
X122402Y259996D01*
X122423Y259987D01*
X135589Y229267D01*
X135613Y229225D01*
X135630Y229179D01*
X135714Y229041D01*
X156369Y199406D01*
X156390Y199383D01*
X156406Y199355D01*
X156512Y199235D01*
X200516Y155231D01*
X200567Y155192D01*
X200611Y155145D01*
X200692Y155095D01*
X200767Y155036D01*
X200826Y155011D01*
X200881Y154977D01*
X200972Y154948D01*
X201059Y154910D01*
X201123Y154900D01*
X201184Y154880D01*
X201279Y154875D01*
X201373Y154860D01*
X201437Y154866D01*
X201502Y154863D01*
X201595Y154881D01*
X201689Y154890D01*
X201750Y154912D01*
X201814Y154925D01*
X201899Y154966D01*
X201989Y154998D01*
X202042Y155034D01*
X202101Y155062D01*
X202148Y155102D01*
X228926Y135068D01*
X228968Y135044D01*
X229006Y135013D01*
X229147Y134935D01*
X260685Y120145D01*
X260705Y120114D01*
X260740Y120038D01*
X260788Y119980D01*
X260828Y119915D01*
X260888Y119857D01*
X260941Y119792D01*
X261002Y119747D01*
X261057Y119695D01*
X261130Y119653D01*
X261197Y119604D01*
X261268Y119575D01*
X261334Y119538D01*
X261487Y119487D01*
X321596Y103380D01*
X321660Y103372D01*
X321722Y103353D01*
X321817Y103350D01*
X321911Y103337D01*
X321976Y103345D01*
X322040Y103342D01*
X322133Y103363D01*
X322227Y103374D01*
X322288Y103397D01*
X322351Y103411D01*
X322435Y103454D01*
X322524Y103488D01*
X322577Y103525D01*
X322635Y103554D01*
X322706Y103617D01*
X322783Y103672D01*
X322825Y103721D01*
X322874Y103764D01*
X322904Y103808D01*
X355418Y99930D01*
X355467Y99930D01*
X355515Y99922D01*
X355676Y99926D01*
G37*
D10*
X145827Y411981D03*
X145827Y299000D03*
X301179Y143648D03*
X569512Y299000D03*
X513021Y510842D03*
X569512Y411981D03*
X202318Y200139D03*
X414160Y567333D03*
X301179Y567333D03*
X513021Y200139D03*
X414160Y143648D03*
D11*
X326603Y421636D02*
X322748Y425491D01*
X326603Y421636D02*
X326282Y421315D01*
X322427Y425170D01*
X322748Y425491D01*
X319212Y421955D02*
X323067Y418100D01*
X322746Y417779D01*
X318891Y421634D01*
X319212Y421955D01*
X315826Y418569D02*
X319681Y414714D01*
X319360Y414393D01*
X315505Y418248D01*
X315826Y418569D01*
X312291Y415033D02*
X316146Y411178D01*
X315825Y410857D01*
X311970Y414712D01*
X312291Y415033D01*
X308905Y411647D02*
X312760Y407792D01*
X312439Y407471D01*
X308584Y411326D01*
X308905Y411647D01*
X305369Y408112D02*
X309224Y404257D01*
X308903Y403936D01*
X305048Y407791D01*
X305369Y408112D01*
X301513Y404255D02*
X305368Y400400D01*
X301513Y404255D02*
X301834Y404576D01*
X305689Y400721D01*
X305368Y400400D01*
X301981Y397014D02*
X298126Y400869D01*
X298447Y401190D01*
X302302Y397335D01*
X301981Y397014D01*
X298446Y393479D02*
X294591Y397334D01*
X294912Y397655D01*
X298767Y393800D01*
X298446Y393479D01*
X295060Y390093D02*
X291205Y393948D01*
X291526Y394269D01*
X295381Y390414D01*
X295060Y390093D01*
X291524Y386557D02*
X287669Y390412D01*
X287990Y390733D01*
X291845Y386878D01*
X291524Y386557D01*
X291524Y378305D02*
X287669Y374450D01*
X291524Y378305D02*
X291845Y377984D01*
X287990Y374129D01*
X287669Y374450D01*
X291205Y370915D02*
X295060Y374770D01*
X295381Y374449D01*
X291526Y370594D01*
X291205Y370915D01*
X294591Y367529D02*
X298446Y371384D01*
X298767Y371063D01*
X294912Y367208D01*
X294591Y367529D01*
X298127Y363993D02*
X301982Y367848D01*
X302303Y367527D01*
X298448Y363672D01*
X298127Y363993D01*
X301513Y360607D02*
X305368Y364462D01*
X305689Y364141D01*
X301834Y360286D01*
X301513Y360607D01*
X305048Y357072D02*
X308903Y360927D01*
X309224Y360606D01*
X305369Y356751D01*
X305048Y357072D01*
X308905Y353215D02*
X312760Y357070D01*
X308905Y353215D02*
X308584Y353536D01*
X312439Y357391D01*
X312760Y357070D01*
X316146Y353684D02*
X312291Y349829D01*
X311970Y350150D01*
X315825Y354005D01*
X316146Y353684D01*
X319681Y350148D02*
X315826Y346293D01*
X315505Y346614D01*
X319360Y350469D01*
X319681Y350148D01*
X323067Y346762D02*
X319212Y342907D01*
X318891Y343228D01*
X322746Y347083D01*
X323067Y346762D01*
X326603Y343227D02*
X322748Y339372D01*
X322427Y339693D01*
X326282Y343548D01*
X326603Y343227D01*
X334855Y343227D02*
X338710Y339372D01*
X334855Y343227D02*
X335176Y343548D01*
X339031Y339693D01*
X338710Y339372D01*
X342245Y342907D02*
X338390Y346762D01*
X338711Y347083D01*
X342566Y343228D01*
X342245Y342907D01*
X345631Y346293D02*
X341776Y350148D01*
X342097Y350469D01*
X345952Y346614D01*
X345631Y346293D01*
X349167Y349829D02*
X345312Y353684D01*
X345633Y354005D01*
X349488Y350150D01*
X349167Y349829D01*
X352553Y353215D02*
X348698Y357070D01*
X349019Y357391D01*
X352874Y353536D01*
X352553Y353215D01*
X356088Y356751D02*
X352233Y360606D01*
X352554Y360927D01*
X356409Y357072D01*
X356088Y356751D01*
X359945Y360607D02*
X356090Y364462D01*
X359945Y360607D02*
X359624Y360286D01*
X355769Y364141D01*
X356090Y364462D01*
X359476Y367848D02*
X363331Y363993D01*
X363010Y363672D01*
X359155Y367527D01*
X359476Y367848D01*
X363012Y371384D02*
X366867Y367529D01*
X366546Y367208D01*
X362691Y371063D01*
X363012Y371384D01*
X366398Y374770D02*
X370253Y370915D01*
X369932Y370594D01*
X366077Y374449D01*
X366398Y374770D01*
X369933Y378305D02*
X373788Y374450D01*
X373467Y374129D01*
X369612Y377984D01*
X369933Y378305D01*
X369933Y386557D02*
X373788Y390412D01*
X369933Y386557D02*
X369612Y386878D01*
X373467Y390733D01*
X373788Y390412D01*
X370253Y393948D02*
X366398Y390093D01*
X366077Y390414D01*
X369932Y394269D01*
X370253Y393948D01*
X366867Y397334D02*
X363012Y393479D01*
X362691Y393800D01*
X366546Y397655D01*
X366867Y397334D01*
X363331Y400869D02*
X359476Y397014D01*
X359155Y397335D01*
X363010Y401190D01*
X363331Y400869D01*
X359945Y404255D02*
X356090Y400400D01*
X355769Y400721D01*
X359624Y404576D01*
X359945Y404255D01*
X356409Y407791D02*
X352554Y403936D01*
X352233Y404257D01*
X356088Y408112D01*
X356409Y407791D01*
X352553Y411647D02*
X348698Y407792D01*
X352553Y411647D02*
X352874Y411326D01*
X349019Y407471D01*
X348698Y407792D01*
X345312Y411178D02*
X349167Y415033D01*
X349488Y414712D01*
X345633Y410857D01*
X345312Y411178D01*
X341776Y414714D02*
X345631Y418569D01*
X345952Y418248D01*
X342097Y414393D01*
X341776Y414714D01*
X338390Y418100D02*
X342245Y421955D01*
X342566Y421634D01*
X338711Y417779D01*
X338390Y418100D01*
X334855Y421636D02*
X338710Y425491D01*
X339031Y425170D01*
X335176Y421315D01*
X334855Y421636D01*
D12*
G36*
X339957Y491314D02*
X345283Y485988D01*
X335361Y476066D01*
X330035Y481392D01*
X339957Y491314D01*
G37*
G36*
X333240Y498031D02*
X338566Y492705D01*
X328644Y482783D01*
X323318Y488109D01*
X333240Y498031D01*
G37*
G36*
X326522Y504749D02*
X331848Y499423D01*
X321926Y489501D01*
X316600Y494827D01*
X326522Y504749D01*
G37*
G36*
X308136Y486362D02*
X313462Y481036D01*
X303540Y471114D01*
X298214Y476440D01*
X308136Y486362D01*
G37*
G36*
X321571Y472927D02*
X326897Y467601D01*
X316975Y457679D01*
X311649Y463005D01*
X321571Y472927D01*
G37*
G36*
X366898Y266807D02*
X372224Y261481D01*
X362302Y251559D01*
X356976Y256885D01*
X366898Y266807D01*
G37*
G36*
X360180Y273525D02*
X365506Y268199D01*
X355584Y258277D01*
X350258Y263603D01*
X360180Y273525D01*
G37*
G36*
X353463Y280242D02*
X358789Y274916D01*
X348867Y264994D01*
X343541Y270320D01*
X353463Y280242D01*
G37*
G36*
X335077Y261856D02*
X340403Y256530D01*
X330481Y246608D01*
X325155Y251934D01*
X335077Y261856D01*
G37*
G36*
X348512Y248421D02*
X353838Y243095D01*
X343916Y233173D01*
X338590Y238499D01*
X348512Y248421D01*
G37*
D13*
G36*
X398165Y284708D02*
X406673Y293216D01*
X440635Y259254D01*
X432127Y250746D01*
X398165Y284708D01*
G37*
G36*
X384023Y270566D02*
X392531Y279074D01*
X426493Y245112D01*
X417985Y236604D01*
X384023Y270566D01*
G37*
D14*
G36*
X479503Y233068D02*
X454026Y258545D01*
X466777Y271296D01*
X492254Y245819D01*
X479503Y233068D01*
G37*
G36*
X431420Y184985D02*
X405943Y210462D01*
X418694Y223213D01*
X444171Y197736D01*
X431420Y184985D01*
G37*
D15*
X376896Y492973D02*
X381831Y497908D01*
X386766Y492973D01*
X381831Y488038D01*
X376896Y492973D01*
X377031Y492838D02*
X386631Y492838D01*
X382101Y497638D02*
X381561Y497638D01*
X369429Y510311D02*
X364494Y505376D01*
X369429Y510311D02*
X374364Y505376D01*
X369429Y500441D01*
X364494Y505376D01*
X364629Y505241D02*
X374229Y505241D01*
X369699Y510041D02*
X369159Y510041D01*
D16*
G36*
X323814Y272131D02*
X333028Y262917D01*
X324520Y254409D01*
X315306Y263623D01*
X323814Y272131D01*
G37*
G36*
X311793Y284151D02*
X321007Y274937D01*
X312499Y266429D01*
X303285Y275643D01*
X311793Y284151D01*
G37*
G36*
X354347Y528966D02*
X363561Y519752D01*
X355053Y511244D01*
X345839Y520458D01*
X354347Y528966D01*
G37*
G36*
X342326Y540987D02*
X351540Y531773D01*
X343032Y523265D01*
X333818Y532479D01*
X342326Y540987D01*
G37*
D17*
G36*
X410349Y452033D02*
X418857Y443525D01*
X409289Y433957D01*
X400781Y442465D01*
X410349Y452033D01*
G37*
G36*
X428026Y434355D02*
X436534Y425847D01*
X426966Y416279D01*
X418458Y424787D01*
X428026Y434355D01*
G37*
G36*
X445704Y416678D02*
X454212Y408170D01*
X444644Y398602D01*
X436136Y407110D01*
X445704Y416678D01*
G37*
G36*
X450300Y491984D02*
X458808Y483476D01*
X449240Y473908D01*
X440732Y482416D01*
X450300Y491984D01*
G37*
G36*
X467978Y474307D02*
X476486Y465799D01*
X466918Y456231D01*
X458410Y464739D01*
X467978Y474307D01*
G37*
G36*
X485655Y456629D02*
X494163Y448121D01*
X484595Y438553D01*
X476087Y447061D01*
X485655Y456629D01*
G37*
D18*
X436865Y455900D03*
X458079Y434686D03*
D19*
G36*
X234999Y252217D02*
X241824Y259042D01*
X254037Y246829D01*
X247212Y240004D01*
X234999Y252217D01*
G37*
G36*
X199078Y288139D02*
X205903Y294964D01*
X218116Y282751D01*
X211291Y275926D01*
X199078Y288139D01*
G37*
G36*
X261940Y279158D02*
X268765Y285983D01*
X280978Y273770D01*
X274153Y266945D01*
X261940Y279158D01*
G37*
G36*
X226019Y315079D02*
X232844Y321904D01*
X245057Y309691D01*
X238232Y302866D01*
X226019Y315079D01*
G37*
D16*
G36*
X296335Y458607D02*
X287121Y467821D01*
X295629Y476329D01*
X304843Y467115D01*
X296335Y458607D01*
G37*
G36*
X308355Y446586D02*
X299141Y455800D01*
X307649Y464308D01*
X316863Y455094D01*
X308355Y446586D01*
G37*
G36*
X213357Y375404D02*
X222571Y366190D01*
X214063Y357682D01*
X204849Y366896D01*
X213357Y375404D01*
G37*
G36*
X201336Y387424D02*
X210550Y378210D01*
X202042Y369702D01*
X192828Y378916D01*
X201336Y387424D01*
G37*
G36*
X254666Y472390D02*
X263880Y463176D01*
X255372Y454668D01*
X246158Y463882D01*
X254666Y472390D01*
G37*
G36*
X242645Y484411D02*
X251859Y475197D01*
X243351Y466689D01*
X234137Y475903D01*
X242645Y484411D01*
G37*
G36*
X265442Y483167D02*
X274656Y473953D01*
X266148Y465445D01*
X256934Y474659D01*
X265442Y483167D01*
G37*
G36*
X253421Y495187D02*
X262635Y485973D01*
X254127Y477465D01*
X244913Y486679D01*
X253421Y495187D01*
G37*
G36*
X244249Y406521D02*
X235035Y415735D01*
X243543Y424243D01*
X252757Y415029D01*
X244249Y406521D01*
G37*
G36*
X256270Y394501D02*
X247056Y403715D01*
X255564Y412223D01*
X264778Y403009D01*
X256270Y394501D01*
G37*
G36*
X226289Y388561D02*
X217075Y397775D01*
X225583Y406283D01*
X234797Y397069D01*
X226289Y388561D01*
G37*
G36*
X238309Y376540D02*
X229095Y385754D01*
X237603Y394262D01*
X246817Y385048D01*
X238309Y376540D01*
G37*
D15*
X234725Y401658D02*
X239660Y406593D01*
X234725Y401658D02*
X229790Y406593D01*
X234725Y411528D01*
X239660Y406593D01*
X239525Y406458D02*
X229925Y406458D01*
X234455Y411258D02*
X234995Y411258D01*
X252063Y394190D02*
X247128Y389255D01*
X242193Y394190D01*
X247128Y399125D01*
X252063Y394190D01*
X251928Y394055D02*
X242328Y394055D01*
X246858Y398855D02*
X247398Y398855D01*
X221699Y388633D02*
X216764Y383698D01*
X211829Y388633D01*
X216764Y393568D01*
X221699Y388633D01*
X221564Y388498D02*
X211964Y388498D01*
X216494Y393298D02*
X217034Y393298D01*
X234102Y376230D02*
X229167Y371295D01*
X224232Y376230D01*
X229167Y381165D01*
X234102Y376230D01*
X233967Y376095D02*
X224367Y376095D01*
X228897Y380895D02*
X229437Y380895D01*
X402656Y377411D02*
X407591Y382346D01*
X402656Y377411D02*
X397721Y382346D01*
X402656Y387281D01*
X407591Y382346D01*
X407456Y382211D02*
X397856Y382211D01*
X402386Y387011D02*
X402926Y387011D01*
X419993Y369944D02*
X415058Y365009D01*
X410123Y369944D01*
X415058Y374879D01*
X419993Y369944D01*
X419858Y369809D02*
X410258Y369809D01*
X414788Y374609D02*
X415328Y374609D01*
D16*
G36*
X400146Y364627D02*
X409360Y355413D01*
X400852Y346905D01*
X391638Y356119D01*
X400146Y364627D01*
G37*
G36*
X388125Y376648D02*
X397339Y367434D01*
X388831Y358926D01*
X379617Y368140D01*
X388125Y376648D01*
G37*
G36*
X367817Y335890D02*
X377031Y326676D01*
X368523Y318168D01*
X359309Y327382D01*
X367817Y335890D01*
G37*
G36*
X355796Y347911D02*
X365010Y338697D01*
X356502Y330189D01*
X347288Y339403D01*
X355796Y347911D01*
G37*
G36*
X345366Y448144D02*
X354580Y438930D01*
X346072Y430422D01*
X336858Y439636D01*
X345366Y448144D01*
G37*
G36*
X333346Y460164D02*
X342560Y450950D01*
X334052Y442442D01*
X324838Y451656D01*
X333346Y460164D01*
G37*
G36*
X343570Y194900D02*
X352784Y185686D01*
X344276Y177178D01*
X335062Y186392D01*
X343570Y194900D01*
G37*
G36*
X331550Y206921D02*
X340764Y197707D01*
X332256Y189199D01*
X323042Y198413D01*
X331550Y206921D01*
G37*
G36*
X271190Y433462D02*
X261976Y442676D01*
X270484Y451184D01*
X279698Y441970D01*
X271190Y433462D01*
G37*
G36*
X283211Y421441D02*
X273997Y430655D01*
X282505Y439163D01*
X291719Y429949D01*
X283211Y421441D01*
G37*
G36*
X354347Y205677D02*
X363561Y196463D01*
X355053Y187955D01*
X345839Y197169D01*
X354347Y205677D01*
G37*
G36*
X342326Y217698D02*
X351540Y208484D01*
X343032Y199976D01*
X333818Y209190D01*
X342326Y217698D01*
G37*
D20*
G36*
X300230Y509781D02*
X312980Y522531D01*
X327144Y508367D01*
X314394Y495617D01*
X300230Y509781D01*
G37*
G36*
X280431Y489982D02*
X293181Y502732D01*
X307345Y488568D01*
X294595Y475818D01*
X280431Y489982D01*
G37*
G36*
X434934Y357117D02*
X447684Y369867D01*
X461848Y355703D01*
X449098Y342953D01*
X434934Y357117D01*
G37*
G36*
X415135Y337318D02*
X427885Y350068D01*
X442049Y335904D01*
X429299Y323154D01*
X415135Y337318D01*
G37*
D21*
X299457Y316228D02*
X289169Y305940D01*
X280684Y314426D02*
X290972Y324714D01*
X282486Y333199D02*
X272198Y322911D01*
D22*
G36*
X278931Y337350D02*
X303643Y312638D01*
X292795Y301790D01*
X268083Y326502D01*
X278931Y337350D01*
G37*
D23*
X357670Y175885D03*
X375630Y535096D03*
D24*
G36*
X390126Y185480D02*
X379709Y195897D01*
X391540Y207728D01*
X401957Y197311D01*
X390126Y185480D01*
G37*
G36*
X361134Y238133D02*
X371551Y227716D01*
X359720Y215885D01*
X349303Y226302D01*
X361134Y238133D01*
G37*
D25*
G36*
X222917Y494508D02*
X218652Y490243D01*
X207317Y501578D01*
X211582Y505843D01*
X222917Y494508D01*
G37*
G36*
X227513Y499104D02*
X223248Y494839D01*
X211913Y506174D01*
X216178Y510439D01*
X227513Y499104D01*
G37*
G36*
X232109Y503701D02*
X227844Y499436D01*
X216509Y510771D01*
X220774Y515036D01*
X232109Y503701D01*
G37*
G36*
X218321Y489912D02*
X214056Y485647D01*
X202721Y496982D01*
X206986Y501247D01*
X218321Y489912D01*
G37*
G36*
X213724Y485316D02*
X209459Y481051D01*
X198124Y492386D01*
X202389Y496651D01*
X213724Y485316D01*
G37*
D18*
X225016Y515014D03*
X198146Y488144D03*
D26*
G36*
X221015Y530104D02*
X208994Y542125D01*
X223135Y556266D01*
X235156Y544245D01*
X221015Y530104D01*
G37*
G36*
X168915Y478004D02*
X156894Y490025D01*
X171035Y504166D01*
X183056Y492145D01*
X168915Y478004D01*
G37*
D27*
G36*
X192490Y501579D02*
X180469Y513600D01*
X199560Y532691D01*
X211581Y520670D01*
X192490Y501579D01*
G37*
D10*
X755427Y411981D03*
X755427Y299000D03*
X910779Y143648D03*
X1179112Y299000D03*
X1122621Y510842D03*
X1179112Y411981D03*
X811918Y200139D03*
X1023760Y567333D03*
X910779Y567333D03*
X1122621Y200139D03*
X1023760Y143648D03*
D11*
X936203Y421636D02*
X932348Y425491D01*
X936203Y421636D02*
X935882Y421315D01*
X932027Y425170D01*
X932348Y425491D01*
X928812Y421955D02*
X932667Y418100D01*
X932346Y417779D01*
X928491Y421634D01*
X928812Y421955D01*
X925426Y418569D02*
X929281Y414714D01*
X928960Y414393D01*
X925105Y418248D01*
X925426Y418569D01*
X921891Y415033D02*
X925746Y411178D01*
X925425Y410857D01*
X921570Y414712D01*
X921891Y415033D01*
X918505Y411647D02*
X922360Y407792D01*
X922039Y407471D01*
X918184Y411326D01*
X918505Y411647D01*
X914969Y408112D02*
X918824Y404257D01*
X918503Y403936D01*
X914648Y407791D01*
X914969Y408112D01*
X911113Y404255D02*
X914968Y400400D01*
X911113Y404255D02*
X911434Y404576D01*
X915289Y400721D01*
X914968Y400400D01*
X911581Y397014D02*
X907726Y400869D01*
X908047Y401190D01*
X911902Y397335D01*
X911581Y397014D01*
X908046Y393479D02*
X904191Y397334D01*
X904512Y397655D01*
X908367Y393800D01*
X908046Y393479D01*
X904660Y390093D02*
X900805Y393948D01*
X901126Y394269D01*
X904981Y390414D01*
X904660Y390093D01*
X901124Y386557D02*
X897269Y390412D01*
X897590Y390733D01*
X901445Y386878D01*
X901124Y386557D01*
X901124Y378305D02*
X897269Y374450D01*
X901124Y378305D02*
X901445Y377984D01*
X897590Y374129D01*
X897269Y374450D01*
X900805Y370915D02*
X904660Y374770D01*
X904981Y374449D01*
X901126Y370594D01*
X900805Y370915D01*
X904191Y367529D02*
X908046Y371384D01*
X908367Y371063D01*
X904512Y367208D01*
X904191Y367529D01*
X907727Y363993D02*
X911582Y367848D01*
X911903Y367527D01*
X908048Y363672D01*
X907727Y363993D01*
X911113Y360607D02*
X914968Y364462D01*
X915289Y364141D01*
X911434Y360286D01*
X911113Y360607D01*
X914648Y357072D02*
X918503Y360927D01*
X918824Y360606D01*
X914969Y356751D01*
X914648Y357072D01*
X918505Y353215D02*
X922360Y357070D01*
X918505Y353215D02*
X918184Y353536D01*
X922039Y357391D01*
X922360Y357070D01*
X925746Y353684D02*
X921891Y349829D01*
X921570Y350150D01*
X925425Y354005D01*
X925746Y353684D01*
X929281Y350148D02*
X925426Y346293D01*
X925105Y346614D01*
X928960Y350469D01*
X929281Y350148D01*
X932667Y346762D02*
X928812Y342907D01*
X928491Y343228D01*
X932346Y347083D01*
X932667Y346762D01*
X936203Y343227D02*
X932348Y339372D01*
X932027Y339693D01*
X935882Y343548D01*
X936203Y343227D01*
X944455Y343227D02*
X948310Y339372D01*
X944455Y343227D02*
X944776Y343548D01*
X948631Y339693D01*
X948310Y339372D01*
X951845Y342907D02*
X947990Y346762D01*
X948311Y347083D01*
X952166Y343228D01*
X951845Y342907D01*
X955231Y346293D02*
X951376Y350148D01*
X951697Y350469D01*
X955552Y346614D01*
X955231Y346293D01*
X958767Y349829D02*
X954912Y353684D01*
X955233Y354005D01*
X959088Y350150D01*
X958767Y349829D01*
X962153Y353215D02*
X958298Y357070D01*
X958619Y357391D01*
X962474Y353536D01*
X962153Y353215D01*
X965688Y356751D02*
X961833Y360606D01*
X962154Y360927D01*
X966009Y357072D01*
X965688Y356751D01*
X969545Y360607D02*
X965690Y364462D01*
X969545Y360607D02*
X969224Y360286D01*
X965369Y364141D01*
X965690Y364462D01*
X969076Y367848D02*
X972931Y363993D01*
X972610Y363672D01*
X968755Y367527D01*
X969076Y367848D01*
X972612Y371384D02*
X976467Y367529D01*
X976146Y367208D01*
X972291Y371063D01*
X972612Y371384D01*
X975998Y374770D02*
X979853Y370915D01*
X979532Y370594D01*
X975677Y374449D01*
X975998Y374770D01*
X979533Y378305D02*
X983388Y374450D01*
X983067Y374129D01*
X979212Y377984D01*
X979533Y378305D01*
X979533Y386557D02*
X983388Y390412D01*
X979533Y386557D02*
X979212Y386878D01*
X983067Y390733D01*
X983388Y390412D01*
X979853Y393948D02*
X975998Y390093D01*
X975677Y390414D01*
X979532Y394269D01*
X979853Y393948D01*
X976467Y397334D02*
X972612Y393479D01*
X972291Y393800D01*
X976146Y397655D01*
X976467Y397334D01*
X972931Y400869D02*
X969076Y397014D01*
X968755Y397335D01*
X972610Y401190D01*
X972931Y400869D01*
X969545Y404255D02*
X965690Y400400D01*
X965369Y400721D01*
X969224Y404576D01*
X969545Y404255D01*
X966009Y407791D02*
X962154Y403936D01*
X961833Y404257D01*
X965688Y408112D01*
X966009Y407791D01*
X962153Y411647D02*
X958298Y407792D01*
X962153Y411647D02*
X962474Y411326D01*
X958619Y407471D01*
X958298Y407792D01*
X954912Y411178D02*
X958767Y415033D01*
X959088Y414712D01*
X955233Y410857D01*
X954912Y411178D01*
X951376Y414714D02*
X955231Y418569D01*
X955552Y418248D01*
X951697Y414393D01*
X951376Y414714D01*
X947990Y418100D02*
X951845Y421955D01*
X952166Y421634D01*
X948311Y417779D01*
X947990Y418100D01*
X944455Y421636D02*
X948310Y425491D01*
X948631Y425170D01*
X944776Y421315D01*
X944455Y421636D01*
D12*
G36*
X949557Y491314D02*
X954883Y485988D01*
X944961Y476066D01*
X939635Y481392D01*
X949557Y491314D01*
G37*
G36*
X942840Y498031D02*
X948166Y492705D01*
X938244Y482783D01*
X932918Y488109D01*
X942840Y498031D01*
G37*
G36*
X936122Y504749D02*
X941448Y499423D01*
X931526Y489501D01*
X926200Y494827D01*
X936122Y504749D01*
G37*
G36*
X917736Y486362D02*
X923062Y481036D01*
X913140Y471114D01*
X907814Y476440D01*
X917736Y486362D01*
G37*
G36*
X931171Y472927D02*
X936497Y467601D01*
X926575Y457679D01*
X921249Y463005D01*
X931171Y472927D01*
G37*
G36*
X976498Y266807D02*
X981824Y261481D01*
X971902Y251559D01*
X966576Y256885D01*
X976498Y266807D01*
G37*
G36*
X969780Y273525D02*
X975106Y268199D01*
X965184Y258277D01*
X959858Y263603D01*
X969780Y273525D01*
G37*
G36*
X963063Y280242D02*
X968389Y274916D01*
X958467Y264994D01*
X953141Y270320D01*
X963063Y280242D01*
G37*
G36*
X944677Y261856D02*
X950003Y256530D01*
X940081Y246608D01*
X934755Y251934D01*
X944677Y261856D01*
G37*
G36*
X958112Y248421D02*
X963438Y243095D01*
X953516Y233173D01*
X948190Y238499D01*
X958112Y248421D01*
G37*
D13*
G36*
X1007765Y284708D02*
X1016273Y293216D01*
X1050235Y259254D01*
X1041727Y250746D01*
X1007765Y284708D01*
G37*
G36*
X993623Y270566D02*
X1002131Y279074D01*
X1036093Y245112D01*
X1027585Y236604D01*
X993623Y270566D01*
G37*
D14*
G36*
X1089103Y233068D02*
X1063626Y258545D01*
X1076377Y271296D01*
X1101854Y245819D01*
X1089103Y233068D01*
G37*
G36*
X1041020Y184985D02*
X1015543Y210462D01*
X1028294Y223213D01*
X1053771Y197736D01*
X1041020Y184985D01*
G37*
D15*
X986496Y492973D02*
X991431Y497908D01*
X996366Y492973D01*
X991431Y488038D01*
X986496Y492973D01*
X986631Y492838D02*
X996231Y492838D01*
X991701Y497638D02*
X991161Y497638D01*
X979029Y510311D02*
X974094Y505376D01*
X979029Y510311D02*
X983964Y505376D01*
X979029Y500441D01*
X974094Y505376D01*
X974229Y505241D02*
X983829Y505241D01*
X979299Y510041D02*
X978759Y510041D01*
D16*
G36*
X933414Y272131D02*
X942628Y262917D01*
X934120Y254409D01*
X924906Y263623D01*
X933414Y272131D01*
G37*
G36*
X921393Y284151D02*
X930607Y274937D01*
X922099Y266429D01*
X912885Y275643D01*
X921393Y284151D01*
G37*
G36*
X963947Y528966D02*
X973161Y519752D01*
X964653Y511244D01*
X955439Y520458D01*
X963947Y528966D01*
G37*
G36*
X951926Y540987D02*
X961140Y531773D01*
X952632Y523265D01*
X943418Y532479D01*
X951926Y540987D01*
G37*
D17*
G36*
X1019949Y452033D02*
X1028457Y443525D01*
X1018889Y433957D01*
X1010381Y442465D01*
X1019949Y452033D01*
G37*
G36*
X1037626Y434355D02*
X1046134Y425847D01*
X1036566Y416279D01*
X1028058Y424787D01*
X1037626Y434355D01*
G37*
G36*
X1055304Y416678D02*
X1063812Y408170D01*
X1054244Y398602D01*
X1045736Y407110D01*
X1055304Y416678D01*
G37*
G36*
X1059900Y491984D02*
X1068408Y483476D01*
X1058840Y473908D01*
X1050332Y482416D01*
X1059900Y491984D01*
G37*
G36*
X1077578Y474307D02*
X1086086Y465799D01*
X1076518Y456231D01*
X1068010Y464739D01*
X1077578Y474307D01*
G37*
G36*
X1095255Y456629D02*
X1103763Y448121D01*
X1094195Y438553D01*
X1085687Y447061D01*
X1095255Y456629D01*
G37*
D18*
X1046465Y455900D03*
X1067679Y434686D03*
D19*
G36*
X844599Y252217D02*
X851424Y259042D01*
X863637Y246829D01*
X856812Y240004D01*
X844599Y252217D01*
G37*
G36*
X808678Y288139D02*
X815503Y294964D01*
X827716Y282751D01*
X820891Y275926D01*
X808678Y288139D01*
G37*
G36*
X871540Y279158D02*
X878365Y285983D01*
X890578Y273770D01*
X883753Y266945D01*
X871540Y279158D01*
G37*
G36*
X835619Y315079D02*
X842444Y321904D01*
X854657Y309691D01*
X847832Y302866D01*
X835619Y315079D01*
G37*
D16*
G36*
X905935Y458607D02*
X896721Y467821D01*
X905229Y476329D01*
X914443Y467115D01*
X905935Y458607D01*
G37*
G36*
X917955Y446586D02*
X908741Y455800D01*
X917249Y464308D01*
X926463Y455094D01*
X917955Y446586D01*
G37*
G36*
X822957Y375404D02*
X832171Y366190D01*
X823663Y357682D01*
X814449Y366896D01*
X822957Y375404D01*
G37*
G36*
X810936Y387424D02*
X820150Y378210D01*
X811642Y369702D01*
X802428Y378916D01*
X810936Y387424D01*
G37*
G36*
X864266Y472390D02*
X873480Y463176D01*
X864972Y454668D01*
X855758Y463882D01*
X864266Y472390D01*
G37*
G36*
X852245Y484411D02*
X861459Y475197D01*
X852951Y466689D01*
X843737Y475903D01*
X852245Y484411D01*
G37*
G36*
X875042Y483167D02*
X884256Y473953D01*
X875748Y465445D01*
X866534Y474659D01*
X875042Y483167D01*
G37*
G36*
X863021Y495187D02*
X872235Y485973D01*
X863727Y477465D01*
X854513Y486679D01*
X863021Y495187D01*
G37*
G36*
X853849Y406521D02*
X844635Y415735D01*
X853143Y424243D01*
X862357Y415029D01*
X853849Y406521D01*
G37*
G36*
X865870Y394501D02*
X856656Y403715D01*
X865164Y412223D01*
X874378Y403009D01*
X865870Y394501D01*
G37*
G36*
X835889Y388561D02*
X826675Y397775D01*
X835183Y406283D01*
X844397Y397069D01*
X835889Y388561D01*
G37*
G36*
X847909Y376540D02*
X838695Y385754D01*
X847203Y394262D01*
X856417Y385048D01*
X847909Y376540D01*
G37*
D15*
X844325Y401658D02*
X849260Y406593D01*
X844325Y401658D02*
X839390Y406593D01*
X844325Y411528D01*
X849260Y406593D01*
X849125Y406458D02*
X839525Y406458D01*
X844055Y411258D02*
X844595Y411258D01*
X861663Y394190D02*
X856728Y389255D01*
X851793Y394190D01*
X856728Y399125D01*
X861663Y394190D01*
X861528Y394055D02*
X851928Y394055D01*
X856458Y398855D02*
X856998Y398855D01*
X831299Y388633D02*
X826364Y383698D01*
X821429Y388633D01*
X826364Y393568D01*
X831299Y388633D01*
X831164Y388498D02*
X821564Y388498D01*
X826094Y393298D02*
X826634Y393298D01*
X843702Y376230D02*
X838767Y371295D01*
X833832Y376230D01*
X838767Y381165D01*
X843702Y376230D01*
X843567Y376095D02*
X833967Y376095D01*
X838497Y380895D02*
X839037Y380895D01*
X1012256Y377411D02*
X1017191Y382346D01*
X1012256Y377411D02*
X1007321Y382346D01*
X1012256Y387281D01*
X1017191Y382346D01*
X1017056Y382211D02*
X1007456Y382211D01*
X1011986Y387011D02*
X1012526Y387011D01*
X1029593Y369944D02*
X1024658Y365009D01*
X1019723Y369944D01*
X1024658Y374879D01*
X1029593Y369944D01*
X1029458Y369809D02*
X1019858Y369809D01*
X1024388Y374609D02*
X1024928Y374609D01*
D16*
G36*
X1009746Y364627D02*
X1018960Y355413D01*
X1010452Y346905D01*
X1001238Y356119D01*
X1009746Y364627D01*
G37*
G36*
X997725Y376648D02*
X1006939Y367434D01*
X998431Y358926D01*
X989217Y368140D01*
X997725Y376648D01*
G37*
G36*
X977417Y335890D02*
X986631Y326676D01*
X978123Y318168D01*
X968909Y327382D01*
X977417Y335890D01*
G37*
G36*
X965396Y347911D02*
X974610Y338697D01*
X966102Y330189D01*
X956888Y339403D01*
X965396Y347911D01*
G37*
G36*
X954966Y448144D02*
X964180Y438930D01*
X955672Y430422D01*
X946458Y439636D01*
X954966Y448144D01*
G37*
G36*
X942946Y460164D02*
X952160Y450950D01*
X943652Y442442D01*
X934438Y451656D01*
X942946Y460164D01*
G37*
G36*
X953170Y194900D02*
X962384Y185686D01*
X953876Y177178D01*
X944662Y186392D01*
X953170Y194900D01*
G37*
G36*
X941150Y206921D02*
X950364Y197707D01*
X941856Y189199D01*
X932642Y198413D01*
X941150Y206921D01*
G37*
G36*
X880790Y433462D02*
X871576Y442676D01*
X880084Y451184D01*
X889298Y441970D01*
X880790Y433462D01*
G37*
G36*
X892811Y421441D02*
X883597Y430655D01*
X892105Y439163D01*
X901319Y429949D01*
X892811Y421441D01*
G37*
G36*
X963947Y205677D02*
X973161Y196463D01*
X964653Y187955D01*
X955439Y197169D01*
X963947Y205677D01*
G37*
G36*
X951926Y217698D02*
X961140Y208484D01*
X952632Y199976D01*
X943418Y209190D01*
X951926Y217698D01*
G37*
D20*
G36*
X909830Y509781D02*
X922580Y522531D01*
X936744Y508367D01*
X923994Y495617D01*
X909830Y509781D01*
G37*
G36*
X890031Y489982D02*
X902781Y502732D01*
X916945Y488568D01*
X904195Y475818D01*
X890031Y489982D01*
G37*
G36*
X1044534Y357117D02*
X1057284Y369867D01*
X1071448Y355703D01*
X1058698Y342953D01*
X1044534Y357117D01*
G37*
G36*
X1024735Y337318D02*
X1037485Y350068D01*
X1051649Y335904D01*
X1038899Y323154D01*
X1024735Y337318D01*
G37*
D21*
X909057Y316228D02*
X898769Y305940D01*
X890284Y314426D02*
X900572Y324714D01*
X892086Y333199D02*
X881798Y322911D01*
D22*
G36*
X888531Y337350D02*
X913243Y312638D01*
X902395Y301790D01*
X877683Y326502D01*
X888531Y337350D01*
G37*
D23*
X967270Y175885D03*
X985230Y535096D03*
D24*
G36*
X999726Y185480D02*
X989309Y195897D01*
X1001140Y207728D01*
X1011557Y197311D01*
X999726Y185480D01*
G37*
G36*
X970734Y238133D02*
X981151Y227716D01*
X969320Y215885D01*
X958903Y226302D01*
X970734Y238133D01*
G37*
D25*
G36*
X832517Y494508D02*
X828252Y490243D01*
X816917Y501578D01*
X821182Y505843D01*
X832517Y494508D01*
G37*
G36*
X837113Y499104D02*
X832848Y494839D01*
X821513Y506174D01*
X825778Y510439D01*
X837113Y499104D01*
G37*
G36*
X841709Y503701D02*
X837444Y499436D01*
X826109Y510771D01*
X830374Y515036D01*
X841709Y503701D01*
G37*
G36*
X827921Y489912D02*
X823656Y485647D01*
X812321Y496982D01*
X816586Y501247D01*
X827921Y489912D01*
G37*
G36*
X823324Y485316D02*
X819059Y481051D01*
X807724Y492386D01*
X811989Y496651D01*
X823324Y485316D01*
G37*
D18*
X834616Y515014D03*
X807746Y488144D03*
D26*
G36*
X830615Y530104D02*
X818594Y542125D01*
X832735Y556266D01*
X844756Y544245D01*
X830615Y530104D01*
G37*
G36*
X778515Y478004D02*
X766494Y490025D01*
X780635Y504166D01*
X792656Y492145D01*
X778515Y478004D01*
G37*
D27*
G36*
X802090Y501579D02*
X790069Y513600D01*
X809160Y532691D01*
X821181Y520670D01*
X802090Y501579D01*
G37*
D10*
X755427Y1021581D03*
X755427Y908600D03*
X910779Y753248D03*
X1179112Y908600D03*
X1122621Y1120442D03*
X1179112Y1021581D03*
X811918Y809739D03*
X1023760Y1176933D03*
X910779Y1176933D03*
X1122621Y809739D03*
X1023760Y753248D03*
D11*
X936203Y1031236D02*
X932348Y1035091D01*
X936203Y1031236D02*
X935882Y1030915D01*
X932027Y1034770D01*
X932348Y1035091D01*
X928812Y1031555D02*
X932667Y1027700D01*
X932346Y1027379D01*
X928491Y1031234D01*
X928812Y1031555D01*
X925426Y1028169D02*
X929281Y1024314D01*
X928960Y1023993D01*
X925105Y1027848D01*
X925426Y1028169D01*
X921891Y1024633D02*
X925746Y1020778D01*
X925425Y1020457D01*
X921570Y1024312D01*
X921891Y1024633D01*
X918505Y1021247D02*
X922360Y1017392D01*
X922039Y1017071D01*
X918184Y1020926D01*
X918505Y1021247D01*
X914969Y1017712D02*
X918824Y1013857D01*
X918503Y1013536D01*
X914648Y1017391D01*
X914969Y1017712D01*
X911113Y1013855D02*
X914968Y1010000D01*
X911113Y1013855D02*
X911434Y1014176D01*
X915289Y1010321D01*
X914968Y1010000D01*
X911581Y1006614D02*
X907726Y1010469D01*
X908047Y1010790D01*
X911902Y1006935D01*
X911581Y1006614D01*
X908046Y1003079D02*
X904191Y1006934D01*
X904512Y1007255D01*
X908367Y1003400D01*
X908046Y1003079D01*
X904660Y999693D02*
X900805Y1003548D01*
X901126Y1003869D01*
X904981Y1000014D01*
X904660Y999693D01*
X901124Y996157D02*
X897269Y1000012D01*
X897590Y1000333D01*
X901445Y996478D01*
X901124Y996157D01*
X901124Y987905D02*
X897269Y984050D01*
X901124Y987905D02*
X901445Y987584D01*
X897590Y983729D01*
X897269Y984050D01*
X900805Y980515D02*
X904660Y984370D01*
X904981Y984049D01*
X901126Y980194D01*
X900805Y980515D01*
X904191Y977129D02*
X908046Y980984D01*
X908367Y980663D01*
X904512Y976808D01*
X904191Y977129D01*
X907727Y973593D02*
X911582Y977448D01*
X911903Y977127D01*
X908048Y973272D01*
X907727Y973593D01*
X911113Y970207D02*
X914968Y974062D01*
X915289Y973741D01*
X911434Y969886D01*
X911113Y970207D01*
X914648Y966672D02*
X918503Y970527D01*
X918824Y970206D01*
X914969Y966351D01*
X914648Y966672D01*
X918505Y962815D02*
X922360Y966670D01*
X918505Y962815D02*
X918184Y963136D01*
X922039Y966991D01*
X922360Y966670D01*
X925746Y963284D02*
X921891Y959429D01*
X921570Y959750D01*
X925425Y963605D01*
X925746Y963284D01*
X929281Y959748D02*
X925426Y955893D01*
X925105Y956214D01*
X928960Y960069D01*
X929281Y959748D01*
X932667Y956362D02*
X928812Y952507D01*
X928491Y952828D01*
X932346Y956683D01*
X932667Y956362D01*
X936203Y952827D02*
X932348Y948972D01*
X932027Y949293D01*
X935882Y953148D01*
X936203Y952827D01*
X944455Y952827D02*
X948310Y948972D01*
X944455Y952827D02*
X944776Y953148D01*
X948631Y949293D01*
X948310Y948972D01*
X951845Y952507D02*
X947990Y956362D01*
X948311Y956683D01*
X952166Y952828D01*
X951845Y952507D01*
X955231Y955893D02*
X951376Y959748D01*
X951697Y960069D01*
X955552Y956214D01*
X955231Y955893D01*
X958767Y959429D02*
X954912Y963284D01*
X955233Y963605D01*
X959088Y959750D01*
X958767Y959429D01*
X962153Y962815D02*
X958298Y966670D01*
X958619Y966991D01*
X962474Y963136D01*
X962153Y962815D01*
X965688Y966351D02*
X961833Y970206D01*
X962154Y970527D01*
X966009Y966672D01*
X965688Y966351D01*
X969545Y970207D02*
X965690Y974062D01*
X969545Y970207D02*
X969224Y969886D01*
X965369Y973741D01*
X965690Y974062D01*
X969076Y977448D02*
X972931Y973593D01*
X972610Y973272D01*
X968755Y977127D01*
X969076Y977448D01*
X972612Y980984D02*
X976467Y977129D01*
X976146Y976808D01*
X972291Y980663D01*
X972612Y980984D01*
X975998Y984370D02*
X979853Y980515D01*
X979532Y980194D01*
X975677Y984049D01*
X975998Y984370D01*
X979533Y987905D02*
X983388Y984050D01*
X983067Y983729D01*
X979212Y987584D01*
X979533Y987905D01*
X979533Y996157D02*
X983388Y1000012D01*
X979533Y996157D02*
X979212Y996478D01*
X983067Y1000333D01*
X983388Y1000012D01*
X979853Y1003548D02*
X975998Y999693D01*
X975677Y1000014D01*
X979532Y1003869D01*
X979853Y1003548D01*
X976467Y1006934D02*
X972612Y1003079D01*
X972291Y1003400D01*
X976146Y1007255D01*
X976467Y1006934D01*
X972931Y1010469D02*
X969076Y1006614D01*
X968755Y1006935D01*
X972610Y1010790D01*
X972931Y1010469D01*
X969545Y1013855D02*
X965690Y1010000D01*
X965369Y1010321D01*
X969224Y1014176D01*
X969545Y1013855D01*
X966009Y1017391D02*
X962154Y1013536D01*
X961833Y1013857D01*
X965688Y1017712D01*
X966009Y1017391D01*
X962153Y1021247D02*
X958298Y1017392D01*
X962153Y1021247D02*
X962474Y1020926D01*
X958619Y1017071D01*
X958298Y1017392D01*
X954912Y1020778D02*
X958767Y1024633D01*
X959088Y1024312D01*
X955233Y1020457D01*
X954912Y1020778D01*
X951376Y1024314D02*
X955231Y1028169D01*
X955552Y1027848D01*
X951697Y1023993D01*
X951376Y1024314D01*
X947990Y1027700D02*
X951845Y1031555D01*
X952166Y1031234D01*
X948311Y1027379D01*
X947990Y1027700D01*
X944455Y1031236D02*
X948310Y1035091D01*
X948631Y1034770D01*
X944776Y1030915D01*
X944455Y1031236D01*
D12*
G36*
X949557Y1100914D02*
X954883Y1095588D01*
X944961Y1085666D01*
X939635Y1090992D01*
X949557Y1100914D01*
G37*
G36*
X942840Y1107631D02*
X948166Y1102305D01*
X938244Y1092383D01*
X932918Y1097709D01*
X942840Y1107631D01*
G37*
G36*
X936122Y1114349D02*
X941448Y1109023D01*
X931526Y1099101D01*
X926200Y1104427D01*
X936122Y1114349D01*
G37*
G36*
X917736Y1095962D02*
X923062Y1090636D01*
X913140Y1080714D01*
X907814Y1086040D01*
X917736Y1095962D01*
G37*
G36*
X931171Y1082527D02*
X936497Y1077201D01*
X926575Y1067279D01*
X921249Y1072605D01*
X931171Y1082527D01*
G37*
G36*
X976498Y876407D02*
X981824Y871081D01*
X971902Y861159D01*
X966576Y866485D01*
X976498Y876407D01*
G37*
G36*
X969780Y883125D02*
X975106Y877799D01*
X965184Y867877D01*
X959858Y873203D01*
X969780Y883125D01*
G37*
G36*
X963063Y889842D02*
X968389Y884516D01*
X958467Y874594D01*
X953141Y879920D01*
X963063Y889842D01*
G37*
G36*
X944677Y871456D02*
X950003Y866130D01*
X940081Y856208D01*
X934755Y861534D01*
X944677Y871456D01*
G37*
G36*
X958112Y858021D02*
X963438Y852695D01*
X953516Y842773D01*
X948190Y848099D01*
X958112Y858021D01*
G37*
D13*
G36*
X1007765Y894308D02*
X1016273Y902816D01*
X1050235Y868854D01*
X1041727Y860346D01*
X1007765Y894308D01*
G37*
G36*
X993623Y880166D02*
X1002131Y888674D01*
X1036093Y854712D01*
X1027585Y846204D01*
X993623Y880166D01*
G37*
D14*
G36*
X1089103Y842668D02*
X1063626Y868145D01*
X1076377Y880896D01*
X1101854Y855419D01*
X1089103Y842668D01*
G37*
G36*
X1041020Y794585D02*
X1015543Y820062D01*
X1028294Y832813D01*
X1053771Y807336D01*
X1041020Y794585D01*
G37*
D15*
X986496Y1102573D02*
X991431Y1107508D01*
X996366Y1102573D01*
X991431Y1097638D01*
X986496Y1102573D01*
X986631Y1102438D02*
X996231Y1102438D01*
X991701Y1107238D02*
X991161Y1107238D01*
X979029Y1119911D02*
X974094Y1114976D01*
X979029Y1119911D02*
X983964Y1114976D01*
X979029Y1110041D01*
X974094Y1114976D01*
X974229Y1114841D02*
X983829Y1114841D01*
X979299Y1119641D02*
X978759Y1119641D01*
D16*
G36*
X933414Y881731D02*
X942628Y872517D01*
X934120Y864009D01*
X924906Y873223D01*
X933414Y881731D01*
G37*
G36*
X921393Y893751D02*
X930607Y884537D01*
X922099Y876029D01*
X912885Y885243D01*
X921393Y893751D01*
G37*
G36*
X963947Y1138566D02*
X973161Y1129352D01*
X964653Y1120844D01*
X955439Y1130058D01*
X963947Y1138566D01*
G37*
G36*
X951926Y1150587D02*
X961140Y1141373D01*
X952632Y1132865D01*
X943418Y1142079D01*
X951926Y1150587D01*
G37*
D17*
G36*
X1019949Y1061633D02*
X1028457Y1053125D01*
X1018889Y1043557D01*
X1010381Y1052065D01*
X1019949Y1061633D01*
G37*
G36*
X1037626Y1043955D02*
X1046134Y1035447D01*
X1036566Y1025879D01*
X1028058Y1034387D01*
X1037626Y1043955D01*
G37*
G36*
X1055304Y1026278D02*
X1063812Y1017770D01*
X1054244Y1008202D01*
X1045736Y1016710D01*
X1055304Y1026278D01*
G37*
G36*
X1059900Y1101584D02*
X1068408Y1093076D01*
X1058840Y1083508D01*
X1050332Y1092016D01*
X1059900Y1101584D01*
G37*
G36*
X1077578Y1083907D02*
X1086086Y1075399D01*
X1076518Y1065831D01*
X1068010Y1074339D01*
X1077578Y1083907D01*
G37*
G36*
X1095255Y1066229D02*
X1103763Y1057721D01*
X1094195Y1048153D01*
X1085687Y1056661D01*
X1095255Y1066229D01*
G37*
D18*
X1046465Y1065500D03*
X1067679Y1044286D03*
D19*
G36*
X844599Y861817D02*
X851424Y868642D01*
X863637Y856429D01*
X856812Y849604D01*
X844599Y861817D01*
G37*
G36*
X808678Y897739D02*
X815503Y904564D01*
X827716Y892351D01*
X820891Y885526D01*
X808678Y897739D01*
G37*
G36*
X871540Y888758D02*
X878365Y895583D01*
X890578Y883370D01*
X883753Y876545D01*
X871540Y888758D01*
G37*
G36*
X835619Y924679D02*
X842444Y931504D01*
X854657Y919291D01*
X847832Y912466D01*
X835619Y924679D01*
G37*
D16*
G36*
X905935Y1068207D02*
X896721Y1077421D01*
X905229Y1085929D01*
X914443Y1076715D01*
X905935Y1068207D01*
G37*
G36*
X917955Y1056186D02*
X908741Y1065400D01*
X917249Y1073908D01*
X926463Y1064694D01*
X917955Y1056186D01*
G37*
G36*
X822957Y985004D02*
X832171Y975790D01*
X823663Y967282D01*
X814449Y976496D01*
X822957Y985004D01*
G37*
G36*
X810936Y997024D02*
X820150Y987810D01*
X811642Y979302D01*
X802428Y988516D01*
X810936Y997024D01*
G37*
G36*
X864266Y1081990D02*
X873480Y1072776D01*
X864972Y1064268D01*
X855758Y1073482D01*
X864266Y1081990D01*
G37*
G36*
X852245Y1094011D02*
X861459Y1084797D01*
X852951Y1076289D01*
X843737Y1085503D01*
X852245Y1094011D01*
G37*
G36*
X875042Y1092767D02*
X884256Y1083553D01*
X875748Y1075045D01*
X866534Y1084259D01*
X875042Y1092767D01*
G37*
G36*
X863021Y1104787D02*
X872235Y1095573D01*
X863727Y1087065D01*
X854513Y1096279D01*
X863021Y1104787D01*
G37*
G36*
X853849Y1016121D02*
X844635Y1025335D01*
X853143Y1033843D01*
X862357Y1024629D01*
X853849Y1016121D01*
G37*
G36*
X865870Y1004101D02*
X856656Y1013315D01*
X865164Y1021823D01*
X874378Y1012609D01*
X865870Y1004101D01*
G37*
G36*
X835889Y998161D02*
X826675Y1007375D01*
X835183Y1015883D01*
X844397Y1006669D01*
X835889Y998161D01*
G37*
G36*
X847909Y986140D02*
X838695Y995354D01*
X847203Y1003862D01*
X856417Y994648D01*
X847909Y986140D01*
G37*
D15*
X844325Y1011258D02*
X849260Y1016193D01*
X844325Y1011258D02*
X839390Y1016193D01*
X844325Y1021128D01*
X849260Y1016193D01*
X849125Y1016058D02*
X839525Y1016058D01*
X844055Y1020858D02*
X844595Y1020858D01*
X861663Y1003790D02*
X856728Y998855D01*
X851793Y1003790D01*
X856728Y1008725D01*
X861663Y1003790D01*
X861528Y1003655D02*
X851928Y1003655D01*
X856458Y1008455D02*
X856998Y1008455D01*
X831299Y998233D02*
X826364Y993298D01*
X821429Y998233D01*
X826364Y1003168D01*
X831299Y998233D01*
X831164Y998098D02*
X821564Y998098D01*
X826094Y1002898D02*
X826634Y1002898D01*
X843702Y985830D02*
X838767Y980895D01*
X833832Y985830D01*
X838767Y990765D01*
X843702Y985830D01*
X843567Y985695D02*
X833967Y985695D01*
X838497Y990495D02*
X839037Y990495D01*
X1012256Y987011D02*
X1017191Y991946D01*
X1012256Y987011D02*
X1007321Y991946D01*
X1012256Y996881D01*
X1017191Y991946D01*
X1017056Y991811D02*
X1007456Y991811D01*
X1011986Y996611D02*
X1012526Y996611D01*
X1029593Y979544D02*
X1024658Y974609D01*
X1019723Y979544D01*
X1024658Y984479D01*
X1029593Y979544D01*
X1029458Y979409D02*
X1019858Y979409D01*
X1024388Y984209D02*
X1024928Y984209D01*
D16*
G36*
X1009746Y974227D02*
X1018960Y965013D01*
X1010452Y956505D01*
X1001238Y965719D01*
X1009746Y974227D01*
G37*
G36*
X997725Y986248D02*
X1006939Y977034D01*
X998431Y968526D01*
X989217Y977740D01*
X997725Y986248D01*
G37*
G36*
X977417Y945490D02*
X986631Y936276D01*
X978123Y927768D01*
X968909Y936982D01*
X977417Y945490D01*
G37*
G36*
X965396Y957511D02*
X974610Y948297D01*
X966102Y939789D01*
X956888Y949003D01*
X965396Y957511D01*
G37*
G36*
X954966Y1057744D02*
X964180Y1048530D01*
X955672Y1040022D01*
X946458Y1049236D01*
X954966Y1057744D01*
G37*
G36*
X942946Y1069764D02*
X952160Y1060550D01*
X943652Y1052042D01*
X934438Y1061256D01*
X942946Y1069764D01*
G37*
G36*
X953170Y804500D02*
X962384Y795286D01*
X953876Y786778D01*
X944662Y795992D01*
X953170Y804500D01*
G37*
G36*
X941150Y816521D02*
X950364Y807307D01*
X941856Y798799D01*
X932642Y808013D01*
X941150Y816521D01*
G37*
G36*
X880790Y1043062D02*
X871576Y1052276D01*
X880084Y1060784D01*
X889298Y1051570D01*
X880790Y1043062D01*
G37*
G36*
X892811Y1031041D02*
X883597Y1040255D01*
X892105Y1048763D01*
X901319Y1039549D01*
X892811Y1031041D01*
G37*
G36*
X963947Y815277D02*
X973161Y806063D01*
X964653Y797555D01*
X955439Y806769D01*
X963947Y815277D01*
G37*
G36*
X951926Y827298D02*
X961140Y818084D01*
X952632Y809576D01*
X943418Y818790D01*
X951926Y827298D01*
G37*
D20*
G36*
X909830Y1119381D02*
X922580Y1132131D01*
X936744Y1117967D01*
X923994Y1105217D01*
X909830Y1119381D01*
G37*
G36*
X890031Y1099582D02*
X902781Y1112332D01*
X916945Y1098168D01*
X904195Y1085418D01*
X890031Y1099582D01*
G37*
G36*
X1044534Y966717D02*
X1057284Y979467D01*
X1071448Y965303D01*
X1058698Y952553D01*
X1044534Y966717D01*
G37*
G36*
X1024735Y946918D02*
X1037485Y959668D01*
X1051649Y945504D01*
X1038899Y932754D01*
X1024735Y946918D01*
G37*
D21*
X909057Y925828D02*
X898769Y915540D01*
X890284Y924026D02*
X900572Y934314D01*
X892086Y942799D02*
X881798Y932511D01*
D22*
G36*
X888531Y946950D02*
X913243Y922238D01*
X902395Y911390D01*
X877683Y936102D01*
X888531Y946950D01*
G37*
D23*
X967270Y785485D03*
X985230Y1144696D03*
D24*
G36*
X999726Y795080D02*
X989309Y805497D01*
X1001140Y817328D01*
X1011557Y806911D01*
X999726Y795080D01*
G37*
G36*
X970734Y847733D02*
X981151Y837316D01*
X969320Y825485D01*
X958903Y835902D01*
X970734Y847733D01*
G37*
D25*
G36*
X832517Y1104108D02*
X828252Y1099843D01*
X816917Y1111178D01*
X821182Y1115443D01*
X832517Y1104108D01*
G37*
G36*
X837113Y1108704D02*
X832848Y1104439D01*
X821513Y1115774D01*
X825778Y1120039D01*
X837113Y1108704D01*
G37*
G36*
X841709Y1113301D02*
X837444Y1109036D01*
X826109Y1120371D01*
X830374Y1124636D01*
X841709Y1113301D01*
G37*
G36*
X827921Y1099512D02*
X823656Y1095247D01*
X812321Y1106582D01*
X816586Y1110847D01*
X827921Y1099512D01*
G37*
G36*
X823324Y1094916D02*
X819059Y1090651D01*
X807724Y1101986D01*
X811989Y1106251D01*
X823324Y1094916D01*
G37*
D18*
X834616Y1124614D03*
X807746Y1097744D03*
D26*
G36*
X830615Y1139704D02*
X818594Y1151725D01*
X832735Y1165866D01*
X844756Y1153845D01*
X830615Y1139704D01*
G37*
G36*
X778515Y1087604D02*
X766494Y1099625D01*
X780635Y1113766D01*
X792656Y1101745D01*
X778515Y1087604D01*
G37*
D27*
G36*
X802090Y1111179D02*
X790069Y1123200D01*
X809160Y1142291D01*
X821181Y1130270D01*
X802090Y1111179D01*
G37*
D10*
X145827Y1021581D03*
X145827Y908600D03*
X301179Y753248D03*
X569512Y908600D03*
X513021Y1120442D03*
X569512Y1021581D03*
X202318Y809739D03*
X414160Y1176933D03*
X301179Y1176933D03*
X513021Y809739D03*
X414160Y753248D03*
D11*
X326603Y1031236D02*
X322748Y1035091D01*
X326603Y1031236D02*
X326282Y1030915D01*
X322427Y1034770D01*
X322748Y1035091D01*
X319212Y1031555D02*
X323067Y1027700D01*
X322746Y1027379D01*
X318891Y1031234D01*
X319212Y1031555D01*
X315826Y1028169D02*
X319681Y1024314D01*
X319360Y1023993D01*
X315505Y1027848D01*
X315826Y1028169D01*
X312291Y1024633D02*
X316146Y1020778D01*
X315825Y1020457D01*
X311970Y1024312D01*
X312291Y1024633D01*
X308905Y1021247D02*
X312760Y1017392D01*
X312439Y1017071D01*
X308584Y1020926D01*
X308905Y1021247D01*
X305369Y1017712D02*
X309224Y1013857D01*
X308903Y1013536D01*
X305048Y1017391D01*
X305369Y1017712D01*
X301513Y1013855D02*
X305368Y1010000D01*
X301513Y1013855D02*
X301834Y1014176D01*
X305689Y1010321D01*
X305368Y1010000D01*
X301981Y1006614D02*
X298126Y1010469D01*
X298447Y1010790D01*
X302302Y1006935D01*
X301981Y1006614D01*
X298446Y1003079D02*
X294591Y1006934D01*
X294912Y1007255D01*
X298767Y1003400D01*
X298446Y1003079D01*
X295060Y999693D02*
X291205Y1003548D01*
X291526Y1003869D01*
X295381Y1000014D01*
X295060Y999693D01*
X291524Y996157D02*
X287669Y1000012D01*
X287990Y1000333D01*
X291845Y996478D01*
X291524Y996157D01*
X291524Y987905D02*
X287669Y984050D01*
X291524Y987905D02*
X291845Y987584D01*
X287990Y983729D01*
X287669Y984050D01*
X291205Y980515D02*
X295060Y984370D01*
X295381Y984049D01*
X291526Y980194D01*
X291205Y980515D01*
X294591Y977129D02*
X298446Y980984D01*
X298767Y980663D01*
X294912Y976808D01*
X294591Y977129D01*
X298127Y973593D02*
X301982Y977448D01*
X302303Y977127D01*
X298448Y973272D01*
X298127Y973593D01*
X301513Y970207D02*
X305368Y974062D01*
X305689Y973741D01*
X301834Y969886D01*
X301513Y970207D01*
X305048Y966672D02*
X308903Y970527D01*
X309224Y970206D01*
X305369Y966351D01*
X305048Y966672D01*
X308905Y962815D02*
X312760Y966670D01*
X308905Y962815D02*
X308584Y963136D01*
X312439Y966991D01*
X312760Y966670D01*
X316146Y963284D02*
X312291Y959429D01*
X311970Y959750D01*
X315825Y963605D01*
X316146Y963284D01*
X319681Y959748D02*
X315826Y955893D01*
X315505Y956214D01*
X319360Y960069D01*
X319681Y959748D01*
X323067Y956362D02*
X319212Y952507D01*
X318891Y952828D01*
X322746Y956683D01*
X323067Y956362D01*
X326603Y952827D02*
X322748Y948972D01*
X322427Y949293D01*
X326282Y953148D01*
X326603Y952827D01*
X334855Y952827D02*
X338710Y948972D01*
X334855Y952827D02*
X335176Y953148D01*
X339031Y949293D01*
X338710Y948972D01*
X342245Y952507D02*
X338390Y956362D01*
X338711Y956683D01*
X342566Y952828D01*
X342245Y952507D01*
X345631Y955893D02*
X341776Y959748D01*
X342097Y960069D01*
X345952Y956214D01*
X345631Y955893D01*
X349167Y959429D02*
X345312Y963284D01*
X345633Y963605D01*
X349488Y959750D01*
X349167Y959429D01*
X352553Y962815D02*
X348698Y966670D01*
X349019Y966991D01*
X352874Y963136D01*
X352553Y962815D01*
X356088Y966351D02*
X352233Y970206D01*
X352554Y970527D01*
X356409Y966672D01*
X356088Y966351D01*
X359945Y970207D02*
X356090Y974062D01*
X359945Y970207D02*
X359624Y969886D01*
X355769Y973741D01*
X356090Y974062D01*
X359476Y977448D02*
X363331Y973593D01*
X363010Y973272D01*
X359155Y977127D01*
X359476Y977448D01*
X363012Y980984D02*
X366867Y977129D01*
X366546Y976808D01*
X362691Y980663D01*
X363012Y980984D01*
X366398Y984370D02*
X370253Y980515D01*
X369932Y980194D01*
X366077Y984049D01*
X366398Y984370D01*
X369933Y987905D02*
X373788Y984050D01*
X373467Y983729D01*
X369612Y987584D01*
X369933Y987905D01*
X369933Y996157D02*
X373788Y1000012D01*
X369933Y996157D02*
X369612Y996478D01*
X373467Y1000333D01*
X373788Y1000012D01*
X370253Y1003548D02*
X366398Y999693D01*
X366077Y1000014D01*
X369932Y1003869D01*
X370253Y1003548D01*
X366867Y1006934D02*
X363012Y1003079D01*
X362691Y1003400D01*
X366546Y1007255D01*
X366867Y1006934D01*
X363331Y1010469D02*
X359476Y1006614D01*
X359155Y1006935D01*
X363010Y1010790D01*
X363331Y1010469D01*
X359945Y1013855D02*
X356090Y1010000D01*
X355769Y1010321D01*
X359624Y1014176D01*
X359945Y1013855D01*
X356409Y1017391D02*
X352554Y1013536D01*
X352233Y1013857D01*
X356088Y1017712D01*
X356409Y1017391D01*
X352553Y1021247D02*
X348698Y1017392D01*
X352553Y1021247D02*
X352874Y1020926D01*
X349019Y1017071D01*
X348698Y1017392D01*
X345312Y1020778D02*
X349167Y1024633D01*
X349488Y1024312D01*
X345633Y1020457D01*
X345312Y1020778D01*
X341776Y1024314D02*
X345631Y1028169D01*
X345952Y1027848D01*
X342097Y1023993D01*
X341776Y1024314D01*
X338390Y1027700D02*
X342245Y1031555D01*
X342566Y1031234D01*
X338711Y1027379D01*
X338390Y1027700D01*
X334855Y1031236D02*
X338710Y1035091D01*
X339031Y1034770D01*
X335176Y1030915D01*
X334855Y1031236D01*
D12*
G36*
X339957Y1100914D02*
X345283Y1095588D01*
X335361Y1085666D01*
X330035Y1090992D01*
X339957Y1100914D01*
G37*
G36*
X333240Y1107631D02*
X338566Y1102305D01*
X328644Y1092383D01*
X323318Y1097709D01*
X333240Y1107631D01*
G37*
G36*
X326522Y1114349D02*
X331848Y1109023D01*
X321926Y1099101D01*
X316600Y1104427D01*
X326522Y1114349D01*
G37*
G36*
X308136Y1095962D02*
X313462Y1090636D01*
X303540Y1080714D01*
X298214Y1086040D01*
X308136Y1095962D01*
G37*
G36*
X321571Y1082527D02*
X326897Y1077201D01*
X316975Y1067279D01*
X311649Y1072605D01*
X321571Y1082527D01*
G37*
G36*
X366898Y876407D02*
X372224Y871081D01*
X362302Y861159D01*
X356976Y866485D01*
X366898Y876407D01*
G37*
G36*
X360180Y883125D02*
X365506Y877799D01*
X355584Y867877D01*
X350258Y873203D01*
X360180Y883125D01*
G37*
G36*
X353463Y889842D02*
X358789Y884516D01*
X348867Y874594D01*
X343541Y879920D01*
X353463Y889842D01*
G37*
G36*
X335077Y871456D02*
X340403Y866130D01*
X330481Y856208D01*
X325155Y861534D01*
X335077Y871456D01*
G37*
G36*
X348512Y858021D02*
X353838Y852695D01*
X343916Y842773D01*
X338590Y848099D01*
X348512Y858021D01*
G37*
D13*
G36*
X398165Y894308D02*
X406673Y902816D01*
X440635Y868854D01*
X432127Y860346D01*
X398165Y894308D01*
G37*
G36*
X384023Y880166D02*
X392531Y888674D01*
X426493Y854712D01*
X417985Y846204D01*
X384023Y880166D01*
G37*
D14*
G36*
X479503Y842668D02*
X454026Y868145D01*
X466777Y880896D01*
X492254Y855419D01*
X479503Y842668D01*
G37*
G36*
X431420Y794585D02*
X405943Y820062D01*
X418694Y832813D01*
X444171Y807336D01*
X431420Y794585D01*
G37*
D15*
X376896Y1102573D02*
X381831Y1107508D01*
X386766Y1102573D01*
X381831Y1097638D01*
X376896Y1102573D01*
X377031Y1102438D02*
X386631Y1102438D01*
X382101Y1107238D02*
X381561Y1107238D01*
X369429Y1119911D02*
X364494Y1114976D01*
X369429Y1119911D02*
X374364Y1114976D01*
X369429Y1110041D01*
X364494Y1114976D01*
X364629Y1114841D02*
X374229Y1114841D01*
X369699Y1119641D02*
X369159Y1119641D01*
D16*
G36*
X323814Y881731D02*
X333028Y872517D01*
X324520Y864009D01*
X315306Y873223D01*
X323814Y881731D01*
G37*
G36*
X311793Y893751D02*
X321007Y884537D01*
X312499Y876029D01*
X303285Y885243D01*
X311793Y893751D01*
G37*
G36*
X354347Y1138566D02*
X363561Y1129352D01*
X355053Y1120844D01*
X345839Y1130058D01*
X354347Y1138566D01*
G37*
G36*
X342326Y1150587D02*
X351540Y1141373D01*
X343032Y1132865D01*
X333818Y1142079D01*
X342326Y1150587D01*
G37*
D17*
G36*
X410349Y1061633D02*
X418857Y1053125D01*
X409289Y1043557D01*
X400781Y1052065D01*
X410349Y1061633D01*
G37*
G36*
X428026Y1043955D02*
X436534Y1035447D01*
X426966Y1025879D01*
X418458Y1034387D01*
X428026Y1043955D01*
G37*
G36*
X445704Y1026278D02*
X454212Y1017770D01*
X444644Y1008202D01*
X436136Y1016710D01*
X445704Y1026278D01*
G37*
G36*
X450300Y1101584D02*
X458808Y1093076D01*
X449240Y1083508D01*
X440732Y1092016D01*
X450300Y1101584D01*
G37*
G36*
X467978Y1083907D02*
X476486Y1075399D01*
X466918Y1065831D01*
X458410Y1074339D01*
X467978Y1083907D01*
G37*
G36*
X485655Y1066229D02*
X494163Y1057721D01*
X484595Y1048153D01*
X476087Y1056661D01*
X485655Y1066229D01*
G37*
D18*
X436865Y1065500D03*
X458079Y1044286D03*
D19*
G36*
X234999Y861817D02*
X241824Y868642D01*
X254037Y856429D01*
X247212Y849604D01*
X234999Y861817D01*
G37*
G36*
X199078Y897739D02*
X205903Y904564D01*
X218116Y892351D01*
X211291Y885526D01*
X199078Y897739D01*
G37*
G36*
X261940Y888758D02*
X268765Y895583D01*
X280978Y883370D01*
X274153Y876545D01*
X261940Y888758D01*
G37*
G36*
X226019Y924679D02*
X232844Y931504D01*
X245057Y919291D01*
X238232Y912466D01*
X226019Y924679D01*
G37*
D16*
G36*
X296335Y1068207D02*
X287121Y1077421D01*
X295629Y1085929D01*
X304843Y1076715D01*
X296335Y1068207D01*
G37*
G36*
X308355Y1056186D02*
X299141Y1065400D01*
X307649Y1073908D01*
X316863Y1064694D01*
X308355Y1056186D01*
G37*
G36*
X213357Y985004D02*
X222571Y975790D01*
X214063Y967282D01*
X204849Y976496D01*
X213357Y985004D01*
G37*
G36*
X201336Y997024D02*
X210550Y987810D01*
X202042Y979302D01*
X192828Y988516D01*
X201336Y997024D01*
G37*
G36*
X254666Y1081990D02*
X263880Y1072776D01*
X255372Y1064268D01*
X246158Y1073482D01*
X254666Y1081990D01*
G37*
G36*
X242645Y1094011D02*
X251859Y1084797D01*
X243351Y1076289D01*
X234137Y1085503D01*
X242645Y1094011D01*
G37*
G36*
X265442Y1092767D02*
X274656Y1083553D01*
X266148Y1075045D01*
X256934Y1084259D01*
X265442Y1092767D01*
G37*
G36*
X253421Y1104787D02*
X262635Y1095573D01*
X254127Y1087065D01*
X244913Y1096279D01*
X253421Y1104787D01*
G37*
G36*
X244249Y1016121D02*
X235035Y1025335D01*
X243543Y1033843D01*
X252757Y1024629D01*
X244249Y1016121D01*
G37*
G36*
X256270Y1004101D02*
X247056Y1013315D01*
X255564Y1021823D01*
X264778Y1012609D01*
X256270Y1004101D01*
G37*
G36*
X226289Y998161D02*
X217075Y1007375D01*
X225583Y1015883D01*
X234797Y1006669D01*
X226289Y998161D01*
G37*
G36*
X238309Y986140D02*
X229095Y995354D01*
X237603Y1003862D01*
X246817Y994648D01*
X238309Y986140D01*
G37*
D15*
X234725Y1011258D02*
X239660Y1016193D01*
X234725Y1011258D02*
X229790Y1016193D01*
X234725Y1021128D01*
X239660Y1016193D01*
X239525Y1016058D02*
X229925Y1016058D01*
X234455Y1020858D02*
X234995Y1020858D01*
X252063Y1003790D02*
X247128Y998855D01*
X242193Y1003790D01*
X247128Y1008725D01*
X252063Y1003790D01*
X251928Y1003655D02*
X242328Y1003655D01*
X246858Y1008455D02*
X247398Y1008455D01*
X221699Y998233D02*
X216764Y993298D01*
X211829Y998233D01*
X216764Y1003168D01*
X221699Y998233D01*
X221564Y998098D02*
X211964Y998098D01*
X216494Y1002898D02*
X217034Y1002898D01*
X234102Y985830D02*
X229167Y980895D01*
X224232Y985830D01*
X229167Y990765D01*
X234102Y985830D01*
X233967Y985695D02*
X224367Y985695D01*
X228897Y990495D02*
X229437Y990495D01*
X402656Y987011D02*
X407591Y991946D01*
X402656Y987011D02*
X397721Y991946D01*
X402656Y996881D01*
X407591Y991946D01*
X407456Y991811D02*
X397856Y991811D01*
X402386Y996611D02*
X402926Y996611D01*
X419993Y979544D02*
X415058Y974609D01*
X410123Y979544D01*
X415058Y984479D01*
X419993Y979544D01*
X419858Y979409D02*
X410258Y979409D01*
X414788Y984209D02*
X415328Y984209D01*
D16*
G36*
X400146Y974227D02*
X409360Y965013D01*
X400852Y956505D01*
X391638Y965719D01*
X400146Y974227D01*
G37*
G36*
X388125Y986248D02*
X397339Y977034D01*
X388831Y968526D01*
X379617Y977740D01*
X388125Y986248D01*
G37*
G36*
X367817Y945490D02*
X377031Y936276D01*
X368523Y927768D01*
X359309Y936982D01*
X367817Y945490D01*
G37*
G36*
X355796Y957511D02*
X365010Y948297D01*
X356502Y939789D01*
X347288Y949003D01*
X355796Y957511D01*
G37*
G36*
X345366Y1057744D02*
X354580Y1048530D01*
X346072Y1040022D01*
X336858Y1049236D01*
X345366Y1057744D01*
G37*
G36*
X333346Y1069764D02*
X342560Y1060550D01*
X334052Y1052042D01*
X324838Y1061256D01*
X333346Y1069764D01*
G37*
G36*
X343570Y804500D02*
X352784Y795286D01*
X344276Y786778D01*
X335062Y795992D01*
X343570Y804500D01*
G37*
G36*
X331550Y816521D02*
X340764Y807307D01*
X332256Y798799D01*
X323042Y808013D01*
X331550Y816521D01*
G37*
G36*
X271190Y1043062D02*
X261976Y1052276D01*
X270484Y1060784D01*
X279698Y1051570D01*
X271190Y1043062D01*
G37*
G36*
X283211Y1031041D02*
X273997Y1040255D01*
X282505Y1048763D01*
X291719Y1039549D01*
X283211Y1031041D01*
G37*
G36*
X354347Y815277D02*
X363561Y806063D01*
X355053Y797555D01*
X345839Y806769D01*
X354347Y815277D01*
G37*
G36*
X342326Y827298D02*
X351540Y818084D01*
X343032Y809576D01*
X333818Y818790D01*
X342326Y827298D01*
G37*
D20*
G36*
X300230Y1119381D02*
X312980Y1132131D01*
X327144Y1117967D01*
X314394Y1105217D01*
X300230Y1119381D01*
G37*
G36*
X280431Y1099582D02*
X293181Y1112332D01*
X307345Y1098168D01*
X294595Y1085418D01*
X280431Y1099582D01*
G37*
G36*
X434934Y966717D02*
X447684Y979467D01*
X461848Y965303D01*
X449098Y952553D01*
X434934Y966717D01*
G37*
G36*
X415135Y946918D02*
X427885Y959668D01*
X442049Y945504D01*
X429299Y932754D01*
X415135Y946918D01*
G37*
D21*
X299457Y925828D02*
X289169Y915540D01*
X280684Y924026D02*
X290972Y934314D01*
X282486Y942799D02*
X272198Y932511D01*
D22*
G36*
X278931Y946950D02*
X303643Y922238D01*
X292795Y911390D01*
X268083Y936102D01*
X278931Y946950D01*
G37*
D23*
X357670Y785485D03*
X375630Y1144696D03*
D24*
G36*
X390126Y795080D02*
X379709Y805497D01*
X391540Y817328D01*
X401957Y806911D01*
X390126Y795080D01*
G37*
G36*
X361134Y847733D02*
X371551Y837316D01*
X359720Y825485D01*
X349303Y835902D01*
X361134Y847733D01*
G37*
D25*
G36*
X222917Y1104108D02*
X218652Y1099843D01*
X207317Y1111178D01*
X211582Y1115443D01*
X222917Y1104108D01*
G37*
G36*
X227513Y1108704D02*
X223248Y1104439D01*
X211913Y1115774D01*
X216178Y1120039D01*
X227513Y1108704D01*
G37*
G36*
X232109Y1113301D02*
X227844Y1109036D01*
X216509Y1120371D01*
X220774Y1124636D01*
X232109Y1113301D01*
G37*
G36*
X218321Y1099512D02*
X214056Y1095247D01*
X202721Y1106582D01*
X206986Y1110847D01*
X218321Y1099512D01*
G37*
G36*
X213724Y1094916D02*
X209459Y1090651D01*
X198124Y1101986D01*
X202389Y1106251D01*
X213724Y1094916D01*
G37*
D18*
X225016Y1124614D03*
X198146Y1097744D03*
D26*
G36*
X221015Y1139704D02*
X208994Y1151725D01*
X223135Y1165866D01*
X235156Y1153845D01*
X221015Y1139704D01*
G37*
G36*
X168915Y1087604D02*
X156894Y1099625D01*
X171035Y1113766D01*
X183056Y1101745D01*
X168915Y1087604D01*
G37*
D27*
G36*
X192490Y1111179D02*
X180469Y1123200D01*
X199560Y1142291D01*
X211581Y1130270D01*
X192490Y1111179D01*
G37*
D23*
X1276350Y165100D03*
X1276350Y1155700D03*
D28*
X36665Y177800D02*
X36668Y178022D01*
X36676Y178244D01*
X36690Y178466D01*
X36709Y178688D01*
X36733Y178908D01*
X36763Y179129D01*
X36798Y179348D01*
X36839Y179567D01*
X36885Y179784D01*
X36936Y180000D01*
X36993Y180215D01*
X37055Y180429D01*
X37122Y180640D01*
X37194Y180851D01*
X37272Y181059D01*
X37354Y181265D01*
X37442Y181469D01*
X37534Y181672D01*
X37632Y181871D01*
X37734Y182068D01*
X37841Y182263D01*
X37953Y182455D01*
X38070Y182644D01*
X38191Y182831D01*
X38317Y183014D01*
X38447Y183194D01*
X38582Y183371D01*
X38720Y183544D01*
X38863Y183714D01*
X39011Y183881D01*
X39162Y184044D01*
X39317Y184203D01*
X39476Y184358D01*
X39639Y184509D01*
X39806Y184657D01*
X39976Y184800D01*
X40149Y184938D01*
X40326Y185073D01*
X40506Y185203D01*
X40689Y185329D01*
X40876Y185450D01*
X41065Y185567D01*
X41257Y185679D01*
X41452Y185786D01*
X41649Y185888D01*
X41848Y185986D01*
X42051Y186078D01*
X42255Y186166D01*
X42461Y186248D01*
X42669Y186326D01*
X42880Y186398D01*
X43091Y186465D01*
X43305Y186527D01*
X43520Y186584D01*
X43736Y186635D01*
X43953Y186681D01*
X44172Y186722D01*
X44391Y186757D01*
X44612Y186787D01*
X44832Y186811D01*
X45054Y186830D01*
X45276Y186844D01*
X45498Y186852D01*
X45720Y186855D01*
X45942Y186852D01*
X46164Y186844D01*
X46386Y186830D01*
X46608Y186811D01*
X46828Y186787D01*
X47049Y186757D01*
X47268Y186722D01*
X47487Y186681D01*
X47704Y186635D01*
X47920Y186584D01*
X48135Y186527D01*
X48349Y186465D01*
X48560Y186398D01*
X48771Y186326D01*
X48979Y186248D01*
X49185Y186166D01*
X49389Y186078D01*
X49592Y185986D01*
X49791Y185888D01*
X49988Y185786D01*
X50183Y185679D01*
X50375Y185567D01*
X50564Y185450D01*
X50751Y185329D01*
X50934Y185203D01*
X51114Y185073D01*
X51291Y184938D01*
X51464Y184800D01*
X51634Y184657D01*
X51801Y184509D01*
X51964Y184358D01*
X52123Y184203D01*
X52278Y184044D01*
X52429Y183881D01*
X52577Y183714D01*
X52720Y183544D01*
X52858Y183371D01*
X52993Y183194D01*
X53123Y183014D01*
X53249Y182831D01*
X53370Y182644D01*
X53487Y182455D01*
X53599Y182263D01*
X53706Y182068D01*
X53808Y181871D01*
X53906Y181672D01*
X53998Y181469D01*
X54086Y181265D01*
X54168Y181059D01*
X54246Y180851D01*
X54318Y180640D01*
X54385Y180429D01*
X54447Y180215D01*
X54504Y180000D01*
X54555Y179784D01*
X54601Y179567D01*
X54642Y179348D01*
X54677Y179129D01*
X54707Y178908D01*
X54731Y178688D01*
X54750Y178466D01*
X54764Y178244D01*
X54772Y178022D01*
X54775Y177800D01*
X54772Y177578D01*
X54764Y177356D01*
X54750Y177134D01*
X54731Y176912D01*
X54707Y176692D01*
X54677Y176471D01*
X54642Y176252D01*
X54601Y176033D01*
X54555Y175816D01*
X54504Y175600D01*
X54447Y175385D01*
X54385Y175171D01*
X54318Y174960D01*
X54246Y174749D01*
X54168Y174541D01*
X54086Y174335D01*
X53998Y174131D01*
X53906Y173928D01*
X53808Y173729D01*
X53706Y173532D01*
X53599Y173337D01*
X53487Y173145D01*
X53370Y172956D01*
X53249Y172769D01*
X53123Y172586D01*
X52993Y172406D01*
X52858Y172229D01*
X52720Y172056D01*
X52577Y171886D01*
X52429Y171719D01*
X52278Y171556D01*
X52123Y171397D01*
X51964Y171242D01*
X51801Y171091D01*
X51634Y170943D01*
X51464Y170800D01*
X51291Y170662D01*
X51114Y170527D01*
X50934Y170397D01*
X50751Y170271D01*
X50564Y170150D01*
X50375Y170033D01*
X50183Y169921D01*
X49988Y169814D01*
X49791Y169712D01*
X49592Y169614D01*
X49389Y169522D01*
X49185Y169434D01*
X48979Y169352D01*
X48771Y169274D01*
X48560Y169202D01*
X48349Y169135D01*
X48135Y169073D01*
X47920Y169016D01*
X47704Y168965D01*
X47487Y168919D01*
X47268Y168878D01*
X47049Y168843D01*
X46828Y168813D01*
X46608Y168789D01*
X46386Y168770D01*
X46164Y168756D01*
X45942Y168748D01*
X45720Y168745D01*
X45498Y168748D01*
X45276Y168756D01*
X45054Y168770D01*
X44832Y168789D01*
X44612Y168813D01*
X44391Y168843D01*
X44172Y168878D01*
X43953Y168919D01*
X43736Y168965D01*
X43520Y169016D01*
X43305Y169073D01*
X43091Y169135D01*
X42880Y169202D01*
X42669Y169274D01*
X42461Y169352D01*
X42255Y169434D01*
X42051Y169522D01*
X41848Y169614D01*
X41649Y169712D01*
X41452Y169814D01*
X41257Y169921D01*
X41065Y170033D01*
X40876Y170150D01*
X40689Y170271D01*
X40506Y170397D01*
X40326Y170527D01*
X40149Y170662D01*
X39976Y170800D01*
X39806Y170943D01*
X39639Y171091D01*
X39476Y171242D01*
X39317Y171397D01*
X39162Y171556D01*
X39011Y171719D01*
X38863Y171886D01*
X38720Y172056D01*
X38582Y172229D01*
X38447Y172406D01*
X38317Y172586D01*
X38191Y172769D01*
X38070Y172956D01*
X37953Y173145D01*
X37841Y173337D01*
X37734Y173532D01*
X37632Y173729D01*
X37534Y173928D01*
X37442Y174131D01*
X37354Y174335D01*
X37272Y174541D01*
X37194Y174749D01*
X37122Y174960D01*
X37055Y175171D01*
X36993Y175385D01*
X36936Y175600D01*
X36885Y175816D01*
X36839Y176033D01*
X36798Y176252D01*
X36763Y176471D01*
X36733Y176692D01*
X36709Y176912D01*
X36690Y177134D01*
X36676Y177356D01*
X36668Y177578D01*
X36665Y177800D01*
D29*
X45720Y177800D03*
D30*
X371140Y467744D03*
D31*
X231048Y464152D03*
X195127Y428231D03*
X249008Y446191D03*
X213087Y446191D03*
X231048Y428231D03*
X213087Y410270D03*
D30*
X980740Y467744D03*
D31*
X840648Y464152D03*
X804727Y428231D03*
X858608Y446191D03*
X822687Y446191D03*
X840648Y428231D03*
X822687Y410270D03*
D30*
X980740Y1077344D03*
D31*
X840648Y1073752D03*
X804727Y1037831D03*
X858608Y1055791D03*
X822687Y1055791D03*
X840648Y1037831D03*
X822687Y1019870D03*
D30*
X371140Y1077344D03*
D31*
X231048Y1073752D03*
X195127Y1037831D03*
X249008Y1055791D03*
X213087Y1055791D03*
X231048Y1037831D03*
X213087Y1019870D03*
M02*
