M48
;GenerationSoftware,Autodesk,EAGLE,9.6.2*%
;CreationDate,2021-12-08T21:45:59Z*%
FMAT,2
ICI,OFF
METRIC,TZ,000.000
T4C0.381
T3C0.508
T2C0.850
T1C2.794
%
G90
M71
T1
X91078Y56733
X112262Y20014
X102376Y14365
X75543Y102158
X75543Y90860
X91078Y75325
X41416Y75325
X117911Y90860
X51302Y20014
X30118Y14365
X112262Y112044
X117911Y102158
X81192Y80974
X102376Y117693
X91078Y117693
X112262Y80974
X102376Y75325
X14583Y102158
X30118Y75325
X56951Y90860
X51302Y112044
X56951Y102158
X20232Y80974
X41416Y117693
X30118Y117693
X51302Y80974
X14583Y41198
X14583Y29900
X56951Y29900
X51302Y51084
X56951Y41198
X20232Y20014
X41416Y56733
X30118Y56733
X14583Y90860
X41416Y14365
X75543Y41198
X75543Y29900
X91078Y14365
X117911Y29900
X112262Y51084
X117911Y41198
X81192Y20014
X102376Y56733
T2
X83462Y51501
X43687Y45590
X45808Y43469
X22502Y51501
X19815Y48814
X104647Y45590
X106768Y43469
X80775Y48814
X104647Y106550
X106768Y104429
X83462Y112461
X80775Y109774
X43687Y106550
X45808Y104429
X22502Y112461
X19815Y109774
T3
X37114Y46774
X96278Y109530
X98074Y107734
X96278Y48570
X98074Y46774
X35318Y109530
X37114Y107734
X35318Y48570
T4
X50135Y39141
X31007Y31508
X33163Y29173
X40077Y31418
X93135Y48121
X95829Y25671
X84065Y46415
X105707Y22977
X109299Y30161
X89543Y21181
X87747Y49917
X83257Y26569
X86849Y43631
X90261Y50995
X77868Y45427
X86849Y32855
X99152Y37974
X85232Y34471
X94931Y32675
X99421Y46864
X96278Y44978
X99601Y32855
X106156Y33304
X90611Y42634
X94212Y51714
X99690Y39770
X79664Y32855
X86849Y54408
X111095Y42733
X89902Y45607
X80473Y42823
X87208Y37884
X94033Y22079
X87747Y42733
X88735Y36896
X99421Y34651
X103013Y38243
X100319Y44529
X98523Y33753
X90171Y26479
X97984Y45068
X98523Y42733
X99421Y41835
X87208Y24234
X100319Y40937
X89543Y22977
X87567Y35190
X85861Y44619
X83795Y44170
X83257Y32855
X86849Y29263
X99241Y25491
X102654Y29622
X81101Y46685
X87747Y51714
X90441Y29263
X85681Y37615
X82269Y44619
X87298Y39231
X84065Y42823
X88286Y40219
X82269Y41027
X86669Y36088
X92955Y32496
X95021Y30071
X100678Y33933
X111095Y39141
X91967Y31508
X94123Y29173
X101037Y31418
X93135Y109081
X95829Y86631
X84065Y107375
X105707Y83937
X109299Y91121
X89543Y82141
X87747Y110877
X83257Y87529
X86849Y104591
X90261Y111955
X77868Y106387
X86849Y93815
X99152Y98934
X85232Y95431
X94931Y93635
X99421Y107824
X96278Y105938
X99601Y93815
X106156Y94264
X90611Y103594
X94212Y112674
X99690Y100730
X79664Y93815
X86849Y115368
X111095Y103693
X89902Y106567
X80473Y103783
X87208Y98844
X26248Y24234
X87747Y103693
X88735Y97856
X99421Y95611
X103013Y99203
X100319Y105489
X98523Y94713
X90171Y87439
X97984Y106028
X98523Y103693
X99421Y102795
X87208Y85194
X100319Y101897
X89543Y83937
X87567Y96150
X85861Y105579
X83795Y105130
X83257Y93815
X86849Y90223
X99241Y86451
X102654Y90582
X81101Y107645
X87747Y112674
X90441Y90223
X85681Y98575
X82269Y105579
X87298Y100191
X84065Y103783
X88286Y101179
X82269Y101987
X86669Y97048
X92955Y93456
X95021Y91031
X100678Y94893
X111095Y100101
X91967Y92468
X94123Y90133
X101037Y92378
X32175Y48121
X34869Y25671
X32175Y109081
X34869Y86631
X23105Y107375
X44747Y83937
X48339Y91121
X28583Y82141
X26787Y110877
X22297Y87529
X25889Y104591
X29301Y111955
X16908Y106387
X25889Y93815
X38192Y98934
X24272Y95431
X33971Y93635
X38461Y107824
X35318Y105938
X38641Y93815
X45196Y94264
X29651Y103594
X33252Y112674
X38730Y100730
X18704Y93815
X25889Y115368
X50135Y103693
X28942Y106567
X19513Y103783
X26248Y98844
X33073Y83039
X26787Y103693
X27775Y97856
X38461Y95611
X42053Y99203
X39359Y105489
X37563Y94713
X29211Y87439
X37024Y106028
X37563Y103693
X38461Y102795
X26248Y85194
X39359Y101897
X28583Y83937
X26607Y96150
X23105Y46415
X22835Y105130
X22297Y93815
X25889Y90223
X38281Y86451
X41694Y90582
X20141Y107645
X26787Y112674
X29481Y90223
X24721Y98575
X21309Y105579
X26338Y100191
X23105Y103783
X27326Y101179
X21309Y101987
X25709Y97048
X31995Y93456
X34061Y91031
X39718Y94893
X50135Y100101
X31007Y92468
X33163Y90133
X40077Y92378
X44747Y22977
X48339Y30161
X28583Y21181
X26787Y49917
X22297Y26569
X25889Y43631
X29301Y50995
X16908Y45427
X25889Y32855
X38192Y37974
X24272Y34471
X33971Y32675
X38461Y46864
X35318Y44978
X38641Y32855
X45196Y33304
X29651Y42634
X33252Y51714
X94033Y83039
X38730Y39770
X18704Y32855
X25889Y54408
X50135Y42733
X28942Y45607
X19513Y42823
X26248Y37884
X33073Y22079
X26787Y42733
X27775Y36896
X38461Y34651
X42053Y38243
X39359Y44529
X37563Y33753
X29211Y26479
X37024Y45068
X37563Y42733
X38461Y41835
X39359Y40937
X28583Y22977
X26607Y35190
X24901Y44619
X22835Y44170
X22297Y32855
X25889Y29263
X38281Y25491
X41694Y29622
X20141Y46685
X26787Y51714
X29481Y29263
X24721Y37615
X21309Y44619
X26338Y39231
X23105Y42823
X27326Y40219
X21309Y41027
X25709Y36088
X31995Y32496
X34061Y30071
X39718Y33933
X24901Y105579
M30