G04 EAGLE Gerber RS-274X export*
G75*
%MOMM*%
%FSLAX34Y34*%
%LPD*%
%INSoldermask Bottom*%
%IPPOS*%
%AMOC8*
5,1,8,0,0,1.08239X$1,22.5*%
G01*
%ADD10C,4.267200*%
%ADD11C,1.053200*%
%ADD12C,1.219200*%
%ADD13C,1.092200*%

G36*
X1129923Y170822D02*
X1129923Y170822D01*
X1130015Y170840D01*
X1130081Y170843D01*
X1133990Y171701D01*
X1134078Y171734D01*
X1134143Y171747D01*
X1137870Y173206D01*
X1137951Y173252D01*
X1138013Y173276D01*
X1141466Y175299D01*
X1141539Y175357D01*
X1141596Y175390D01*
X1144690Y177929D01*
X1144745Y177988D01*
X1144795Y178031D01*
X1144807Y178049D01*
X1144831Y178070D01*
X1147370Y181163D01*
X1147419Y181243D01*
X1147461Y181294D01*
X1149485Y184747D01*
X1149520Y184833D01*
X1149554Y184890D01*
X1151013Y188617D01*
X1151034Y188708D01*
X1151059Y188770D01*
X1151917Y192679D01*
X1151921Y192729D01*
X1151928Y192752D01*
X1151929Y192794D01*
X1151939Y192837D01*
X1152174Y196832D01*
X1152167Y196925D01*
X1152171Y196991D01*
X1151779Y200974D01*
X1151757Y201065D01*
X1151751Y201131D01*
X1150741Y205003D01*
X1150705Y205089D01*
X1150689Y205154D01*
X1149085Y208820D01*
X1149036Y208900D01*
X1149010Y208961D01*
X1146852Y212332D01*
X1146791Y212403D01*
X1146756Y212459D01*
X1144098Y215451D01*
X1143997Y215537D01*
X1143943Y215593D01*
X1111416Y239634D01*
X1111414Y239635D01*
X1111412Y239637D01*
X1111290Y239702D01*
X1111166Y239770D01*
X1111164Y239770D01*
X1111162Y239771D01*
X1111026Y239800D01*
X1110888Y239830D01*
X1110886Y239830D01*
X1110884Y239831D01*
X1110742Y239821D01*
X1110604Y239812D01*
X1110602Y239811D01*
X1110600Y239811D01*
X1110468Y239762D01*
X1110337Y239715D01*
X1110335Y239714D01*
X1110333Y239713D01*
X1110221Y239631D01*
X1110107Y239548D01*
X1110106Y239547D01*
X1110104Y239545D01*
X1110017Y239433D01*
X1109932Y239324D01*
X1109931Y239322D01*
X1109930Y239320D01*
X1109878Y239189D01*
X1109826Y239060D01*
X1109826Y239058D01*
X1109825Y239056D01*
X1109824Y239038D01*
X1109798Y238777D01*
X1109803Y238747D01*
X1109801Y238721D01*
X1110146Y235111D01*
X1109917Y231574D01*
X1109126Y228118D01*
X1107794Y224833D01*
X1105955Y221802D01*
X1103657Y219103D01*
X1100958Y216804D01*
X1097927Y214966D01*
X1094642Y213634D01*
X1091186Y212843D01*
X1087649Y212614D01*
X1084039Y212959D01*
X1084037Y212958D01*
X1084035Y212959D01*
X1083893Y212952D01*
X1083755Y212946D01*
X1083753Y212945D01*
X1083751Y212945D01*
X1083617Y212899D01*
X1083485Y212855D01*
X1083484Y212853D01*
X1083482Y212853D01*
X1083370Y212775D01*
X1083252Y212692D01*
X1083251Y212691D01*
X1083249Y212690D01*
X1083163Y212583D01*
X1083072Y212472D01*
X1083072Y212470D01*
X1083071Y212469D01*
X1083018Y212343D01*
X1082961Y212210D01*
X1082961Y212208D01*
X1082960Y212206D01*
X1082944Y212071D01*
X1082927Y211928D01*
X1082927Y211926D01*
X1082927Y211924D01*
X1082949Y211789D01*
X1082972Y211647D01*
X1082973Y211645D01*
X1082973Y211644D01*
X1082981Y211628D01*
X1083094Y211390D01*
X1083114Y211367D01*
X1083126Y211344D01*
X1107167Y178817D01*
X1107260Y178723D01*
X1107309Y178662D01*
X1110301Y176004D01*
X1110379Y175952D01*
X1110428Y175908D01*
X1113799Y173750D01*
X1113884Y173711D01*
X1113940Y173675D01*
X1117606Y172072D01*
X1117696Y172047D01*
X1117757Y172019D01*
X1121629Y171009D01*
X1121722Y170998D01*
X1121786Y170981D01*
X1125769Y170589D01*
X1125862Y170593D01*
X1125928Y170586D01*
X1129923Y170822D01*
G37*
G36*
X520323Y170822D02*
X520323Y170822D01*
X520415Y170840D01*
X520481Y170843D01*
X524390Y171701D01*
X524478Y171734D01*
X524543Y171747D01*
X528270Y173206D01*
X528351Y173252D01*
X528413Y173276D01*
X531866Y175299D01*
X531939Y175357D01*
X531996Y175390D01*
X535090Y177929D01*
X535145Y177988D01*
X535195Y178031D01*
X535207Y178049D01*
X535231Y178070D01*
X537770Y181163D01*
X537819Y181243D01*
X537861Y181294D01*
X539885Y184747D01*
X539920Y184833D01*
X539954Y184890D01*
X541413Y188617D01*
X541434Y188708D01*
X541459Y188770D01*
X542317Y192679D01*
X542321Y192729D01*
X542328Y192752D01*
X542329Y192794D01*
X542339Y192837D01*
X542574Y196832D01*
X542567Y196925D01*
X542571Y196991D01*
X542179Y200974D01*
X542157Y201065D01*
X542151Y201131D01*
X541141Y205003D01*
X541105Y205089D01*
X541089Y205154D01*
X539485Y208820D01*
X539436Y208900D01*
X539410Y208961D01*
X537252Y212332D01*
X537191Y212403D01*
X537156Y212459D01*
X534498Y215451D01*
X534397Y215537D01*
X534343Y215593D01*
X501816Y239634D01*
X501814Y239635D01*
X501812Y239637D01*
X501690Y239702D01*
X501566Y239770D01*
X501564Y239770D01*
X501562Y239771D01*
X501426Y239800D01*
X501288Y239830D01*
X501286Y239830D01*
X501284Y239831D01*
X501142Y239821D01*
X501004Y239812D01*
X501002Y239811D01*
X501000Y239811D01*
X500868Y239762D01*
X500737Y239715D01*
X500735Y239714D01*
X500733Y239713D01*
X500621Y239631D01*
X500507Y239548D01*
X500506Y239547D01*
X500504Y239545D01*
X500417Y239433D01*
X500332Y239324D01*
X500331Y239322D01*
X500330Y239320D01*
X500278Y239189D01*
X500226Y239060D01*
X500226Y239058D01*
X500225Y239056D01*
X500224Y239038D01*
X500198Y238777D01*
X500203Y238747D01*
X500201Y238721D01*
X500546Y235111D01*
X500317Y231574D01*
X499526Y228118D01*
X498194Y224833D01*
X496355Y221802D01*
X494057Y219103D01*
X491358Y216804D01*
X488327Y214966D01*
X485042Y213634D01*
X481586Y212843D01*
X478049Y212614D01*
X474439Y212959D01*
X474437Y212958D01*
X474435Y212959D01*
X474293Y212952D01*
X474155Y212946D01*
X474153Y212945D01*
X474151Y212945D01*
X474017Y212899D01*
X473885Y212855D01*
X473884Y212853D01*
X473882Y212853D01*
X473770Y212775D01*
X473652Y212692D01*
X473651Y212691D01*
X473649Y212690D01*
X473563Y212583D01*
X473472Y212472D01*
X473472Y212470D01*
X473471Y212469D01*
X473418Y212343D01*
X473361Y212210D01*
X473361Y212208D01*
X473360Y212206D01*
X473344Y212071D01*
X473327Y211928D01*
X473327Y211926D01*
X473327Y211924D01*
X473349Y211789D01*
X473372Y211647D01*
X473373Y211645D01*
X473373Y211644D01*
X473381Y211628D01*
X473494Y211390D01*
X473514Y211367D01*
X473526Y211344D01*
X497567Y178817D01*
X497660Y178723D01*
X497709Y178662D01*
X500701Y176004D01*
X500779Y175952D01*
X500828Y175908D01*
X504199Y173750D01*
X504284Y173711D01*
X504340Y173675D01*
X508006Y172072D01*
X508096Y172047D01*
X508157Y172019D01*
X512029Y171009D01*
X512122Y170998D01*
X512186Y170981D01*
X516169Y170589D01*
X516262Y170593D01*
X516328Y170586D01*
X520323Y170822D01*
G37*
G36*
X1129923Y780422D02*
X1129923Y780422D01*
X1130015Y780440D01*
X1130081Y780443D01*
X1133990Y781301D01*
X1134078Y781334D01*
X1134143Y781347D01*
X1137870Y782806D01*
X1137951Y782852D01*
X1138013Y782876D01*
X1141466Y784899D01*
X1141539Y784957D01*
X1141596Y784990D01*
X1144690Y787529D01*
X1144745Y787588D01*
X1144795Y787631D01*
X1144807Y787649D01*
X1144831Y787670D01*
X1147370Y790763D01*
X1147419Y790843D01*
X1147461Y790894D01*
X1149485Y794347D01*
X1149520Y794433D01*
X1149554Y794490D01*
X1151013Y798217D01*
X1151034Y798308D01*
X1151059Y798370D01*
X1151917Y802279D01*
X1151921Y802329D01*
X1151928Y802352D01*
X1151929Y802394D01*
X1151939Y802437D01*
X1152174Y806432D01*
X1152167Y806525D01*
X1152171Y806591D01*
X1151779Y810574D01*
X1151757Y810665D01*
X1151751Y810731D01*
X1150741Y814603D01*
X1150705Y814689D01*
X1150689Y814754D01*
X1149085Y818420D01*
X1149036Y818500D01*
X1149010Y818561D01*
X1146852Y821932D01*
X1146791Y822003D01*
X1146756Y822059D01*
X1144098Y825051D01*
X1143997Y825137D01*
X1143943Y825193D01*
X1111416Y849234D01*
X1111414Y849235D01*
X1111412Y849237D01*
X1111290Y849302D01*
X1111166Y849370D01*
X1111164Y849370D01*
X1111162Y849371D01*
X1111026Y849400D01*
X1110888Y849430D01*
X1110886Y849430D01*
X1110884Y849431D01*
X1110742Y849421D01*
X1110604Y849412D01*
X1110602Y849411D01*
X1110600Y849411D01*
X1110468Y849362D01*
X1110337Y849315D01*
X1110335Y849314D01*
X1110333Y849313D01*
X1110221Y849231D01*
X1110107Y849148D01*
X1110106Y849147D01*
X1110104Y849145D01*
X1110017Y849033D01*
X1109932Y848924D01*
X1109931Y848922D01*
X1109930Y848920D01*
X1109878Y848789D01*
X1109826Y848660D01*
X1109826Y848658D01*
X1109825Y848656D01*
X1109824Y848638D01*
X1109798Y848377D01*
X1109803Y848347D01*
X1109801Y848321D01*
X1110146Y844711D01*
X1109917Y841174D01*
X1109126Y837718D01*
X1107794Y834433D01*
X1105955Y831402D01*
X1103657Y828703D01*
X1100958Y826404D01*
X1097927Y824566D01*
X1094642Y823234D01*
X1091186Y822443D01*
X1087649Y822214D01*
X1084039Y822559D01*
X1084037Y822558D01*
X1084035Y822559D01*
X1083893Y822552D01*
X1083755Y822546D01*
X1083753Y822545D01*
X1083751Y822545D01*
X1083617Y822499D01*
X1083485Y822455D01*
X1083484Y822453D01*
X1083482Y822453D01*
X1083370Y822375D01*
X1083252Y822292D01*
X1083251Y822291D01*
X1083249Y822290D01*
X1083163Y822183D01*
X1083072Y822072D01*
X1083072Y822070D01*
X1083071Y822069D01*
X1083018Y821943D01*
X1082961Y821810D01*
X1082961Y821808D01*
X1082960Y821806D01*
X1082944Y821671D01*
X1082927Y821528D01*
X1082927Y821526D01*
X1082927Y821524D01*
X1082949Y821389D01*
X1082972Y821247D01*
X1082973Y821245D01*
X1082973Y821244D01*
X1082981Y821228D01*
X1083094Y820990D01*
X1083114Y820967D01*
X1083126Y820944D01*
X1107167Y788417D01*
X1107260Y788323D01*
X1107309Y788262D01*
X1110301Y785604D01*
X1110379Y785552D01*
X1110428Y785508D01*
X1113799Y783350D01*
X1113884Y783311D01*
X1113940Y783275D01*
X1117606Y781672D01*
X1117696Y781647D01*
X1117757Y781619D01*
X1121629Y780609D01*
X1121722Y780598D01*
X1121786Y780581D01*
X1125769Y780189D01*
X1125862Y780193D01*
X1125928Y780186D01*
X1129923Y780422D01*
G37*
G36*
X520323Y780422D02*
X520323Y780422D01*
X520415Y780440D01*
X520481Y780443D01*
X524390Y781301D01*
X524478Y781334D01*
X524543Y781347D01*
X528270Y782806D01*
X528351Y782852D01*
X528413Y782876D01*
X531866Y784899D01*
X531939Y784957D01*
X531996Y784990D01*
X535090Y787529D01*
X535145Y787588D01*
X535195Y787631D01*
X535207Y787649D01*
X535231Y787670D01*
X537770Y790763D01*
X537819Y790843D01*
X537861Y790894D01*
X539885Y794347D01*
X539920Y794433D01*
X539954Y794490D01*
X541413Y798217D01*
X541434Y798308D01*
X541459Y798370D01*
X542317Y802279D01*
X542321Y802329D01*
X542328Y802352D01*
X542329Y802394D01*
X542339Y802437D01*
X542574Y806432D01*
X542567Y806525D01*
X542571Y806591D01*
X542179Y810574D01*
X542157Y810665D01*
X542151Y810731D01*
X541141Y814603D01*
X541105Y814689D01*
X541089Y814754D01*
X539485Y818420D01*
X539436Y818500D01*
X539410Y818561D01*
X537252Y821932D01*
X537191Y822003D01*
X537156Y822059D01*
X534498Y825051D01*
X534397Y825137D01*
X534343Y825193D01*
X501816Y849234D01*
X501814Y849235D01*
X501812Y849237D01*
X501690Y849302D01*
X501566Y849370D01*
X501564Y849370D01*
X501562Y849371D01*
X501426Y849400D01*
X501288Y849430D01*
X501286Y849430D01*
X501284Y849431D01*
X501142Y849421D01*
X501004Y849412D01*
X501002Y849411D01*
X501000Y849411D01*
X500868Y849362D01*
X500737Y849315D01*
X500735Y849314D01*
X500733Y849313D01*
X500621Y849231D01*
X500507Y849148D01*
X500506Y849147D01*
X500504Y849145D01*
X500417Y849033D01*
X500332Y848924D01*
X500331Y848922D01*
X500330Y848920D01*
X500278Y848789D01*
X500226Y848660D01*
X500226Y848658D01*
X500225Y848656D01*
X500224Y848638D01*
X500198Y848377D01*
X500203Y848347D01*
X500201Y848321D01*
X500546Y844711D01*
X500317Y841174D01*
X499526Y837718D01*
X498194Y834433D01*
X496355Y831402D01*
X494057Y828703D01*
X491358Y826404D01*
X488327Y824566D01*
X485042Y823234D01*
X481586Y822443D01*
X478049Y822214D01*
X474439Y822559D01*
X474437Y822558D01*
X474435Y822559D01*
X474293Y822552D01*
X474155Y822546D01*
X474153Y822545D01*
X474151Y822545D01*
X474017Y822499D01*
X473885Y822455D01*
X473884Y822453D01*
X473882Y822453D01*
X473770Y822375D01*
X473652Y822292D01*
X473651Y822291D01*
X473649Y822290D01*
X473563Y822183D01*
X473472Y822072D01*
X473472Y822070D01*
X473471Y822069D01*
X473418Y821943D01*
X473361Y821810D01*
X473361Y821808D01*
X473360Y821806D01*
X473344Y821671D01*
X473327Y821528D01*
X473327Y821526D01*
X473327Y821524D01*
X473349Y821389D01*
X473372Y821247D01*
X473373Y821245D01*
X473373Y821244D01*
X473381Y821228D01*
X473494Y820990D01*
X473514Y820967D01*
X473526Y820944D01*
X497567Y788417D01*
X497660Y788323D01*
X497709Y788262D01*
X500701Y785604D01*
X500779Y785552D01*
X500828Y785508D01*
X504199Y783350D01*
X504284Y783311D01*
X504340Y783275D01*
X508006Y781672D01*
X508096Y781647D01*
X508157Y781619D01*
X512029Y780609D01*
X512122Y780598D01*
X512186Y780581D01*
X516169Y780189D01*
X516262Y780193D01*
X516328Y780186D01*
X520323Y780422D01*
G37*
G36*
X199104Y170593D02*
X199104Y170593D01*
X199170Y170589D01*
X203153Y170981D01*
X203244Y171003D01*
X203310Y171009D01*
X207182Y172019D01*
X207268Y172055D01*
X207333Y172071D01*
X210999Y173675D01*
X211079Y173724D01*
X211140Y173750D01*
X214511Y175908D01*
X214582Y175968D01*
X214638Y176004D01*
X217630Y178662D01*
X217716Y178763D01*
X217772Y178817D01*
X241813Y211344D01*
X241814Y211346D01*
X241816Y211347D01*
X241881Y211470D01*
X241949Y211594D01*
X241949Y211596D01*
X241950Y211598D01*
X241979Y211734D01*
X242009Y211872D01*
X242009Y211874D01*
X242010Y211876D01*
X242000Y212018D01*
X241991Y212156D01*
X241990Y212158D01*
X241990Y212160D01*
X241941Y212292D01*
X241894Y212423D01*
X241893Y212425D01*
X241892Y212427D01*
X241810Y212539D01*
X241727Y212653D01*
X241726Y212654D01*
X241724Y212656D01*
X241612Y212743D01*
X241503Y212828D01*
X241501Y212829D01*
X241499Y212830D01*
X241368Y212882D01*
X241239Y212934D01*
X241237Y212934D01*
X241235Y212935D01*
X241217Y212936D01*
X240956Y212962D01*
X240926Y212957D01*
X240900Y212959D01*
X237290Y212614D01*
X233753Y212843D01*
X230297Y213634D01*
X227012Y214966D01*
X223981Y216804D01*
X221282Y219103D01*
X218983Y221802D01*
X217145Y224833D01*
X215813Y228118D01*
X215022Y231574D01*
X214793Y235111D01*
X215138Y238721D01*
X215137Y238723D01*
X215138Y238725D01*
X215131Y238867D01*
X215125Y239005D01*
X215124Y239007D01*
X215124Y239009D01*
X215078Y239143D01*
X215034Y239275D01*
X215032Y239276D01*
X215032Y239278D01*
X214954Y239390D01*
X214871Y239508D01*
X214870Y239509D01*
X214869Y239511D01*
X214762Y239597D01*
X214651Y239687D01*
X214649Y239688D01*
X214648Y239689D01*
X214522Y239742D01*
X214389Y239799D01*
X214387Y239799D01*
X214385Y239800D01*
X214250Y239816D01*
X214107Y239833D01*
X214105Y239833D01*
X214103Y239833D01*
X213968Y239811D01*
X213826Y239788D01*
X213824Y239787D01*
X213823Y239786D01*
X213807Y239779D01*
X213569Y239666D01*
X213546Y239646D01*
X213523Y239634D01*
X180996Y215593D01*
X180902Y215500D01*
X180841Y215451D01*
X178183Y212459D01*
X178131Y212381D01*
X178087Y212332D01*
X175929Y208961D01*
X175890Y208876D01*
X175854Y208820D01*
X174251Y205154D01*
X174226Y205064D01*
X174198Y205003D01*
X173188Y201131D01*
X173177Y201038D01*
X173160Y200974D01*
X172768Y196991D01*
X172772Y196898D01*
X172765Y196832D01*
X173001Y192837D01*
X173005Y192817D01*
X173004Y192803D01*
X173018Y192749D01*
X173019Y192745D01*
X173022Y192679D01*
X173880Y188770D01*
X173913Y188682D01*
X173926Y188617D01*
X175385Y184890D01*
X175431Y184809D01*
X175455Y184747D01*
X177478Y181294D01*
X177536Y181221D01*
X177569Y181164D01*
X180108Y178070D01*
X180198Y177987D01*
X180249Y177929D01*
X183342Y175390D01*
X183422Y175341D01*
X183473Y175299D01*
X186926Y173275D01*
X187012Y173240D01*
X187069Y173206D01*
X190796Y171747D01*
X190887Y171726D01*
X190949Y171701D01*
X194858Y170843D01*
X194951Y170836D01*
X195016Y170821D01*
X199011Y170586D01*
X199104Y170593D01*
G37*
G36*
X808704Y170593D02*
X808704Y170593D01*
X808770Y170589D01*
X812753Y170981D01*
X812844Y171003D01*
X812910Y171009D01*
X816782Y172019D01*
X816868Y172055D01*
X816933Y172071D01*
X820599Y173675D01*
X820679Y173724D01*
X820740Y173750D01*
X824111Y175908D01*
X824182Y175968D01*
X824238Y176004D01*
X827230Y178662D01*
X827316Y178763D01*
X827372Y178817D01*
X851413Y211344D01*
X851414Y211346D01*
X851416Y211347D01*
X851481Y211470D01*
X851549Y211594D01*
X851549Y211596D01*
X851550Y211598D01*
X851579Y211734D01*
X851609Y211872D01*
X851609Y211874D01*
X851610Y211876D01*
X851600Y212018D01*
X851591Y212156D01*
X851590Y212158D01*
X851590Y212160D01*
X851541Y212292D01*
X851494Y212423D01*
X851493Y212425D01*
X851492Y212427D01*
X851410Y212539D01*
X851327Y212653D01*
X851326Y212654D01*
X851324Y212656D01*
X851212Y212743D01*
X851103Y212828D01*
X851101Y212829D01*
X851099Y212830D01*
X850968Y212882D01*
X850839Y212934D01*
X850837Y212934D01*
X850835Y212935D01*
X850817Y212936D01*
X850556Y212962D01*
X850526Y212957D01*
X850500Y212959D01*
X846890Y212614D01*
X843353Y212843D01*
X839897Y213634D01*
X836612Y214966D01*
X833581Y216804D01*
X830882Y219103D01*
X828583Y221802D01*
X826745Y224833D01*
X825413Y228118D01*
X824622Y231574D01*
X824393Y235111D01*
X824738Y238721D01*
X824737Y238723D01*
X824738Y238725D01*
X824731Y238867D01*
X824725Y239005D01*
X824724Y239007D01*
X824724Y239009D01*
X824678Y239143D01*
X824634Y239275D01*
X824632Y239276D01*
X824632Y239278D01*
X824554Y239390D01*
X824471Y239508D01*
X824470Y239509D01*
X824469Y239511D01*
X824362Y239597D01*
X824251Y239687D01*
X824249Y239688D01*
X824248Y239689D01*
X824122Y239742D01*
X823989Y239799D01*
X823987Y239799D01*
X823985Y239800D01*
X823850Y239816D01*
X823707Y239833D01*
X823705Y239833D01*
X823703Y239833D01*
X823568Y239811D01*
X823426Y239788D01*
X823424Y239787D01*
X823423Y239786D01*
X823407Y239779D01*
X823169Y239666D01*
X823146Y239646D01*
X823123Y239634D01*
X790596Y215593D01*
X790502Y215500D01*
X790441Y215451D01*
X787783Y212459D01*
X787731Y212381D01*
X787687Y212332D01*
X785529Y208961D01*
X785490Y208876D01*
X785454Y208820D01*
X783851Y205154D01*
X783826Y205064D01*
X783798Y205003D01*
X782788Y201131D01*
X782777Y201038D01*
X782760Y200974D01*
X782368Y196991D01*
X782372Y196898D01*
X782365Y196832D01*
X782601Y192837D01*
X782605Y192817D01*
X782604Y192803D01*
X782618Y192749D01*
X782619Y192745D01*
X782622Y192679D01*
X783480Y188770D01*
X783513Y188682D01*
X783526Y188617D01*
X784985Y184890D01*
X785031Y184809D01*
X785055Y184747D01*
X787078Y181294D01*
X787136Y181221D01*
X787169Y181164D01*
X789708Y178070D01*
X789798Y177987D01*
X789849Y177929D01*
X792942Y175390D01*
X793022Y175341D01*
X793073Y175299D01*
X796526Y173275D01*
X796612Y173240D01*
X796669Y173206D01*
X800396Y171747D01*
X800487Y171726D01*
X800549Y171701D01*
X804458Y170843D01*
X804551Y170836D01*
X804616Y170821D01*
X808611Y170586D01*
X808704Y170593D01*
G37*
G36*
X808704Y780193D02*
X808704Y780193D01*
X808770Y780189D01*
X812753Y780581D01*
X812844Y780603D01*
X812910Y780609D01*
X816782Y781619D01*
X816868Y781655D01*
X816933Y781671D01*
X820599Y783275D01*
X820679Y783324D01*
X820740Y783350D01*
X824111Y785508D01*
X824182Y785568D01*
X824238Y785604D01*
X827230Y788262D01*
X827316Y788363D01*
X827372Y788417D01*
X851413Y820944D01*
X851414Y820946D01*
X851416Y820947D01*
X851481Y821070D01*
X851549Y821194D01*
X851549Y821196D01*
X851550Y821198D01*
X851579Y821334D01*
X851609Y821472D01*
X851609Y821474D01*
X851610Y821476D01*
X851600Y821618D01*
X851591Y821756D01*
X851590Y821758D01*
X851590Y821760D01*
X851541Y821892D01*
X851494Y822023D01*
X851493Y822025D01*
X851492Y822027D01*
X851410Y822139D01*
X851327Y822253D01*
X851326Y822254D01*
X851324Y822256D01*
X851212Y822343D01*
X851103Y822428D01*
X851101Y822429D01*
X851099Y822430D01*
X850968Y822482D01*
X850839Y822534D01*
X850837Y822534D01*
X850835Y822535D01*
X850817Y822536D01*
X850556Y822562D01*
X850526Y822557D01*
X850500Y822559D01*
X846890Y822214D01*
X843353Y822443D01*
X839897Y823234D01*
X836612Y824566D01*
X833581Y826404D01*
X830882Y828703D01*
X828583Y831402D01*
X826745Y834433D01*
X825413Y837718D01*
X824622Y841174D01*
X824393Y844711D01*
X824738Y848321D01*
X824737Y848323D01*
X824738Y848325D01*
X824731Y848467D01*
X824725Y848605D01*
X824724Y848607D01*
X824724Y848609D01*
X824678Y848743D01*
X824634Y848875D01*
X824632Y848876D01*
X824632Y848878D01*
X824554Y848990D01*
X824471Y849108D01*
X824470Y849109D01*
X824469Y849111D01*
X824362Y849197D01*
X824251Y849287D01*
X824249Y849288D01*
X824248Y849289D01*
X824122Y849342D01*
X823989Y849399D01*
X823987Y849399D01*
X823985Y849400D01*
X823850Y849416D01*
X823707Y849433D01*
X823705Y849433D01*
X823703Y849433D01*
X823568Y849411D01*
X823426Y849388D01*
X823424Y849387D01*
X823423Y849386D01*
X823407Y849379D01*
X823169Y849266D01*
X823146Y849246D01*
X823123Y849234D01*
X790596Y825193D01*
X790502Y825100D01*
X790441Y825051D01*
X787783Y822059D01*
X787731Y821981D01*
X787687Y821932D01*
X785529Y818561D01*
X785490Y818476D01*
X785454Y818420D01*
X783851Y814754D01*
X783826Y814664D01*
X783798Y814603D01*
X782788Y810731D01*
X782777Y810638D01*
X782760Y810574D01*
X782368Y806591D01*
X782372Y806498D01*
X782365Y806432D01*
X782601Y802437D01*
X782605Y802417D01*
X782604Y802403D01*
X782618Y802349D01*
X782619Y802345D01*
X782622Y802279D01*
X783480Y798370D01*
X783513Y798282D01*
X783526Y798217D01*
X784985Y794490D01*
X785031Y794409D01*
X785055Y794347D01*
X787078Y790894D01*
X787136Y790821D01*
X787169Y790764D01*
X789708Y787670D01*
X789798Y787587D01*
X789849Y787529D01*
X792942Y784990D01*
X793022Y784941D01*
X793073Y784899D01*
X796526Y782875D01*
X796612Y782840D01*
X796669Y782806D01*
X800396Y781347D01*
X800487Y781326D01*
X800549Y781301D01*
X804458Y780443D01*
X804551Y780436D01*
X804616Y780421D01*
X808611Y780186D01*
X808704Y780193D01*
G37*
G36*
X199104Y780193D02*
X199104Y780193D01*
X199170Y780189D01*
X203153Y780581D01*
X203244Y780603D01*
X203310Y780609D01*
X207182Y781619D01*
X207268Y781655D01*
X207333Y781671D01*
X210999Y783275D01*
X211079Y783324D01*
X211140Y783350D01*
X214511Y785508D01*
X214582Y785568D01*
X214638Y785604D01*
X217630Y788262D01*
X217716Y788363D01*
X217772Y788417D01*
X241813Y820944D01*
X241814Y820946D01*
X241816Y820947D01*
X241881Y821070D01*
X241949Y821194D01*
X241949Y821196D01*
X241950Y821198D01*
X241979Y821334D01*
X242009Y821472D01*
X242009Y821474D01*
X242010Y821476D01*
X242000Y821618D01*
X241991Y821756D01*
X241990Y821758D01*
X241990Y821760D01*
X241941Y821892D01*
X241894Y822023D01*
X241893Y822025D01*
X241892Y822027D01*
X241810Y822139D01*
X241727Y822253D01*
X241726Y822254D01*
X241724Y822256D01*
X241612Y822343D01*
X241503Y822428D01*
X241501Y822429D01*
X241499Y822430D01*
X241368Y822482D01*
X241239Y822534D01*
X241237Y822534D01*
X241235Y822535D01*
X241217Y822536D01*
X240956Y822562D01*
X240926Y822557D01*
X240900Y822559D01*
X237290Y822214D01*
X233753Y822443D01*
X230297Y823234D01*
X227012Y824566D01*
X223981Y826404D01*
X221282Y828703D01*
X218983Y831402D01*
X217145Y834433D01*
X215813Y837718D01*
X215022Y841174D01*
X214793Y844711D01*
X215138Y848321D01*
X215137Y848323D01*
X215138Y848325D01*
X215131Y848467D01*
X215125Y848605D01*
X215124Y848607D01*
X215124Y848609D01*
X215078Y848743D01*
X215034Y848875D01*
X215032Y848876D01*
X215032Y848878D01*
X214954Y848990D01*
X214871Y849108D01*
X214870Y849109D01*
X214869Y849111D01*
X214762Y849197D01*
X214651Y849287D01*
X214649Y849288D01*
X214648Y849289D01*
X214522Y849342D01*
X214389Y849399D01*
X214387Y849399D01*
X214385Y849400D01*
X214250Y849416D01*
X214107Y849433D01*
X214105Y849433D01*
X214103Y849433D01*
X213968Y849411D01*
X213826Y849388D01*
X213824Y849387D01*
X213823Y849386D01*
X213807Y849379D01*
X213569Y849266D01*
X213546Y849246D01*
X213523Y849234D01*
X180996Y825193D01*
X180902Y825100D01*
X180841Y825051D01*
X178183Y822059D01*
X178131Y821981D01*
X178087Y821932D01*
X175929Y818561D01*
X175890Y818476D01*
X175854Y818420D01*
X174251Y814754D01*
X174226Y814664D01*
X174198Y814603D01*
X173188Y810731D01*
X173177Y810638D01*
X173160Y810574D01*
X172768Y806591D01*
X172772Y806498D01*
X172765Y806432D01*
X173001Y802437D01*
X173005Y802417D01*
X173004Y802403D01*
X173018Y802349D01*
X173019Y802345D01*
X173022Y802279D01*
X173880Y798370D01*
X173913Y798282D01*
X173926Y798217D01*
X175385Y794490D01*
X175431Y794409D01*
X175455Y794347D01*
X177478Y790894D01*
X177536Y790821D01*
X177569Y790764D01*
X180108Y787670D01*
X180198Y787587D01*
X180249Y787529D01*
X183342Y784990D01*
X183422Y784941D01*
X183473Y784899D01*
X186926Y782875D01*
X187012Y782840D01*
X187069Y782806D01*
X190796Y781347D01*
X190887Y781326D01*
X190949Y781301D01*
X194858Y780443D01*
X194951Y780436D01*
X195016Y780421D01*
X199011Y780186D01*
X199104Y780193D01*
G37*
G36*
X501234Y1080748D02*
X501234Y1080748D01*
X501236Y1080748D01*
X501371Y1080770D01*
X501513Y1080793D01*
X501514Y1080794D01*
X501516Y1080794D01*
X501532Y1080802D01*
X501770Y1080915D01*
X501793Y1080935D01*
X501816Y1080947D01*
X534343Y1104988D01*
X534437Y1105081D01*
X534498Y1105130D01*
X534785Y1105454D01*
X537156Y1108122D01*
X537208Y1108200D01*
X537252Y1108249D01*
X539410Y1111620D01*
X539449Y1111705D01*
X539485Y1111761D01*
X541088Y1115427D01*
X541113Y1115517D01*
X541141Y1115578D01*
X542151Y1119450D01*
X542161Y1119543D01*
X542179Y1119607D01*
X542571Y1123590D01*
X542567Y1123683D01*
X542574Y1123749D01*
X542338Y1127744D01*
X542320Y1127836D01*
X542317Y1127902D01*
X541459Y1131811D01*
X541426Y1131899D01*
X541413Y1131964D01*
X539954Y1135691D01*
X539908Y1135772D01*
X539884Y1135834D01*
X537861Y1139287D01*
X537803Y1139360D01*
X537770Y1139417D01*
X535231Y1142511D01*
X535141Y1142594D01*
X535090Y1142652D01*
X531996Y1145191D01*
X531917Y1145240D01*
X531866Y1145282D01*
X528413Y1147306D01*
X528327Y1147341D01*
X528270Y1147375D01*
X524543Y1148834D01*
X524452Y1148855D01*
X524390Y1148880D01*
X520481Y1149738D01*
X520388Y1149745D01*
X520323Y1149760D01*
X516328Y1149995D01*
X516235Y1149988D01*
X516169Y1149992D01*
X512186Y1149600D01*
X512095Y1149578D01*
X512029Y1149572D01*
X508157Y1148562D01*
X508070Y1148526D01*
X508006Y1148510D01*
X504339Y1146906D01*
X504260Y1146857D01*
X504199Y1146831D01*
X500828Y1144673D01*
X500757Y1144612D01*
X500701Y1144577D01*
X497709Y1141919D01*
X497623Y1141818D01*
X497567Y1141764D01*
X473526Y1109237D01*
X473525Y1109235D01*
X473523Y1109233D01*
X473458Y1109111D01*
X473390Y1108987D01*
X473390Y1108985D01*
X473389Y1108983D01*
X473360Y1108847D01*
X473330Y1108709D01*
X473330Y1108707D01*
X473329Y1108705D01*
X473339Y1108563D01*
X473348Y1108425D01*
X473349Y1108423D01*
X473349Y1108421D01*
X473398Y1108289D01*
X473445Y1108158D01*
X473446Y1108156D01*
X473447Y1108154D01*
X473529Y1108041D01*
X473612Y1107928D01*
X473613Y1107927D01*
X473615Y1107925D01*
X473727Y1107838D01*
X473836Y1107753D01*
X473838Y1107752D01*
X473839Y1107751D01*
X473971Y1107699D01*
X474100Y1107647D01*
X474102Y1107647D01*
X474104Y1107646D01*
X474122Y1107645D01*
X474383Y1107619D01*
X474413Y1107624D01*
X474439Y1107622D01*
X478049Y1107967D01*
X481586Y1107738D01*
X485042Y1106947D01*
X488327Y1105615D01*
X491358Y1103776D01*
X494057Y1101478D01*
X496355Y1098779D01*
X498194Y1095748D01*
X499526Y1092463D01*
X500317Y1089007D01*
X500546Y1085470D01*
X500201Y1081860D01*
X500202Y1081858D01*
X500201Y1081856D01*
X500208Y1081714D01*
X500214Y1081576D01*
X500215Y1081574D01*
X500215Y1081572D01*
X500261Y1081438D01*
X500305Y1081306D01*
X500307Y1081305D01*
X500307Y1081303D01*
X500385Y1081191D01*
X500468Y1081073D01*
X500469Y1081072D01*
X500470Y1081070D01*
X500577Y1080984D01*
X500688Y1080893D01*
X500690Y1080893D01*
X500691Y1080892D01*
X500817Y1080839D01*
X500950Y1080782D01*
X500952Y1080782D01*
X500954Y1080781D01*
X501089Y1080765D01*
X501232Y1080748D01*
X501234Y1080748D01*
G37*
G36*
X1110834Y1080748D02*
X1110834Y1080748D01*
X1110836Y1080748D01*
X1110971Y1080770D01*
X1111113Y1080793D01*
X1111114Y1080794D01*
X1111116Y1080794D01*
X1111132Y1080802D01*
X1111370Y1080915D01*
X1111393Y1080935D01*
X1111416Y1080947D01*
X1143943Y1104988D01*
X1144037Y1105081D01*
X1144098Y1105130D01*
X1144385Y1105454D01*
X1146756Y1108122D01*
X1146808Y1108200D01*
X1146852Y1108249D01*
X1149010Y1111620D01*
X1149049Y1111705D01*
X1149085Y1111761D01*
X1150688Y1115427D01*
X1150713Y1115517D01*
X1150741Y1115578D01*
X1151751Y1119450D01*
X1151761Y1119543D01*
X1151779Y1119607D01*
X1152171Y1123590D01*
X1152167Y1123683D01*
X1152174Y1123749D01*
X1151938Y1127744D01*
X1151920Y1127836D01*
X1151917Y1127902D01*
X1151059Y1131811D01*
X1151026Y1131899D01*
X1151013Y1131964D01*
X1149554Y1135691D01*
X1149508Y1135772D01*
X1149484Y1135834D01*
X1147461Y1139287D01*
X1147403Y1139360D01*
X1147370Y1139417D01*
X1144831Y1142511D01*
X1144741Y1142594D01*
X1144690Y1142652D01*
X1141596Y1145191D01*
X1141517Y1145240D01*
X1141466Y1145282D01*
X1138013Y1147306D01*
X1137927Y1147341D01*
X1137870Y1147375D01*
X1134143Y1148834D01*
X1134052Y1148855D01*
X1133990Y1148880D01*
X1130081Y1149738D01*
X1129988Y1149745D01*
X1129923Y1149760D01*
X1125928Y1149995D01*
X1125835Y1149988D01*
X1125769Y1149992D01*
X1121786Y1149600D01*
X1121695Y1149578D01*
X1121629Y1149572D01*
X1117757Y1148562D01*
X1117670Y1148526D01*
X1117606Y1148510D01*
X1113939Y1146906D01*
X1113860Y1146857D01*
X1113799Y1146831D01*
X1110428Y1144673D01*
X1110357Y1144612D01*
X1110301Y1144577D01*
X1107309Y1141919D01*
X1107223Y1141818D01*
X1107167Y1141764D01*
X1083126Y1109237D01*
X1083125Y1109235D01*
X1083123Y1109233D01*
X1083058Y1109111D01*
X1082990Y1108987D01*
X1082990Y1108985D01*
X1082989Y1108983D01*
X1082960Y1108847D01*
X1082930Y1108709D01*
X1082930Y1108707D01*
X1082929Y1108705D01*
X1082939Y1108563D01*
X1082948Y1108425D01*
X1082949Y1108423D01*
X1082949Y1108421D01*
X1082998Y1108289D01*
X1083045Y1108158D01*
X1083046Y1108156D01*
X1083047Y1108154D01*
X1083129Y1108041D01*
X1083212Y1107928D01*
X1083213Y1107927D01*
X1083215Y1107925D01*
X1083327Y1107838D01*
X1083436Y1107753D01*
X1083438Y1107752D01*
X1083439Y1107751D01*
X1083571Y1107699D01*
X1083700Y1107647D01*
X1083702Y1107647D01*
X1083704Y1107646D01*
X1083722Y1107645D01*
X1083983Y1107619D01*
X1084013Y1107624D01*
X1084039Y1107622D01*
X1087649Y1107967D01*
X1091186Y1107738D01*
X1094642Y1106947D01*
X1097927Y1105615D01*
X1100958Y1103776D01*
X1103657Y1101478D01*
X1105955Y1098779D01*
X1107794Y1095748D01*
X1109126Y1092463D01*
X1109917Y1089007D01*
X1110146Y1085470D01*
X1109801Y1081860D01*
X1109802Y1081858D01*
X1109801Y1081856D01*
X1109808Y1081714D01*
X1109814Y1081576D01*
X1109815Y1081574D01*
X1109815Y1081572D01*
X1109861Y1081438D01*
X1109905Y1081306D01*
X1109907Y1081305D01*
X1109907Y1081303D01*
X1109985Y1081191D01*
X1110068Y1081073D01*
X1110069Y1081072D01*
X1110070Y1081070D01*
X1110177Y1080984D01*
X1110288Y1080893D01*
X1110290Y1080893D01*
X1110291Y1080892D01*
X1110417Y1080839D01*
X1110550Y1080782D01*
X1110552Y1080782D01*
X1110554Y1080781D01*
X1110689Y1080765D01*
X1110832Y1080748D01*
X1110834Y1080748D01*
G37*
G36*
X501234Y471148D02*
X501234Y471148D01*
X501236Y471148D01*
X501371Y471170D01*
X501513Y471193D01*
X501514Y471194D01*
X501516Y471194D01*
X501532Y471202D01*
X501770Y471315D01*
X501793Y471335D01*
X501816Y471347D01*
X534343Y495388D01*
X534437Y495481D01*
X534498Y495530D01*
X534785Y495854D01*
X537156Y498522D01*
X537208Y498600D01*
X537252Y498649D01*
X539410Y502020D01*
X539449Y502105D01*
X539485Y502161D01*
X541088Y505827D01*
X541113Y505917D01*
X541141Y505978D01*
X542151Y509850D01*
X542161Y509943D01*
X542179Y510007D01*
X542571Y513990D01*
X542567Y514083D01*
X542574Y514149D01*
X542338Y518144D01*
X542320Y518236D01*
X542317Y518302D01*
X541459Y522211D01*
X541426Y522299D01*
X541413Y522364D01*
X539954Y526091D01*
X539908Y526172D01*
X539884Y526234D01*
X537861Y529687D01*
X537803Y529760D01*
X537770Y529817D01*
X535231Y532911D01*
X535141Y532994D01*
X535090Y533052D01*
X531996Y535591D01*
X531917Y535640D01*
X531866Y535682D01*
X528413Y537706D01*
X528327Y537741D01*
X528270Y537775D01*
X524543Y539234D01*
X524452Y539255D01*
X524390Y539280D01*
X520481Y540138D01*
X520388Y540145D01*
X520323Y540160D01*
X516328Y540395D01*
X516235Y540388D01*
X516169Y540392D01*
X512186Y540000D01*
X512095Y539978D01*
X512029Y539972D01*
X508157Y538962D01*
X508070Y538926D01*
X508006Y538910D01*
X504339Y537306D01*
X504260Y537257D01*
X504199Y537231D01*
X500828Y535073D01*
X500757Y535012D01*
X500701Y534977D01*
X497709Y532319D01*
X497623Y532218D01*
X497567Y532164D01*
X473526Y499637D01*
X473525Y499635D01*
X473523Y499633D01*
X473458Y499511D01*
X473390Y499387D01*
X473390Y499385D01*
X473389Y499383D01*
X473360Y499247D01*
X473330Y499109D01*
X473330Y499107D01*
X473329Y499105D01*
X473339Y498963D01*
X473348Y498825D01*
X473349Y498823D01*
X473349Y498821D01*
X473398Y498689D01*
X473445Y498558D01*
X473446Y498556D01*
X473447Y498554D01*
X473529Y498441D01*
X473612Y498328D01*
X473613Y498327D01*
X473615Y498325D01*
X473727Y498238D01*
X473836Y498153D01*
X473838Y498152D01*
X473839Y498151D01*
X473971Y498099D01*
X474100Y498047D01*
X474102Y498047D01*
X474104Y498046D01*
X474122Y498045D01*
X474383Y498019D01*
X474413Y498024D01*
X474439Y498022D01*
X478049Y498367D01*
X481586Y498138D01*
X485042Y497347D01*
X488327Y496015D01*
X491358Y494176D01*
X494057Y491878D01*
X496355Y489179D01*
X498194Y486148D01*
X499526Y482863D01*
X500317Y479407D01*
X500546Y475870D01*
X500201Y472260D01*
X500202Y472258D01*
X500201Y472256D01*
X500208Y472114D01*
X500214Y471976D01*
X500215Y471974D01*
X500215Y471972D01*
X500261Y471838D01*
X500305Y471706D01*
X500307Y471705D01*
X500307Y471703D01*
X500385Y471591D01*
X500468Y471473D01*
X500469Y471472D01*
X500470Y471470D01*
X500577Y471384D01*
X500688Y471293D01*
X500690Y471293D01*
X500691Y471292D01*
X500817Y471239D01*
X500950Y471182D01*
X500952Y471182D01*
X500954Y471181D01*
X501089Y471165D01*
X501232Y471148D01*
X501234Y471148D01*
G37*
G36*
X1110834Y471148D02*
X1110834Y471148D01*
X1110836Y471148D01*
X1110971Y471170D01*
X1111113Y471193D01*
X1111114Y471194D01*
X1111116Y471194D01*
X1111132Y471202D01*
X1111370Y471315D01*
X1111393Y471335D01*
X1111416Y471347D01*
X1143943Y495388D01*
X1144037Y495481D01*
X1144098Y495530D01*
X1144385Y495854D01*
X1146756Y498522D01*
X1146808Y498600D01*
X1146852Y498649D01*
X1149010Y502020D01*
X1149049Y502105D01*
X1149085Y502161D01*
X1150688Y505827D01*
X1150713Y505917D01*
X1150741Y505978D01*
X1151751Y509850D01*
X1151761Y509943D01*
X1151779Y510007D01*
X1152171Y513990D01*
X1152167Y514083D01*
X1152174Y514149D01*
X1151938Y518144D01*
X1151920Y518236D01*
X1151917Y518302D01*
X1151059Y522211D01*
X1151026Y522299D01*
X1151013Y522364D01*
X1149554Y526091D01*
X1149508Y526172D01*
X1149484Y526234D01*
X1147461Y529687D01*
X1147403Y529760D01*
X1147370Y529817D01*
X1144831Y532911D01*
X1144741Y532994D01*
X1144690Y533052D01*
X1141596Y535591D01*
X1141517Y535640D01*
X1141466Y535682D01*
X1138013Y537706D01*
X1137927Y537741D01*
X1137870Y537775D01*
X1134143Y539234D01*
X1134052Y539255D01*
X1133990Y539280D01*
X1130081Y540138D01*
X1129988Y540145D01*
X1129923Y540160D01*
X1125928Y540395D01*
X1125835Y540388D01*
X1125769Y540392D01*
X1121786Y540000D01*
X1121695Y539978D01*
X1121629Y539972D01*
X1117757Y538962D01*
X1117670Y538926D01*
X1117606Y538910D01*
X1113939Y537306D01*
X1113860Y537257D01*
X1113799Y537231D01*
X1110428Y535073D01*
X1110357Y535012D01*
X1110301Y534977D01*
X1107309Y532319D01*
X1107223Y532218D01*
X1107167Y532164D01*
X1083126Y499637D01*
X1083125Y499635D01*
X1083123Y499633D01*
X1083058Y499511D01*
X1082990Y499387D01*
X1082990Y499385D01*
X1082989Y499383D01*
X1082960Y499247D01*
X1082930Y499109D01*
X1082930Y499107D01*
X1082929Y499105D01*
X1082939Y498963D01*
X1082948Y498825D01*
X1082949Y498823D01*
X1082949Y498821D01*
X1082998Y498689D01*
X1083045Y498558D01*
X1083046Y498556D01*
X1083047Y498554D01*
X1083129Y498441D01*
X1083212Y498328D01*
X1083213Y498327D01*
X1083215Y498325D01*
X1083327Y498238D01*
X1083436Y498153D01*
X1083438Y498152D01*
X1083439Y498151D01*
X1083571Y498099D01*
X1083700Y498047D01*
X1083702Y498047D01*
X1083704Y498046D01*
X1083722Y498045D01*
X1083983Y498019D01*
X1084013Y498024D01*
X1084039Y498022D01*
X1087649Y498367D01*
X1091186Y498138D01*
X1094642Y497347D01*
X1097927Y496015D01*
X1100958Y494176D01*
X1103657Y491878D01*
X1105955Y489179D01*
X1107794Y486148D01*
X1109126Y482863D01*
X1109917Y479407D01*
X1110146Y475870D01*
X1109801Y472260D01*
X1109802Y472258D01*
X1109801Y472256D01*
X1109808Y472114D01*
X1109814Y471976D01*
X1109815Y471974D01*
X1109815Y471972D01*
X1109861Y471838D01*
X1109905Y471706D01*
X1109907Y471705D01*
X1109907Y471703D01*
X1109985Y471591D01*
X1110068Y471473D01*
X1110069Y471472D01*
X1110070Y471470D01*
X1110177Y471384D01*
X1110288Y471293D01*
X1110290Y471293D01*
X1110291Y471292D01*
X1110417Y471239D01*
X1110550Y471182D01*
X1110552Y471182D01*
X1110554Y471181D01*
X1110689Y471165D01*
X1110832Y471148D01*
X1110834Y471148D01*
G37*
G36*
X301373Y112700D02*
X301373Y112700D01*
X301439Y112699D01*
X305396Y113299D01*
X305486Y113326D01*
X305551Y113335D01*
X309366Y114547D01*
X309450Y114587D01*
X309513Y114607D01*
X313091Y116400D01*
X313168Y116453D01*
X313227Y116483D01*
X316481Y118814D01*
X316548Y118878D01*
X316602Y118916D01*
X319451Y121728D01*
X319508Y121802D01*
X319555Y121848D01*
X321929Y125070D01*
X321973Y125153D01*
X322013Y125206D01*
X323854Y128759D01*
X323884Y128848D01*
X323915Y128906D01*
X325177Y132704D01*
X325192Y132785D01*
X325205Y132824D01*
X325205Y132849D01*
X325223Y132910D01*
X329780Y173100D01*
X329780Y173102D01*
X329780Y173104D01*
X329776Y173249D01*
X329772Y173384D01*
X329771Y173386D01*
X329771Y173388D01*
X329727Y173527D01*
X329686Y173655D01*
X329685Y173656D01*
X329684Y173658D01*
X329603Y173778D01*
X329528Y173891D01*
X329526Y173892D01*
X329525Y173894D01*
X329420Y173982D01*
X329310Y174074D01*
X329308Y174075D01*
X329307Y174076D01*
X329182Y174132D01*
X329051Y174190D01*
X329049Y174191D01*
X329047Y174191D01*
X328913Y174209D01*
X328769Y174229D01*
X328767Y174229D01*
X328765Y174229D01*
X328630Y174210D01*
X328488Y174189D01*
X328486Y174188D01*
X328484Y174188D01*
X328468Y174180D01*
X328228Y174072D01*
X328205Y174052D01*
X328182Y174041D01*
X325228Y171938D01*
X322050Y170368D01*
X318662Y169325D01*
X315150Y168835D01*
X311606Y168912D01*
X308120Y169553D01*
X304780Y170741D01*
X301672Y172447D01*
X298876Y174626D01*
X296463Y177224D01*
X294496Y180172D01*
X292989Y183471D01*
X292988Y183473D01*
X292988Y183475D01*
X292914Y183589D01*
X292836Y183711D01*
X292835Y183712D01*
X292834Y183713D01*
X292731Y183803D01*
X292623Y183898D01*
X292621Y183899D01*
X292620Y183900D01*
X292493Y183959D01*
X292366Y184019D01*
X292364Y184020D01*
X292362Y184021D01*
X292223Y184042D01*
X292085Y184064D01*
X292083Y184064D01*
X292081Y184064D01*
X291942Y184047D01*
X291803Y184030D01*
X291801Y184029D01*
X291799Y184029D01*
X291669Y183973D01*
X291541Y183918D01*
X291540Y183917D01*
X291538Y183916D01*
X291428Y183826D01*
X291321Y183739D01*
X291320Y183737D01*
X291318Y183736D01*
X291308Y183721D01*
X291159Y183505D01*
X291149Y183476D01*
X291135Y183455D01*
X274987Y146371D01*
X274951Y146243D01*
X274923Y146170D01*
X274117Y142250D01*
X274111Y142156D01*
X274097Y142092D01*
X273914Y138094D01*
X273922Y138009D01*
X273921Y137966D01*
X273920Y137934D01*
X274364Y133957D01*
X274388Y133867D01*
X274394Y133801D01*
X275456Y129942D01*
X275493Y129856D01*
X275510Y129792D01*
X277162Y126147D01*
X277212Y126068D01*
X277239Y126007D01*
X279440Y122665D01*
X279502Y122595D01*
X279538Y122539D01*
X282235Y119583D01*
X282307Y119523D01*
X282352Y119474D01*
X285478Y116976D01*
X285515Y116954D01*
X285537Y116933D01*
X285578Y116912D01*
X285610Y116886D01*
X289089Y114908D01*
X289176Y114874D01*
X289233Y114840D01*
X292979Y113431D01*
X293099Y113404D01*
X293171Y113379D01*
X297120Y112727D01*
X297213Y112725D01*
X297278Y112714D01*
X301280Y112687D01*
X301373Y112700D01*
G37*
G36*
X910973Y112700D02*
X910973Y112700D01*
X911039Y112699D01*
X914996Y113299D01*
X915086Y113326D01*
X915151Y113335D01*
X918966Y114547D01*
X919050Y114587D01*
X919113Y114607D01*
X922691Y116400D01*
X922768Y116453D01*
X922827Y116483D01*
X926081Y118814D01*
X926148Y118878D01*
X926202Y118916D01*
X929051Y121728D01*
X929108Y121802D01*
X929155Y121848D01*
X931529Y125070D01*
X931573Y125153D01*
X931613Y125206D01*
X933454Y128759D01*
X933484Y128848D01*
X933515Y128906D01*
X934777Y132704D01*
X934792Y132785D01*
X934805Y132824D01*
X934805Y132849D01*
X934823Y132910D01*
X939380Y173100D01*
X939380Y173102D01*
X939380Y173104D01*
X939376Y173249D01*
X939372Y173384D01*
X939371Y173386D01*
X939371Y173388D01*
X939327Y173527D01*
X939286Y173655D01*
X939285Y173656D01*
X939284Y173658D01*
X939203Y173778D01*
X939128Y173891D01*
X939126Y173892D01*
X939125Y173894D01*
X939020Y173982D01*
X938910Y174074D01*
X938908Y174075D01*
X938907Y174076D01*
X938782Y174132D01*
X938651Y174190D01*
X938649Y174191D01*
X938647Y174191D01*
X938513Y174209D01*
X938369Y174229D01*
X938367Y174229D01*
X938365Y174229D01*
X938230Y174210D01*
X938088Y174189D01*
X938086Y174188D01*
X938084Y174188D01*
X938068Y174180D01*
X937828Y174072D01*
X937805Y174052D01*
X937782Y174041D01*
X934828Y171938D01*
X931650Y170368D01*
X928262Y169325D01*
X924750Y168835D01*
X921206Y168912D01*
X917720Y169553D01*
X914380Y170741D01*
X911272Y172447D01*
X908476Y174626D01*
X906063Y177224D01*
X904096Y180172D01*
X902589Y183471D01*
X902588Y183473D01*
X902588Y183475D01*
X902514Y183589D01*
X902436Y183711D01*
X902435Y183712D01*
X902434Y183713D01*
X902331Y183803D01*
X902223Y183898D01*
X902221Y183899D01*
X902220Y183900D01*
X902093Y183959D01*
X901966Y184019D01*
X901964Y184020D01*
X901962Y184021D01*
X901823Y184042D01*
X901685Y184064D01*
X901683Y184064D01*
X901681Y184064D01*
X901542Y184047D01*
X901403Y184030D01*
X901401Y184029D01*
X901399Y184029D01*
X901269Y183973D01*
X901141Y183918D01*
X901140Y183917D01*
X901138Y183916D01*
X901028Y183826D01*
X900921Y183739D01*
X900920Y183737D01*
X900918Y183736D01*
X900908Y183721D01*
X900759Y183505D01*
X900749Y183476D01*
X900735Y183455D01*
X884587Y146371D01*
X884551Y146243D01*
X884523Y146170D01*
X883717Y142250D01*
X883711Y142156D01*
X883697Y142092D01*
X883514Y138094D01*
X883522Y138009D01*
X883521Y137966D01*
X883520Y137934D01*
X883964Y133957D01*
X883988Y133867D01*
X883994Y133801D01*
X885056Y129942D01*
X885093Y129856D01*
X885110Y129792D01*
X886762Y126147D01*
X886812Y126068D01*
X886839Y126007D01*
X889040Y122665D01*
X889102Y122595D01*
X889138Y122539D01*
X891835Y119583D01*
X891907Y119523D01*
X891952Y119474D01*
X895078Y116976D01*
X895115Y116954D01*
X895137Y116933D01*
X895178Y116912D01*
X895210Y116886D01*
X898689Y114908D01*
X898776Y114874D01*
X898833Y114840D01*
X902579Y113431D01*
X902699Y113404D01*
X902771Y113379D01*
X906720Y112727D01*
X906813Y112725D01*
X906878Y112714D01*
X910880Y112687D01*
X910973Y112700D01*
G37*
G36*
X301373Y722300D02*
X301373Y722300D01*
X301439Y722299D01*
X305396Y722899D01*
X305486Y722926D01*
X305551Y722935D01*
X309366Y724147D01*
X309450Y724187D01*
X309513Y724207D01*
X313091Y726000D01*
X313168Y726053D01*
X313227Y726083D01*
X316481Y728414D01*
X316548Y728478D01*
X316602Y728516D01*
X319451Y731328D01*
X319508Y731402D01*
X319555Y731448D01*
X321929Y734670D01*
X321973Y734753D01*
X322013Y734806D01*
X323854Y738359D01*
X323884Y738448D01*
X323915Y738506D01*
X325177Y742304D01*
X325192Y742385D01*
X325205Y742424D01*
X325205Y742449D01*
X325223Y742510D01*
X329780Y782700D01*
X329780Y782702D01*
X329780Y782704D01*
X329776Y782849D01*
X329772Y782984D01*
X329771Y782986D01*
X329771Y782988D01*
X329727Y783127D01*
X329686Y783255D01*
X329685Y783256D01*
X329684Y783258D01*
X329603Y783378D01*
X329528Y783491D01*
X329526Y783492D01*
X329525Y783494D01*
X329420Y783582D01*
X329310Y783674D01*
X329308Y783675D01*
X329307Y783676D01*
X329182Y783732D01*
X329051Y783790D01*
X329049Y783791D01*
X329047Y783791D01*
X328913Y783809D01*
X328769Y783829D01*
X328767Y783829D01*
X328765Y783829D01*
X328630Y783810D01*
X328488Y783789D01*
X328486Y783788D01*
X328484Y783788D01*
X328468Y783780D01*
X328228Y783672D01*
X328205Y783652D01*
X328182Y783641D01*
X325228Y781538D01*
X322050Y779968D01*
X318662Y778925D01*
X315150Y778435D01*
X311606Y778512D01*
X308120Y779153D01*
X304780Y780341D01*
X301672Y782047D01*
X298876Y784226D01*
X296463Y786824D01*
X294496Y789772D01*
X292989Y793071D01*
X292988Y793073D01*
X292988Y793075D01*
X292914Y793189D01*
X292836Y793311D01*
X292835Y793312D01*
X292834Y793313D01*
X292731Y793403D01*
X292623Y793498D01*
X292621Y793499D01*
X292620Y793500D01*
X292493Y793559D01*
X292366Y793619D01*
X292364Y793620D01*
X292362Y793621D01*
X292223Y793642D01*
X292085Y793664D01*
X292083Y793664D01*
X292081Y793664D01*
X291942Y793647D01*
X291803Y793630D01*
X291801Y793629D01*
X291799Y793629D01*
X291669Y793573D01*
X291541Y793518D01*
X291540Y793517D01*
X291538Y793516D01*
X291428Y793426D01*
X291321Y793339D01*
X291320Y793337D01*
X291318Y793336D01*
X291308Y793321D01*
X291159Y793105D01*
X291149Y793076D01*
X291135Y793055D01*
X274987Y755971D01*
X274951Y755843D01*
X274923Y755770D01*
X274117Y751850D01*
X274111Y751756D01*
X274097Y751692D01*
X273914Y747694D01*
X273922Y747609D01*
X273921Y747566D01*
X273920Y747534D01*
X274364Y743557D01*
X274388Y743467D01*
X274394Y743401D01*
X275456Y739542D01*
X275493Y739456D01*
X275510Y739392D01*
X277162Y735747D01*
X277212Y735668D01*
X277239Y735607D01*
X279440Y732265D01*
X279502Y732195D01*
X279538Y732139D01*
X282235Y729183D01*
X282307Y729123D01*
X282352Y729074D01*
X285478Y726576D01*
X285515Y726554D01*
X285537Y726533D01*
X285578Y726512D01*
X285610Y726486D01*
X289089Y724508D01*
X289176Y724474D01*
X289233Y724440D01*
X292979Y723031D01*
X293099Y723004D01*
X293171Y722979D01*
X297120Y722327D01*
X297213Y722325D01*
X297278Y722314D01*
X301280Y722287D01*
X301373Y722300D01*
G37*
G36*
X910973Y722300D02*
X910973Y722300D01*
X911039Y722299D01*
X914996Y722899D01*
X915086Y722926D01*
X915151Y722935D01*
X918966Y724147D01*
X919050Y724187D01*
X919113Y724207D01*
X922691Y726000D01*
X922768Y726053D01*
X922827Y726083D01*
X926081Y728414D01*
X926148Y728478D01*
X926202Y728516D01*
X929051Y731328D01*
X929108Y731402D01*
X929155Y731448D01*
X931529Y734670D01*
X931573Y734753D01*
X931613Y734806D01*
X933454Y738359D01*
X933484Y738448D01*
X933515Y738506D01*
X934777Y742304D01*
X934792Y742385D01*
X934805Y742424D01*
X934805Y742449D01*
X934823Y742510D01*
X939380Y782700D01*
X939380Y782702D01*
X939380Y782704D01*
X939376Y782849D01*
X939372Y782984D01*
X939371Y782986D01*
X939371Y782988D01*
X939327Y783127D01*
X939286Y783255D01*
X939285Y783256D01*
X939284Y783258D01*
X939203Y783378D01*
X939128Y783491D01*
X939126Y783492D01*
X939125Y783494D01*
X939020Y783582D01*
X938910Y783674D01*
X938908Y783675D01*
X938907Y783676D01*
X938782Y783732D01*
X938651Y783790D01*
X938649Y783791D01*
X938647Y783791D01*
X938513Y783809D01*
X938369Y783829D01*
X938367Y783829D01*
X938365Y783829D01*
X938230Y783810D01*
X938088Y783789D01*
X938086Y783788D01*
X938084Y783788D01*
X938068Y783780D01*
X937828Y783672D01*
X937805Y783652D01*
X937782Y783641D01*
X934828Y781538D01*
X931650Y779968D01*
X928262Y778925D01*
X924750Y778435D01*
X921206Y778512D01*
X917720Y779153D01*
X914380Y780341D01*
X911272Y782047D01*
X908476Y784226D01*
X906063Y786824D01*
X904096Y789772D01*
X902589Y793071D01*
X902588Y793073D01*
X902588Y793075D01*
X902514Y793189D01*
X902436Y793311D01*
X902435Y793312D01*
X902434Y793313D01*
X902331Y793403D01*
X902223Y793498D01*
X902221Y793499D01*
X902220Y793500D01*
X902093Y793559D01*
X901966Y793619D01*
X901964Y793620D01*
X901962Y793621D01*
X901823Y793642D01*
X901685Y793664D01*
X901683Y793664D01*
X901681Y793664D01*
X901542Y793647D01*
X901403Y793630D01*
X901401Y793629D01*
X901399Y793629D01*
X901269Y793573D01*
X901141Y793518D01*
X901140Y793517D01*
X901138Y793516D01*
X901028Y793426D01*
X900921Y793339D01*
X900920Y793337D01*
X900918Y793336D01*
X900908Y793321D01*
X900759Y793105D01*
X900749Y793076D01*
X900735Y793055D01*
X884587Y755971D01*
X884551Y755843D01*
X884523Y755770D01*
X883717Y751850D01*
X883711Y751756D01*
X883697Y751692D01*
X883514Y747694D01*
X883522Y747609D01*
X883521Y747566D01*
X883520Y747534D01*
X883964Y743557D01*
X883988Y743467D01*
X883994Y743401D01*
X885056Y739542D01*
X885093Y739456D01*
X885110Y739392D01*
X886762Y735747D01*
X886812Y735668D01*
X886839Y735607D01*
X889040Y732265D01*
X889102Y732195D01*
X889138Y732139D01*
X891835Y729183D01*
X891907Y729123D01*
X891952Y729074D01*
X895078Y726576D01*
X895115Y726554D01*
X895137Y726533D01*
X895178Y726512D01*
X895210Y726486D01*
X898689Y724508D01*
X898776Y724474D01*
X898833Y724440D01*
X902579Y723031D01*
X902699Y723004D01*
X902771Y722979D01*
X906720Y722327D01*
X906813Y722325D01*
X906878Y722314D01*
X910880Y722287D01*
X910973Y722300D01*
G37*
G36*
X540035Y383381D02*
X540035Y383381D01*
X540060Y383380D01*
X580250Y387937D01*
X580379Y387971D01*
X580456Y387983D01*
X584254Y389245D01*
X584337Y389286D01*
X584400Y389307D01*
X587954Y391147D01*
X588031Y391201D01*
X588090Y391231D01*
X591312Y393605D01*
X591378Y393670D01*
X591432Y393709D01*
X594243Y396558D01*
X594299Y396633D01*
X594346Y396680D01*
X596677Y399933D01*
X596720Y400016D01*
X596759Y400069D01*
X598553Y403647D01*
X598583Y403735D01*
X598613Y403794D01*
X599824Y407609D01*
X599840Y407701D01*
X599861Y407764D01*
X600461Y411721D01*
X600462Y411814D01*
X600472Y411880D01*
X600446Y415882D01*
X600439Y415934D01*
X600440Y415978D01*
X600433Y416005D01*
X600433Y416040D01*
X599781Y419989D01*
X599744Y420106D01*
X599729Y420181D01*
X598320Y423927D01*
X598275Y424009D01*
X598252Y424071D01*
X596274Y427550D01*
X596222Y427617D01*
X596198Y427658D01*
X596184Y427682D01*
X593686Y430809D01*
X593618Y430873D01*
X593577Y430925D01*
X590621Y433622D01*
X590543Y433675D01*
X590495Y433720D01*
X587153Y435922D01*
X587068Y435962D01*
X587013Y435999D01*
X583368Y437651D01*
X583278Y437677D01*
X583218Y437705D01*
X579359Y438766D01*
X579267Y438778D01*
X579203Y438796D01*
X575226Y439241D01*
X575132Y439238D01*
X575066Y439246D01*
X571068Y439063D01*
X570976Y439045D01*
X570910Y439043D01*
X566990Y438237D01*
X566865Y438192D01*
X566789Y438173D01*
X529705Y422025D01*
X529704Y422024D01*
X529702Y422023D01*
X529582Y421949D01*
X529463Y421876D01*
X529462Y421875D01*
X529460Y421874D01*
X529365Y421768D01*
X529272Y421666D01*
X529271Y421664D01*
X529269Y421663D01*
X529206Y421533D01*
X529146Y421411D01*
X529146Y421409D01*
X529145Y421407D01*
X529120Y421266D01*
X529096Y421131D01*
X529096Y421129D01*
X529096Y421127D01*
X529111Y420989D01*
X529126Y420848D01*
X529126Y420846D01*
X529126Y420845D01*
X529179Y420716D01*
X529232Y420585D01*
X529234Y420583D01*
X529234Y420581D01*
X529321Y420472D01*
X529408Y420361D01*
X529410Y420360D01*
X529411Y420359D01*
X529426Y420348D01*
X529639Y420195D01*
X529668Y420185D01*
X529689Y420171D01*
X532988Y418664D01*
X535936Y416697D01*
X538534Y414284D01*
X540713Y411488D01*
X542419Y408380D01*
X543607Y405040D01*
X544248Y401554D01*
X544325Y398010D01*
X543835Y394498D01*
X542792Y391110D01*
X541222Y387932D01*
X539119Y384978D01*
X539118Y384976D01*
X539117Y384975D01*
X539053Y384852D01*
X538988Y384725D01*
X538987Y384724D01*
X538987Y384722D01*
X538960Y384586D01*
X538932Y384447D01*
X538932Y384445D01*
X538932Y384443D01*
X538944Y384300D01*
X538956Y384163D01*
X538956Y384162D01*
X538957Y384160D01*
X539007Y384029D01*
X539057Y383898D01*
X539058Y383896D01*
X539059Y383894D01*
X539143Y383784D01*
X539228Y383671D01*
X539230Y383670D01*
X539231Y383668D01*
X539348Y383581D01*
X539455Y383500D01*
X539457Y383499D01*
X539459Y383498D01*
X539594Y383447D01*
X539721Y383399D01*
X539723Y383399D01*
X539725Y383398D01*
X539743Y383397D01*
X540004Y383375D01*
X540035Y383381D01*
G37*
G36*
X540035Y992981D02*
X540035Y992981D01*
X540060Y992980D01*
X580250Y997537D01*
X580379Y997571D01*
X580456Y997583D01*
X584254Y998845D01*
X584337Y998886D01*
X584400Y998907D01*
X587954Y1000747D01*
X588031Y1000801D01*
X588090Y1000831D01*
X591312Y1003205D01*
X591378Y1003270D01*
X591432Y1003309D01*
X594243Y1006158D01*
X594299Y1006233D01*
X594346Y1006280D01*
X596677Y1009533D01*
X596720Y1009616D01*
X596759Y1009669D01*
X598553Y1013247D01*
X598583Y1013335D01*
X598613Y1013394D01*
X599824Y1017209D01*
X599840Y1017301D01*
X599861Y1017364D01*
X600461Y1021321D01*
X600462Y1021414D01*
X600472Y1021480D01*
X600446Y1025482D01*
X600439Y1025534D01*
X600440Y1025578D01*
X600433Y1025605D01*
X600433Y1025640D01*
X599781Y1029589D01*
X599744Y1029706D01*
X599729Y1029781D01*
X598320Y1033527D01*
X598275Y1033609D01*
X598252Y1033671D01*
X596274Y1037150D01*
X596222Y1037217D01*
X596198Y1037258D01*
X596184Y1037282D01*
X593686Y1040409D01*
X593618Y1040473D01*
X593577Y1040525D01*
X590621Y1043222D01*
X590543Y1043275D01*
X590495Y1043320D01*
X587153Y1045522D01*
X587068Y1045562D01*
X587013Y1045599D01*
X583368Y1047251D01*
X583278Y1047277D01*
X583218Y1047305D01*
X579359Y1048366D01*
X579267Y1048378D01*
X579203Y1048396D01*
X575226Y1048841D01*
X575132Y1048838D01*
X575066Y1048846D01*
X571068Y1048663D01*
X570976Y1048645D01*
X570910Y1048643D01*
X566990Y1047837D01*
X566865Y1047792D01*
X566789Y1047773D01*
X529705Y1031625D01*
X529704Y1031624D01*
X529702Y1031623D01*
X529582Y1031549D01*
X529463Y1031476D01*
X529462Y1031475D01*
X529460Y1031474D01*
X529365Y1031368D01*
X529272Y1031266D01*
X529271Y1031264D01*
X529269Y1031263D01*
X529206Y1031133D01*
X529146Y1031011D01*
X529146Y1031009D01*
X529145Y1031007D01*
X529120Y1030866D01*
X529096Y1030731D01*
X529096Y1030729D01*
X529096Y1030727D01*
X529111Y1030589D01*
X529126Y1030448D01*
X529126Y1030446D01*
X529126Y1030445D01*
X529179Y1030316D01*
X529232Y1030185D01*
X529234Y1030183D01*
X529234Y1030181D01*
X529321Y1030072D01*
X529408Y1029961D01*
X529410Y1029960D01*
X529411Y1029959D01*
X529426Y1029948D01*
X529639Y1029795D01*
X529668Y1029785D01*
X529689Y1029771D01*
X532988Y1028264D01*
X535936Y1026297D01*
X538534Y1023884D01*
X540713Y1021088D01*
X542419Y1017980D01*
X543607Y1014640D01*
X544248Y1011154D01*
X544325Y1007610D01*
X543835Y1004098D01*
X542792Y1000710D01*
X541222Y997532D01*
X539119Y994578D01*
X539118Y994576D01*
X539117Y994575D01*
X539053Y994452D01*
X538988Y994325D01*
X538987Y994324D01*
X538987Y994322D01*
X538960Y994186D01*
X538932Y994047D01*
X538932Y994045D01*
X538932Y994043D01*
X538944Y993900D01*
X538956Y993763D01*
X538956Y993762D01*
X538957Y993760D01*
X539007Y993629D01*
X539057Y993498D01*
X539058Y993496D01*
X539059Y993494D01*
X539143Y993384D01*
X539228Y993271D01*
X539230Y993270D01*
X539231Y993268D01*
X539348Y993181D01*
X539455Y993100D01*
X539457Y993099D01*
X539459Y993098D01*
X539594Y993047D01*
X539721Y992999D01*
X539723Y992999D01*
X539725Y992998D01*
X539743Y992997D01*
X540004Y992975D01*
X540035Y992981D01*
G37*
G36*
X1149635Y992981D02*
X1149635Y992981D01*
X1149660Y992980D01*
X1189850Y997537D01*
X1189979Y997571D01*
X1190056Y997583D01*
X1193854Y998845D01*
X1193937Y998886D01*
X1194000Y998907D01*
X1197554Y1000747D01*
X1197631Y1000801D01*
X1197690Y1000831D01*
X1200912Y1003205D01*
X1200978Y1003270D01*
X1201032Y1003309D01*
X1203843Y1006158D01*
X1203899Y1006233D01*
X1203946Y1006280D01*
X1206277Y1009533D01*
X1206320Y1009616D01*
X1206359Y1009669D01*
X1208153Y1013247D01*
X1208183Y1013335D01*
X1208213Y1013394D01*
X1209424Y1017209D01*
X1209440Y1017301D01*
X1209461Y1017364D01*
X1210061Y1021321D01*
X1210062Y1021414D01*
X1210072Y1021480D01*
X1210046Y1025482D01*
X1210039Y1025534D01*
X1210040Y1025578D01*
X1210033Y1025605D01*
X1210033Y1025640D01*
X1209381Y1029589D01*
X1209344Y1029706D01*
X1209329Y1029781D01*
X1207920Y1033527D01*
X1207875Y1033609D01*
X1207852Y1033671D01*
X1205874Y1037150D01*
X1205822Y1037217D01*
X1205798Y1037258D01*
X1205784Y1037282D01*
X1203286Y1040409D01*
X1203218Y1040473D01*
X1203177Y1040525D01*
X1200221Y1043222D01*
X1200143Y1043275D01*
X1200095Y1043320D01*
X1196753Y1045522D01*
X1196668Y1045562D01*
X1196613Y1045599D01*
X1192968Y1047251D01*
X1192878Y1047277D01*
X1192818Y1047305D01*
X1188959Y1048366D01*
X1188867Y1048378D01*
X1188803Y1048396D01*
X1184826Y1048841D01*
X1184732Y1048838D01*
X1184666Y1048846D01*
X1180668Y1048663D01*
X1180576Y1048645D01*
X1180510Y1048643D01*
X1176590Y1047837D01*
X1176465Y1047792D01*
X1176389Y1047773D01*
X1139305Y1031625D01*
X1139304Y1031624D01*
X1139302Y1031623D01*
X1139182Y1031549D01*
X1139063Y1031476D01*
X1139062Y1031475D01*
X1139060Y1031474D01*
X1138965Y1031368D01*
X1138872Y1031266D01*
X1138871Y1031264D01*
X1138869Y1031263D01*
X1138806Y1031133D01*
X1138746Y1031011D01*
X1138746Y1031009D01*
X1138745Y1031007D01*
X1138720Y1030866D01*
X1138696Y1030731D01*
X1138696Y1030729D01*
X1138696Y1030727D01*
X1138711Y1030589D01*
X1138726Y1030448D01*
X1138726Y1030446D01*
X1138726Y1030445D01*
X1138779Y1030316D01*
X1138832Y1030185D01*
X1138834Y1030183D01*
X1138834Y1030181D01*
X1138921Y1030072D01*
X1139008Y1029961D01*
X1139010Y1029960D01*
X1139011Y1029959D01*
X1139026Y1029948D01*
X1139239Y1029795D01*
X1139268Y1029785D01*
X1139289Y1029771D01*
X1142588Y1028264D01*
X1145536Y1026297D01*
X1148134Y1023884D01*
X1150313Y1021088D01*
X1152019Y1017980D01*
X1153207Y1014640D01*
X1153848Y1011154D01*
X1153925Y1007610D01*
X1153435Y1004098D01*
X1152392Y1000710D01*
X1150822Y997532D01*
X1148719Y994578D01*
X1148718Y994576D01*
X1148717Y994575D01*
X1148653Y994452D01*
X1148588Y994325D01*
X1148587Y994324D01*
X1148587Y994322D01*
X1148560Y994186D01*
X1148532Y994047D01*
X1148532Y994045D01*
X1148532Y994043D01*
X1148544Y993900D01*
X1148556Y993763D01*
X1148556Y993762D01*
X1148557Y993760D01*
X1148607Y993629D01*
X1148657Y993498D01*
X1148658Y993496D01*
X1148659Y993494D01*
X1148743Y993384D01*
X1148828Y993271D01*
X1148830Y993270D01*
X1148831Y993268D01*
X1148948Y993181D01*
X1149055Y993100D01*
X1149057Y993099D01*
X1149059Y993098D01*
X1149194Y993047D01*
X1149321Y992999D01*
X1149323Y992999D01*
X1149325Y992998D01*
X1149343Y992997D01*
X1149604Y992975D01*
X1149635Y992981D01*
G37*
G36*
X1149635Y383381D02*
X1149635Y383381D01*
X1149660Y383380D01*
X1189850Y387937D01*
X1189979Y387971D01*
X1190056Y387983D01*
X1193854Y389245D01*
X1193937Y389286D01*
X1194000Y389307D01*
X1197554Y391147D01*
X1197631Y391201D01*
X1197690Y391231D01*
X1200912Y393605D01*
X1200978Y393670D01*
X1201032Y393709D01*
X1203843Y396558D01*
X1203899Y396633D01*
X1203946Y396680D01*
X1206277Y399933D01*
X1206320Y400016D01*
X1206359Y400069D01*
X1208153Y403647D01*
X1208183Y403735D01*
X1208213Y403794D01*
X1209424Y407609D01*
X1209440Y407701D01*
X1209461Y407764D01*
X1210061Y411721D01*
X1210062Y411814D01*
X1210072Y411880D01*
X1210046Y415882D01*
X1210039Y415934D01*
X1210040Y415978D01*
X1210033Y416005D01*
X1210033Y416040D01*
X1209381Y419989D01*
X1209344Y420106D01*
X1209329Y420181D01*
X1207920Y423927D01*
X1207875Y424009D01*
X1207852Y424071D01*
X1205874Y427550D01*
X1205822Y427617D01*
X1205798Y427658D01*
X1205784Y427682D01*
X1203286Y430809D01*
X1203218Y430873D01*
X1203177Y430925D01*
X1200221Y433622D01*
X1200143Y433675D01*
X1200095Y433720D01*
X1196753Y435922D01*
X1196668Y435962D01*
X1196613Y435999D01*
X1192968Y437651D01*
X1192878Y437677D01*
X1192818Y437705D01*
X1188959Y438766D01*
X1188867Y438778D01*
X1188803Y438796D01*
X1184826Y439241D01*
X1184732Y439238D01*
X1184666Y439246D01*
X1180668Y439063D01*
X1180576Y439045D01*
X1180510Y439043D01*
X1176590Y438237D01*
X1176465Y438192D01*
X1176389Y438173D01*
X1139305Y422025D01*
X1139304Y422024D01*
X1139302Y422023D01*
X1139182Y421949D01*
X1139063Y421876D01*
X1139062Y421875D01*
X1139060Y421874D01*
X1138965Y421768D01*
X1138872Y421666D01*
X1138871Y421664D01*
X1138869Y421663D01*
X1138806Y421533D01*
X1138746Y421411D01*
X1138746Y421409D01*
X1138745Y421407D01*
X1138720Y421266D01*
X1138696Y421131D01*
X1138696Y421129D01*
X1138696Y421127D01*
X1138711Y420989D01*
X1138726Y420848D01*
X1138726Y420846D01*
X1138726Y420845D01*
X1138779Y420716D01*
X1138832Y420585D01*
X1138834Y420583D01*
X1138834Y420581D01*
X1138921Y420472D01*
X1139008Y420361D01*
X1139010Y420360D01*
X1139011Y420359D01*
X1139026Y420348D01*
X1139239Y420195D01*
X1139268Y420185D01*
X1139289Y420171D01*
X1142588Y418664D01*
X1145536Y416697D01*
X1148134Y414284D01*
X1150313Y411488D01*
X1152019Y408380D01*
X1153207Y405040D01*
X1153848Y401554D01*
X1153925Y398010D01*
X1153435Y394498D01*
X1152392Y391110D01*
X1150822Y387932D01*
X1148719Y384978D01*
X1148718Y384976D01*
X1148717Y384975D01*
X1148653Y384852D01*
X1148588Y384725D01*
X1148587Y384724D01*
X1148587Y384722D01*
X1148560Y384586D01*
X1148532Y384447D01*
X1148532Y384445D01*
X1148532Y384443D01*
X1148544Y384300D01*
X1148556Y384163D01*
X1148556Y384162D01*
X1148557Y384160D01*
X1148607Y384029D01*
X1148657Y383898D01*
X1148658Y383896D01*
X1148659Y383894D01*
X1148743Y383784D01*
X1148828Y383671D01*
X1148830Y383670D01*
X1148831Y383668D01*
X1148948Y383581D01*
X1149055Y383500D01*
X1149057Y383499D01*
X1149059Y383498D01*
X1149194Y383447D01*
X1149321Y383399D01*
X1149323Y383399D01*
X1149325Y383398D01*
X1149343Y383397D01*
X1149604Y383375D01*
X1149635Y383381D01*
G37*
G36*
X753871Y271918D02*
X753871Y271918D01*
X753963Y271935D01*
X754029Y271938D01*
X757949Y272744D01*
X758067Y272787D01*
X758085Y272789D01*
X758099Y272795D01*
X758150Y272808D01*
X795234Y288956D01*
X795235Y288957D01*
X795237Y288958D01*
X795357Y289032D01*
X795476Y289105D01*
X795477Y289106D01*
X795479Y289107D01*
X795574Y289213D01*
X795667Y289315D01*
X795668Y289317D01*
X795669Y289318D01*
X795733Y289448D01*
X795793Y289570D01*
X795793Y289572D01*
X795794Y289574D01*
X795819Y289715D01*
X795843Y289850D01*
X795843Y289852D01*
X795843Y289854D01*
X795828Y289992D01*
X795813Y290133D01*
X795813Y290135D01*
X795812Y290136D01*
X795760Y290265D01*
X795707Y290396D01*
X795705Y290398D01*
X795705Y290400D01*
X795618Y290509D01*
X795531Y290620D01*
X795529Y290621D01*
X795528Y290622D01*
X795513Y290632D01*
X795300Y290786D01*
X795271Y290796D01*
X795250Y290810D01*
X791951Y292317D01*
X789003Y294284D01*
X786405Y296697D01*
X784226Y299493D01*
X782520Y302601D01*
X781332Y305941D01*
X780691Y309427D01*
X780614Y312971D01*
X781104Y316483D01*
X782147Y319871D01*
X783717Y323049D01*
X785820Y326003D01*
X785821Y326005D01*
X785822Y326006D01*
X785867Y326092D01*
X785884Y326119D01*
X785891Y326139D01*
X785951Y326255D01*
X785951Y326257D01*
X785952Y326259D01*
X785979Y326395D01*
X786007Y326534D01*
X786007Y326536D01*
X786007Y326538D01*
X785995Y326681D01*
X785983Y326818D01*
X785982Y326819D01*
X785982Y326821D01*
X785933Y326949D01*
X785882Y327083D01*
X785881Y327085D01*
X785880Y327087D01*
X785799Y327193D01*
X785711Y327310D01*
X785709Y327311D01*
X785708Y327313D01*
X785591Y327400D01*
X785484Y327481D01*
X785482Y327482D01*
X785480Y327483D01*
X785345Y327534D01*
X785218Y327582D01*
X785216Y327582D01*
X785214Y327583D01*
X785196Y327584D01*
X784934Y327606D01*
X784904Y327599D01*
X784879Y327601D01*
X744689Y323044D01*
X744560Y323010D01*
X744483Y322998D01*
X740685Y321736D01*
X740602Y321695D01*
X740538Y321674D01*
X736985Y319834D01*
X736908Y319780D01*
X736849Y319750D01*
X733627Y317376D01*
X733561Y317311D01*
X733507Y317272D01*
X730696Y314423D01*
X730640Y314348D01*
X730593Y314301D01*
X728262Y311048D01*
X728219Y310965D01*
X728180Y310912D01*
X726386Y307334D01*
X726356Y307246D01*
X726326Y307187D01*
X725114Y303372D01*
X725099Y303280D01*
X725078Y303217D01*
X724478Y299260D01*
X724477Y299167D01*
X724467Y299101D01*
X724493Y295099D01*
X724504Y295021D01*
X724503Y294968D01*
X724506Y294955D01*
X724506Y294941D01*
X725158Y290992D01*
X725195Y290875D01*
X725210Y290800D01*
X726619Y287054D01*
X726664Y286972D01*
X726687Y286910D01*
X728665Y283431D01*
X728722Y283357D01*
X728755Y283299D01*
X731253Y280172D01*
X731321Y280108D01*
X731362Y280056D01*
X734318Y277359D01*
X734395Y277306D01*
X734444Y277261D01*
X737786Y275059D01*
X737871Y275019D01*
X737926Y274982D01*
X741571Y273330D01*
X741661Y273304D01*
X741721Y273276D01*
X745580Y272215D01*
X745672Y272203D01*
X745736Y272185D01*
X749713Y271740D01*
X749807Y271743D01*
X749873Y271735D01*
X753871Y271918D01*
G37*
G36*
X753871Y881518D02*
X753871Y881518D01*
X753963Y881535D01*
X754029Y881538D01*
X757949Y882344D01*
X758067Y882387D01*
X758085Y882389D01*
X758099Y882395D01*
X758150Y882408D01*
X795234Y898556D01*
X795235Y898557D01*
X795237Y898558D01*
X795357Y898632D01*
X795476Y898705D01*
X795477Y898706D01*
X795479Y898707D01*
X795574Y898813D01*
X795667Y898915D01*
X795668Y898917D01*
X795669Y898918D01*
X795733Y899048D01*
X795793Y899170D01*
X795793Y899172D01*
X795794Y899174D01*
X795819Y899315D01*
X795843Y899450D01*
X795843Y899452D01*
X795843Y899454D01*
X795828Y899592D01*
X795813Y899733D01*
X795813Y899735D01*
X795812Y899736D01*
X795760Y899865D01*
X795707Y899996D01*
X795705Y899998D01*
X795705Y900000D01*
X795618Y900109D01*
X795531Y900220D01*
X795529Y900221D01*
X795528Y900222D01*
X795513Y900232D01*
X795300Y900386D01*
X795271Y900396D01*
X795250Y900410D01*
X791951Y901917D01*
X789003Y903884D01*
X786405Y906297D01*
X784226Y909093D01*
X782520Y912201D01*
X781332Y915541D01*
X780691Y919027D01*
X780614Y922571D01*
X781104Y926083D01*
X782147Y929471D01*
X783717Y932649D01*
X785820Y935603D01*
X785821Y935605D01*
X785822Y935606D01*
X785867Y935692D01*
X785884Y935719D01*
X785891Y935739D01*
X785951Y935855D01*
X785951Y935857D01*
X785952Y935859D01*
X785979Y935995D01*
X786007Y936134D01*
X786007Y936136D01*
X786007Y936138D01*
X785995Y936281D01*
X785983Y936418D01*
X785982Y936419D01*
X785982Y936421D01*
X785933Y936549D01*
X785882Y936683D01*
X785881Y936685D01*
X785880Y936687D01*
X785799Y936793D01*
X785711Y936910D01*
X785709Y936911D01*
X785708Y936913D01*
X785591Y937000D01*
X785484Y937081D01*
X785482Y937082D01*
X785480Y937083D01*
X785345Y937134D01*
X785218Y937182D01*
X785216Y937182D01*
X785214Y937183D01*
X785196Y937184D01*
X784934Y937206D01*
X784904Y937199D01*
X784879Y937201D01*
X744689Y932644D01*
X744560Y932610D01*
X744483Y932598D01*
X740685Y931336D01*
X740602Y931295D01*
X740538Y931274D01*
X736985Y929434D01*
X736908Y929380D01*
X736849Y929350D01*
X733627Y926976D01*
X733561Y926911D01*
X733507Y926872D01*
X730696Y924023D01*
X730640Y923948D01*
X730593Y923901D01*
X728262Y920648D01*
X728219Y920565D01*
X728180Y920512D01*
X726386Y916934D01*
X726356Y916846D01*
X726326Y916787D01*
X725114Y912972D01*
X725099Y912880D01*
X725078Y912817D01*
X724478Y908860D01*
X724477Y908767D01*
X724467Y908701D01*
X724493Y904699D01*
X724504Y904621D01*
X724503Y904568D01*
X724506Y904555D01*
X724506Y904541D01*
X725158Y900592D01*
X725195Y900475D01*
X725210Y900400D01*
X726619Y896654D01*
X726664Y896572D01*
X726687Y896510D01*
X728665Y893031D01*
X728722Y892957D01*
X728755Y892899D01*
X731253Y889772D01*
X731321Y889708D01*
X731362Y889656D01*
X734318Y886959D01*
X734395Y886906D01*
X734444Y886861D01*
X737786Y884659D01*
X737871Y884619D01*
X737926Y884582D01*
X741571Y882930D01*
X741661Y882904D01*
X741721Y882876D01*
X745580Y881815D01*
X745672Y881803D01*
X745736Y881785D01*
X749713Y881340D01*
X749807Y881343D01*
X749873Y881335D01*
X753871Y881518D01*
G37*
G36*
X144271Y881518D02*
X144271Y881518D01*
X144363Y881535D01*
X144429Y881538D01*
X148349Y882344D01*
X148467Y882387D01*
X148485Y882389D01*
X148499Y882395D01*
X148550Y882408D01*
X185634Y898556D01*
X185635Y898557D01*
X185637Y898558D01*
X185757Y898632D01*
X185876Y898705D01*
X185877Y898706D01*
X185879Y898707D01*
X185974Y898813D01*
X186067Y898915D01*
X186068Y898917D01*
X186069Y898918D01*
X186133Y899048D01*
X186193Y899170D01*
X186193Y899172D01*
X186194Y899174D01*
X186219Y899315D01*
X186243Y899450D01*
X186243Y899452D01*
X186243Y899454D01*
X186228Y899592D01*
X186213Y899733D01*
X186213Y899735D01*
X186212Y899736D01*
X186160Y899865D01*
X186107Y899996D01*
X186105Y899998D01*
X186105Y900000D01*
X186018Y900109D01*
X185931Y900220D01*
X185929Y900221D01*
X185928Y900222D01*
X185913Y900232D01*
X185700Y900386D01*
X185671Y900396D01*
X185650Y900410D01*
X182351Y901917D01*
X179403Y903884D01*
X176805Y906297D01*
X174626Y909093D01*
X172920Y912201D01*
X171732Y915541D01*
X171091Y919027D01*
X171014Y922571D01*
X171504Y926083D01*
X172547Y929471D01*
X174117Y932649D01*
X176220Y935603D01*
X176221Y935605D01*
X176222Y935606D01*
X176267Y935692D01*
X176284Y935719D01*
X176291Y935739D01*
X176351Y935855D01*
X176351Y935857D01*
X176352Y935859D01*
X176379Y935995D01*
X176407Y936134D01*
X176407Y936136D01*
X176407Y936138D01*
X176395Y936281D01*
X176383Y936418D01*
X176382Y936419D01*
X176382Y936421D01*
X176333Y936549D01*
X176282Y936683D01*
X176281Y936685D01*
X176280Y936687D01*
X176199Y936793D01*
X176111Y936910D01*
X176109Y936911D01*
X176108Y936913D01*
X175991Y937000D01*
X175884Y937081D01*
X175882Y937082D01*
X175880Y937083D01*
X175745Y937134D01*
X175618Y937182D01*
X175616Y937182D01*
X175614Y937183D01*
X175596Y937184D01*
X175334Y937206D01*
X175304Y937199D01*
X175279Y937201D01*
X135089Y932644D01*
X134960Y932610D01*
X134883Y932598D01*
X131085Y931336D01*
X131002Y931295D01*
X130938Y931274D01*
X127385Y929434D01*
X127308Y929380D01*
X127249Y929350D01*
X124027Y926976D01*
X123961Y926911D01*
X123907Y926872D01*
X121096Y924023D01*
X121040Y923948D01*
X120993Y923901D01*
X118662Y920648D01*
X118619Y920565D01*
X118580Y920512D01*
X116786Y916934D01*
X116756Y916846D01*
X116726Y916787D01*
X115514Y912972D01*
X115499Y912880D01*
X115478Y912817D01*
X114878Y908860D01*
X114877Y908767D01*
X114867Y908701D01*
X114893Y904699D01*
X114904Y904621D01*
X114903Y904568D01*
X114906Y904555D01*
X114906Y904541D01*
X115558Y900592D01*
X115595Y900475D01*
X115610Y900400D01*
X117019Y896654D01*
X117064Y896572D01*
X117087Y896510D01*
X119065Y893031D01*
X119122Y892957D01*
X119155Y892899D01*
X121653Y889772D01*
X121721Y889708D01*
X121762Y889656D01*
X124718Y886959D01*
X124795Y886906D01*
X124844Y886861D01*
X128186Y884659D01*
X128271Y884619D01*
X128326Y884582D01*
X131971Y882930D01*
X132061Y882904D01*
X132121Y882876D01*
X135980Y881815D01*
X136072Y881803D01*
X136136Y881785D01*
X140113Y881340D01*
X140207Y881343D01*
X140273Y881335D01*
X144271Y881518D01*
G37*
G36*
X144271Y271918D02*
X144271Y271918D01*
X144363Y271935D01*
X144429Y271938D01*
X148349Y272744D01*
X148467Y272787D01*
X148485Y272789D01*
X148499Y272795D01*
X148550Y272808D01*
X185634Y288956D01*
X185635Y288957D01*
X185637Y288958D01*
X185757Y289032D01*
X185876Y289105D01*
X185877Y289106D01*
X185879Y289107D01*
X185974Y289213D01*
X186067Y289315D01*
X186068Y289317D01*
X186069Y289318D01*
X186133Y289448D01*
X186193Y289570D01*
X186193Y289572D01*
X186194Y289574D01*
X186219Y289715D01*
X186243Y289850D01*
X186243Y289852D01*
X186243Y289854D01*
X186228Y289992D01*
X186213Y290133D01*
X186213Y290135D01*
X186212Y290136D01*
X186160Y290265D01*
X186107Y290396D01*
X186105Y290398D01*
X186105Y290400D01*
X186018Y290509D01*
X185931Y290620D01*
X185929Y290621D01*
X185928Y290622D01*
X185913Y290632D01*
X185700Y290786D01*
X185671Y290796D01*
X185650Y290810D01*
X182351Y292317D01*
X179403Y294284D01*
X176805Y296697D01*
X174626Y299493D01*
X172920Y302601D01*
X171732Y305941D01*
X171091Y309427D01*
X171014Y312971D01*
X171504Y316483D01*
X172547Y319871D01*
X174117Y323049D01*
X176220Y326003D01*
X176221Y326005D01*
X176222Y326006D01*
X176267Y326092D01*
X176284Y326119D01*
X176291Y326139D01*
X176351Y326255D01*
X176351Y326257D01*
X176352Y326259D01*
X176379Y326395D01*
X176407Y326534D01*
X176407Y326536D01*
X176407Y326538D01*
X176395Y326681D01*
X176383Y326818D01*
X176382Y326819D01*
X176382Y326821D01*
X176333Y326949D01*
X176282Y327083D01*
X176281Y327085D01*
X176280Y327087D01*
X176199Y327193D01*
X176111Y327310D01*
X176109Y327311D01*
X176108Y327313D01*
X175991Y327400D01*
X175884Y327481D01*
X175882Y327482D01*
X175880Y327483D01*
X175745Y327534D01*
X175618Y327582D01*
X175616Y327582D01*
X175614Y327583D01*
X175596Y327584D01*
X175334Y327606D01*
X175304Y327599D01*
X175279Y327601D01*
X135089Y323044D01*
X134960Y323010D01*
X134883Y322998D01*
X131085Y321736D01*
X131002Y321695D01*
X130938Y321674D01*
X127385Y319834D01*
X127308Y319780D01*
X127249Y319750D01*
X124027Y317376D01*
X123961Y317311D01*
X123907Y317272D01*
X121096Y314423D01*
X121040Y314348D01*
X120993Y314301D01*
X118662Y311048D01*
X118619Y310965D01*
X118580Y310912D01*
X116786Y307334D01*
X116756Y307246D01*
X116726Y307187D01*
X115514Y303372D01*
X115499Y303280D01*
X115478Y303217D01*
X114878Y299260D01*
X114877Y299167D01*
X114867Y299101D01*
X114893Y295099D01*
X114904Y295021D01*
X114903Y294968D01*
X114906Y294955D01*
X114906Y294941D01*
X115558Y290992D01*
X115595Y290875D01*
X115610Y290800D01*
X117019Y287054D01*
X117064Y286972D01*
X117087Y286910D01*
X119065Y283431D01*
X119122Y283357D01*
X119155Y283299D01*
X121653Y280172D01*
X121721Y280108D01*
X121762Y280056D01*
X124718Y277359D01*
X124795Y277306D01*
X124844Y277261D01*
X128186Y275059D01*
X128271Y275019D01*
X128326Y274982D01*
X131971Y273330D01*
X132061Y273304D01*
X132121Y273276D01*
X135980Y272215D01*
X136072Y272203D01*
X136136Y272185D01*
X140113Y271740D01*
X140207Y271743D01*
X140273Y271735D01*
X144271Y271918D01*
G37*
G36*
X292171Y526932D02*
X292171Y526932D01*
X292312Y526947D01*
X292314Y526947D01*
X292315Y526948D01*
X292444Y527000D01*
X292575Y527053D01*
X292577Y527055D01*
X292579Y527055D01*
X292688Y527142D01*
X292799Y527229D01*
X292800Y527231D01*
X292801Y527232D01*
X292812Y527247D01*
X292965Y527460D01*
X292975Y527489D01*
X292989Y527510D01*
X294496Y530809D01*
X296463Y533757D01*
X298876Y536355D01*
X301672Y538534D01*
X304780Y540240D01*
X308120Y541428D01*
X311606Y542069D01*
X315150Y542146D01*
X318662Y541656D01*
X322050Y540613D01*
X325228Y539043D01*
X328182Y536940D01*
X328184Y536939D01*
X328185Y536938D01*
X328308Y536874D01*
X328434Y536809D01*
X328436Y536809D01*
X328438Y536808D01*
X328574Y536781D01*
X328713Y536753D01*
X328715Y536753D01*
X328717Y536753D01*
X328860Y536765D01*
X328997Y536777D01*
X328998Y536778D01*
X329000Y536778D01*
X329131Y536828D01*
X329262Y536878D01*
X329264Y536879D01*
X329266Y536880D01*
X329376Y536964D01*
X329489Y537049D01*
X329490Y537051D01*
X329492Y537052D01*
X329579Y537169D01*
X329660Y537276D01*
X329661Y537278D01*
X329662Y537280D01*
X329713Y537415D01*
X329761Y537542D01*
X329761Y537544D01*
X329762Y537546D01*
X329763Y537564D01*
X329785Y537825D01*
X329778Y537856D01*
X329780Y537881D01*
X325223Y578071D01*
X325189Y578200D01*
X325177Y578277D01*
X323915Y582075D01*
X323900Y582105D01*
X323893Y582131D01*
X323869Y582172D01*
X323853Y582221D01*
X322013Y585775D01*
X321959Y585852D01*
X321929Y585911D01*
X319555Y589133D01*
X319490Y589199D01*
X319451Y589253D01*
X316602Y592064D01*
X316527Y592120D01*
X316480Y592167D01*
X313227Y594498D01*
X313144Y594541D01*
X313091Y594580D01*
X309513Y596374D01*
X309425Y596404D01*
X309366Y596434D01*
X305551Y597646D01*
X305459Y597661D01*
X305396Y597682D01*
X301439Y598282D01*
X301346Y598283D01*
X301280Y598293D01*
X297278Y598267D01*
X297186Y598254D01*
X297120Y598254D01*
X293171Y597602D01*
X293054Y597565D01*
X292979Y597550D01*
X289233Y596141D01*
X289151Y596096D01*
X289089Y596073D01*
X285610Y594095D01*
X285536Y594038D01*
X285478Y594005D01*
X282351Y591507D01*
X282287Y591439D01*
X282235Y591398D01*
X279538Y588442D01*
X279485Y588365D01*
X279440Y588316D01*
X277238Y584974D01*
X277198Y584889D01*
X277161Y584834D01*
X275509Y581189D01*
X275483Y581099D01*
X275455Y581039D01*
X274394Y577180D01*
X274382Y577088D01*
X274364Y577024D01*
X273919Y573047D01*
X273922Y572953D01*
X273914Y572887D01*
X274097Y568889D01*
X274114Y568797D01*
X274117Y568731D01*
X274923Y564811D01*
X274968Y564686D01*
X274987Y564610D01*
X291135Y527526D01*
X291136Y527525D01*
X291137Y527523D01*
X291211Y527403D01*
X291284Y527284D01*
X291285Y527283D01*
X291286Y527281D01*
X291392Y527186D01*
X291494Y527093D01*
X291496Y527092D01*
X291497Y527091D01*
X291627Y527027D01*
X291749Y526967D01*
X291751Y526967D01*
X291753Y526966D01*
X291894Y526941D01*
X292029Y526917D01*
X292031Y526917D01*
X292033Y526917D01*
X292171Y526932D01*
G37*
G36*
X901771Y526932D02*
X901771Y526932D01*
X901912Y526947D01*
X901914Y526947D01*
X901915Y526948D01*
X902044Y527000D01*
X902175Y527053D01*
X902177Y527055D01*
X902179Y527055D01*
X902288Y527142D01*
X902399Y527229D01*
X902400Y527231D01*
X902401Y527232D01*
X902412Y527247D01*
X902565Y527460D01*
X902575Y527489D01*
X902589Y527510D01*
X904096Y530809D01*
X906063Y533757D01*
X908476Y536355D01*
X911272Y538534D01*
X914380Y540240D01*
X917720Y541428D01*
X921206Y542069D01*
X924750Y542146D01*
X928262Y541656D01*
X931650Y540613D01*
X934828Y539043D01*
X937782Y536940D01*
X937784Y536939D01*
X937785Y536938D01*
X937908Y536874D01*
X938034Y536809D01*
X938036Y536809D01*
X938038Y536808D01*
X938174Y536781D01*
X938313Y536753D01*
X938315Y536753D01*
X938317Y536753D01*
X938460Y536765D01*
X938597Y536777D01*
X938598Y536778D01*
X938600Y536778D01*
X938731Y536828D01*
X938862Y536878D01*
X938864Y536879D01*
X938866Y536880D01*
X938976Y536964D01*
X939089Y537049D01*
X939090Y537051D01*
X939092Y537052D01*
X939179Y537169D01*
X939260Y537276D01*
X939261Y537278D01*
X939262Y537280D01*
X939313Y537415D01*
X939361Y537542D01*
X939361Y537544D01*
X939362Y537546D01*
X939363Y537564D01*
X939385Y537825D01*
X939378Y537856D01*
X939380Y537881D01*
X934823Y578071D01*
X934789Y578200D01*
X934777Y578277D01*
X933515Y582075D01*
X933500Y582105D01*
X933493Y582131D01*
X933469Y582172D01*
X933453Y582221D01*
X931613Y585775D01*
X931559Y585852D01*
X931529Y585911D01*
X929155Y589133D01*
X929090Y589199D01*
X929051Y589253D01*
X926202Y592064D01*
X926127Y592120D01*
X926080Y592167D01*
X922827Y594498D01*
X922744Y594541D01*
X922691Y594580D01*
X919113Y596374D01*
X919025Y596404D01*
X918966Y596434D01*
X915151Y597646D01*
X915059Y597661D01*
X914996Y597682D01*
X911039Y598282D01*
X910946Y598283D01*
X910880Y598293D01*
X906878Y598267D01*
X906786Y598254D01*
X906720Y598254D01*
X902771Y597602D01*
X902654Y597565D01*
X902579Y597550D01*
X898833Y596141D01*
X898751Y596096D01*
X898689Y596073D01*
X895210Y594095D01*
X895136Y594038D01*
X895078Y594005D01*
X891951Y591507D01*
X891887Y591439D01*
X891835Y591398D01*
X889138Y588442D01*
X889085Y588365D01*
X889040Y588316D01*
X886838Y584974D01*
X886798Y584889D01*
X886761Y584834D01*
X885109Y581189D01*
X885083Y581099D01*
X885055Y581039D01*
X883994Y577180D01*
X883982Y577088D01*
X883964Y577024D01*
X883519Y573047D01*
X883522Y572953D01*
X883514Y572887D01*
X883697Y568889D01*
X883714Y568797D01*
X883717Y568731D01*
X884523Y564811D01*
X884568Y564686D01*
X884587Y564610D01*
X900735Y527526D01*
X900736Y527525D01*
X900737Y527523D01*
X900811Y527403D01*
X900884Y527284D01*
X900885Y527283D01*
X900886Y527281D01*
X900992Y527186D01*
X901094Y527093D01*
X901096Y527092D01*
X901097Y527091D01*
X901227Y527027D01*
X901349Y526967D01*
X901351Y526967D01*
X901353Y526966D01*
X901494Y526941D01*
X901629Y526917D01*
X901631Y526917D01*
X901633Y526917D01*
X901771Y526932D01*
G37*
G36*
X901771Y1136532D02*
X901771Y1136532D01*
X901912Y1136547D01*
X901914Y1136547D01*
X901915Y1136548D01*
X902044Y1136600D01*
X902175Y1136653D01*
X902177Y1136655D01*
X902179Y1136655D01*
X902288Y1136742D01*
X902399Y1136829D01*
X902400Y1136831D01*
X902401Y1136832D01*
X902412Y1136847D01*
X902565Y1137060D01*
X902575Y1137089D01*
X902589Y1137110D01*
X904096Y1140409D01*
X906063Y1143357D01*
X908476Y1145955D01*
X911272Y1148134D01*
X914380Y1149840D01*
X917720Y1151028D01*
X921206Y1151669D01*
X924750Y1151746D01*
X928262Y1151256D01*
X931650Y1150213D01*
X934828Y1148643D01*
X937782Y1146540D01*
X937784Y1146539D01*
X937785Y1146538D01*
X937908Y1146474D01*
X938034Y1146409D01*
X938036Y1146409D01*
X938038Y1146408D01*
X938174Y1146381D01*
X938313Y1146353D01*
X938315Y1146353D01*
X938317Y1146353D01*
X938460Y1146365D01*
X938597Y1146377D01*
X938598Y1146378D01*
X938600Y1146378D01*
X938731Y1146428D01*
X938862Y1146478D01*
X938864Y1146479D01*
X938866Y1146480D01*
X938976Y1146564D01*
X939089Y1146649D01*
X939090Y1146651D01*
X939092Y1146652D01*
X939179Y1146769D01*
X939260Y1146876D01*
X939261Y1146878D01*
X939262Y1146880D01*
X939313Y1147015D01*
X939361Y1147142D01*
X939361Y1147144D01*
X939362Y1147146D01*
X939363Y1147164D01*
X939385Y1147425D01*
X939378Y1147456D01*
X939380Y1147481D01*
X934823Y1187671D01*
X934789Y1187800D01*
X934777Y1187877D01*
X933515Y1191675D01*
X933500Y1191705D01*
X933493Y1191731D01*
X933469Y1191772D01*
X933453Y1191821D01*
X931613Y1195375D01*
X931559Y1195452D01*
X931529Y1195511D01*
X929155Y1198733D01*
X929090Y1198799D01*
X929051Y1198853D01*
X926202Y1201664D01*
X926127Y1201720D01*
X926080Y1201767D01*
X922827Y1204098D01*
X922744Y1204141D01*
X922691Y1204180D01*
X919113Y1205974D01*
X919025Y1206004D01*
X918966Y1206034D01*
X915151Y1207246D01*
X915059Y1207261D01*
X914996Y1207282D01*
X911039Y1207882D01*
X910946Y1207883D01*
X910880Y1207893D01*
X906878Y1207867D01*
X906786Y1207854D01*
X906720Y1207854D01*
X902771Y1207202D01*
X902654Y1207165D01*
X902579Y1207150D01*
X898833Y1205741D01*
X898751Y1205696D01*
X898689Y1205673D01*
X895210Y1203695D01*
X895136Y1203638D01*
X895078Y1203605D01*
X891951Y1201107D01*
X891887Y1201039D01*
X891835Y1200998D01*
X889138Y1198042D01*
X889085Y1197965D01*
X889040Y1197916D01*
X886838Y1194574D01*
X886798Y1194489D01*
X886761Y1194434D01*
X885109Y1190789D01*
X885083Y1190699D01*
X885055Y1190639D01*
X883994Y1186780D01*
X883982Y1186688D01*
X883964Y1186624D01*
X883519Y1182647D01*
X883522Y1182553D01*
X883514Y1182487D01*
X883697Y1178489D01*
X883714Y1178397D01*
X883717Y1178331D01*
X884523Y1174411D01*
X884568Y1174286D01*
X884587Y1174210D01*
X900735Y1137126D01*
X900736Y1137125D01*
X900737Y1137123D01*
X900811Y1137003D01*
X900884Y1136884D01*
X900885Y1136883D01*
X900886Y1136881D01*
X900992Y1136786D01*
X901094Y1136693D01*
X901096Y1136692D01*
X901097Y1136691D01*
X901227Y1136627D01*
X901349Y1136567D01*
X901351Y1136567D01*
X901353Y1136566D01*
X901494Y1136541D01*
X901629Y1136517D01*
X901631Y1136517D01*
X901633Y1136517D01*
X901771Y1136532D01*
G37*
G36*
X292171Y1136532D02*
X292171Y1136532D01*
X292312Y1136547D01*
X292314Y1136547D01*
X292315Y1136548D01*
X292444Y1136600D01*
X292575Y1136653D01*
X292577Y1136655D01*
X292579Y1136655D01*
X292688Y1136742D01*
X292799Y1136829D01*
X292800Y1136831D01*
X292801Y1136832D01*
X292812Y1136847D01*
X292965Y1137060D01*
X292975Y1137089D01*
X292989Y1137110D01*
X294496Y1140409D01*
X296463Y1143357D01*
X298876Y1145955D01*
X301672Y1148134D01*
X304780Y1149840D01*
X308120Y1151028D01*
X311606Y1151669D01*
X315150Y1151746D01*
X318662Y1151256D01*
X322050Y1150213D01*
X325228Y1148643D01*
X328182Y1146540D01*
X328184Y1146539D01*
X328185Y1146538D01*
X328308Y1146474D01*
X328434Y1146409D01*
X328436Y1146409D01*
X328438Y1146408D01*
X328574Y1146381D01*
X328713Y1146353D01*
X328715Y1146353D01*
X328717Y1146353D01*
X328860Y1146365D01*
X328997Y1146377D01*
X328998Y1146378D01*
X329000Y1146378D01*
X329131Y1146428D01*
X329262Y1146478D01*
X329264Y1146479D01*
X329266Y1146480D01*
X329376Y1146564D01*
X329489Y1146649D01*
X329490Y1146651D01*
X329492Y1146652D01*
X329579Y1146769D01*
X329660Y1146876D01*
X329661Y1146878D01*
X329662Y1146880D01*
X329713Y1147015D01*
X329761Y1147142D01*
X329761Y1147144D01*
X329762Y1147146D01*
X329763Y1147164D01*
X329785Y1147425D01*
X329778Y1147456D01*
X329780Y1147481D01*
X325223Y1187671D01*
X325189Y1187800D01*
X325177Y1187877D01*
X323915Y1191675D01*
X323900Y1191705D01*
X323893Y1191731D01*
X323869Y1191772D01*
X323853Y1191821D01*
X322013Y1195375D01*
X321959Y1195452D01*
X321929Y1195511D01*
X319555Y1198733D01*
X319490Y1198799D01*
X319451Y1198853D01*
X316602Y1201664D01*
X316527Y1201720D01*
X316480Y1201767D01*
X313227Y1204098D01*
X313144Y1204141D01*
X313091Y1204180D01*
X309513Y1205974D01*
X309425Y1206004D01*
X309366Y1206034D01*
X305551Y1207246D01*
X305459Y1207261D01*
X305396Y1207282D01*
X301439Y1207882D01*
X301346Y1207883D01*
X301280Y1207893D01*
X297278Y1207867D01*
X297186Y1207854D01*
X297120Y1207854D01*
X293171Y1207202D01*
X293054Y1207165D01*
X292979Y1207150D01*
X289233Y1205741D01*
X289151Y1205696D01*
X289089Y1205673D01*
X285610Y1203695D01*
X285536Y1203638D01*
X285478Y1203605D01*
X282351Y1201107D01*
X282287Y1201039D01*
X282235Y1200998D01*
X279538Y1198042D01*
X279485Y1197965D01*
X279440Y1197916D01*
X277238Y1194574D01*
X277198Y1194489D01*
X277161Y1194434D01*
X275509Y1190789D01*
X275483Y1190699D01*
X275455Y1190639D01*
X274394Y1186780D01*
X274382Y1186688D01*
X274364Y1186624D01*
X273919Y1182647D01*
X273922Y1182553D01*
X273914Y1182487D01*
X274097Y1178489D01*
X274114Y1178397D01*
X274117Y1178331D01*
X274923Y1174411D01*
X274968Y1174286D01*
X274987Y1174210D01*
X291135Y1137126D01*
X291136Y1137125D01*
X291137Y1137123D01*
X291211Y1137003D01*
X291284Y1136884D01*
X291285Y1136883D01*
X291286Y1136881D01*
X291392Y1136786D01*
X291494Y1136693D01*
X291496Y1136692D01*
X291497Y1136691D01*
X291627Y1136627D01*
X291749Y1136567D01*
X291751Y1136567D01*
X291753Y1136566D01*
X291894Y1136541D01*
X292029Y1136517D01*
X292031Y1136517D01*
X292033Y1136517D01*
X292171Y1136532D01*
G37*
G36*
X418061Y722314D02*
X418061Y722314D01*
X418153Y722327D01*
X418219Y722327D01*
X422168Y722979D01*
X422285Y723016D01*
X422360Y723031D01*
X426106Y724440D01*
X426188Y724485D01*
X426250Y724508D01*
X429729Y726486D01*
X429744Y726498D01*
X429759Y726505D01*
X429809Y726547D01*
X429861Y726576D01*
X432988Y729074D01*
X433052Y729142D01*
X433104Y729183D01*
X435801Y732139D01*
X435854Y732216D01*
X435899Y732265D01*
X438101Y735607D01*
X438141Y735692D01*
X438178Y735747D01*
X439830Y739392D01*
X439856Y739482D01*
X439884Y739542D01*
X440945Y743401D01*
X440950Y743438D01*
X440950Y743440D01*
X440950Y743443D01*
X440957Y743493D01*
X440975Y743557D01*
X441420Y747534D01*
X441417Y747628D01*
X441425Y747694D01*
X441242Y751692D01*
X441224Y751784D01*
X441222Y751850D01*
X440416Y755770D01*
X440371Y755895D01*
X440352Y755971D01*
X424204Y793055D01*
X424203Y793056D01*
X424202Y793058D01*
X424128Y793178D01*
X424055Y793297D01*
X424054Y793298D01*
X424053Y793300D01*
X423947Y793395D01*
X423845Y793488D01*
X423843Y793489D01*
X423842Y793490D01*
X423712Y793554D01*
X423590Y793614D01*
X423588Y793614D01*
X423586Y793615D01*
X423445Y793640D01*
X423310Y793664D01*
X423308Y793664D01*
X423306Y793664D01*
X423168Y793649D01*
X423027Y793634D01*
X423025Y793634D01*
X423024Y793633D01*
X422895Y793581D01*
X422764Y793528D01*
X422762Y793526D01*
X422760Y793526D01*
X422651Y793439D01*
X422540Y793352D01*
X422539Y793350D01*
X422538Y793349D01*
X422527Y793334D01*
X422374Y793121D01*
X422364Y793092D01*
X422350Y793071D01*
X420843Y789772D01*
X418876Y786824D01*
X416463Y784226D01*
X413667Y782047D01*
X410559Y780341D01*
X407219Y779153D01*
X403733Y778512D01*
X400189Y778435D01*
X396677Y778925D01*
X393289Y779968D01*
X390111Y781538D01*
X387157Y783641D01*
X387155Y783642D01*
X387154Y783643D01*
X387031Y783707D01*
X386904Y783772D01*
X386903Y783772D01*
X386901Y783773D01*
X386765Y783800D01*
X386626Y783828D01*
X386624Y783828D01*
X386622Y783828D01*
X386479Y783816D01*
X386342Y783804D01*
X386341Y783803D01*
X386339Y783803D01*
X386208Y783753D01*
X386077Y783703D01*
X386075Y783702D01*
X386073Y783701D01*
X385963Y783617D01*
X385850Y783532D01*
X385849Y783530D01*
X385847Y783529D01*
X385760Y783412D01*
X385679Y783305D01*
X385678Y783303D01*
X385677Y783301D01*
X385626Y783166D01*
X385578Y783039D01*
X385578Y783037D01*
X385577Y783035D01*
X385576Y783017D01*
X385554Y782755D01*
X385560Y782725D01*
X385559Y782700D01*
X390116Y742510D01*
X390150Y742381D01*
X390162Y742304D01*
X391424Y738506D01*
X391465Y738423D01*
X391486Y738359D01*
X393326Y734806D01*
X393380Y734729D01*
X393410Y734670D01*
X395784Y731448D01*
X395849Y731382D01*
X395888Y731328D01*
X398737Y728517D01*
X398812Y728461D01*
X398859Y728414D01*
X402112Y726083D01*
X402195Y726040D01*
X402248Y726001D01*
X405826Y724207D01*
X405914Y724177D01*
X405973Y724147D01*
X409788Y722935D01*
X409880Y722920D01*
X409943Y722899D01*
X413900Y722299D01*
X413993Y722298D01*
X414059Y722288D01*
X418061Y722314D01*
G37*
G36*
X1027661Y722314D02*
X1027661Y722314D01*
X1027753Y722327D01*
X1027819Y722327D01*
X1031768Y722979D01*
X1031885Y723016D01*
X1031960Y723031D01*
X1035706Y724440D01*
X1035788Y724485D01*
X1035850Y724508D01*
X1039329Y726486D01*
X1039344Y726498D01*
X1039359Y726505D01*
X1039409Y726547D01*
X1039461Y726576D01*
X1042588Y729074D01*
X1042652Y729142D01*
X1042704Y729183D01*
X1045401Y732139D01*
X1045454Y732216D01*
X1045499Y732265D01*
X1047701Y735607D01*
X1047741Y735692D01*
X1047778Y735747D01*
X1049430Y739392D01*
X1049456Y739482D01*
X1049484Y739542D01*
X1050545Y743401D01*
X1050550Y743438D01*
X1050550Y743440D01*
X1050550Y743443D01*
X1050557Y743493D01*
X1050575Y743557D01*
X1051020Y747534D01*
X1051017Y747628D01*
X1051025Y747694D01*
X1050842Y751692D01*
X1050824Y751784D01*
X1050822Y751850D01*
X1050016Y755770D01*
X1049971Y755895D01*
X1049952Y755971D01*
X1033804Y793055D01*
X1033803Y793056D01*
X1033802Y793058D01*
X1033728Y793178D01*
X1033655Y793297D01*
X1033654Y793298D01*
X1033653Y793300D01*
X1033547Y793395D01*
X1033445Y793488D01*
X1033443Y793489D01*
X1033442Y793490D01*
X1033312Y793554D01*
X1033190Y793614D01*
X1033188Y793614D01*
X1033186Y793615D01*
X1033045Y793640D01*
X1032910Y793664D01*
X1032908Y793664D01*
X1032906Y793664D01*
X1032768Y793649D01*
X1032627Y793634D01*
X1032625Y793634D01*
X1032624Y793633D01*
X1032495Y793581D01*
X1032364Y793528D01*
X1032362Y793526D01*
X1032360Y793526D01*
X1032251Y793439D01*
X1032140Y793352D01*
X1032139Y793350D01*
X1032138Y793349D01*
X1032127Y793334D01*
X1031974Y793121D01*
X1031964Y793092D01*
X1031950Y793071D01*
X1030443Y789772D01*
X1028476Y786824D01*
X1026063Y784226D01*
X1023267Y782047D01*
X1020159Y780341D01*
X1016819Y779153D01*
X1013333Y778512D01*
X1009789Y778435D01*
X1006277Y778925D01*
X1002889Y779968D01*
X999711Y781538D01*
X996757Y783641D01*
X996755Y783642D01*
X996754Y783643D01*
X996631Y783707D01*
X996504Y783772D01*
X996503Y783772D01*
X996501Y783773D01*
X996365Y783800D01*
X996226Y783828D01*
X996224Y783828D01*
X996222Y783828D01*
X996079Y783816D01*
X995942Y783804D01*
X995941Y783803D01*
X995939Y783803D01*
X995808Y783753D01*
X995677Y783703D01*
X995675Y783702D01*
X995673Y783701D01*
X995563Y783617D01*
X995450Y783532D01*
X995449Y783530D01*
X995447Y783529D01*
X995360Y783412D01*
X995279Y783305D01*
X995278Y783303D01*
X995277Y783301D01*
X995226Y783166D01*
X995178Y783039D01*
X995178Y783037D01*
X995177Y783035D01*
X995176Y783017D01*
X995154Y782755D01*
X995160Y782725D01*
X995159Y782700D01*
X999716Y742510D01*
X999750Y742381D01*
X999762Y742304D01*
X1001024Y738506D01*
X1001065Y738423D01*
X1001086Y738359D01*
X1002926Y734806D01*
X1002980Y734729D01*
X1003010Y734670D01*
X1005384Y731448D01*
X1005449Y731382D01*
X1005488Y731328D01*
X1008337Y728517D01*
X1008412Y728461D01*
X1008459Y728414D01*
X1011712Y726083D01*
X1011795Y726040D01*
X1011848Y726001D01*
X1015426Y724207D01*
X1015514Y724177D01*
X1015573Y724147D01*
X1019388Y722935D01*
X1019480Y722920D01*
X1019543Y722899D01*
X1023500Y722299D01*
X1023593Y722298D01*
X1023659Y722288D01*
X1027661Y722314D01*
G37*
G36*
X1027661Y112714D02*
X1027661Y112714D01*
X1027753Y112727D01*
X1027819Y112727D01*
X1031768Y113379D01*
X1031885Y113416D01*
X1031960Y113431D01*
X1035706Y114840D01*
X1035788Y114885D01*
X1035850Y114908D01*
X1039329Y116886D01*
X1039344Y116898D01*
X1039359Y116905D01*
X1039409Y116947D01*
X1039461Y116976D01*
X1042588Y119474D01*
X1042652Y119542D01*
X1042704Y119583D01*
X1045401Y122539D01*
X1045454Y122616D01*
X1045499Y122665D01*
X1047701Y126007D01*
X1047741Y126092D01*
X1047778Y126147D01*
X1049430Y129792D01*
X1049456Y129882D01*
X1049484Y129942D01*
X1050545Y133801D01*
X1050550Y133838D01*
X1050550Y133840D01*
X1050550Y133843D01*
X1050557Y133893D01*
X1050575Y133957D01*
X1051020Y137934D01*
X1051017Y138028D01*
X1051025Y138094D01*
X1050842Y142092D01*
X1050824Y142184D01*
X1050822Y142250D01*
X1050016Y146170D01*
X1049971Y146295D01*
X1049952Y146371D01*
X1033804Y183455D01*
X1033803Y183456D01*
X1033802Y183458D01*
X1033728Y183578D01*
X1033655Y183697D01*
X1033654Y183698D01*
X1033653Y183700D01*
X1033547Y183795D01*
X1033445Y183888D01*
X1033443Y183889D01*
X1033442Y183890D01*
X1033312Y183954D01*
X1033190Y184014D01*
X1033188Y184014D01*
X1033186Y184015D01*
X1033045Y184040D01*
X1032910Y184064D01*
X1032908Y184064D01*
X1032906Y184064D01*
X1032768Y184049D01*
X1032627Y184034D01*
X1032625Y184034D01*
X1032624Y184033D01*
X1032495Y183981D01*
X1032364Y183928D01*
X1032362Y183926D01*
X1032360Y183926D01*
X1032251Y183839D01*
X1032140Y183752D01*
X1032139Y183750D01*
X1032138Y183749D01*
X1032127Y183734D01*
X1031974Y183521D01*
X1031964Y183492D01*
X1031950Y183471D01*
X1030443Y180172D01*
X1028476Y177224D01*
X1026063Y174626D01*
X1023267Y172447D01*
X1020159Y170741D01*
X1016819Y169553D01*
X1013333Y168912D01*
X1009789Y168835D01*
X1006277Y169325D01*
X1002889Y170368D01*
X999711Y171938D01*
X996757Y174041D01*
X996755Y174042D01*
X996754Y174043D01*
X996631Y174107D01*
X996504Y174172D01*
X996503Y174172D01*
X996501Y174173D01*
X996365Y174200D01*
X996226Y174228D01*
X996224Y174228D01*
X996222Y174228D01*
X996079Y174216D01*
X995942Y174204D01*
X995941Y174203D01*
X995939Y174203D01*
X995808Y174153D01*
X995677Y174103D01*
X995675Y174102D01*
X995673Y174101D01*
X995563Y174017D01*
X995450Y173932D01*
X995449Y173930D01*
X995447Y173929D01*
X995360Y173812D01*
X995279Y173705D01*
X995278Y173703D01*
X995277Y173701D01*
X995226Y173566D01*
X995178Y173439D01*
X995178Y173437D01*
X995177Y173435D01*
X995176Y173417D01*
X995154Y173155D01*
X995160Y173125D01*
X995159Y173100D01*
X999716Y132910D01*
X999750Y132781D01*
X999762Y132704D01*
X1001024Y128906D01*
X1001065Y128823D01*
X1001086Y128759D01*
X1002926Y125206D01*
X1002980Y125129D01*
X1003010Y125070D01*
X1005384Y121848D01*
X1005449Y121782D01*
X1005488Y121728D01*
X1008337Y118917D01*
X1008412Y118861D01*
X1008459Y118814D01*
X1011712Y116483D01*
X1011795Y116440D01*
X1011848Y116401D01*
X1015426Y114607D01*
X1015514Y114577D01*
X1015573Y114547D01*
X1019388Y113335D01*
X1019480Y113320D01*
X1019543Y113299D01*
X1023500Y112699D01*
X1023593Y112698D01*
X1023659Y112688D01*
X1027661Y112714D01*
G37*
G36*
X418061Y112714D02*
X418061Y112714D01*
X418153Y112727D01*
X418219Y112727D01*
X422168Y113379D01*
X422285Y113416D01*
X422360Y113431D01*
X426106Y114840D01*
X426188Y114885D01*
X426250Y114908D01*
X429729Y116886D01*
X429744Y116898D01*
X429759Y116905D01*
X429809Y116947D01*
X429861Y116976D01*
X432988Y119474D01*
X433052Y119542D01*
X433104Y119583D01*
X435801Y122539D01*
X435854Y122616D01*
X435899Y122665D01*
X438101Y126007D01*
X438141Y126092D01*
X438178Y126147D01*
X439830Y129792D01*
X439856Y129882D01*
X439884Y129942D01*
X440945Y133801D01*
X440950Y133838D01*
X440950Y133840D01*
X440950Y133843D01*
X440957Y133893D01*
X440975Y133957D01*
X441420Y137934D01*
X441417Y138028D01*
X441425Y138094D01*
X441242Y142092D01*
X441224Y142184D01*
X441222Y142250D01*
X440416Y146170D01*
X440371Y146295D01*
X440352Y146371D01*
X424204Y183455D01*
X424203Y183456D01*
X424202Y183458D01*
X424128Y183578D01*
X424055Y183697D01*
X424054Y183698D01*
X424053Y183700D01*
X423947Y183795D01*
X423845Y183888D01*
X423843Y183889D01*
X423842Y183890D01*
X423712Y183954D01*
X423590Y184014D01*
X423588Y184014D01*
X423586Y184015D01*
X423445Y184040D01*
X423310Y184064D01*
X423308Y184064D01*
X423306Y184064D01*
X423168Y184049D01*
X423027Y184034D01*
X423025Y184034D01*
X423024Y184033D01*
X422895Y183981D01*
X422764Y183928D01*
X422762Y183926D01*
X422760Y183926D01*
X422651Y183839D01*
X422540Y183752D01*
X422539Y183750D01*
X422538Y183749D01*
X422527Y183734D01*
X422374Y183521D01*
X422364Y183492D01*
X422350Y183471D01*
X420843Y180172D01*
X418876Y177224D01*
X416463Y174626D01*
X413667Y172447D01*
X410559Y170741D01*
X407219Y169553D01*
X403733Y168912D01*
X400189Y168835D01*
X396677Y169325D01*
X393289Y170368D01*
X390111Y171938D01*
X387157Y174041D01*
X387155Y174042D01*
X387154Y174043D01*
X387031Y174107D01*
X386904Y174172D01*
X386903Y174172D01*
X386901Y174173D01*
X386765Y174200D01*
X386626Y174228D01*
X386624Y174228D01*
X386622Y174228D01*
X386479Y174216D01*
X386342Y174204D01*
X386341Y174203D01*
X386339Y174203D01*
X386208Y174153D01*
X386077Y174103D01*
X386075Y174102D01*
X386073Y174101D01*
X385963Y174017D01*
X385850Y173932D01*
X385849Y173930D01*
X385847Y173929D01*
X385760Y173812D01*
X385679Y173705D01*
X385678Y173703D01*
X385677Y173701D01*
X385626Y173566D01*
X385578Y173439D01*
X385578Y173437D01*
X385577Y173435D01*
X385576Y173417D01*
X385554Y173155D01*
X385560Y173125D01*
X385559Y173100D01*
X390116Y132910D01*
X390150Y132781D01*
X390162Y132704D01*
X391424Y128906D01*
X391465Y128823D01*
X391486Y128759D01*
X393326Y125206D01*
X393380Y125129D01*
X393410Y125070D01*
X395784Y121848D01*
X395849Y121782D01*
X395888Y121728D01*
X398737Y118917D01*
X398812Y118861D01*
X398859Y118814D01*
X402112Y116483D01*
X402195Y116440D01*
X402248Y116401D01*
X405826Y114607D01*
X405914Y114577D01*
X405973Y114547D01*
X409788Y113335D01*
X409880Y113320D01*
X409943Y113299D01*
X413900Y112699D01*
X413993Y112698D01*
X414059Y112688D01*
X418061Y112714D01*
G37*
G36*
X1032997Y1136534D02*
X1032997Y1136534D01*
X1033136Y1136551D01*
X1033138Y1136552D01*
X1033140Y1136552D01*
X1033270Y1136608D01*
X1033398Y1136662D01*
X1033399Y1136664D01*
X1033401Y1136664D01*
X1033511Y1136755D01*
X1033618Y1136842D01*
X1033619Y1136844D01*
X1033621Y1136845D01*
X1033631Y1136860D01*
X1033780Y1137076D01*
X1033790Y1137105D01*
X1033804Y1137126D01*
X1049952Y1174210D01*
X1049988Y1174338D01*
X1050016Y1174411D01*
X1050822Y1178331D01*
X1050828Y1178425D01*
X1050842Y1178489D01*
X1051025Y1182487D01*
X1051016Y1182580D01*
X1051019Y1182647D01*
X1050575Y1186624D01*
X1050551Y1186714D01*
X1050545Y1186780D01*
X1049483Y1190639D01*
X1049459Y1190695D01*
X1049454Y1190716D01*
X1049444Y1190732D01*
X1049429Y1190789D01*
X1047777Y1194434D01*
X1047727Y1194513D01*
X1047700Y1194574D01*
X1045499Y1197916D01*
X1045437Y1197986D01*
X1045401Y1198042D01*
X1042704Y1200998D01*
X1042632Y1201058D01*
X1042587Y1201107D01*
X1039461Y1203605D01*
X1039380Y1203653D01*
X1039329Y1203695D01*
X1035850Y1205673D01*
X1035763Y1205707D01*
X1035706Y1205741D01*
X1031960Y1207150D01*
X1031840Y1207177D01*
X1031768Y1207202D01*
X1027819Y1207854D01*
X1027726Y1207856D01*
X1027661Y1207867D01*
X1023658Y1207894D01*
X1023566Y1207881D01*
X1023500Y1207882D01*
X1019543Y1207282D01*
X1019453Y1207255D01*
X1019388Y1207246D01*
X1015573Y1206034D01*
X1015489Y1205994D01*
X1015426Y1205974D01*
X1011848Y1204181D01*
X1011771Y1204128D01*
X1011712Y1204098D01*
X1008458Y1201767D01*
X1008391Y1201703D01*
X1008336Y1201665D01*
X1005488Y1198853D01*
X1005431Y1198779D01*
X1005384Y1198733D01*
X1003010Y1195511D01*
X1002966Y1195428D01*
X1002926Y1195375D01*
X1001085Y1191822D01*
X1001075Y1191791D01*
X1001067Y1191779D01*
X1001049Y1191722D01*
X1001024Y1191675D01*
X999762Y1187877D01*
X999738Y1187746D01*
X999716Y1187671D01*
X995159Y1147481D01*
X995159Y1147479D01*
X995159Y1147477D01*
X995163Y1147332D01*
X995167Y1147197D01*
X995168Y1147195D01*
X995168Y1147193D01*
X995212Y1147054D01*
X995253Y1146926D01*
X995254Y1146925D01*
X995255Y1146923D01*
X995336Y1146803D01*
X995411Y1146690D01*
X995413Y1146689D01*
X995414Y1146687D01*
X995521Y1146597D01*
X995629Y1146507D01*
X995630Y1146506D01*
X995632Y1146504D01*
X995757Y1146449D01*
X995888Y1146391D01*
X995890Y1146390D01*
X995892Y1146390D01*
X996026Y1146371D01*
X996170Y1146351D01*
X996172Y1146352D01*
X996174Y1146352D01*
X996308Y1146371D01*
X996451Y1146392D01*
X996453Y1146393D01*
X996455Y1146393D01*
X996471Y1146401D01*
X996710Y1146509D01*
X996734Y1146529D01*
X996757Y1146540D01*
X999711Y1148643D01*
X1002889Y1150213D01*
X1006277Y1151256D01*
X1009789Y1151746D01*
X1013333Y1151669D01*
X1016819Y1151028D01*
X1020159Y1149840D01*
X1023267Y1148134D01*
X1026063Y1145955D01*
X1028476Y1143357D01*
X1030443Y1140409D01*
X1031950Y1137110D01*
X1031951Y1137108D01*
X1031951Y1137106D01*
X1032025Y1136991D01*
X1032103Y1136870D01*
X1032104Y1136869D01*
X1032105Y1136867D01*
X1032208Y1136778D01*
X1032316Y1136683D01*
X1032318Y1136682D01*
X1032319Y1136681D01*
X1032446Y1136621D01*
X1032573Y1136562D01*
X1032575Y1136561D01*
X1032577Y1136560D01*
X1032716Y1136539D01*
X1032854Y1136517D01*
X1032856Y1136517D01*
X1032858Y1136516D01*
X1032997Y1136534D01*
G37*
G36*
X423397Y526934D02*
X423397Y526934D01*
X423536Y526951D01*
X423538Y526952D01*
X423540Y526952D01*
X423670Y527008D01*
X423798Y527062D01*
X423799Y527064D01*
X423801Y527064D01*
X423911Y527155D01*
X424018Y527242D01*
X424019Y527244D01*
X424021Y527245D01*
X424031Y527260D01*
X424180Y527476D01*
X424190Y527505D01*
X424204Y527526D01*
X440352Y564610D01*
X440388Y564738D01*
X440416Y564811D01*
X441222Y568731D01*
X441228Y568825D01*
X441242Y568889D01*
X441425Y572887D01*
X441416Y572980D01*
X441419Y573047D01*
X440975Y577024D01*
X440951Y577114D01*
X440945Y577180D01*
X439883Y581039D01*
X439859Y581095D01*
X439854Y581116D01*
X439844Y581132D01*
X439829Y581189D01*
X438177Y584834D01*
X438127Y584913D01*
X438100Y584974D01*
X435899Y588316D01*
X435837Y588386D01*
X435801Y588442D01*
X433104Y591398D01*
X433032Y591458D01*
X432987Y591507D01*
X429861Y594005D01*
X429780Y594053D01*
X429729Y594095D01*
X426250Y596073D01*
X426163Y596107D01*
X426106Y596141D01*
X422360Y597550D01*
X422240Y597577D01*
X422168Y597602D01*
X418219Y598254D01*
X418126Y598256D01*
X418061Y598267D01*
X414058Y598294D01*
X413966Y598281D01*
X413900Y598282D01*
X409943Y597682D01*
X409853Y597655D01*
X409788Y597646D01*
X405973Y596434D01*
X405889Y596394D01*
X405826Y596374D01*
X402248Y594581D01*
X402171Y594528D01*
X402112Y594498D01*
X398858Y592167D01*
X398791Y592103D01*
X398736Y592065D01*
X395888Y589253D01*
X395831Y589179D01*
X395784Y589133D01*
X393410Y585911D01*
X393366Y585828D01*
X393326Y585775D01*
X391485Y582222D01*
X391475Y582191D01*
X391467Y582179D01*
X391449Y582122D01*
X391424Y582075D01*
X390162Y578277D01*
X390138Y578146D01*
X390116Y578071D01*
X385559Y537881D01*
X385559Y537879D01*
X385559Y537877D01*
X385563Y537732D01*
X385567Y537597D01*
X385568Y537595D01*
X385568Y537593D01*
X385612Y537454D01*
X385653Y537326D01*
X385654Y537325D01*
X385655Y537323D01*
X385736Y537203D01*
X385811Y537090D01*
X385813Y537089D01*
X385814Y537087D01*
X385921Y536997D01*
X386029Y536907D01*
X386030Y536906D01*
X386032Y536904D01*
X386157Y536849D01*
X386288Y536791D01*
X386290Y536790D01*
X386292Y536790D01*
X386426Y536771D01*
X386570Y536751D01*
X386572Y536752D01*
X386574Y536752D01*
X386708Y536771D01*
X386851Y536792D01*
X386853Y536793D01*
X386855Y536793D01*
X386871Y536801D01*
X387110Y536909D01*
X387134Y536929D01*
X387157Y536940D01*
X390111Y539043D01*
X393289Y540613D01*
X396677Y541656D01*
X400189Y542146D01*
X403733Y542069D01*
X407219Y541428D01*
X410559Y540240D01*
X413667Y538534D01*
X416463Y536355D01*
X418876Y533757D01*
X420843Y530809D01*
X422350Y527510D01*
X422351Y527508D01*
X422351Y527506D01*
X422425Y527391D01*
X422503Y527270D01*
X422504Y527269D01*
X422505Y527267D01*
X422608Y527178D01*
X422716Y527083D01*
X422718Y527082D01*
X422719Y527081D01*
X422846Y527021D01*
X422973Y526962D01*
X422975Y526961D01*
X422977Y526960D01*
X423116Y526939D01*
X423254Y526917D01*
X423256Y526917D01*
X423258Y526916D01*
X423397Y526934D01*
G37*
G36*
X1032997Y526934D02*
X1032997Y526934D01*
X1033136Y526951D01*
X1033138Y526952D01*
X1033140Y526952D01*
X1033270Y527008D01*
X1033398Y527062D01*
X1033399Y527064D01*
X1033401Y527064D01*
X1033511Y527155D01*
X1033618Y527242D01*
X1033619Y527244D01*
X1033621Y527245D01*
X1033631Y527260D01*
X1033780Y527476D01*
X1033790Y527505D01*
X1033804Y527526D01*
X1049952Y564610D01*
X1049988Y564738D01*
X1050016Y564811D01*
X1050822Y568731D01*
X1050828Y568825D01*
X1050842Y568889D01*
X1051025Y572887D01*
X1051016Y572980D01*
X1051019Y573047D01*
X1050575Y577024D01*
X1050551Y577114D01*
X1050545Y577180D01*
X1049483Y581039D01*
X1049459Y581095D01*
X1049454Y581116D01*
X1049444Y581132D01*
X1049429Y581189D01*
X1047777Y584834D01*
X1047727Y584913D01*
X1047700Y584974D01*
X1045499Y588316D01*
X1045437Y588386D01*
X1045401Y588442D01*
X1042704Y591398D01*
X1042632Y591458D01*
X1042587Y591507D01*
X1039461Y594005D01*
X1039380Y594053D01*
X1039329Y594095D01*
X1035850Y596073D01*
X1035763Y596107D01*
X1035706Y596141D01*
X1031960Y597550D01*
X1031840Y597577D01*
X1031768Y597602D01*
X1027819Y598254D01*
X1027726Y598256D01*
X1027661Y598267D01*
X1023658Y598294D01*
X1023566Y598281D01*
X1023500Y598282D01*
X1019543Y597682D01*
X1019453Y597655D01*
X1019388Y597646D01*
X1015573Y596434D01*
X1015489Y596394D01*
X1015426Y596374D01*
X1011848Y594581D01*
X1011771Y594528D01*
X1011712Y594498D01*
X1008458Y592167D01*
X1008391Y592103D01*
X1008336Y592065D01*
X1005488Y589253D01*
X1005431Y589179D01*
X1005384Y589133D01*
X1003010Y585911D01*
X1002966Y585828D01*
X1002926Y585775D01*
X1001085Y582222D01*
X1001075Y582191D01*
X1001067Y582179D01*
X1001049Y582122D01*
X1001024Y582075D01*
X999762Y578277D01*
X999738Y578146D01*
X999716Y578071D01*
X995159Y537881D01*
X995159Y537879D01*
X995159Y537877D01*
X995163Y537732D01*
X995167Y537597D01*
X995168Y537595D01*
X995168Y537593D01*
X995212Y537454D01*
X995253Y537326D01*
X995254Y537325D01*
X995255Y537323D01*
X995336Y537203D01*
X995411Y537090D01*
X995413Y537089D01*
X995414Y537087D01*
X995521Y536997D01*
X995629Y536907D01*
X995630Y536906D01*
X995632Y536904D01*
X995757Y536849D01*
X995888Y536791D01*
X995890Y536790D01*
X995892Y536790D01*
X996026Y536771D01*
X996170Y536751D01*
X996172Y536752D01*
X996174Y536752D01*
X996308Y536771D01*
X996451Y536792D01*
X996453Y536793D01*
X996455Y536793D01*
X996471Y536801D01*
X996710Y536909D01*
X996734Y536929D01*
X996757Y536940D01*
X999711Y539043D01*
X1002889Y540613D01*
X1006277Y541656D01*
X1009789Y542146D01*
X1013333Y542069D01*
X1016819Y541428D01*
X1020159Y540240D01*
X1023267Y538534D01*
X1026063Y536355D01*
X1028476Y533757D01*
X1030443Y530809D01*
X1031950Y527510D01*
X1031951Y527508D01*
X1031951Y527506D01*
X1032025Y527391D01*
X1032103Y527270D01*
X1032104Y527269D01*
X1032105Y527267D01*
X1032208Y527178D01*
X1032316Y527083D01*
X1032318Y527082D01*
X1032319Y527081D01*
X1032446Y527021D01*
X1032573Y526962D01*
X1032575Y526961D01*
X1032577Y526960D01*
X1032716Y526939D01*
X1032854Y526917D01*
X1032856Y526917D01*
X1032858Y526916D01*
X1032997Y526934D01*
G37*
G36*
X423397Y1136534D02*
X423397Y1136534D01*
X423536Y1136551D01*
X423538Y1136552D01*
X423540Y1136552D01*
X423670Y1136608D01*
X423798Y1136662D01*
X423799Y1136664D01*
X423801Y1136664D01*
X423911Y1136755D01*
X424018Y1136842D01*
X424019Y1136844D01*
X424021Y1136845D01*
X424031Y1136860D01*
X424180Y1137076D01*
X424190Y1137105D01*
X424204Y1137126D01*
X440352Y1174210D01*
X440388Y1174338D01*
X440416Y1174411D01*
X441222Y1178331D01*
X441228Y1178425D01*
X441242Y1178489D01*
X441425Y1182487D01*
X441416Y1182580D01*
X441419Y1182647D01*
X440975Y1186624D01*
X440951Y1186714D01*
X440945Y1186780D01*
X439883Y1190639D01*
X439859Y1190695D01*
X439854Y1190716D01*
X439844Y1190732D01*
X439829Y1190789D01*
X438177Y1194434D01*
X438127Y1194513D01*
X438100Y1194574D01*
X435899Y1197916D01*
X435837Y1197986D01*
X435801Y1198042D01*
X433104Y1200998D01*
X433032Y1201058D01*
X432987Y1201107D01*
X429861Y1203605D01*
X429780Y1203653D01*
X429729Y1203695D01*
X426250Y1205673D01*
X426163Y1205707D01*
X426106Y1205741D01*
X422360Y1207150D01*
X422240Y1207177D01*
X422168Y1207202D01*
X418219Y1207854D01*
X418126Y1207856D01*
X418061Y1207867D01*
X414058Y1207894D01*
X413966Y1207881D01*
X413900Y1207882D01*
X409943Y1207282D01*
X409853Y1207255D01*
X409788Y1207246D01*
X405973Y1206034D01*
X405889Y1205994D01*
X405826Y1205974D01*
X402248Y1204181D01*
X402171Y1204128D01*
X402112Y1204098D01*
X398858Y1201767D01*
X398791Y1201703D01*
X398736Y1201665D01*
X395888Y1198853D01*
X395831Y1198779D01*
X395784Y1198733D01*
X393410Y1195511D01*
X393366Y1195428D01*
X393326Y1195375D01*
X391485Y1191822D01*
X391475Y1191791D01*
X391467Y1191779D01*
X391449Y1191722D01*
X391424Y1191675D01*
X390162Y1187877D01*
X390138Y1187746D01*
X390116Y1187671D01*
X385559Y1147481D01*
X385559Y1147479D01*
X385559Y1147477D01*
X385563Y1147332D01*
X385567Y1147197D01*
X385568Y1147195D01*
X385568Y1147193D01*
X385612Y1147054D01*
X385653Y1146926D01*
X385654Y1146925D01*
X385655Y1146923D01*
X385736Y1146803D01*
X385811Y1146690D01*
X385813Y1146689D01*
X385814Y1146687D01*
X385921Y1146597D01*
X386029Y1146507D01*
X386030Y1146506D01*
X386032Y1146504D01*
X386157Y1146449D01*
X386288Y1146391D01*
X386290Y1146390D01*
X386292Y1146390D01*
X386426Y1146371D01*
X386570Y1146351D01*
X386572Y1146352D01*
X386574Y1146352D01*
X386708Y1146371D01*
X386851Y1146392D01*
X386853Y1146393D01*
X386855Y1146393D01*
X386871Y1146401D01*
X387110Y1146509D01*
X387134Y1146529D01*
X387157Y1146540D01*
X390111Y1148643D01*
X393289Y1150213D01*
X396677Y1151256D01*
X400189Y1151746D01*
X403733Y1151669D01*
X407219Y1151028D01*
X410559Y1149840D01*
X413667Y1148134D01*
X416463Y1145955D01*
X418876Y1143357D01*
X420843Y1140409D01*
X422350Y1137110D01*
X422351Y1137108D01*
X422351Y1137106D01*
X422425Y1136991D01*
X422503Y1136870D01*
X422504Y1136869D01*
X422505Y1136867D01*
X422608Y1136778D01*
X422716Y1136683D01*
X422718Y1136682D01*
X422719Y1136681D01*
X422846Y1136621D01*
X422973Y1136562D01*
X422975Y1136561D01*
X422977Y1136560D01*
X423116Y1136539D01*
X423254Y1136517D01*
X423256Y1136517D01*
X423258Y1136516D01*
X423397Y1136534D01*
G37*
G36*
X575159Y881344D02*
X575159Y881344D01*
X575226Y881341D01*
X579203Y881785D01*
X579293Y881809D01*
X579359Y881815D01*
X583218Y882877D01*
X583304Y882914D01*
X583368Y882931D01*
X587013Y884583D01*
X587092Y884633D01*
X587153Y884660D01*
X590495Y886861D01*
X590565Y886923D01*
X590620Y886959D01*
X593577Y889656D01*
X593637Y889728D01*
X593686Y889773D01*
X596184Y892899D01*
X596232Y892980D01*
X596273Y893031D01*
X598252Y896510D01*
X598286Y896597D01*
X598320Y896654D01*
X599729Y900400D01*
X599756Y900520D01*
X599781Y900592D01*
X600094Y902487D01*
X600261Y903502D01*
X600433Y904541D01*
X600435Y904634D01*
X600446Y904699D01*
X600473Y908701D01*
X600460Y908794D01*
X600461Y908860D01*
X599861Y912817D01*
X599834Y912907D01*
X599825Y912972D01*
X598613Y916787D01*
X598573Y916871D01*
X598553Y916934D01*
X596760Y920512D01*
X596706Y920589D01*
X596677Y920648D01*
X594346Y923902D01*
X594282Y923969D01*
X594244Y924023D01*
X591432Y926872D01*
X591358Y926929D01*
X591312Y926976D01*
X588090Y929350D01*
X588007Y929394D01*
X587954Y929434D01*
X584401Y931275D01*
X584312Y931305D01*
X584254Y931336D01*
X580456Y932598D01*
X580325Y932622D01*
X580250Y932644D01*
X540060Y937201D01*
X540058Y937201D01*
X540056Y937201D01*
X539911Y937197D01*
X539776Y937193D01*
X539774Y937192D01*
X539772Y937192D01*
X539633Y937148D01*
X539505Y937107D01*
X539503Y937106D01*
X539502Y937105D01*
X539382Y937024D01*
X539269Y936949D01*
X539268Y936947D01*
X539266Y936946D01*
X539176Y936839D01*
X539085Y936731D01*
X539085Y936729D01*
X539083Y936728D01*
X539028Y936603D01*
X538970Y936472D01*
X538969Y936470D01*
X538969Y936468D01*
X538950Y936334D01*
X538930Y936190D01*
X538931Y936188D01*
X538930Y936186D01*
X538950Y936051D01*
X538971Y935909D01*
X538972Y935907D01*
X538972Y935905D01*
X538980Y935889D01*
X539031Y935775D01*
X539033Y935766D01*
X539040Y935756D01*
X539088Y935649D01*
X539108Y935626D01*
X539119Y935603D01*
X541222Y932649D01*
X542792Y929471D01*
X543835Y926083D01*
X544325Y922571D01*
X544248Y919027D01*
X543607Y915541D01*
X542419Y912201D01*
X540713Y909093D01*
X538534Y906297D01*
X535936Y903884D01*
X532988Y901917D01*
X529689Y900410D01*
X529687Y900409D01*
X529685Y900409D01*
X529570Y900335D01*
X529449Y900257D01*
X529448Y900256D01*
X529446Y900255D01*
X529357Y900152D01*
X529262Y900044D01*
X529261Y900042D01*
X529260Y900041D01*
X529200Y899914D01*
X529141Y899787D01*
X529140Y899785D01*
X529139Y899783D01*
X529118Y899644D01*
X529096Y899506D01*
X529096Y899504D01*
X529095Y899502D01*
X529113Y899363D01*
X529130Y899224D01*
X529131Y899222D01*
X529131Y899220D01*
X529187Y899090D01*
X529241Y898962D01*
X529243Y898961D01*
X529243Y898959D01*
X529334Y898849D01*
X529421Y898742D01*
X529423Y898741D01*
X529424Y898739D01*
X529439Y898729D01*
X529655Y898580D01*
X529684Y898570D01*
X529705Y898556D01*
X566789Y882408D01*
X566917Y882372D01*
X566990Y882344D01*
X570910Y881538D01*
X571004Y881532D01*
X571068Y881518D01*
X575066Y881335D01*
X575159Y881344D01*
G37*
G36*
X1184759Y881344D02*
X1184759Y881344D01*
X1184826Y881341D01*
X1188803Y881785D01*
X1188893Y881809D01*
X1188959Y881815D01*
X1192818Y882877D01*
X1192904Y882914D01*
X1192968Y882931D01*
X1196613Y884583D01*
X1196692Y884633D01*
X1196753Y884660D01*
X1200095Y886861D01*
X1200165Y886923D01*
X1200220Y886959D01*
X1203177Y889656D01*
X1203237Y889728D01*
X1203286Y889773D01*
X1205784Y892899D01*
X1205832Y892980D01*
X1205873Y893031D01*
X1207852Y896510D01*
X1207886Y896597D01*
X1207920Y896654D01*
X1209329Y900400D01*
X1209356Y900520D01*
X1209381Y900592D01*
X1209694Y902487D01*
X1209861Y903502D01*
X1210033Y904541D01*
X1210035Y904634D01*
X1210046Y904699D01*
X1210073Y908701D01*
X1210060Y908794D01*
X1210061Y908860D01*
X1209461Y912817D01*
X1209434Y912907D01*
X1209425Y912972D01*
X1208213Y916787D01*
X1208173Y916871D01*
X1208153Y916934D01*
X1206360Y920512D01*
X1206306Y920589D01*
X1206277Y920648D01*
X1203946Y923902D01*
X1203882Y923969D01*
X1203844Y924023D01*
X1201032Y926872D01*
X1200958Y926929D01*
X1200912Y926976D01*
X1197690Y929350D01*
X1197607Y929394D01*
X1197554Y929434D01*
X1194001Y931275D01*
X1193912Y931305D01*
X1193854Y931336D01*
X1190056Y932598D01*
X1189925Y932622D01*
X1189850Y932644D01*
X1149660Y937201D01*
X1149658Y937201D01*
X1149656Y937201D01*
X1149511Y937197D01*
X1149376Y937193D01*
X1149374Y937192D01*
X1149372Y937192D01*
X1149233Y937148D01*
X1149105Y937107D01*
X1149103Y937106D01*
X1149102Y937105D01*
X1148982Y937024D01*
X1148869Y936949D01*
X1148868Y936947D01*
X1148866Y936946D01*
X1148776Y936839D01*
X1148685Y936731D01*
X1148685Y936729D01*
X1148683Y936728D01*
X1148628Y936603D01*
X1148570Y936472D01*
X1148569Y936470D01*
X1148569Y936468D01*
X1148550Y936334D01*
X1148530Y936190D01*
X1148531Y936188D01*
X1148530Y936186D01*
X1148550Y936051D01*
X1148571Y935909D01*
X1148572Y935907D01*
X1148572Y935905D01*
X1148580Y935889D01*
X1148631Y935775D01*
X1148633Y935766D01*
X1148640Y935756D01*
X1148688Y935649D01*
X1148708Y935626D01*
X1148719Y935603D01*
X1150822Y932649D01*
X1152392Y929471D01*
X1153435Y926083D01*
X1153925Y922571D01*
X1153848Y919027D01*
X1153207Y915541D01*
X1152019Y912201D01*
X1150313Y909093D01*
X1148134Y906297D01*
X1145536Y903884D01*
X1142588Y901917D01*
X1139289Y900410D01*
X1139287Y900409D01*
X1139285Y900409D01*
X1139170Y900335D01*
X1139049Y900257D01*
X1139048Y900256D01*
X1139046Y900255D01*
X1138957Y900152D01*
X1138862Y900044D01*
X1138861Y900042D01*
X1138860Y900041D01*
X1138800Y899914D01*
X1138741Y899787D01*
X1138740Y899785D01*
X1138739Y899783D01*
X1138718Y899644D01*
X1138696Y899506D01*
X1138696Y899504D01*
X1138695Y899502D01*
X1138713Y899363D01*
X1138730Y899224D01*
X1138731Y899222D01*
X1138731Y899220D01*
X1138787Y899090D01*
X1138841Y898962D01*
X1138843Y898961D01*
X1138843Y898959D01*
X1138934Y898849D01*
X1139021Y898742D01*
X1139023Y898741D01*
X1139024Y898739D01*
X1139039Y898729D01*
X1139255Y898580D01*
X1139284Y898570D01*
X1139305Y898556D01*
X1176389Y882408D01*
X1176517Y882372D01*
X1176590Y882344D01*
X1180510Y881538D01*
X1180604Y881532D01*
X1180668Y881518D01*
X1184666Y881335D01*
X1184759Y881344D01*
G37*
G36*
X1184759Y271744D02*
X1184759Y271744D01*
X1184826Y271741D01*
X1188803Y272185D01*
X1188893Y272209D01*
X1188959Y272215D01*
X1192818Y273277D01*
X1192904Y273314D01*
X1192968Y273331D01*
X1196613Y274983D01*
X1196692Y275033D01*
X1196753Y275060D01*
X1200095Y277261D01*
X1200165Y277323D01*
X1200220Y277359D01*
X1203177Y280056D01*
X1203237Y280128D01*
X1203286Y280173D01*
X1205784Y283299D01*
X1205832Y283380D01*
X1205873Y283431D01*
X1207852Y286910D01*
X1207886Y286997D01*
X1207920Y287054D01*
X1209329Y290800D01*
X1209356Y290920D01*
X1209381Y290992D01*
X1209694Y292887D01*
X1209861Y293902D01*
X1210033Y294941D01*
X1210035Y295034D01*
X1210046Y295099D01*
X1210073Y299101D01*
X1210060Y299194D01*
X1210061Y299260D01*
X1209461Y303217D01*
X1209434Y303307D01*
X1209425Y303372D01*
X1208213Y307187D01*
X1208173Y307271D01*
X1208153Y307334D01*
X1206360Y310912D01*
X1206306Y310989D01*
X1206277Y311048D01*
X1203946Y314302D01*
X1203882Y314369D01*
X1203844Y314423D01*
X1201032Y317272D01*
X1200958Y317329D01*
X1200912Y317376D01*
X1197690Y319750D01*
X1197607Y319794D01*
X1197554Y319834D01*
X1194001Y321675D01*
X1193912Y321705D01*
X1193854Y321736D01*
X1190056Y322998D01*
X1189925Y323022D01*
X1189850Y323044D01*
X1149660Y327601D01*
X1149658Y327601D01*
X1149656Y327601D01*
X1149511Y327597D01*
X1149376Y327593D01*
X1149374Y327592D01*
X1149372Y327592D01*
X1149233Y327548D01*
X1149105Y327507D01*
X1149103Y327506D01*
X1149102Y327505D01*
X1148982Y327424D01*
X1148869Y327349D01*
X1148868Y327347D01*
X1148866Y327346D01*
X1148776Y327239D01*
X1148685Y327131D01*
X1148685Y327129D01*
X1148683Y327128D01*
X1148628Y327003D01*
X1148570Y326872D01*
X1148569Y326870D01*
X1148569Y326868D01*
X1148550Y326734D01*
X1148530Y326590D01*
X1148531Y326588D01*
X1148530Y326586D01*
X1148550Y326451D01*
X1148571Y326309D01*
X1148572Y326307D01*
X1148572Y326305D01*
X1148580Y326289D01*
X1148631Y326175D01*
X1148633Y326166D01*
X1148640Y326156D01*
X1148688Y326049D01*
X1148708Y326026D01*
X1148719Y326003D01*
X1150822Y323049D01*
X1152392Y319871D01*
X1153435Y316483D01*
X1153925Y312971D01*
X1153848Y309427D01*
X1153207Y305941D01*
X1152019Y302601D01*
X1150313Y299493D01*
X1148134Y296697D01*
X1145536Y294284D01*
X1142588Y292317D01*
X1139289Y290810D01*
X1139287Y290809D01*
X1139285Y290809D01*
X1139170Y290735D01*
X1139049Y290657D01*
X1139048Y290656D01*
X1139046Y290655D01*
X1138957Y290552D01*
X1138862Y290444D01*
X1138861Y290442D01*
X1138860Y290441D01*
X1138800Y290314D01*
X1138741Y290187D01*
X1138740Y290185D01*
X1138739Y290183D01*
X1138718Y290044D01*
X1138696Y289906D01*
X1138696Y289904D01*
X1138695Y289902D01*
X1138713Y289763D01*
X1138730Y289624D01*
X1138731Y289622D01*
X1138731Y289620D01*
X1138787Y289490D01*
X1138841Y289362D01*
X1138843Y289361D01*
X1138843Y289359D01*
X1138934Y289249D01*
X1139021Y289142D01*
X1139023Y289141D01*
X1139024Y289139D01*
X1139039Y289129D01*
X1139255Y288980D01*
X1139284Y288970D01*
X1139305Y288956D01*
X1176389Y272808D01*
X1176517Y272772D01*
X1176590Y272744D01*
X1180510Y271938D01*
X1180604Y271932D01*
X1180668Y271918D01*
X1184666Y271735D01*
X1184759Y271744D01*
G37*
G36*
X575159Y271744D02*
X575159Y271744D01*
X575226Y271741D01*
X579203Y272185D01*
X579293Y272209D01*
X579359Y272215D01*
X583218Y273277D01*
X583304Y273314D01*
X583368Y273331D01*
X587013Y274983D01*
X587092Y275033D01*
X587153Y275060D01*
X590495Y277261D01*
X590565Y277323D01*
X590620Y277359D01*
X593577Y280056D01*
X593637Y280128D01*
X593686Y280173D01*
X596184Y283299D01*
X596232Y283380D01*
X596273Y283431D01*
X598252Y286910D01*
X598286Y286997D01*
X598320Y287054D01*
X599729Y290800D01*
X599756Y290920D01*
X599781Y290992D01*
X600094Y292887D01*
X600261Y293902D01*
X600433Y294941D01*
X600435Y295034D01*
X600446Y295099D01*
X600473Y299101D01*
X600460Y299194D01*
X600461Y299260D01*
X599861Y303217D01*
X599834Y303307D01*
X599825Y303372D01*
X598613Y307187D01*
X598573Y307271D01*
X598553Y307334D01*
X596760Y310912D01*
X596706Y310989D01*
X596677Y311048D01*
X594346Y314302D01*
X594282Y314369D01*
X594244Y314423D01*
X591432Y317272D01*
X591358Y317329D01*
X591312Y317376D01*
X588090Y319750D01*
X588007Y319794D01*
X587954Y319834D01*
X584401Y321675D01*
X584312Y321705D01*
X584254Y321736D01*
X580456Y322998D01*
X580325Y323022D01*
X580250Y323044D01*
X540060Y327601D01*
X540058Y327601D01*
X540056Y327601D01*
X539911Y327597D01*
X539776Y327593D01*
X539774Y327592D01*
X539772Y327592D01*
X539633Y327548D01*
X539505Y327507D01*
X539503Y327506D01*
X539502Y327505D01*
X539382Y327424D01*
X539269Y327349D01*
X539268Y327347D01*
X539266Y327346D01*
X539176Y327239D01*
X539085Y327131D01*
X539085Y327129D01*
X539083Y327128D01*
X539028Y327003D01*
X538970Y326872D01*
X538969Y326870D01*
X538969Y326868D01*
X538950Y326734D01*
X538930Y326590D01*
X538931Y326588D01*
X538930Y326586D01*
X538950Y326451D01*
X538971Y326309D01*
X538972Y326307D01*
X538972Y326305D01*
X538980Y326289D01*
X539031Y326175D01*
X539033Y326166D01*
X539040Y326156D01*
X539088Y326049D01*
X539108Y326026D01*
X539119Y326003D01*
X541222Y323049D01*
X542792Y319871D01*
X543835Y316483D01*
X544325Y312971D01*
X544248Y309427D01*
X543607Y305941D01*
X542419Y302601D01*
X540713Y299493D01*
X538534Y296697D01*
X535936Y294284D01*
X532988Y292317D01*
X529689Y290810D01*
X529687Y290809D01*
X529685Y290809D01*
X529570Y290735D01*
X529449Y290657D01*
X529448Y290656D01*
X529446Y290655D01*
X529357Y290552D01*
X529262Y290444D01*
X529261Y290442D01*
X529260Y290441D01*
X529200Y290314D01*
X529141Y290187D01*
X529140Y290185D01*
X529139Y290183D01*
X529118Y290044D01*
X529096Y289906D01*
X529096Y289904D01*
X529095Y289902D01*
X529113Y289763D01*
X529130Y289624D01*
X529131Y289622D01*
X529131Y289620D01*
X529187Y289490D01*
X529241Y289362D01*
X529243Y289361D01*
X529243Y289359D01*
X529334Y289249D01*
X529421Y289142D01*
X529423Y289141D01*
X529424Y289139D01*
X529439Y289129D01*
X529655Y288980D01*
X529684Y288970D01*
X529705Y288956D01*
X566789Y272808D01*
X566917Y272772D01*
X566990Y272744D01*
X570910Y271938D01*
X571004Y271932D01*
X571068Y271918D01*
X575066Y271735D01*
X575159Y271744D01*
G37*
G36*
X175428Y383384D02*
X175428Y383384D01*
X175563Y383388D01*
X175565Y383389D01*
X175567Y383389D01*
X175706Y383433D01*
X175834Y383474D01*
X175835Y383475D01*
X175837Y383476D01*
X175957Y383557D01*
X176070Y383632D01*
X176071Y383634D01*
X176073Y383635D01*
X176163Y383742D01*
X176253Y383850D01*
X176254Y383851D01*
X176255Y383853D01*
X176311Y383978D01*
X176369Y384109D01*
X176370Y384111D01*
X176370Y384113D01*
X176388Y384247D01*
X176408Y384391D01*
X176408Y384393D01*
X176408Y384395D01*
X176389Y384529D01*
X176368Y384672D01*
X176367Y384674D01*
X176367Y384676D01*
X176359Y384692D01*
X176251Y384931D01*
X176231Y384955D01*
X176220Y384978D01*
X174117Y387932D01*
X172547Y391110D01*
X171504Y394498D01*
X171014Y398010D01*
X171091Y401554D01*
X171732Y405040D01*
X172920Y408380D01*
X174626Y411488D01*
X176805Y414284D01*
X179403Y416697D01*
X182351Y418664D01*
X185650Y420171D01*
X185652Y420172D01*
X185654Y420172D01*
X185768Y420246D01*
X185890Y420324D01*
X185891Y420325D01*
X185892Y420326D01*
X185982Y420429D01*
X186077Y420537D01*
X186078Y420539D01*
X186079Y420540D01*
X186138Y420667D01*
X186198Y420794D01*
X186199Y420796D01*
X186200Y420798D01*
X186221Y420937D01*
X186243Y421075D01*
X186243Y421077D01*
X186243Y421079D01*
X186226Y421218D01*
X186209Y421357D01*
X186208Y421359D01*
X186208Y421361D01*
X186152Y421491D01*
X186097Y421619D01*
X186096Y421620D01*
X186095Y421622D01*
X186005Y421732D01*
X185918Y421839D01*
X185916Y421840D01*
X185915Y421842D01*
X185900Y421852D01*
X185684Y422001D01*
X185655Y422011D01*
X185634Y422025D01*
X148550Y438173D01*
X148422Y438209D01*
X148349Y438237D01*
X144429Y439043D01*
X144335Y439049D01*
X144271Y439063D01*
X140273Y439246D01*
X140180Y439237D01*
X140113Y439240D01*
X136136Y438796D01*
X136046Y438772D01*
X135980Y438766D01*
X132121Y437704D01*
X132035Y437667D01*
X131971Y437650D01*
X128326Y435998D01*
X128247Y435948D01*
X128186Y435921D01*
X124844Y433720D01*
X124774Y433658D01*
X124718Y433622D01*
X121762Y430925D01*
X121702Y430853D01*
X121653Y430808D01*
X119155Y427682D01*
X119107Y427601D01*
X119065Y427550D01*
X117087Y424071D01*
X117053Y423984D01*
X117019Y423927D01*
X115610Y420181D01*
X115583Y420061D01*
X115558Y419989D01*
X115407Y419075D01*
X115072Y417045D01*
X114906Y416040D01*
X114904Y415947D01*
X114893Y415882D01*
X114866Y411879D01*
X114879Y411787D01*
X114878Y411721D01*
X115478Y407764D01*
X115505Y407674D01*
X115514Y407609D01*
X116726Y403794D01*
X116766Y403710D01*
X116786Y403647D01*
X118579Y400069D01*
X118632Y399992D01*
X118662Y399933D01*
X120993Y396679D01*
X121057Y396612D01*
X121095Y396557D01*
X123907Y393709D01*
X123981Y393652D01*
X124027Y393605D01*
X127249Y391231D01*
X127332Y391187D01*
X127385Y391147D01*
X130938Y389306D01*
X131027Y389275D01*
X131085Y389245D01*
X134883Y387983D01*
X135014Y387959D01*
X135089Y387937D01*
X175279Y383380D01*
X175281Y383380D01*
X175283Y383380D01*
X175428Y383384D01*
G37*
G36*
X785028Y383384D02*
X785028Y383384D01*
X785163Y383388D01*
X785165Y383389D01*
X785167Y383389D01*
X785306Y383433D01*
X785434Y383474D01*
X785435Y383475D01*
X785437Y383476D01*
X785557Y383557D01*
X785670Y383632D01*
X785671Y383634D01*
X785673Y383635D01*
X785763Y383742D01*
X785853Y383850D01*
X785854Y383851D01*
X785855Y383853D01*
X785911Y383978D01*
X785969Y384109D01*
X785970Y384111D01*
X785970Y384113D01*
X785988Y384247D01*
X786008Y384391D01*
X786008Y384393D01*
X786008Y384395D01*
X785989Y384529D01*
X785968Y384672D01*
X785967Y384674D01*
X785967Y384676D01*
X785959Y384692D01*
X785851Y384931D01*
X785831Y384955D01*
X785820Y384978D01*
X783717Y387932D01*
X782147Y391110D01*
X781104Y394498D01*
X780614Y398010D01*
X780691Y401554D01*
X781332Y405040D01*
X782520Y408380D01*
X784226Y411488D01*
X786405Y414284D01*
X789003Y416697D01*
X791951Y418664D01*
X795250Y420171D01*
X795252Y420172D01*
X795254Y420172D01*
X795368Y420246D01*
X795490Y420324D01*
X795491Y420325D01*
X795492Y420326D01*
X795582Y420429D01*
X795677Y420537D01*
X795678Y420539D01*
X795679Y420540D01*
X795738Y420667D01*
X795798Y420794D01*
X795799Y420796D01*
X795800Y420798D01*
X795821Y420937D01*
X795843Y421075D01*
X795843Y421077D01*
X795843Y421079D01*
X795826Y421218D01*
X795809Y421357D01*
X795808Y421359D01*
X795808Y421361D01*
X795752Y421491D01*
X795697Y421619D01*
X795696Y421620D01*
X795695Y421622D01*
X795605Y421732D01*
X795518Y421839D01*
X795516Y421840D01*
X795515Y421842D01*
X795500Y421852D01*
X795284Y422001D01*
X795255Y422011D01*
X795234Y422025D01*
X758150Y438173D01*
X758022Y438209D01*
X757949Y438237D01*
X754029Y439043D01*
X753935Y439049D01*
X753871Y439063D01*
X749873Y439246D01*
X749780Y439237D01*
X749713Y439240D01*
X745736Y438796D01*
X745646Y438772D01*
X745580Y438766D01*
X741721Y437704D01*
X741635Y437667D01*
X741571Y437650D01*
X737926Y435998D01*
X737847Y435948D01*
X737786Y435921D01*
X734444Y433720D01*
X734374Y433658D01*
X734318Y433622D01*
X731362Y430925D01*
X731302Y430853D01*
X731253Y430808D01*
X728755Y427682D01*
X728707Y427601D01*
X728665Y427550D01*
X726687Y424071D01*
X726653Y423984D01*
X726619Y423927D01*
X725210Y420181D01*
X725183Y420061D01*
X725158Y419989D01*
X725007Y419075D01*
X724672Y417045D01*
X724506Y416040D01*
X724504Y415947D01*
X724493Y415882D01*
X724466Y411879D01*
X724479Y411787D01*
X724478Y411721D01*
X725078Y407764D01*
X725105Y407674D01*
X725114Y407609D01*
X726326Y403794D01*
X726366Y403710D01*
X726386Y403647D01*
X728179Y400069D01*
X728232Y399992D01*
X728262Y399933D01*
X730593Y396679D01*
X730657Y396612D01*
X730695Y396557D01*
X733507Y393709D01*
X733581Y393652D01*
X733627Y393605D01*
X736849Y391231D01*
X736932Y391187D01*
X736985Y391147D01*
X740538Y389306D01*
X740627Y389275D01*
X740685Y389245D01*
X744483Y387983D01*
X744614Y387959D01*
X744689Y387937D01*
X784879Y383380D01*
X784881Y383380D01*
X784883Y383380D01*
X785028Y383384D01*
G37*
G36*
X175428Y992984D02*
X175428Y992984D01*
X175563Y992988D01*
X175565Y992989D01*
X175567Y992989D01*
X175706Y993033D01*
X175834Y993074D01*
X175835Y993075D01*
X175837Y993076D01*
X175957Y993157D01*
X176070Y993232D01*
X176071Y993234D01*
X176073Y993235D01*
X176163Y993342D01*
X176253Y993450D01*
X176254Y993451D01*
X176255Y993453D01*
X176311Y993578D01*
X176369Y993709D01*
X176370Y993711D01*
X176370Y993713D01*
X176388Y993847D01*
X176408Y993991D01*
X176408Y993993D01*
X176408Y993995D01*
X176389Y994129D01*
X176368Y994272D01*
X176367Y994274D01*
X176367Y994276D01*
X176359Y994292D01*
X176251Y994531D01*
X176231Y994555D01*
X176220Y994578D01*
X174117Y997532D01*
X172547Y1000710D01*
X171504Y1004098D01*
X171014Y1007610D01*
X171091Y1011154D01*
X171732Y1014640D01*
X172920Y1017980D01*
X174626Y1021088D01*
X176805Y1023884D01*
X179403Y1026297D01*
X182351Y1028264D01*
X185650Y1029771D01*
X185652Y1029772D01*
X185654Y1029772D01*
X185768Y1029846D01*
X185890Y1029924D01*
X185891Y1029925D01*
X185892Y1029926D01*
X185982Y1030029D01*
X186077Y1030137D01*
X186078Y1030139D01*
X186079Y1030140D01*
X186138Y1030267D01*
X186198Y1030394D01*
X186199Y1030396D01*
X186200Y1030398D01*
X186221Y1030537D01*
X186243Y1030675D01*
X186243Y1030677D01*
X186243Y1030679D01*
X186226Y1030818D01*
X186209Y1030957D01*
X186208Y1030959D01*
X186208Y1030961D01*
X186152Y1031091D01*
X186097Y1031219D01*
X186096Y1031220D01*
X186095Y1031222D01*
X186005Y1031332D01*
X185918Y1031439D01*
X185916Y1031440D01*
X185915Y1031442D01*
X185900Y1031452D01*
X185684Y1031601D01*
X185655Y1031611D01*
X185634Y1031625D01*
X148550Y1047773D01*
X148422Y1047809D01*
X148349Y1047837D01*
X144429Y1048643D01*
X144335Y1048649D01*
X144271Y1048663D01*
X140273Y1048846D01*
X140180Y1048837D01*
X140113Y1048840D01*
X136136Y1048396D01*
X136046Y1048372D01*
X135980Y1048366D01*
X132121Y1047304D01*
X132035Y1047267D01*
X131971Y1047250D01*
X128326Y1045598D01*
X128247Y1045548D01*
X128186Y1045521D01*
X124844Y1043320D01*
X124774Y1043258D01*
X124718Y1043222D01*
X121762Y1040525D01*
X121702Y1040453D01*
X121653Y1040408D01*
X119155Y1037282D01*
X119107Y1037201D01*
X119065Y1037150D01*
X117087Y1033671D01*
X117053Y1033584D01*
X117019Y1033527D01*
X115610Y1029781D01*
X115583Y1029661D01*
X115558Y1029589D01*
X115407Y1028675D01*
X115072Y1026645D01*
X114906Y1025640D01*
X114904Y1025547D01*
X114893Y1025482D01*
X114866Y1021479D01*
X114879Y1021387D01*
X114878Y1021321D01*
X115478Y1017364D01*
X115505Y1017274D01*
X115514Y1017209D01*
X116726Y1013394D01*
X116766Y1013310D01*
X116786Y1013247D01*
X118579Y1009669D01*
X118632Y1009592D01*
X118662Y1009533D01*
X120993Y1006279D01*
X121057Y1006212D01*
X121095Y1006157D01*
X123907Y1003309D01*
X123981Y1003252D01*
X124027Y1003205D01*
X127249Y1000831D01*
X127332Y1000787D01*
X127385Y1000747D01*
X130938Y998906D01*
X131027Y998875D01*
X131085Y998845D01*
X134883Y997583D01*
X135014Y997559D01*
X135089Y997537D01*
X175279Y992980D01*
X175281Y992980D01*
X175283Y992980D01*
X175428Y992984D01*
G37*
G36*
X785028Y992984D02*
X785028Y992984D01*
X785163Y992988D01*
X785165Y992989D01*
X785167Y992989D01*
X785306Y993033D01*
X785434Y993074D01*
X785435Y993075D01*
X785437Y993076D01*
X785557Y993157D01*
X785670Y993232D01*
X785671Y993234D01*
X785673Y993235D01*
X785763Y993342D01*
X785853Y993450D01*
X785854Y993451D01*
X785855Y993453D01*
X785911Y993578D01*
X785969Y993709D01*
X785970Y993711D01*
X785970Y993713D01*
X785988Y993847D01*
X786008Y993991D01*
X786008Y993993D01*
X786008Y993995D01*
X785989Y994129D01*
X785968Y994272D01*
X785967Y994274D01*
X785967Y994276D01*
X785959Y994292D01*
X785851Y994531D01*
X785831Y994555D01*
X785820Y994578D01*
X783717Y997532D01*
X782147Y1000710D01*
X781104Y1004098D01*
X780614Y1007610D01*
X780691Y1011154D01*
X781332Y1014640D01*
X782520Y1017980D01*
X784226Y1021088D01*
X786405Y1023884D01*
X789003Y1026297D01*
X791951Y1028264D01*
X795250Y1029771D01*
X795252Y1029772D01*
X795254Y1029772D01*
X795368Y1029846D01*
X795490Y1029924D01*
X795491Y1029925D01*
X795492Y1029926D01*
X795582Y1030029D01*
X795677Y1030137D01*
X795678Y1030139D01*
X795679Y1030140D01*
X795738Y1030267D01*
X795798Y1030394D01*
X795799Y1030396D01*
X795800Y1030398D01*
X795821Y1030537D01*
X795843Y1030675D01*
X795843Y1030677D01*
X795843Y1030679D01*
X795826Y1030818D01*
X795809Y1030957D01*
X795808Y1030959D01*
X795808Y1030961D01*
X795752Y1031091D01*
X795697Y1031219D01*
X795696Y1031220D01*
X795695Y1031222D01*
X795605Y1031332D01*
X795518Y1031439D01*
X795516Y1031440D01*
X795515Y1031442D01*
X795500Y1031452D01*
X795284Y1031601D01*
X795255Y1031611D01*
X795234Y1031625D01*
X758150Y1047773D01*
X758022Y1047809D01*
X757949Y1047837D01*
X754029Y1048643D01*
X753935Y1048649D01*
X753871Y1048663D01*
X749873Y1048846D01*
X749780Y1048837D01*
X749713Y1048840D01*
X745736Y1048396D01*
X745646Y1048372D01*
X745580Y1048366D01*
X741721Y1047304D01*
X741635Y1047267D01*
X741571Y1047250D01*
X737926Y1045598D01*
X737847Y1045548D01*
X737786Y1045521D01*
X734444Y1043320D01*
X734374Y1043258D01*
X734318Y1043222D01*
X731362Y1040525D01*
X731302Y1040453D01*
X731253Y1040408D01*
X728755Y1037282D01*
X728707Y1037201D01*
X728665Y1037150D01*
X726687Y1033671D01*
X726653Y1033584D01*
X726619Y1033527D01*
X725210Y1029781D01*
X725183Y1029661D01*
X725158Y1029589D01*
X725007Y1028675D01*
X724672Y1026645D01*
X724506Y1025640D01*
X724504Y1025547D01*
X724493Y1025482D01*
X724466Y1021479D01*
X724479Y1021387D01*
X724478Y1021321D01*
X725078Y1017364D01*
X725105Y1017274D01*
X725114Y1017209D01*
X726326Y1013394D01*
X726366Y1013310D01*
X726386Y1013247D01*
X728179Y1009669D01*
X728232Y1009592D01*
X728262Y1009533D01*
X730593Y1006279D01*
X730657Y1006212D01*
X730695Y1006157D01*
X733507Y1003309D01*
X733581Y1003252D01*
X733627Y1003205D01*
X736849Y1000831D01*
X736932Y1000787D01*
X736985Y1000747D01*
X740538Y998906D01*
X740627Y998875D01*
X740685Y998845D01*
X744483Y997583D01*
X744614Y997559D01*
X744689Y997537D01*
X784879Y992980D01*
X784881Y992980D01*
X784883Y992980D01*
X785028Y992984D01*
G37*
D10*
X145827Y411981D03*
X145827Y299000D03*
X301179Y143648D03*
X569512Y299000D03*
X513021Y510842D03*
X569512Y411981D03*
X202318Y200139D03*
X414160Y567333D03*
X301179Y567333D03*
X513021Y200139D03*
X414160Y143648D03*
D11*
X436865Y455900D03*
X458079Y434686D03*
X225016Y515014D03*
X198146Y488144D03*
D10*
X755427Y411981D03*
X755427Y299000D03*
X910779Y143648D03*
X1179112Y299000D03*
X1122621Y510842D03*
X1179112Y411981D03*
X811918Y200139D03*
X1023760Y567333D03*
X910779Y567333D03*
X1122621Y200139D03*
X1023760Y143648D03*
D11*
X1046465Y455900D03*
X1067679Y434686D03*
X834616Y515014D03*
X807746Y488144D03*
D10*
X755427Y1021581D03*
X755427Y908600D03*
X910779Y753248D03*
X1179112Y908600D03*
X1122621Y1120442D03*
X1179112Y1021581D03*
X811918Y809739D03*
X1023760Y1176933D03*
X910779Y1176933D03*
X1122621Y809739D03*
X1023760Y753248D03*
D11*
X1046465Y1065500D03*
X1067679Y1044286D03*
X834616Y1124614D03*
X807746Y1097744D03*
D10*
X145827Y1021581D03*
X145827Y908600D03*
X301179Y753248D03*
X569512Y908600D03*
X513021Y1120442D03*
X569512Y1021581D03*
X202318Y809739D03*
X414160Y1176933D03*
X301179Y1176933D03*
X513021Y809739D03*
X414160Y753248D03*
D11*
X436865Y1065500D03*
X458079Y1044286D03*
X225016Y1124614D03*
X198146Y1097744D03*
D12*
X371140Y467744D03*
D13*
X231048Y464152D03*
X195127Y428231D03*
X249008Y446191D03*
X213087Y446191D03*
X231048Y428231D03*
X213087Y410270D03*
D12*
X980740Y467744D03*
D13*
X840648Y464152D03*
X804727Y428231D03*
X858608Y446191D03*
X822687Y446191D03*
X840648Y428231D03*
X822687Y410270D03*
D12*
X980740Y1077344D03*
D13*
X840648Y1073752D03*
X804727Y1037831D03*
X858608Y1055791D03*
X822687Y1055791D03*
X840648Y1037831D03*
X822687Y1019870D03*
D12*
X371140Y1077344D03*
D13*
X231048Y1073752D03*
X195127Y1037831D03*
X249008Y1055791D03*
X213087Y1055791D03*
X231048Y1037831D03*
X213087Y1019870D03*
M02*
